<svg width="297" height="360" viewBox="0 0 297 360" fill="none" xmlns="http://www.w3.org/2000/svg">
<path d="M294.529 3.63368C295.295 4.80619 295.01 5.34267 295.01 7.00742C295.01 8.67217 293.128 8.66664 293.128 10.3314C293.128 11.9961 296.505 11.9906 296.505 13.6553C296.505 15.3201 292.698 15.3201 292.698 16.9793C292.698 18.6385 293.225 18.6441 293.225 20.3033C293.225 21.9625 292.12 21.968 292.12 23.6272C292.12 25.2864 295.208 25.292 295.208 26.9512C295.208 28.6104 296.563 28.6159 296.563 30.2752C296.563 31.9344 294.244 31.9344 294.244 33.5991C294.244 35.2639 292.571 35.2583 292.571 36.9231C292.571 38.5878 294.132 38.5823 294.132 40.247C294.132 41.9118 294.88 41.9063 294.88 43.571C294.88 45.2357 296.527 45.2302 296.527 46.895C296.527 48.5597 294.988 48.5542 294.988 50.2189C294.988 51.8837 296.581 51.8781 296.581 53.5429C296.581 55.2076 293.03 55.2076 293.03 56.8668C293.03 58.5261 292.123 58.5316 292.123 60.1908C292.123 61.85 296.288 61.8556 296.288 63.5148C296.288 65.174 295.02 65.1795 295.02 66.8387C295.02 68.4979 293.117 68.5035 293.117 70.1627C293.117 71.8219 296.339 71.8219 296.339 73.4867C296.339 75.1514 294.793 75.1459 294.793 76.8106C294.793 78.4754 293.265 78.4698 293.265 80.1346C293.265 81.7993 292.951 81.7938 292.951 83.4585C292.951 85.1233 292.777 85.1233 292.777 86.7825C292.777 88.4417 296.83 88.4473 296.83 90.1065C296.83 91.7657 294.645 91.7712 294.645 93.4304C294.645 95.0896 295.237 95.0952 295.237 96.7544C295.237 98.4136 294.24 98.4191 294.24 100.078C294.24 101.738 292.214 101.743 292.214 103.402C292.214 105.062 296.176 105.067 296.176 106.726C296.176 108.385 295.541 108.391 295.541 110.05C295.541 111.709 292.77 111.715 292.77 113.374C292.77 115.033 294.843 115.039 294.843 116.698C294.843 118.357 295.786 118.363 295.786 120.022C295.786 121.681 295.905 121.687 295.905 123.346C295.905 125.005 294.265 125.011 294.265 126.67C294.265 128.329 294.327 128.335 294.327 129.994C294.327 131.653 296.989 131.659 296.989 133.318C296.989 134.977 292.506 134.983 292.506 136.642C292.506 138.301 296.888 138.307 296.888 139.966C296.888 141.625 295.812 141.631 295.812 143.29C295.812 144.949 292.846 144.955 292.846 146.614C292.846 148.273 294.367 148.279 294.367 149.938C294.367 151.597 292.445 151.603 292.445 153.262C292.445 154.921 293.922 154.926 293.922 156.586C293.922 158.245 294.442 158.25 294.442 159.91C294.442 161.569 296.169 161.574 296.169 163.234C296.169 164.893 296.567 164.898 296.567 166.558C296.567 168.217 292.206 168.222 292.206 169.882C292.206 171.541 294.699 171.546 294.699 173.206C294.699 174.865 292.56 174.87 292.56 176.529C292.56 178.189 294.724 178.194 294.724 179.853C294.724 181.513 294.963 181.518 294.963 183.177C294.963 184.837 293.492 184.842 293.492 186.501C293.492 188.161 292.394 188.166 292.394 189.825C292.394 191.485 297 191.49 297 193.149C297 194.809 296.837 194.814 296.837 196.473C296.837 198.132 295.067 198.138 295.067 199.803C295.067 201.467 293.868 201.467 293.868 203.127C293.868 204.786 292.582 204.791 292.582 206.451C292.582 208.11 293.156 208.115 293.156 209.775C293.156 211.434 292.463 211.439 292.463 213.104C292.463 214.769 295.291 214.769 295.291 216.428C295.291 218.087 296.881 218.093 296.881 219.752C296.881 221.411 295.945 221.417 295.945 223.076C295.945 224.735 296.653 224.741 296.653 226.4C296.653 228.059 292.387 228.065 292.387 229.724C292.387 231.383 292.369 231.389 292.369 233.048C292.369 234.707 292.582 234.713 292.582 236.377C292.582 238.042 293.561 238.042 293.561 239.701C293.561 241.361 296.343 241.366 296.343 243.031C296.343 244.696 296.527 244.696 296.527 246.355C296.527 248.014 293.944 248.02 293.944 249.679C293.944 251.338 292.9 251.338 292.9 253.003C292.9 254.667 293.193 254.667 293.193 256.327C293.193 257.986 292.17 257.991 292.17 259.656C292.17 261.321 292.589 261.321 292.589 262.98C292.589 264.639 296.35 264.645 296.35 266.304C296.35 267.963 295.093 267.969 295.093 269.628C295.093 271.287 294.067 271.293 294.067 272.958C294.067 274.622 293.063 274.622 293.063 276.282C293.063 277.941 293.384 277.946 293.384 279.605C293.384 281.265 292.752 281.27 292.752 282.935C292.752 284.6 292.178 284.6 292.178 286.259C292.178 287.918 295.559 287.924 295.559 289.588C295.559 291.253 294.359 291.253 294.359 292.912C294.359 294.572 295.049 294.577 295.049 296.242C295.049 297.907 294.829 297.907 294.829 299.571C294.829 301.236 293.832 301.236 293.832 302.901C293.832 304.566 296.722 304.566 296.722 306.23C296.722 307.895 295.378 307.895 295.378 309.56C295.378 311.225 293.052 311.225 293.052 312.889C293.052 314.554 295.071 314.554 295.071 316.219C295.071 317.884 295.111 317.884 295.111 319.548C295.111 321.213 295.169 321.213 295.169 322.878C295.169 324.543 293.594 324.543 293.594 326.202C293.594 327.861 296.194 327.867 296.194 329.531C296.194 331.196 296.989 331.196 296.989 332.861C296.989 334.526 294.916 334.526 294.916 336.19C294.916 337.855 292.38 337.855 292.38 339.52C292.38 341.185 295.049 341.185 295.049 342.849C295.049 344.514 292.705 344.514 292.705 346.179C292.705 347.843 292.102 347.843 292.102 349.508C292.102 351.173 295.418 351.173 295.418 352.843C295.418 354.514 296.509 356.881 295.743 358.064C294.977 359.248 293.42 354.375 292.34 354.375C291.26 354.375 291.26 353.076 290.176 353.076C289.093 353.076 289.096 356.062 288.012 356.062C286.929 356.062 286.932 355.614 285.849 355.614C284.765 355.614 284.769 355.664 283.685 355.664C282.601 355.664 282.605 354.11 281.521 354.11C280.437 354.11 280.441 355.459 279.357 355.459C278.274 355.459 278.277 354.862 277.194 354.862C276.11 354.862 276.113 353.136 275.03 353.136C273.946 353.136 273.95 356.228 272.866 356.228C271.782 356.228 271.786 353.385 270.702 353.385C269.618 353.385 269.622 358.424 268.538 358.424C267.455 358.424 267.458 354.32 266.375 354.32C265.291 354.32 265.294 356.167 264.214 356.167C263.134 356.167 263.134 355.343 262.054 355.343C260.974 355.343 260.974 356.383 259.894 356.383C258.814 356.383 258.814 356.322 257.734 356.322C256.654 356.322 256.654 359.292 255.57 359.292C254.486 359.292 254.49 358.501 253.406 358.501C252.322 358.501 252.326 356.709 251.242 356.709C250.159 356.709 250.162 354.187 249.079 354.187C247.995 354.187 247.999 357.611 246.915 357.611C245.831 357.611 245.835 357.318 244.751 357.318C243.667 357.318 243.671 357.732 242.591 357.732C241.511 357.732 241.511 359.591 240.431 359.591C239.351 359.591 239.351 352.959 238.27 352.959C237.19 352.959 237.19 352.871 236.11 352.871C235.03 352.871 235.03 352.86 233.95 352.86C232.87 352.86 232.87 359.48 231.79 359.48C230.71 359.48 230.71 353.938 229.63 353.938C228.55 353.938 228.55 359.381 227.47 359.381C226.389 359.381 226.389 359.983 225.306 359.983C224.222 359.983 224.226 357.224 223.142 357.224C222.058 357.224 222.062 356.543 220.978 356.543C219.894 356.543 219.898 358.756 218.814 358.756C217.731 358.756 217.734 355.797 216.651 355.797C215.567 355.797 215.57 356.062 214.487 356.062C213.403 356.062 213.407 353.219 212.323 353.219C211.239 353.219 211.243 359.287 210.163 359.287C209.083 359.287 209.083 355.304 208.003 355.304C206.923 355.304 206.923 357.81 205.842 357.81C204.762 357.81 204.762 357.08 203.682 357.08C202.602 357.08 202.602 354.469 201.522 354.469C200.442 354.469 200.442 354.171 199.358 354.171C198.275 354.171 198.278 352.766 197.194 352.766C196.111 352.766 196.114 354.37 195.031 354.37C193.947 354.37 193.951 353.518 192.867 353.518C191.783 353.518 191.787 358.667 190.703 358.667C189.619 358.667 189.623 358.247 188.539 358.247C187.456 358.247 187.459 357.743 186.375 357.743C185.292 357.743 185.295 357.036 184.212 357.036C183.128 357.036 183.132 352.445 182.048 352.445C180.964 352.445 180.968 357.815 179.884 357.815C178.8 357.815 178.804 357.307 177.72 357.307C176.637 357.307 176.64 356.494 175.556 356.494C174.473 356.494 174.476 355.36 173.393 355.36C172.309 355.36 172.309 353.551 171.229 353.551C170.149 353.551 170.149 357.511 169.065 357.511C167.981 357.511 167.985 354.807 166.901 354.807C165.818 354.807 165.821 353.723 164.738 353.723C163.654 353.723 163.657 352.357 162.574 352.357C161.49 352.357 161.494 358.662 160.41 358.662C159.326 358.662 159.33 355.05 158.246 355.05C157.162 355.05 157.166 357.915 156.082 357.915C154.999 357.915 154.999 359.314 153.919 359.314C152.838 359.314 152.838 355.133 151.755 355.133C150.671 355.133 150.675 353.385 149.591 353.385C148.507 353.385 148.511 359.076 147.427 359.076C146.343 359.076 146.347 354.016 145.263 354.016C144.18 354.016 144.183 356.145 143.1 356.145C142.016 356.145 142.019 352.843 140.936 352.843C139.852 352.843 139.852 355.531 138.772 355.531C137.692 355.531 137.692 353.739 136.608 353.739C135.524 353.739 135.528 353.949 134.444 353.949C133.361 353.949 133.364 356.632 132.281 356.632C131.197 356.632 131.2 352.323 130.117 352.323C129.033 352.323 129.037 353.64 127.953 353.64C126.869 353.64 126.869 353.883 125.789 353.883C124.709 353.883 124.705 357.655 123.625 357.655C122.545 357.655 122.545 357.434 121.462 357.434C120.378 357.434 120.381 356.206 119.298 356.206C118.214 356.206 118.218 359.994 117.134 359.994C116.05 359.994 116.05 352.539 114.97 352.539C113.89 352.539 113.886 355.465 112.806 355.465C111.726 355.465 111.726 357.572 110.643 357.572C109.559 357.572 109.563 353.313 108.479 353.313C107.395 353.313 107.399 358.131 106.315 358.131C105.231 358.131 105.231 359.762 104.151 359.762C103.071 359.762 103.071 355.813 101.987 355.813C100.904 355.813 100.907 357.849 99.8236 357.849C98.7399 357.849 98.7435 358.169 97.6598 358.169C96.5761 358.169 96.5761 353.463 95.496 353.463C94.4159 353.463 94.4123 357.279 93.3322 357.279C92.2521 357.279 92.2521 352.633 91.1684 352.633C90.0847 352.633 90.0847 359.419 89.0046 359.419C87.9245 359.419 87.9209 359.834 86.8408 359.834C85.7607 359.834 85.7608 353.103 84.677 353.103C83.5933 353.103 83.5933 357.091 82.5132 357.091C81.4332 357.091 81.4295 353.23 80.3495 353.23C79.2694 353.23 79.2657 359.37 78.1857 359.37C77.1056 359.37 77.102 358.097 76.0219 358.097C74.9418 358.097 74.9418 355.172 73.8581 355.172C72.7744 355.172 72.778 354.143 71.6943 354.143C70.6106 354.143 70.6142 356.018 69.5305 356.018C68.4468 356.018 68.4504 352.556 67.3667 352.556C66.283 352.556 66.283 354.646 65.2029 354.646C64.1228 354.646 64.1228 357.959 63.0391 357.959C61.9554 357.959 61.959 356.527 60.8753 356.527C59.7916 356.527 59.7952 358.562 58.7115 358.562C57.6278 358.562 57.6278 355.304 56.5477 355.304C55.4676 355.304 55.4676 359.967 54.3839 359.967C53.3002 359.967 53.3038 356.14 52.2201 356.14C51.1364 356.14 51.1364 359.729 50.0563 359.729C48.9762 359.729 48.9762 359.9 47.8925 359.9C46.8088 359.9 46.8088 353.092 45.7287 353.092C44.6486 353.092 44.645 357.86 43.5649 357.86C42.4848 357.86 42.4812 357.782 41.4011 357.782C40.321 357.782 40.3174 356.405 39.2373 356.405C38.1572 356.405 38.1536 353.739 37.0735 353.739C35.9934 353.739 35.9898 356.023 34.9097 356.023C33.8296 356.023 33.826 352.451 32.7459 352.451C31.6658 352.451 31.6622 358.977 30.5821 358.977C29.502 358.977 29.4984 359.707 28.4183 359.707C27.3382 359.707 27.3346 357.782 26.2545 357.782C25.1745 357.782 25.1708 360 24.0907 360C23.0107 360 23.0107 358.8 21.927 358.8C20.8432 358.8 20.8432 357.539 19.7632 357.539C18.6831 357.539 18.6795 357.694 17.5994 357.694C16.5193 357.694 16.5157 357.423 15.4356 357.423C14.3555 357.423 14.3519 357.34 13.2718 357.34C12.1917 357.34 12.1881 353.43 11.1044 353.43C10.0207 353.43 10.0207 354.702 8.94056 354.702C7.86047 354.702 7.85686 352.932 6.77315 352.932C5.68945 352.932 5.68945 356.394 4.60574 356.394C3.52204 356.394 1.7845 359.469 1.01868 358.297C0.252864 357.124 1.55331 354.464 1.55331 352.805C1.55331 351.145 4.1253 351.145 4.1253 349.481C4.1253 347.816 4.04222 347.821 4.04222 346.157C4.04222 344.492 3.89772 344.492 3.89772 342.833C3.89772 341.173 0.516566 341.168 0.516566 339.509C0.516566 337.849 4.52266 337.844 4.52266 336.185C4.52266 334.525 1.53164 334.52 1.53164 332.861C1.53164 331.202 3.92301 331.196 3.92301 329.537C3.92301 327.878 0.913924 327.878 0.913924 326.213C0.913924 324.548 1.05842 324.554 1.05842 322.889C1.05842 321.224 4.16865 321.23 4.16865 319.565C4.16865 317.9 2.27578 317.906 2.27578 316.241C2.27578 314.576 2.61173 314.582 2.61173 312.917C2.61173 311.252 3.60512 311.258 3.60512 309.593C3.60512 307.928 4.80804 307.934 4.80804 306.269C4.80804 304.604 0.35401 304.604 0.35401 302.945C0.35401 301.286 4.63464 301.28 4.63464 299.621C4.63464 297.962 2.53587 297.956 2.53587 296.297C2.53587 294.638 4.71411 294.632 4.71411 292.973C4.71411 291.314 4.12891 291.308 4.12891 289.649C4.12891 287.99 4.29869 287.99 4.29869 286.325C4.29869 284.661 4.2698 284.666 4.2698 283.001C4.2698 281.337 0.083084 281.342 0.083084 279.677C0.083084 278.013 0.621324 278.018 0.621324 276.353C0.621324 274.689 0.455156 274.689 0.455156 273.029C0.455156 271.37 2.83208 271.365 2.83208 269.705C2.83208 268.046 4.49737 268.041 4.49737 266.382C4.49737 264.722 3.70627 264.717 3.70627 263.058C3.70627 261.398 3.20415 261.393 3.20415 259.734C3.20415 258.074 4.23367 258.069 4.23367 256.41C4.23367 254.75 2.22159 254.745 2.22159 253.086C2.22159 251.426 1.55331 251.421 1.55331 249.762C1.55331 248.103 4.389 248.097 4.389 246.438C4.389 244.779 0.473218 244.773 0.473218 243.114C0.473218 241.455 2.88627 241.449 2.88627 239.79C2.88627 238.131 4.69605 238.125 4.69605 236.466C4.69605 234.807 2.30829 234.801 2.30829 233.142C2.30829 231.483 4.86944 231.477 4.86944 229.818C4.86944 228.159 1.41243 228.153 1.41243 226.494C1.41243 224.835 1.77005 224.829 1.77005 223.17C1.77005 221.511 4.59491 221.505 4.59491 219.846C4.59491 218.187 0.0469605 218.181 0.0469605 216.522C0.0469605 214.863 3.57984 214.857 3.57984 213.198C3.57984 211.539 1.62556 211.533 1.62556 209.874C1.62556 208.215 1.53886 208.209 1.53886 206.55C1.53886 204.891 1.31489 204.885 1.31489 203.226C1.31489 201.567 2.05181 201.562 2.05181 199.902C2.05181 198.243 4.28424 198.238 4.28424 196.578C4.28424 194.919 0.711633 194.914 0.711633 193.254C0.711633 191.595 0.729694 191.59 0.729694 189.93C0.729694 188.271 2.56115 188.266 2.56115 186.606C2.56115 184.947 3.62318 184.942 3.62318 183.282C3.62318 181.623 3.90856 181.618 3.90856 179.959C3.90856 178.299 4.80081 178.294 4.80081 176.635C4.80081 174.975 0.238415 174.97 0.238415 173.311C0.238415 171.651 0.736919 171.646 0.736919 169.987C0.736919 168.327 2.09155 168.322 2.09155 166.663C2.09155 165.003 1.84952 164.998 1.84952 163.339C1.84952 161.679 0.718857 161.674 0.718857 160.009C0.718857 158.344 4.45764 158.344 4.45764 156.685C4.45764 155.026 0.809166 155.021 0.809166 153.361C0.809166 151.702 1.16679 151.697 1.16679 150.037C1.16679 148.378 1.18124 148.373 1.18124 146.708C1.18124 145.043 3.07411 145.043 3.07411 143.384C3.07411 141.725 0.126432 141.719 0.126432 140.06C0.126432 138.401 0.288988 138.395 0.288988 136.736C0.288988 135.077 0.689958 135.071 0.689958 133.412C0.689958 131.753 0 131.786 0 130.121C0 128.456 2.18547 128.456 2.18547 126.797C2.18547 125.138 2.27578 125.133 2.27578 123.468C2.27578 121.803 0.520178 121.803 0.520178 120.144C0.520178 118.485 1.27516 118.479 1.27516 116.814C1.27516 115.15 0.657447 115.15 0.657447 113.49C0.657447 111.831 4.92724 111.826 4.92724 110.166C4.92724 108.507 3.03437 108.507 3.03437 106.842C3.03437 105.178 2.42027 105.178 2.42027 103.518C2.42027 101.859 0.256477 101.854 0.256477 100.189C0.256477 98.5242 3.19693 98.5242 3.19693 96.865C3.19693 95.2058 0.368459 95.2003 0.368459 93.541C0.368459 91.8818 3.78935 91.8763 3.78935 90.2171C3.78935 88.5579 0.00361235 88.5468 0.00361235 86.8876C0.00361235 85.2284 2.34441 85.2228 2.34441 83.5636C2.34441 81.9044 1.74838 81.8989 1.74838 80.2397C1.74838 78.5805 0.874188 78.5749 0.874188 76.9102C0.874188 75.2454 3.59429 75.2454 3.59429 73.5862C3.59429 71.927 2.12045 71.9215 2.12045 70.2567C2.12045 68.592 4.66715 68.592 4.66715 66.9328C4.66715 65.2735 4.212 65.268 4.212 63.6033C4.212 61.9385 1.01146 61.9385 1.01146 60.2738C1.01146 58.609 0.433482 58.609 0.433482 56.9443C0.433482 55.2795 4.55517 55.2795 4.55517 53.6148C4.55517 51.95 4.75746 51.95 4.75746 50.2853C4.75746 48.6205 4.60574 48.6205 4.60574 46.9558C4.60574 45.2911 1.75199 45.2911 1.75199 43.6263C1.75199 41.9616 3.569 41.9616 3.569 40.2968C3.569 38.6321 0.202291 38.6321 0.202291 36.9673C0.202291 35.3026 3.01992 35.3026 3.01992 33.6434C3.01992 31.9841 2.95851 31.9786 2.95851 30.3139C2.95851 28.6491 1.85675 28.6491 1.85675 26.9844C1.85675 25.3196 3.03437 25.3196 3.03437 23.6549C3.03437 21.9901 2.15657 21.9901 2.15657 20.3254C2.15657 18.6606 2.61173 18.6606 2.61173 16.9959C2.61173 15.3312 2.87182 15.3312 2.87182 13.6664C2.87182 12.0017 4.34927 12.0017 4.34927 10.3369C4.34927 8.67217 1.36908 8.68323 1.36908 7.01295C1.36908 5.34267 0.827228 3.55072 1.59305 2.37268C2.35886 1.19464 3.53649 1.22229 4.61658 1.22229C5.69667 1.22229 5.69667 1.86385 6.78038 1.86385C7.86408 1.86385 7.86047 4.93893 8.94417 4.93893C10.0279 4.93893 10.0243 4.88916 11.108 4.88916C12.1917 4.88916 12.1881 3.25759 13.2718 3.25759C14.3555 3.25759 14.3519 1.80301 15.4356 1.80301C16.5193 1.80301 16.5157 2.15698 17.5994 2.15698C18.6831 2.15698 18.6795 4.76195 19.7632 4.76195C20.8469 4.76195 20.8432 5.12698 21.927 5.12698C23.0107 5.12698 23.007 7.46094 24.0907 7.46094C25.1745 7.46094 25.1708 6.07826 26.2545 6.07826C27.3382 6.07826 27.3346 3.50094 28.4183 3.50094C29.502 3.50094 29.4984 4.1591 30.5821 4.1591C31.6658 4.1591 31.6622 3.66687 32.7423 3.66687C33.8224 3.66687 33.8224 2.70452 34.9025 2.70452C35.9826 2.70452 35.9826 5.01636 37.0627 5.01636C38.1428 5.01636 38.1428 5.26524 39.2229 5.26524C40.303 5.26524 40.303 6.96317 41.3867 6.96317C42.4704 6.96317 42.4668 0 43.5505 0C44.6342 0 44.6306 4.10932 45.7143 4.10932C46.798 4.10932 46.7944 7.1844 47.8781 7.1844C48.9618 7.1844 48.9581 3.69452 50.0419 3.69452C51.1256 3.69452 51.1219 2.69899 52.2057 2.69899C53.2894 2.69899 53.2857 0.978937 54.3658 0.978937C55.4459 0.978937 55.4459 6.43223 56.526 6.43223C57.6061 6.43223 57.6061 5.32608 58.6862 5.32608C59.7663 5.32608 59.7663 2.36162 60.8464 2.36162C61.9265 2.36162 61.9265 3.20782 63.0066 3.20782C64.0867 3.20782 64.0867 5.30949 65.1668 5.30949C66.2468 5.30949 66.2468 3.0419 67.3269 3.0419C68.407 3.0419 68.407 5.59156 69.4871 5.59156C70.5672 5.59156 70.5672 4.29737 71.6509 4.29737C72.7346 4.29737 72.731 6.13357 73.8147 6.13357C74.8984 6.13357 74.8948 2.35056 75.9785 2.35056C77.0622 2.35056 77.0586 3.48988 78.1423 3.48988C79.226 3.48988 79.2224 1.44352 80.3061 1.44352C81.3898 1.44352 81.3862 1.28866 82.4699 1.28866C83.5536 1.28866 83.55 4.87809 84.6337 4.87809C85.7174 4.87809 85.7138 5.91787 86.7939 5.91787C87.874 5.91787 87.874 2.97553 88.9541 2.97553C90.0342 2.97553 90.0342 3.26865 91.1142 3.26865C92.1943 3.26865 92.1943 1.92469 93.2744 1.92469C94.3545 1.92469 94.3545 4.84491 95.4346 4.84491C96.5147 4.84491 96.5147 2.92022 97.5984 2.92022C98.6821 2.92022 98.6785 0.315251 99.7622 0.315251C100.846 0.315251 100.842 1.85279 101.926 1.85279C103.01 1.85279 103.006 5.95105 104.09 5.95105C105.174 5.95105 105.17 4.73983 106.254 4.73983C107.337 4.73983 107.334 5.81832 108.417 5.81832C109.501 5.81832 109.497 0.978937 110.581 0.978937C111.665 0.978937 111.661 0.376089 112.745 0.376089C113.829 0.376089 113.825 2.01871 114.909 2.01871C115.992 2.01871 115.989 1.78642 117.073 1.78642C118.156 1.78642 118.153 5.24865 119.236 5.24865C120.32 5.24865 120.316 0.431396 121.4 0.431396C122.484 0.431396 122.48 5.93446 123.564 5.93446C124.648 5.93446 124.648 6.6258 125.728 6.6258C126.808 6.6258 126.808 4.5905 127.892 4.5905C128.975 4.5905 128.972 3.32949 130.055 3.32949C131.139 3.32949 131.135 4.02636 132.219 4.02636C133.303 4.02636 133.299 5.54178 134.383 5.54178C135.467 5.54178 135.463 7.30608 136.547 7.30608C137.63 7.30608 137.627 6.78066 138.711 6.78066C139.794 6.78066 139.791 2.01318 140.874 2.01318C141.958 2.01318 141.958 4.68452 143.038 4.68452C144.118 4.68452 144.118 5.27631 145.202 5.27631C146.286 5.27631 146.282 2.44458 147.366 2.44458C148.449 2.44458 148.446 2.26206 149.53 2.26206C150.613 2.26206 150.61 1.71452 151.693 1.71452C152.777 1.71452 152.773 0.702401 153.857 0.702401C154.941 0.702401 154.937 1.43246 156.021 1.43246C157.105 1.43246 157.105 0.940222 158.185 0.940222C159.265 0.940222 159.265 2.17357 160.349 2.17357C161.432 2.17357 161.429 3.8715 162.512 3.8715C163.596 3.8715 163.592 2.32843 164.676 2.32843C165.76 2.32843 165.756 4.54625 166.84 4.54625C167.924 4.54625 167.92 5.98424 169.004 5.98424C170.087 5.98424 170.087 0.884915 171.167 0.884915C172.248 0.884915 172.251 2.33949 173.331 2.33949C174.411 2.33949 174.411 0.785362 175.495 0.785362C176.579 0.785362 176.575 0.575195 177.659 0.575195C178.743 0.575195 178.739 2.37821 179.823 2.37821C180.906 2.37821 180.906 0.912569 181.986 0.912569C183.067 0.912569 183.07 0.608379 184.15 0.608379C185.23 0.608379 185.23 1.03424 186.314 1.03424C187.398 1.03424 187.394 1.63709 188.478 1.63709C189.562 1.63709 189.558 3.32396 190.642 3.32396C191.725 3.32396 191.725 1.17251 192.805 1.17251C193.886 1.17251 193.886 3.53413 194.969 3.53413C196.053 3.53413 196.049 7.42776 197.133 7.42776C198.217 7.42776 198.213 4.66793 199.297 4.66793C200.381 4.66793 200.381 2.09614 201.461 2.09614C202.541 2.09614 202.544 0.813016 203.624 0.813016C204.705 0.813016 204.705 3.21888 205.788 3.21888C206.872 3.21888 206.872 0.447988 207.952 0.447988C209.032 0.447988 209.036 2.15698 210.116 2.15698C211.196 2.15698 211.196 3.28525 212.28 3.28525C213.363 3.28525 213.363 5.71323 214.443 5.71323C215.524 5.71323 215.527 4.15357 216.607 4.15357C217.687 4.15357 217.691 0.359497 218.771 0.359497C219.851 0.359497 219.855 5.59156 220.935 5.59156C222.015 5.59156 222.015 4.77301 223.099 4.77301C224.182 4.77301 224.179 1.91363 225.262 1.91363C226.346 1.91363 226.342 6.03401 227.426 6.03401C228.51 6.03401 228.506 4.81173 229.59 4.81173C230.674 4.81173 230.674 4.20888 231.754 4.20888C232.834 4.20888 232.834 2.74324 233.918 2.74324C235.001 2.74324 234.998 4.47435 236.081 4.47435C237.165 4.47435 237.161 2.33396 238.245 2.33396C239.329 2.33396 239.329 7.2563 240.409 7.2563C241.489 7.2563 241.489 5.98424 242.573 5.98424C243.656 5.98424 243.653 6.52072 244.737 6.52072C245.82 6.52072 245.82 2.6105 246.9 2.6105C247.98 2.6105 247.98 3.68899 249.064 3.68899C250.148 3.68899 250.148 5.75195 251.228 5.75195C252.308 5.75195 252.312 4.85044 253.392 4.85044C254.472 4.85044 254.475 2.94787 255.556 2.94787C256.636 2.94787 256.639 3.8715 257.719 3.8715C258.799 3.8715 258.803 1.22229 259.883 1.22229C260.963 1.22229 260.967 4.09273 262.047 4.09273C263.127 4.09273 263.131 2.88703 264.211 2.88703C265.291 2.88703 265.294 6.05614 266.375 6.05614C267.455 6.05614 267.458 0.779831 268.538 0.779831C269.618 0.779831 269.622 1.60944 270.702 1.60944C271.782 1.60944 271.786 4.0872 272.866 4.0872C273.946 4.0872 273.946 4.39692 275.03 4.39692C276.113 4.39692 276.113 4.4467 277.194 4.4467C278.274 4.4467 278.277 1.01212 279.357 1.01212C280.437 1.01212 280.441 6.1391 281.521 6.1391C282.601 6.1391 282.605 1.36609 283.685 1.36609C284.765 1.36609 284.769 6.80278 285.852 6.80278C286.936 6.80278 286.936 4.90575 288.016 4.90575C289.096 4.90575 289.1 0.143799 290.184 0.143799C291.267 0.143799 290.823 0.796423 291.881 0.436927C293.03 0.0497765 293.785 2.45011 294.551 3.62262L294.529 3.63368Z" fill="#FFF3DE"/>
</svg>
