<svg width="380" height="281" viewBox="0 0 380 281" fill="none" xmlns="http://www.w3.org/2000/svg">
<path d="M376.839 2.83629C377.818 3.7515 377.453 4.17025 377.453 5.46968C377.453 6.76911 375.045 6.76479 375.045 8.06422C375.045 9.36365 379.367 9.35933 379.367 10.6588C379.367 11.9582 374.495 11.9582 374.495 13.2533C374.495 14.5484 375.17 14.5527 375.17 15.8478C375.17 17.1429 373.756 17.1473 373.756 18.4424C373.756 19.7375 377.708 19.7418 377.708 21.0369C377.708 22.332 379.441 22.3363 379.441 23.6314C379.441 24.9266 376.474 24.9266 376.474 26.226C376.474 27.5254 374.334 27.5211 374.334 28.8205C374.334 30.1199 376.33 30.1156 376.33 31.415C376.33 32.7145 377.287 32.7102 377.287 34.0096C377.287 35.309 379.395 35.3047 379.395 36.6041C379.395 37.9036 377.426 37.8992 377.426 39.1987C377.426 40.4981 379.464 40.4938 379.464 41.7932C379.464 43.0926 374.921 43.0926 374.921 44.3877C374.921 45.6828 373.76 45.6872 373.76 46.9823C373.76 48.2774 379.089 48.2817 379.089 49.5768C379.089 50.8719 377.467 50.8762 377.467 52.1713C377.467 53.4665 375.031 53.4708 375.031 54.7659C375.031 56.061 379.154 56.061 379.154 57.3604C379.154 58.6598 377.176 58.6555 377.176 59.955C377.176 61.2544 375.221 61.2501 375.221 62.5495C375.221 63.8489 374.819 63.8446 374.819 65.144C374.819 66.4435 374.597 66.4435 374.597 67.7386C374.597 69.0337 379.783 69.038 379.783 70.3331C379.783 71.6282 376.987 71.6325 376.987 72.9276C376.987 74.2228 377.745 74.2271 377.745 75.5222C377.745 76.8173 376.469 76.8216 376.469 78.1167C376.469 79.4118 373.876 79.4161 373.876 80.7113C373.876 82.0064 378.946 82.0107 378.946 83.3058C378.946 84.6009 378.133 84.6052 378.133 85.9003C378.133 87.1954 374.588 87.1998 374.588 88.4949C374.588 89.79 377.241 89.7943 377.241 91.0894C377.241 92.3845 378.447 92.3888 378.447 93.6839C378.447 94.979 378.6 94.9834 378.6 96.2785C378.6 97.5736 376.501 97.5779 376.501 98.873C376.501 100.168 376.58 100.172 376.58 101.468C376.58 102.763 379.986 102.767 379.986 104.062C379.986 105.357 374.25 105.362 374.25 106.657C374.25 107.952 379.857 107.956 379.857 109.251C379.857 110.546 378.479 110.551 378.479 111.846C378.479 113.141 374.685 113.145 374.685 114.44C374.685 115.735 376.631 115.74 376.631 117.035C376.631 118.33 374.172 118.334 374.172 119.629C374.172 120.924 376.062 120.929 376.062 122.224C376.062 123.519 376.728 123.523 376.728 124.818C376.728 126.113 378.937 126.118 378.937 127.413C378.937 128.708 379.445 128.712 379.445 130.007C379.445 131.303 373.867 131.307 373.867 132.602C373.867 133.897 377.056 133.901 377.056 135.197C377.056 136.492 374.32 136.496 374.32 137.791C374.32 139.086 377.088 139.09 377.088 140.386C377.088 141.681 377.393 141.685 377.393 142.98C377.393 144.275 375.512 144.28 375.512 145.575C375.512 146.87 374.107 146.874 374.107 148.169C374.107 149.464 380 149.469 380 150.764C380 152.059 379.792 152.063 379.792 153.358C379.792 154.653 377.527 154.658 377.527 155.957C377.527 157.257 375.993 157.257 375.993 158.552C375.993 159.847 374.347 159.851 374.347 161.146C374.347 162.441 375.082 162.446 375.082 163.741C375.082 165.036 374.195 165.04 374.195 166.34C374.195 167.639 377.814 167.639 377.814 168.934C377.814 170.229 379.847 170.234 379.847 171.529C379.847 172.824 378.65 172.828 378.65 174.123C378.65 175.418 379.556 175.423 379.556 176.718C379.556 178.013 374.098 178.017 374.098 179.312C374.098 180.607 374.075 180.612 374.075 181.907C374.075 183.202 374.347 183.206 374.347 184.506C374.347 185.805 375.6 185.805 375.6 187.1C375.6 188.395 379.159 188.4 379.159 189.699C379.159 190.999 379.395 190.999 379.395 192.294C379.395 193.589 376.09 193.593 376.09 194.888C376.09 196.183 374.754 196.183 374.754 197.483C374.754 198.782 375.129 198.782 375.129 200.077C375.129 201.372 373.821 201.377 373.821 202.676C373.821 203.976 374.357 203.976 374.357 205.271C374.357 206.566 379.168 206.57 379.168 207.865C379.168 209.16 377.56 209.165 377.56 210.46C377.56 211.755 376.247 211.759 376.247 213.059C376.247 214.358 374.962 214.358 374.962 215.653C374.962 216.948 375.374 216.953 375.374 218.248C375.374 219.543 374.565 219.547 374.565 220.846C374.565 222.146 373.83 222.146 373.83 223.441C373.83 224.736 378.156 224.74 378.156 226.04C378.156 227.339 376.621 227.339 376.621 228.634C376.621 229.93 377.504 229.934 377.504 231.233C377.504 232.533 377.222 232.533 377.222 233.832C377.222 235.132 375.947 235.132 375.947 236.431C375.947 237.73 379.644 237.73 379.644 239.03C379.644 240.329 377.925 240.329 377.925 241.629C377.925 242.928 374.948 242.928 374.948 244.228C374.948 245.527 377.532 245.527 377.532 246.826C377.532 248.126 377.583 248.126 377.583 249.425C377.583 250.725 377.657 250.725 377.657 252.024C377.657 253.324 375.642 253.324 375.642 254.619C375.642 255.914 378.969 255.918 378.969 257.217C378.969 258.517 379.986 258.517 379.986 259.816C379.986 261.116 377.333 261.116 377.333 262.415C377.333 263.715 374.089 263.715 374.089 265.014C374.089 266.313 377.504 266.313 377.504 267.613C377.504 268.912 374.505 268.912 374.505 270.212C374.505 271.511 373.733 271.511 373.733 272.811C373.733 274.11 377.976 274.11 377.976 275.414C377.976 276.718 379.371 278.565 378.392 279.489C377.412 280.413 375.42 276.61 374.038 276.61C372.656 276.61 372.656 275.595 371.269 275.595C369.883 275.595 369.887 277.926 368.501 277.926C367.114 277.926 367.119 277.577 365.732 277.577C364.346 277.577 364.35 277.615 362.964 277.615C361.577 277.615 361.582 276.402 360.195 276.402C358.809 276.402 358.813 277.456 357.427 277.456C356.04 277.456 356.045 276.989 354.658 276.989C353.272 276.989 353.276 275.643 351.89 275.643C350.503 275.643 350.508 278.056 349.121 278.056C347.735 278.056 347.739 275.837 346.353 275.837C344.966 275.837 344.971 279.77 343.584 279.77C342.198 279.77 342.202 276.566 340.816 276.566C339.429 276.566 339.434 278.008 338.052 278.008C336.67 278.008 336.67 277.365 335.288 277.365C333.906 277.365 333.906 278.177 332.524 278.177C331.142 278.177 331.142 278.129 329.76 278.129C328.378 278.129 328.378 280.447 326.992 280.447C325.605 280.447 325.61 279.83 324.223 279.83C322.837 279.83 322.841 278.431 321.455 278.431C320.068 278.431 320.073 276.463 318.686 276.463C317.3 276.463 317.304 279.135 315.918 279.135C314.531 279.135 314.536 278.906 313.149 278.906C311.763 278.906 311.767 279.23 310.386 279.23C309.004 279.23 309.004 280.681 307.622 280.681C306.24 280.681 306.24 275.504 304.858 275.504C303.476 275.504 303.476 275.435 302.094 275.435C300.712 275.435 300.712 275.427 299.33 275.427C297.948 275.427 297.948 280.594 296.566 280.594C295.184 280.594 295.184 276.269 293.802 276.269C292.42 276.269 292.42 280.516 291.038 280.516C289.657 280.516 289.657 280.987 288.27 280.987C286.883 280.987 286.888 278.833 285.501 278.833C284.115 278.833 284.12 278.302 282.733 278.302C281.346 278.302 281.351 280.029 279.964 280.029C278.578 280.029 278.583 277.719 277.196 277.719C275.809 277.719 275.814 277.926 274.427 277.926C273.041 277.926 273.046 275.707 271.659 275.707C270.272 275.707 270.277 280.443 268.895 280.443C267.513 280.443 267.513 277.335 266.131 277.335C264.749 277.335 264.749 279.29 263.367 279.29C261.985 279.29 261.985 278.721 260.604 278.721C259.222 278.721 259.222 276.683 257.84 276.683C256.458 276.683 256.458 276.45 255.071 276.45C253.685 276.45 253.689 275.353 252.303 275.353C250.916 275.353 250.921 276.605 249.534 276.605C248.148 276.605 248.152 275.94 246.766 275.94C245.379 275.94 245.384 279.96 243.997 279.96C242.611 279.96 242.615 279.632 241.229 279.632C239.842 279.632 239.847 279.239 238.46 279.239C237.074 279.239 237.078 278.686 235.692 278.686C234.305 278.686 234.31 275.103 232.923 275.103C231.537 275.103 231.541 279.295 230.155 279.295C228.768 279.295 228.773 278.898 227.386 278.898C226 278.898 226.004 278.263 224.618 278.263C223.231 278.263 223.236 277.378 221.849 277.378C220.463 277.378 220.463 275.966 219.081 275.966C217.699 275.966 217.699 279.057 216.312 279.057C214.926 279.057 214.93 276.946 213.544 276.946C212.157 276.946 212.162 276.1 210.775 276.1C209.389 276.1 209.393 275.034 208.007 275.034C206.62 275.034 206.625 279.955 205.238 279.955C203.852 279.955 203.856 277.136 202.47 277.136C201.083 277.136 201.088 279.372 199.701 279.372C198.315 279.372 198.315 280.465 196.933 280.465C195.551 280.465 195.551 277.201 194.164 277.201C192.778 277.201 192.782 275.837 191.396 275.837C190.009 275.837 190.014 280.279 188.627 280.279C187.241 280.279 187.245 276.329 185.859 276.329C184.472 276.329 184.477 277.991 183.09 277.991C181.704 277.991 181.708 275.414 180.322 275.414C178.935 275.414 178.935 277.512 177.553 277.512C176.171 277.512 176.171 276.113 174.785 276.113C173.398 276.113 173.403 276.277 172.016 276.277C170.63 276.277 170.634 278.371 169.248 278.371C167.861 278.371 167.866 275.008 166.479 275.008C165.093 275.008 165.097 276.035 163.711 276.035C162.324 276.035 162.324 276.225 160.942 276.225C159.56 276.225 159.556 279.17 158.174 279.17C156.792 279.17 156.792 278.997 155.405 278.997C154.019 278.997 154.023 278.039 152.637 278.039C151.25 278.039 151.255 280.996 149.868 280.996C148.482 280.996 148.482 275.176 147.1 275.176C145.718 275.176 145.713 277.46 144.331 277.46C142.949 277.46 142.949 279.105 141.563 279.105C140.176 279.105 140.181 275.781 138.794 275.781C137.408 275.781 137.412 279.541 136.026 279.541C134.639 279.541 134.639 280.814 133.257 280.814C131.876 280.814 131.875 277.732 130.489 277.732C129.102 277.732 129.107 279.321 127.72 279.321C126.334 279.321 126.339 279.571 124.952 279.571C123.565 279.571 123.565 275.897 122.183 275.897C120.802 275.897 120.797 278.876 119.415 278.876C118.033 278.876 118.033 275.25 116.646 275.25C115.26 275.25 115.26 280.547 113.878 280.547C112.496 280.547 112.491 280.87 111.109 280.87C109.728 280.87 109.728 275.617 108.341 275.617C106.954 275.617 106.954 278.729 105.573 278.729C104.191 278.729 104.186 275.716 102.804 275.716C101.422 275.716 101.417 280.508 100.036 280.508C98.6536 280.508 98.649 279.515 97.267 279.515C95.8851 279.515 95.8851 277.231 94.4985 277.231C93.112 277.231 93.1166 276.428 91.73 276.428C90.3435 276.428 90.3481 277.892 88.9615 277.892C87.575 277.892 87.5796 275.189 86.193 275.189C84.8065 275.189 84.8065 276.821 83.4246 276.821C82.0426 276.821 82.0426 279.407 80.6561 279.407C79.2695 279.407 79.2741 278.289 77.8876 278.289C76.501 278.289 76.5056 279.878 75.1191 279.878C73.7325 279.878 73.7325 277.335 72.3506 277.335C70.9686 277.335 70.9686 280.974 69.5821 280.974C68.1955 280.974 68.2001 277.987 66.8136 277.987C65.427 277.987 65.427 280.788 64.0451 280.788C62.6632 280.788 62.6632 280.922 61.2766 280.922C59.89 280.922 59.89 275.608 58.5081 275.608C57.1262 275.608 57.1216 279.329 55.7396 279.329C54.3577 279.329 54.3531 279.269 52.9711 279.269C51.5892 279.269 51.5846 278.194 50.2026 278.194C48.8207 278.194 48.8161 276.113 47.4341 276.113C46.0522 276.113 46.0476 277.896 44.6656 277.896C43.2837 277.896 43.2791 275.107 41.8972 275.107C40.5152 275.107 40.5106 280.201 39.1287 280.201C37.7467 280.201 37.7421 280.771 36.3602 280.771C34.9782 280.771 34.9736 279.269 33.5917 279.269C32.2097 279.269 32.2051 281 30.8232 281C29.4412 281 29.4412 280.063 28.0547 280.063C26.6681 280.063 26.6681 279.079 25.2862 279.079C23.9043 279.079 23.8996 279.2 22.5177 279.2C21.1358 279.2 21.1311 278.988 19.7492 278.988C18.3673 278.988 18.3626 278.924 16.9807 278.924C15.5988 278.924 15.5942 275.871 14.2076 275.871C12.821 275.871 12.821 276.864 11.4391 276.864C10.0572 276.864 10.0525 275.483 8.66599 275.483C7.27943 275.483 7.27943 278.185 5.89287 278.185C4.50631 278.185 2.2832 280.586 1.30336 279.67C0.32353 278.755 1.9874 276.679 1.9874 275.384C1.9874 274.088 5.27816 274.088 5.27816 272.789C5.27816 271.49 5.17186 271.494 5.17186 270.194C5.17186 268.895 4.98699 268.895 4.98699 267.6C4.98699 266.305 0.660926 266.301 0.660926 265.005C0.660926 263.71 5.78657 263.706 5.78657 262.411C5.78657 261.116 1.95967 261.111 1.95967 259.816C1.95967 258.521 5.01934 258.517 5.01934 257.222C5.01934 255.927 1.16933 255.927 1.16933 254.627C1.16933 253.328 1.3542 253.332 1.3542 252.033C1.3542 250.733 5.33363 250.738 5.33363 249.438C5.33363 248.139 2.91177 248.143 2.91177 246.844C2.91177 245.544 3.3416 245.549 3.3416 244.249C3.3416 242.95 4.61261 242.954 4.61261 241.655C4.61261 240.355 6.15169 240.359 6.15169 239.06C6.15169 237.761 0.452942 237.761 0.452942 236.465C0.452942 235.17 5.92984 235.166 5.92984 233.871C5.92984 232.576 3.24454 232.572 3.24454 231.276C3.24454 229.981 6.03153 229.977 6.03153 228.682C6.03153 227.387 5.28278 227.382 5.28278 226.087C5.28278 224.792 5.50001 224.792 5.50001 223.493C5.50001 222.193 5.46304 222.198 5.46304 220.898C5.46304 219.599 0.106303 219.603 0.106303 218.304C0.106303 217.004 0.79496 217.009 0.79496 215.709C0.79496 214.41 0.582354 214.41 0.582354 213.115C0.582354 211.82 3.62354 211.815 3.62354 210.52C3.62354 209.225 5.75421 209.221 5.75421 207.926C5.75421 206.63 4.74203 206.626 4.74203 205.331C4.74203 204.036 4.09959 204.032 4.09959 202.737C4.09959 201.441 5.41682 201.437 5.41682 200.142C5.41682 198.847 2.84244 198.843 2.84244 197.547C2.84244 196.252 1.9874 196.248 1.9874 194.953C1.9874 193.658 5.61556 193.653 5.61556 192.358C5.61556 191.063 0.605463 191.059 0.605463 189.764C0.605463 188.469 3.69287 188.464 3.69287 187.169C3.69287 185.874 6.00842 185.87 6.00842 184.575C6.00842 183.28 2.95337 183.275 2.95337 181.98C2.95337 180.685 6.23027 180.681 6.23027 179.386C6.23027 178.091 1.80715 178.086 1.80715 176.791C1.80715 175.496 2.26471 175.492 2.26471 174.197C2.26471 172.902 5.879 172.897 5.879 171.602C5.879 170.307 0.0600842 170.303 0.0600842 169.008C0.0600842 167.712 4.58026 167.708 4.58026 166.413C4.58026 165.118 2.07984 165.114 2.07984 163.818C2.07984 162.523 1.96891 162.519 1.96891 161.224C1.96891 159.929 1.68236 159.925 1.68236 158.629C1.68236 157.334 2.62522 157.33 2.62522 156.035C2.62522 154.74 5.48152 154.735 5.48152 153.44C5.48152 152.145 0.910506 152.141 0.910506 150.846C0.910506 149.551 0.933615 149.546 0.933615 148.251C0.933615 146.956 3.2769 146.952 3.2769 145.657C3.2769 144.362 4.63572 144.357 4.63572 143.062C4.63572 141.767 5.00085 141.763 5.00085 140.468C5.00085 139.173 6.14245 139.168 6.14245 137.873C6.14245 136.578 0.305043 136.574 0.305043 135.279C0.305043 133.983 0.942859 133.979 0.942859 132.684C0.942859 131.389 2.67606 131.385 2.67606 130.089C2.67606 128.794 2.36639 128.79 2.36639 127.495C2.36639 126.2 0.91975 126.196 0.91975 124.896C0.91975 123.597 5.70337 123.597 5.70337 122.302C5.70337 121.006 1.0353 121.002 1.0353 119.707C1.0353 118.412 1.49286 118.408 1.49286 117.112C1.49286 115.817 1.51135 115.813 1.51135 114.514C1.51135 113.214 3.9332 113.214 3.9332 111.919C3.9332 110.624 0.161765 110.62 0.161765 109.325C0.161765 108.029 0.369749 108.025 0.369749 106.73C0.369749 105.435 0.882775 105.431 0.882775 104.135C0.882775 102.84 0 102.866 0 101.567C0 100.267 2.79622 100.267 2.79622 98.9723C2.79622 97.6772 2.91177 97.6729 2.91177 96.3735C2.91177 95.074 0.665548 95.074 0.665548 93.7789C0.665548 92.4838 1.63152 92.4795 1.63152 91.1801C1.63152 89.8806 0.841178 89.8806 0.841178 88.5855C0.841178 87.2904 6.30422 87.2861 6.30422 85.991C6.30422 84.6959 3.88236 84.6959 3.88236 83.3964C3.88236 82.097 3.09665 82.097 3.09665 80.8019C3.09665 79.5068 0.328152 79.5025 0.328152 78.2031C0.328152 76.9036 4.09035 76.9036 4.09035 75.6085C4.09035 74.3134 0.47143 74.3091 0.47143 73.014C0.47143 71.7189 4.84833 71.7146 4.84833 70.4194C4.84833 69.1243 0.00462186 69.1157 0.00462186 67.8206C0.00462186 66.5255 2.99959 66.5212 2.99959 65.2261C2.99959 63.9309 2.23698 63.9266 2.23698 62.6315C2.23698 61.3364 1.11849 61.3321 1.11849 60.0327C1.11849 58.7332 4.59875 58.7332 4.59875 57.4381C4.59875 56.143 2.71303 56.1387 2.71303 54.8393C2.71303 53.5398 5.97144 53.5398 5.97144 52.2447C5.97144 50.9496 5.38909 50.9453 5.38909 49.6459C5.38909 48.3465 1.29412 48.3465 1.29412 47.047C1.29412 45.7476 0.554623 45.7476 0.554623 44.4482C0.554623 43.1487 5.82816 43.1487 5.82816 41.8493C5.82816 40.5499 6.08699 40.5499 6.08699 39.2505C6.08699 37.951 5.89287 37.951 5.89287 36.6516C5.89287 35.3522 2.2416 35.3522 2.2416 34.0528C2.2416 32.7533 4.5664 32.7533 4.5664 31.4539C4.5664 30.1545 0.258824 30.1545 0.258824 28.855C0.258824 27.5556 3.86387 27.5556 3.86387 26.2605C3.86387 24.9654 3.7853 24.9611 3.7853 23.6617C3.7853 22.3622 2.37564 22.3622 2.37564 21.0628C2.37564 19.7634 3.88236 19.7634 3.88236 18.464C3.88236 17.1645 2.75925 17.1645 2.75925 15.8651C2.75925 14.5657 3.3416 14.5657 3.3416 13.2662C3.3416 11.9668 3.67438 11.9668 3.67438 10.6674C3.67438 9.36796 5.56472 9.36796 5.56472 8.06854C5.56472 6.76911 1.75168 6.77774 1.75168 5.474C1.75168 4.17025 1.05841 2.77154 2.03824 1.85201C3.01807 0.932479 4.5248 0.954064 5.90674 0.954064C7.28867 0.954064 7.28867 1.45484 8.67523 1.45484C10.0618 1.45484 10.0572 3.85511 11.4437 3.85511C12.8303 3.85511 12.8257 3.81626 14.2122 3.81626C15.5988 3.81626 15.5942 2.54273 16.9807 2.54273C18.3673 2.54273 18.3626 1.40735 19.7492 1.40735C21.1358 1.40735 21.1311 1.68364 22.5177 1.68364C23.9043 1.68364 23.8996 3.71697 25.2862 3.71697C26.6727 3.71697 26.6681 4.00189 28.0547 4.00189C29.4412 4.00189 29.4366 5.82368 30.8232 5.82368C32.2097 5.82368 32.2051 4.74442 33.5917 4.74442C34.9782 4.74442 34.9736 2.73268 36.3602 2.73268C37.7467 2.73268 37.7421 3.24641 39.1287 3.24641C40.5152 3.24641 40.5106 2.86219 41.8925 2.86219C43.2745 2.86219 43.2745 2.11103 44.6564 2.11103C46.0383 2.11103 46.0383 3.91555 47.4203 3.91555C48.8022 3.91555 48.8022 4.10982 50.1841 4.10982C51.5661 4.10982 51.5661 5.43514 52.9526 5.43514C54.3392 5.43514 54.3346 0 55.7211 0C57.1077 0 57.1031 3.20756 58.4896 3.20756C59.8762 3.20756 59.8716 5.60783 61.2581 5.60783C62.6447 5.60783 62.6401 2.88378 64.0266 2.88378C65.4132 2.88378 65.4085 2.10671 66.7951 2.10671C68.1817 2.10671 68.177 0.764115 69.559 0.764115C70.9409 0.764115 70.9409 5.02071 72.3228 5.02071C73.7048 5.02071 73.7048 4.1573 75.0867 4.1573C76.4687 4.1573 76.4687 1.84337 77.8506 1.84337C79.2325 1.84337 79.2325 2.50388 80.6145 2.50388C81.9964 2.50388 81.9964 4.14435 83.3783 4.14435C84.7603 4.14435 84.7603 2.37437 86.1422 2.37437C87.5241 2.37437 87.5241 4.36452 88.9061 4.36452C90.288 4.36452 90.288 3.35433 91.6746 3.35433C93.0611 3.35433 93.0565 4.78759 94.4431 4.78759C95.8296 4.78759 95.825 1.83474 97.2116 1.83474C98.5981 1.83474 98.5935 2.72405 99.9801 2.72405C101.367 2.72405 101.362 1.12675 102.749 1.12675C104.135 1.12675 104.13 1.00587 105.517 1.00587C106.904 1.00587 106.899 3.80762 108.286 3.80762C109.672 3.80762 109.667 4.61923 111.049 4.61923C112.431 4.61923 112.431 2.32256 113.813 2.32256C115.195 2.32256 115.195 2.55137 116.577 2.55137C117.959 2.55137 117.959 1.50233 119.341 1.50233C120.723 1.50233 120.723 3.78172 122.105 3.78172C123.487 3.78172 123.487 2.27939 124.873 2.27939C126.26 2.27939 126.255 0.246071 127.642 0.246071C129.028 0.246071 129.024 1.44621 130.41 1.44621C131.797 1.44621 131.792 4.64513 133.179 4.64513C134.565 4.64513 134.561 3.6997 135.947 3.6997C137.334 3.6997 137.329 4.54152 138.716 4.54152C140.102 4.54152 140.098 0.764115 141.484 0.764115C142.871 0.764115 142.866 0.293558 144.253 0.293558C145.639 0.293558 145.635 1.57572 147.021 1.57572C148.408 1.57572 148.403 1.3944 149.79 1.3944C151.176 1.3944 151.172 4.09686 152.558 4.09686C153.945 4.09686 153.94 0.336729 155.327 0.336729C156.713 0.336729 156.709 4.63218 158.095 4.63218C159.482 4.63218 159.482 5.17181 160.864 5.17181C162.246 5.17181 162.246 3.58314 163.632 3.58314C165.019 3.58314 165.014 2.59885 166.401 2.59885C167.787 2.59885 167.783 3.1428 169.169 3.1428C170.556 3.1428 170.551 4.32567 171.938 4.32567C173.324 4.32567 173.32 5.7028 174.706 5.7028C176.093 5.7028 176.088 5.29268 177.475 5.29268C178.861 5.29268 178.857 1.5714 180.243 1.5714C181.63 1.5714 181.63 3.65653 183.012 3.65653C184.394 3.65653 184.394 4.11845 185.78 4.11845C187.167 4.11845 187.162 1.90813 188.549 1.90813C189.935 1.90813 189.931 1.76567 191.317 1.76567C192.704 1.76567 192.699 1.33828 194.086 1.33828C195.472 1.33828 195.468 0.548263 196.854 0.548263C198.241 0.548263 198.236 1.11811 199.623 1.11811C201.009 1.11811 201.009 0.733896 202.391 0.733896C203.773 0.733896 203.773 1.69659 205.16 1.69659C206.546 1.69659 206.542 3.02192 207.928 3.02192C209.315 3.02192 209.31 1.81747 210.697 1.81747C212.083 1.81747 212.079 3.5486 213.465 3.5486C214.852 3.5486 214.847 4.67103 216.234 4.67103C217.62 4.67103 217.62 0.690725 219.002 0.690725C220.384 0.690725 220.389 1.82611 221.771 1.82611C223.153 1.82611 223.153 0.613019 224.539 0.613019C225.926 0.613019 225.921 0.448971 227.308 0.448971C228.694 0.448971 228.69 1.85632 230.076 1.85632C231.463 1.85632 231.463 0.71231 232.845 0.71231C234.227 0.71231 234.231 0.474874 235.613 0.474874C236.995 0.474874 236.995 0.807285 238.382 0.807285C239.768 0.807285 239.764 1.27784 241.15 1.27784C242.537 1.27784 242.532 2.59454 243.919 2.59454C245.305 2.59454 245.305 0.915211 246.687 0.915211C248.069 0.915211 248.069 2.75858 249.456 2.75858C250.842 2.75858 250.838 5.79778 252.224 5.79778C253.611 5.79778 253.606 3.64358 254.993 3.64358C256.379 3.64358 256.379 1.63616 257.761 1.63616C259.143 1.63616 259.148 0.634604 260.53 0.634604C261.912 0.634604 261.911 2.51251 263.298 2.51251C264.685 2.51251 264.685 0.34968 266.067 0.34968C267.448 0.34968 267.453 1.68364 268.835 1.68364C270.217 1.68364 270.217 2.56432 271.604 2.56432C272.99 2.56432 272.99 4.4595 274.372 4.4595C275.754 4.4595 275.759 3.24209 277.141 3.24209C278.522 3.24209 278.527 0.280607 279.909 0.280607C281.291 0.280607 281.296 4.36452 282.678 4.36452C284.059 4.36452 284.059 3.7256 285.446 3.7256C286.833 3.7256 286.828 1.49369 288.215 1.49369C289.601 1.49369 289.596 4.70988 290.983 4.70988C292.37 4.70988 292.365 3.75582 293.751 3.75582C295.138 3.75582 295.138 3.28526 296.52 3.28526C297.902 3.28526 297.902 2.14125 299.288 2.14125C300.675 2.14125 300.67 3.49248 302.057 3.49248C303.444 3.49248 303.439 1.82179 304.825 1.82179C306.212 1.82179 306.212 5.66395 307.594 5.66395C308.976 5.66395 308.976 4.67103 310.362 4.67103C311.749 4.67103 311.744 5.08978 313.131 5.08978C314.517 5.08978 314.517 2.03764 315.899 2.03764C317.281 2.03764 317.281 2.87946 318.668 2.87946C320.054 2.87946 320.054 4.48971 321.436 4.48971C322.818 4.48971 322.823 3.78604 324.205 3.78604C325.587 3.78604 325.591 2.30098 326.973 2.30098C328.355 2.30098 328.36 3.02192 329.742 3.02192C331.124 3.02192 331.128 0.954064 332.51 0.954064C333.892 0.954064 333.897 3.1946 335.279 3.1946C336.661 3.1946 336.665 2.25349 338.047 2.25349C339.429 2.25349 339.434 4.72715 340.816 4.72715C342.198 4.72715 342.202 0.608702 343.584 0.608702C344.966 0.608702 344.971 1.25626 346.353 1.25626C347.735 1.25626 347.739 3.19029 349.121 3.19029C350.503 3.19029 350.503 3.43204 351.89 3.43204C353.276 3.43204 353.276 3.47089 354.658 3.47089C356.04 3.47089 356.045 0.790017 357.427 0.790017C358.809 0.790017 358.813 4.79191 360.195 4.79191C361.577 4.79191 361.582 1.06631 362.964 1.06631C364.346 1.06631 364.35 5.30995 365.737 5.30995C367.123 5.30995 367.123 3.82921 368.505 3.82921C369.887 3.82921 369.892 0.112243 371.279 0.112243C372.665 0.112243 372.097 0.621653 373.451 0.341046C374.921 0.0388533 375.887 1.91245 376.866 2.82766L376.839 2.83629Z" fill="#FFF3DE"/>
</svg>
