<svg width="672" height="395" viewBox="0 0 672 395" fill="none" xmlns="http://www.w3.org/2000/svg">
<path d="M666.418 3.98592C668.15 5.27209 667.505 5.86057 667.505 7.68669C667.505 9.51281 663.246 9.50674 663.246 11.3329C663.246 13.159 670.888 13.1529 670.888 14.979C670.888 16.8052 662.274 16.8052 662.274 18.6252C662.274 20.4453 663.467 20.4513 663.467 22.2714C663.467 24.0914 660.966 24.0975 660.966 25.9176C660.966 27.7376 667.954 27.7437 667.954 29.5637C667.954 31.3838 671.019 31.3898 671.019 33.2099C671.019 35.0299 665.772 35.0299 665.772 36.8561C665.772 38.6822 661.987 38.6761 661.987 40.5022C661.987 42.3284 665.518 42.3223 665.518 44.1484C665.518 45.9745 667.21 45.9685 667.21 47.7946C667.21 49.6207 670.937 49.6146 670.937 51.4408C670.937 53.2669 667.456 53.2608 667.456 55.0869C667.456 56.913 671.06 56.907 671.06 58.7331C671.06 60.5592 663.025 60.5592 663.025 62.3793C663.025 64.1993 660.974 64.2054 660.974 66.0254C660.974 67.8455 670.398 67.8516 670.398 69.6716C670.398 71.4917 667.529 71.4977 667.529 73.3178C667.529 75.1378 663.222 75.1439 663.222 76.964C663.222 78.784 670.512 78.784 670.512 80.6101C670.512 82.4362 667.014 82.4302 667.014 84.2563C667.014 86.0824 663.557 86.0764 663.557 87.9025C663.557 89.7286 662.846 89.7225 662.846 91.5486C662.846 93.3748 662.453 93.3748 662.453 95.1948C662.453 97.0149 671.624 97.0209 671.624 98.841C671.624 100.661 666.679 100.667 666.679 102.487C666.679 104.307 668.019 104.313 668.019 106.133C668.019 107.953 665.764 107.959 665.764 109.78C665.764 111.6 661.178 111.606 661.178 113.426C661.178 115.246 670.145 115.252 670.145 117.072C670.145 118.892 668.706 118.898 668.706 120.718C668.706 122.538 662.437 122.544 662.437 124.364C662.437 126.184 667.129 126.19 667.129 128.01C667.129 129.83 669.262 129.836 669.262 131.657C669.262 133.477 669.532 133.483 669.532 135.303C669.532 137.123 665.821 137.129 665.821 138.949C665.821 140.769 665.96 140.775 665.96 142.595C665.96 144.415 671.984 144.421 671.984 146.241C671.984 148.061 661.84 148.067 661.84 149.887C661.84 151.707 671.755 151.714 671.755 153.534C671.755 155.354 669.319 155.36 669.319 157.18C669.319 159 662.609 159.006 662.609 160.826C662.609 162.646 666.05 162.652 666.05 164.472C666.05 166.292 661.701 166.298 661.701 168.118C661.701 169.938 665.044 169.944 665.044 171.764C665.044 173.584 666.221 173.591 666.221 175.411C666.221 177.231 670.128 177.237 670.128 179.057C670.128 180.877 671.027 180.883 671.027 182.703C671.027 184.523 661.162 184.529 661.162 186.349C661.162 188.169 666.802 188.175 666.802 189.995C666.802 191.815 661.963 191.821 661.963 193.641C661.963 195.462 666.859 195.468 666.859 197.288C666.859 199.108 667.398 199.114 667.398 200.934C667.398 202.754 664.072 202.76 664.072 204.58C664.072 206.4 661.587 206.406 661.587 208.226C661.587 210.046 672.008 210.052 672.008 211.872C672.008 213.692 671.64 213.698 671.64 215.518C671.64 217.339 667.635 217.345 667.635 219.171C667.635 220.997 664.922 220.997 664.922 222.817C664.922 224.637 662.012 224.643 662.012 226.463C662.012 228.283 663.312 228.289 663.312 230.109C663.312 231.929 661.742 231.935 661.742 233.761C661.742 235.588 668.142 235.588 668.142 237.408C668.142 239.228 671.738 239.234 671.738 241.054C671.738 242.874 669.622 242.88 669.622 244.7C669.622 246.52 671.223 246.526 671.223 248.346C671.223 250.166 661.571 250.172 661.571 251.992C661.571 253.812 661.53 253.818 661.53 255.639C661.53 257.459 662.012 257.465 662.012 259.291C662.012 261.117 664.227 261.117 664.227 262.937C664.227 264.757 670.521 264.763 670.521 266.589C670.521 268.415 670.937 268.415 670.937 270.235C670.937 272.055 665.093 272.061 665.093 273.882C665.093 275.702 662.731 275.702 662.731 277.528C662.731 279.354 663.393 279.354 663.393 281.174C663.393 282.994 661.08 283 661.08 284.826C661.08 286.652 662.028 286.652 662.028 288.472C662.028 290.292 670.537 290.298 670.537 292.118C670.537 293.938 667.693 293.945 667.693 295.765C667.693 297.585 665.371 297.591 665.371 299.417C665.371 301.243 663.099 301.243 663.099 303.063C663.099 304.883 663.826 304.889 663.826 306.709C663.826 308.529 662.396 308.535 662.396 310.361C662.396 312.188 661.097 312.188 661.097 314.008C661.097 315.828 668.747 315.834 668.747 317.66C668.747 319.486 666.033 319.486 666.033 321.306C666.033 323.126 667.594 323.132 667.594 324.958C667.594 326.784 667.096 326.784 667.096 328.611C667.096 330.437 664.84 330.437 664.84 332.263C664.84 334.089 671.379 334.089 671.379 335.915C671.379 337.741 668.338 337.741 668.338 339.567C668.338 341.393 663.075 341.393 663.075 343.219C663.075 345.046 667.644 345.046 667.644 346.872C667.644 348.698 667.733 348.698 667.733 350.524C667.733 352.35 667.864 352.35 667.864 354.176C667.864 356.002 664.301 356.002 664.301 357.822C664.301 359.642 670.185 359.648 670.185 361.475C670.185 363.301 671.984 363.301 671.984 365.127C671.984 366.953 667.292 366.953 667.292 368.779C667.292 370.605 661.554 370.605 661.554 372.431C661.554 374.257 667.594 374.257 667.594 376.084C667.594 377.91 662.29 377.91 662.29 379.736C662.29 381.562 660.925 381.562 660.925 383.388C660.925 385.214 668.428 385.214 668.428 387.046C668.428 388.878 670.897 391.475 669.164 392.773C667.431 394.072 663.908 388.727 661.464 388.727C659.021 388.727 659.02 387.301 656.568 387.301C654.116 387.301 654.125 390.577 651.673 390.577C649.22 390.577 649.229 390.086 646.777 390.086C644.325 390.086 644.333 390.14 641.881 390.14C639.429 390.14 639.437 388.436 636.985 388.436C634.533 388.436 634.541 389.916 632.089 389.916C629.637 389.916 629.645 389.261 627.193 389.261C624.741 389.261 624.749 387.368 622.297 387.368C619.845 387.368 619.853 390.759 617.401 390.759C614.949 390.759 614.957 387.641 612.505 387.641C610.053 387.641 610.061 393.168 607.609 393.168C605.157 393.168 605.165 388.666 602.713 388.666C600.261 388.666 600.269 390.692 597.826 390.692C595.382 390.692 595.382 389.789 592.938 389.789C590.494 389.789 590.494 390.929 588.05 390.929C585.606 390.929 585.606 390.862 583.162 390.862C580.718 390.862 580.718 394.12 578.266 394.12C575.814 394.12 575.823 393.253 573.37 393.253C570.918 393.253 570.927 391.287 568.475 391.287C566.022 391.287 566.031 388.521 563.579 388.521C561.127 388.521 561.135 392.276 558.683 392.276C556.231 392.276 556.239 391.954 553.787 391.954C551.335 391.954 551.343 392.409 548.899 392.409C546.455 392.409 546.455 394.448 544.011 394.448C541.567 394.448 541.567 387.174 539.124 387.174C536.68 387.174 536.68 387.077 534.236 387.077C531.792 387.077 531.792 387.065 529.348 387.065C526.904 387.065 526.904 394.327 524.46 394.327C522.016 394.327 522.016 388.248 519.573 388.248C517.129 388.248 517.129 394.217 514.685 394.217C512.241 394.217 512.241 394.879 509.789 394.879C507.337 394.879 507.345 391.851 504.893 391.851C502.441 391.851 502.449 391.105 499.997 391.105C497.545 391.105 497.553 393.532 495.101 393.532C492.649 393.532 492.657 390.286 490.205 390.286C487.753 390.286 487.761 390.577 485.309 390.577C482.857 390.577 482.865 387.459 480.413 387.459C477.961 387.459 477.969 394.114 475.526 394.114C473.082 394.114 473.082 389.746 470.638 389.746C468.194 389.746 468.194 392.494 465.75 392.494C463.306 392.494 463.306 391.694 460.862 391.694C458.418 391.694 458.418 388.83 455.975 388.83C453.531 388.83 453.531 388.502 451.079 388.502C448.627 388.502 448.635 386.961 446.183 386.961C443.731 386.961 443.739 388.721 441.287 388.721C438.835 388.721 438.843 387.786 436.391 387.786C433.939 387.786 433.947 393.435 431.495 393.435C429.043 393.435 429.051 392.974 426.599 392.974C424.147 392.974 424.155 392.422 421.703 392.422C419.251 392.422 419.259 391.645 416.807 391.645C414.355 391.645 414.363 386.61 411.911 386.61C409.459 386.61 409.467 392.5 407.015 392.5C404.563 392.5 404.572 391.942 402.119 391.942C399.667 391.942 399.676 391.05 397.224 391.05C394.771 391.05 394.78 389.807 392.328 389.807C389.876 389.807 389.876 387.823 387.432 387.823C384.988 387.823 384.988 392.167 382.536 392.167C380.084 392.167 380.092 389.2 377.64 389.2C375.188 389.2 375.196 388.011 372.744 388.011C370.292 388.011 370.3 386.512 367.848 386.512C365.396 386.512 365.404 393.429 362.952 393.429C360.5 393.429 360.508 389.467 358.056 389.467C355.604 389.467 355.612 392.61 353.16 392.61C350.708 392.61 350.708 394.145 348.264 394.145C345.82 394.145 345.82 389.558 343.368 389.558C340.916 389.558 340.925 387.641 338.472 387.641C336.02 387.641 336.029 393.884 333.577 393.884C331.125 393.884 331.133 388.333 328.681 388.333C326.229 388.333 326.237 390.668 323.785 390.668C321.333 390.668 321.341 387.046 318.889 387.046C316.437 387.046 316.437 389.995 313.993 389.995C311.549 389.995 311.549 388.029 309.097 388.029C306.645 388.029 306.653 388.26 304.201 388.26C301.749 388.26 301.757 391.202 299.305 391.202C296.853 391.202 296.861 386.476 294.409 386.476C291.957 386.476 291.965 387.92 289.513 387.92C287.061 387.92 287.061 388.187 284.617 388.187C282.173 388.187 282.165 392.324 279.721 392.324C277.278 392.324 277.278 392.082 274.825 392.082C272.373 392.082 272.382 390.735 269.93 390.735C267.478 390.735 267.486 394.891 265.034 394.891C262.582 394.891 262.582 386.713 260.138 386.713C257.694 386.713 257.686 389.922 255.242 389.922C252.798 389.922 252.798 392.233 250.346 392.233C247.894 392.233 247.902 387.562 245.45 387.562C242.998 387.562 243.006 392.846 240.554 392.846C238.102 392.846 238.102 394.636 235.658 394.636C233.214 394.636 233.214 390.304 230.762 390.304C228.31 390.304 228.318 392.537 225.866 392.537C223.414 392.537 223.422 392.889 220.97 392.889C218.518 392.889 218.518 387.726 216.074 387.726C213.631 387.726 213.622 391.912 211.179 391.912C208.735 391.912 208.735 386.816 206.283 386.816C203.831 386.816 203.831 394.26 201.387 394.26C198.943 394.26 198.935 394.715 196.491 394.715C194.047 394.715 194.047 387.331 191.595 387.331C189.143 387.331 189.143 391.706 186.699 391.706C184.255 391.706 184.247 387.471 181.803 387.471C179.359 387.471 179.351 394.205 176.907 394.205C174.463 394.205 174.455 392.81 172.011 392.81C169.567 392.81 169.567 389.6 167.115 389.6C164.663 389.6 164.671 388.472 162.219 388.472C159.767 388.472 159.775 390.529 157.323 390.529C154.871 390.529 154.88 386.731 152.427 386.731C149.975 386.731 149.975 389.024 147.532 389.024C145.088 389.024 145.088 392.658 142.636 392.658C140.184 392.658 140.192 391.087 137.74 391.087C135.288 391.087 135.296 393.319 132.844 393.319C130.392 393.319 130.392 389.746 127.948 389.746C125.504 389.746 125.504 394.86 123.052 394.86C120.6 394.86 120.608 390.662 118.156 390.662C115.704 390.662 115.704 394.6 113.26 394.6C110.816 394.6 110.816 394.788 108.364 394.788C105.912 394.788 105.912 387.319 103.468 387.319C101.024 387.319 101.016 392.549 98.5723 392.549C96.1284 392.549 96.1203 392.464 93.6764 392.464C91.2325 392.464 91.2243 390.953 88.7805 390.953C86.3366 390.953 86.3284 388.029 83.8845 388.029C81.4407 388.029 81.4325 390.535 78.9886 390.535C76.5448 390.535 76.5366 386.616 74.0927 386.616C71.6488 386.616 71.6407 393.774 69.1968 393.774C66.7529 393.774 66.7447 394.575 64.3009 394.575C61.857 394.575 61.8488 392.464 59.4049 392.464C56.9611 392.464 56.9529 394.897 54.509 394.897C52.0651 394.897 52.0651 393.58 49.6131 393.58C47.161 393.58 47.161 392.197 44.7172 392.197C42.2733 392.197 42.2651 392.367 39.8213 392.367C37.3774 392.367 37.3692 392.07 34.9253 392.07C32.4815 392.07 32.4733 391.979 30.0294 391.979C27.5855 391.979 27.5774 387.689 25.1253 387.689C22.6733 387.689 22.6733 389.085 20.2294 389.085C17.7855 389.085 17.7773 387.143 15.3253 387.143C12.8732 387.143 12.8732 390.941 10.4212 390.941C7.96915 390.941 4.0377 394.314 2.30492 393.028C0.572144 391.742 3.5146 388.824 3.5146 387.004C3.5146 385.184 9.33413 385.184 9.33413 383.358C9.33413 381.532 9.14614 381.538 9.14614 379.712C9.14614 377.885 8.8192 377.885 8.8192 376.065C8.8192 374.245 1.16881 374.239 1.16881 372.419C1.16881 370.599 10.2332 370.593 10.2332 368.773C10.2332 366.953 3.46556 366.947 3.46556 365.127C3.46556 363.307 8.87641 363.301 8.87641 361.481C8.87641 359.661 2.06789 359.661 2.06789 357.834C2.06789 356.008 2.39483 356.014 2.39483 354.188C2.39483 352.362 9.43221 352.368 9.43221 350.542C9.43221 348.716 5.1493 348.722 5.1493 346.896C5.1493 345.07 5.90943 345.076 5.90943 343.25C5.90943 341.424 8.15714 341.43 8.15714 339.604C8.15714 337.778 10.8789 337.784 10.8789 335.957C10.8789 334.131 0.801002 334.131 0.801002 332.311C0.801002 330.491 10.4866 330.485 10.4866 328.665C10.4866 326.845 5.73779 326.839 5.73779 325.019C5.73779 323.199 10.6664 323.193 10.6664 321.373C10.6664 319.553 9.3423 319.547 9.3423 317.727C9.3423 315.907 9.72646 315.907 9.72646 314.08C9.72646 312.254 9.66107 312.26 9.66107 310.434C9.66107 308.608 0.18799 308.614 0.18799 306.788C0.18799 304.962 1.40584 304.968 1.40584 303.142C1.40584 301.316 1.02986 301.316 1.02986 299.496C1.02986 297.676 6.40802 297.67 6.40802 295.85C6.40802 294.029 10.176 294.023 10.176 292.203C10.176 290.383 8.386 290.377 8.386 288.557C8.386 286.737 7.24989 286.731 7.24989 284.911C7.24989 283.091 9.57933 283.085 9.57933 281.265C9.57933 279.445 5.0267 279.439 5.0267 277.619C5.0267 275.799 3.5146 275.793 3.5146 273.973C3.5146 272.152 9.93079 272.146 9.93079 270.326C9.93079 268.506 1.07073 268.5 1.07073 266.68C1.07073 264.86 6.53062 264.854 6.53062 263.034C6.53062 261.214 10.6255 261.208 10.6255 259.388C10.6255 257.568 5.22286 257.562 5.22286 255.742C5.22286 253.922 11.0179 253.916 11.0179 252.095C11.0179 250.275 3.19584 250.269 3.19584 248.449C3.19584 246.629 4.00501 246.623 4.00501 244.803C4.00501 242.983 10.3967 242.977 10.3967 241.157C10.3967 239.337 0.106255 239.331 0.106255 237.511C0.106255 235.691 8.09993 235.685 8.09993 233.865C8.09993 232.045 3.67807 232.039 3.67807 230.218C3.67807 228.398 3.48191 228.392 3.48191 226.572C3.48191 224.752 2.97515 224.746 2.97515 222.926C2.97515 221.106 4.64254 221.1 4.64254 219.28C4.64254 217.46 9.69376 217.454 9.69376 215.634C9.69376 213.814 1.61018 213.808 1.61018 211.988C1.61018 210.168 1.65105 210.161 1.65105 208.341C1.65105 206.521 5.79501 206.515 5.79501 204.695C5.79501 202.875 8.19801 202.869 8.19801 201.049C8.19801 199.229 8.84372 199.223 8.84372 197.403C8.84372 195.583 10.8626 195.577 10.8626 193.757C10.8626 191.937 0.53945 191.931 0.53945 190.111C0.53945 188.291 1.66739 188.284 1.66739 186.464C1.66739 184.644 4.73245 184.638 4.73245 182.818C4.73245 180.998 4.18483 180.992 4.18483 179.172C4.18483 177.352 1.62652 177.346 1.62652 175.52C1.62652 173.694 10.0861 173.694 10.0861 171.874C10.0861 170.054 1.83086 170.048 1.83086 168.227C1.83086 166.407 2.64004 166.401 2.64004 164.581C2.64004 162.761 2.67273 162.755 2.67273 160.929C2.67273 159.103 6.95564 159.103 6.95564 157.283C6.95564 155.463 0.286072 155.457 0.286072 153.637C0.286072 151.817 0.653879 151.811 0.653879 149.991C0.653879 148.17 1.56114 148.164 1.56114 146.344C1.56114 144.524 0 144.561 0 142.735C0 140.908 4.94496 140.908 4.94496 139.088C4.94496 137.268 5.1493 137.262 5.1493 135.436C5.1493 133.61 1.17698 133.61 1.17698 131.79C1.17698 129.97 2.88524 129.964 2.88524 128.138C2.88524 126.312 1.48758 126.312 1.48758 124.492C1.48758 122.672 11.1486 122.665 11.1486 120.845C11.1486 119.025 6.86573 119.025 6.86573 117.199C6.86573 115.373 5.47624 115.373 5.47624 113.553C5.47624 111.733 0.580318 111.727 0.580318 109.901C0.580318 108.075 7.23354 108.075 7.23354 106.255C7.23354 104.435 0.833696 104.429 0.833696 102.609C0.833696 100.788 8.57399 100.782 8.57399 98.9623C8.57399 97.1423 0.00817349 97.1301 0.00817349 95.3101C0.00817349 93.49 5.3046 93.484 5.3046 91.6639C5.3046 89.8439 3.95597 89.8378 3.95597 88.0177C3.95597 86.1977 1.97799 86.1916 1.97799 84.3655C1.97799 82.5394 8.13262 82.5394 8.13262 80.7193C8.13262 78.8993 4.79784 78.8932 4.79784 77.0671C4.79784 75.241 10.5602 75.241 10.5602 73.4209C10.5602 71.6009 9.53029 71.5948 9.53029 69.7687C9.53029 67.9426 2.28858 67.9426 2.28858 66.1164C2.28858 64.2903 0.980819 64.2903 0.980819 62.4642C0.980819 60.6381 10.3068 60.6381 10.3068 58.812C10.3068 56.9858 10.7645 56.9858 10.7645 55.1597C10.7645 53.3336 10.4212 53.3336 10.4212 51.5075C10.4212 49.6814 3.96414 49.6814 3.96414 47.8552C3.96414 46.0291 8.07541 46.0291 8.07541 44.203C8.07541 42.3769 0.457716 42.3769 0.457716 40.5508C0.457716 38.7247 6.83304 38.7247 6.83304 36.9046C6.83304 35.0845 6.69409 35.0785 6.69409 33.2524C6.69409 31.4262 4.20117 31.4262 4.20117 29.6001C4.20117 27.774 6.86573 27.774 6.86573 25.9479C6.86573 24.1218 4.87957 24.1218 4.87957 22.2956C4.87957 20.4695 5.90943 20.4695 5.90943 18.6434C5.90943 16.8173 6.49793 16.8173 6.49793 14.9912C6.49793 13.165 9.84088 13.165 9.84088 11.3389C9.84088 9.51281 3.09775 9.52494 3.09775 7.69276C3.09775 5.86057 1.87173 3.89491 3.60451 2.60268C5.33729 1.31044 8.00185 1.34077 10.4457 1.34077C12.8896 1.34077 12.8896 2.04453 15.3416 2.04453C17.7937 2.04453 17.7855 5.41769 20.2376 5.41769C22.6896 5.41769 22.6814 5.36309 25.1335 5.36309C27.5855 5.36309 27.5774 3.57337 30.0294 3.57337C32.4815 3.57337 32.4733 1.97779 34.9253 1.97779C37.3774 1.97779 37.3692 2.36607 39.8213 2.36607C42.2733 2.36607 42.2651 5.22355 44.7172 5.22355C47.1692 5.22355 47.161 5.62396 49.6131 5.62396C52.0651 5.62396 52.057 8.18417 54.509 8.18417C56.9611 8.18417 56.9529 6.66746 59.4049 6.66746C61.857 6.66746 61.8488 3.84031 64.3009 3.84031C66.7529 3.84031 66.7447 4.56227 69.1968 4.56227C71.6488 4.56227 71.6407 4.02232 74.0845 4.02232C76.5284 4.02232 76.5284 2.96669 78.9723 2.96669C81.4162 2.96669 81.4162 5.50263 83.86 5.50263C86.3039 5.50263 86.3039 5.77563 88.7478 5.77563C91.1917 5.77563 91.1916 7.63815 93.6437 7.63815C96.0957 7.63815 96.0876 0 98.5396 0C100.992 0 100.983 4.50766 103.436 4.50766C105.888 4.50766 105.879 7.88083 108.331 7.88083C110.784 7.88083 110.775 4.05265 113.227 4.05265C115.679 4.05265 115.671 2.96062 118.123 2.96062C120.575 2.96062 120.567 1.07383 123.011 1.07383C125.455 1.07383 125.455 7.05574 127.899 7.05574C130.343 7.05574 130.343 5.84237 132.787 5.84237C135.23 5.84237 135.23 2.59054 137.674 2.59054C140.118 2.59054 140.118 3.51877 142.562 3.51877C145.006 3.51877 145.006 5.82417 147.45 5.82417C149.894 5.82417 149.894 3.33676 152.338 3.33676C154.781 3.33676 154.781 6.13358 157.225 6.13358C159.669 6.13358 159.669 4.71394 162.121 4.71394C164.573 4.71394 164.565 6.72813 167.017 6.72813C169.469 6.72813 169.461 2.57841 171.913 2.57841C174.365 2.57841 174.357 3.82818 176.809 3.82818C179.261 3.82818 179.253 1.58345 181.705 1.58345C184.157 1.58345 184.149 1.41357 186.601 1.41357C189.053 1.41357 189.045 5.35095 191.497 5.35095C193.949 5.35095 193.941 6.49152 196.384 6.49152C198.828 6.49152 198.828 3.26396 201.272 3.26396C203.716 3.26396 203.716 3.5855 206.16 3.5855C208.604 3.5855 208.604 2.11126 211.048 2.11126C213.492 2.11126 213.492 5.31455 215.935 5.31455C218.379 5.31455 218.379 3.20329 220.831 3.20329C223.283 3.20329 223.275 0.34581 225.727 0.34581C228.179 0.34581 228.171 2.03239 230.623 2.03239C233.075 2.03239 233.067 6.52792 235.519 6.52792C237.971 6.52792 237.963 5.19928 240.415 5.19928C242.867 5.19928 242.859 6.38232 245.311 6.38232C247.763 6.38232 247.755 1.07383 250.207 1.07383C252.659 1.07383 252.651 0.412545 255.103 0.412545C257.555 0.412545 257.547 2.2144 259.999 2.2144C262.451 2.2144 262.443 1.95959 264.895 1.95959C267.347 1.95959 267.339 5.75743 269.791 5.75743C272.243 5.75743 272.235 0.473214 274.687 0.473214C277.139 0.473214 277.13 6.50972 279.582 6.50972C282.035 6.50972 282.035 7.26808 284.478 7.26808C286.922 7.26808 286.922 5.03548 289.374 5.03548C291.826 5.03548 291.818 3.65224 294.27 3.65224C296.722 3.65224 296.714 4.41666 299.166 4.41666C301.618 4.41666 301.61 6.07898 304.062 6.07898C306.514 6.07898 306.506 8.0143 308.958 8.0143C311.41 8.0143 311.402 7.43795 313.854 7.43795C316.306 7.43795 316.298 2.20833 318.75 2.20833C321.202 2.20833 321.202 5.13862 323.646 5.13862C326.09 5.13862 326.09 5.78777 328.542 5.78777C330.994 5.78777 330.986 2.68154 333.438 2.68154C335.89 2.68154 335.881 2.48134 338.334 2.48134C340.786 2.48134 340.777 1.88072 343.229 1.88072C345.681 1.88072 345.673 0.770489 348.125 0.770489C350.577 0.770489 350.569 1.57131 353.021 1.57131C355.473 1.57131 355.473 1.03136 357.917 1.03136C360.361 1.03136 360.361 2.38427 362.813 2.38427C365.265 2.38427 365.257 4.24679 367.709 4.24679C370.161 4.24679 370.153 2.55414 372.605 2.55414C375.057 2.55414 375.049 4.98694 377.501 4.98694C379.953 4.98694 379.945 6.56432 382.397 6.56432C384.849 6.56432 384.849 0.970695 387.293 0.970695C389.737 0.970695 389.745 2.56627 392.189 2.56627C394.633 2.56627 394.633 0.861492 397.085 0.861492C399.537 0.861492 399.528 0.630952 401.981 0.630952C404.433 0.630952 404.424 2.60874 406.876 2.60874C409.328 2.60874 409.328 1.00103 411.772 1.00103C414.216 1.00103 414.224 0.667353 416.668 0.667353C419.112 0.667353 419.112 1.1345 421.564 1.1345C424.016 1.1345 424.008 1.79579 426.46 1.79579C428.912 1.79579 428.904 3.64617 431.356 3.64617C433.808 3.64617 433.808 1.28617 436.252 1.28617C438.696 1.28617 438.696 3.87671 441.148 3.87671C443.6 3.87671 443.592 8.14777 446.044 8.14777C448.496 8.14777 448.488 5.12041 450.94 5.12041C453.392 5.12041 453.392 2.29933 455.836 2.29933C458.28 2.29933 458.288 0.891826 460.732 0.891826C463.175 0.891826 463.175 3.5309 465.627 3.5309C468.08 3.5309 468.08 0.491414 470.523 0.491414C472.967 0.491414 472.975 2.36607 475.419 2.36607C477.863 2.36607 477.863 3.6037 480.315 3.6037C482.767 3.6037 482.767 6.26705 485.211 6.26705C487.655 6.26705 487.663 4.5562 490.107 4.5562C492.551 4.5562 492.559 0.394345 495.003 0.394345C497.447 0.394345 497.455 6.13358 499.899 6.13358C502.343 6.13358 502.343 5.23568 504.795 5.23568C507.247 5.23568 507.239 2.09913 509.691 2.09913C512.143 2.09913 512.135 6.61892 514.587 6.61892C517.039 6.61892 517.031 5.27815 519.483 5.27815C521.935 5.27815 521.935 4.61687 524.379 4.61687C526.822 4.61687 526.822 3.00915 529.274 3.00915C531.727 3.00915 531.718 4.90808 534.17 4.90808C536.622 4.90808 536.614 2.56021 539.066 2.56021C541.518 2.56021 541.518 7.9597 543.962 7.9597C546.406 7.9597 546.406 6.56432 548.858 6.56432C551.31 6.56432 551.302 7.15281 553.754 7.15281C556.206 7.15281 556.206 2.86355 558.65 2.86355C561.094 2.86355 561.094 4.04658 563.546 4.04658C565.998 4.04658 565.998 6.30952 568.442 6.30952C570.886 6.30952 570.894 5.32062 573.338 5.32062C575.782 5.32062 575.79 3.23363 578.234 3.23363C580.678 3.23363 580.686 4.24679 583.13 4.24679C585.573 4.24679 585.582 1.34077 588.026 1.34077C590.469 1.34077 590.478 4.48946 592.921 4.48946C595.365 4.48946 595.373 3.16689 597.817 3.16689C600.261 3.16689 600.269 6.64319 602.713 6.64319C605.157 6.64319 605.165 0.855425 607.609 0.855425C610.053 0.855425 610.061 1.76545 612.505 1.76545C614.949 1.76545 614.957 4.4834 617.401 4.4834C619.845 4.4834 619.845 4.82314 622.297 4.82314C624.749 4.82314 624.749 4.87774 627.193 4.87774C629.637 4.87774 629.645 1.11023 632.089 1.11023C634.533 1.11023 634.541 6.73419 636.985 6.73419C639.429 6.73419 639.437 1.49851 641.881 1.49851C644.325 1.49851 644.333 7.46222 646.785 7.46222C649.237 7.46222 649.237 5.38129 651.681 5.38129C654.125 5.38129 654.133 0.157738 656.585 0.157738C659.037 0.157738 658.031 0.873625 660.426 0.479281C663.026 0.0546016 664.734 2.68761 666.467 3.97378L666.418 3.98592Z" fill="#FFF3DE"/>
</svg>
