<svg width="67" height="66" viewBox="0 0 67 66" fill="none" xmlns="http://www.w3.org/2000/svg">
<path d="M59.6897 6.16413C60.1118 6.10585 60.578 6.10183 60.9579 6.11388C61.3699 6.12594 61.7618 6.13197 62.1376 6.27667C62.4873 6.41133 62.8913 6.53995 63.2209 6.83941C63.46 7.05646 63.6047 7.43027 63.8097 7.75786C63.9926 8.0533 64.1132 8.39294 64.2398 8.73259C64.3664 9.07224 64.5915 9.39983 64.6297 9.7435C64.6719 10.1233 64.5051 10.473 64.4046 10.7926C64.3704 10.9011 64.3825 11.1282 64.2458 11.1182C64.0891 11.1342 64.0087 11.0699 63.87 11.0076C63.6087 10.8911 62.7727 10.3665 62.5094 10.1454C62.2461 9.92437 62.017 9.65306 61.7698 9.4139C61.5226 9.17474 61.2553 8.94763 61.0182 8.69843C60.781 8.44922 60.5941 8.14976 60.357 7.90055C60.1198 7.65135 59.8867 7.39611 59.6415 7.15293C59.4787 7.1268 59.4847 7.14891 59.4546 7.23131C59.2295 7.83021 59.3039 8.10756 59.4023 8.29447C59.5189 8.51755 59.7259 8.71048 60.164 9.06018C60.4997 9.32748 60.9036 9.50032 61.1749 9.79575C61.4623 10.1093 61.6854 10.469 61.8824 10.8268C62.0793 11.1845 62.1939 11.5824 62.2863 11.9984C62.3728 12.3823 62.4049 12.8184 62.3848 13.2606C62.7405 13.1239 63.1103 12.935 63.4319 12.7943C63.7534 12.6536 64.083 12.4948 64.491 12.734C64.8206 12.9269 64.9653 13.2545 65.0598 13.5781C65.1542 13.9017 65.112 14.2433 65.0799 14.589C65.0437 14.9668 64.8648 15.3608 64.8166 15.7004C64.7583 16.1003 64.8829 16.4922 64.9995 16.8801C65.1161 17.268 65.2306 17.6378 65.2688 18.0377C65.313 18.5201 65.3653 18.9381 65.3773 19.4225C65.8516 19.4727 66.1189 19.73 66.3822 19.9731C66.6817 20.2485 66.8243 20.6102 66.8565 21.0343C66.8846 21.4041 66.9409 21.8442 66.7741 22.2542C66.6073 22.6642 66.0124 22.9194 65.9581 23.0923C65.8396 23.4701 65.8496 24.1896 65.7712 24.6297C65.7089 24.9895 65.7773 25.4135 65.6929 25.8376C65.6185 26.2114 65.4376 26.5852 65.3432 26.9932C65.2567 27.373 65.2447 27.787 65.1382 28.183C65.0317 28.5789 64.7925 28.9125 64.6699 29.2984C64.5473 29.6843 64.477 30.0802 64.3363 30.454C64.1956 30.8278 63.9524 31.1634 63.7876 31.5232C63.6228 31.8829 63.5002 32.2809 63.3013 32.6205C63.0922 32.9762 62.8109 33.2596 62.5697 33.5651C62.3125 33.8907 62.1477 34.2806 61.8522 34.5318C61.5387 34.7971 61.1709 34.9759 60.8112 35.1387C60.568 35.2472 59.8304 35.4402 59.7299 35.5427C59.6154 35.6613 59.6154 36.1094 59.5169 36.3044C59.33 36.6802 58.922 36.9555 58.6085 37.2711C58.295 37.5866 58.0015 37.9725 57.5453 38.0207C57.268 38.0509 56.7535 37.8921 56.6269 37.9222C56.5405 37.9423 56.1345 38.2759 55.9194 38.3664C55.1638 38.6839 54.9206 38.5352 54.2694 38.5794C53.8072 38.6116 53.5519 38.69 52.937 38.6598C52.4607 38.6377 52.0185 38.6116 51.6045 38.4629C51.1905 38.3141 50.7564 38.1312 50.3665 37.8961C49.9766 37.661 49.6591 37.2791 49.2852 37.0158C48.9134 37.0359 48.5135 37.1686 48.1437 37.1786C47.7739 37.1887 47.4001 37.1947 47.0303 37.1887C46.6605 37.1826 46.2827 37.2309 45.9129 37.2047C45.5431 37.1786 45.1793 37.056 44.8135 36.9998C44.4478 36.9435 44.084 36.8711 43.7223 36.7807C43.3605 36.6902 43.0148 36.5737 42.6631 36.4431C42.3114 36.3124 41.9275 36.232 41.5939 36.0612C41.2603 35.8904 41.0131 35.5628 40.7016 35.3538C40.3901 35.1448 40.0504 34.9759 39.763 34.7348C39.4757 34.4936 39.1802 34.2564 38.921 33.9831C38.6617 33.7098 38.4688 33.4485 38.2397 33.1491C37.8397 33.6656 37.9824 33.7339 37.7432 34.3408C37.5041 34.9478 37.3935 34.9056 37.1544 35.5145C36.9152 36.1235 36.9092 36.1215 36.67 36.7284C36.4309 37.3354 36.3987 37.3334 36.3465 37.9865C36.7143 38.1674 36.9594 38.4508 37.3212 38.6477C37.683 38.8447 38.0849 38.9613 38.4366 39.1723C38.7883 39.3833 39.1903 39.522 39.5319 39.7491C39.8736 39.9762 40.0967 40.3741 40.4283 40.6173C40.7599 40.8605 41.1699 40.9971 41.4894 41.2544C41.809 41.5116 42.0542 41.8573 42.3596 42.1306C42.6651 42.404 43.0932 42.5507 43.3866 42.8401C43.6801 43.1295 43.877 43.5113 44.1523 43.8168C44.4277 44.1223 44.6467 44.47 44.906 44.7916C45.1653 45.1131 45.4305 45.4186 45.6697 45.7542C45.8968 46.0718 46.1199 46.3893 46.3309 46.7169C46.5419 47.0445 46.6826 47.4123 46.8776 47.7499C47.0725 48.0876 47.2936 48.4071 47.4725 48.7548C47.6513 49.1025 47.792 49.4642 47.9528 49.8179C48.1136 50.1717 48.3165 50.5073 48.4633 50.869C48.61 51.2308 48.7406 51.5966 48.8732 51.9644C49.0059 52.3321 49.0702 52.718 49.1888 53.0898C49.3074 53.4616 49.6148 53.7772 49.7194 54.153C49.8239 54.5288 49.848 54.9287 49.9404 55.3066C50.0329 55.6844 50.1273 56.0663 50.2077 56.4481C50.2881 56.83 50.3022 57.2339 50.3705 57.6178C50.481 57.6379 50.5795 57.5274 50.678 57.4912C51.0438 57.3545 51.4698 57.2018 51.8778 56.9767C52.2858 56.7516 52.6757 56.5848 53.0616 56.4361C53.3952 56.3074 53.7569 56.1547 54.1589 56.0602C54.5327 55.9718 54.9226 55.9618 55.3085 55.9376C55.6943 55.9135 56.1124 55.7789 56.4802 55.8593C56.87 55.9457 57.2077 56.1748 57.5051 56.424C57.7825 56.6551 57.9111 56.9968 58.0618 57.4068C58.1925 57.7605 58.1663 57.9454 58.0277 58.1886C57.889 58.4317 57.7061 58.6307 57.489 58.8819C57.272 59.1332 57.1112 59.4768 56.8399 59.726C56.5847 59.9592 56.2048 60.0576 55.9235 60.2787C55.6421 60.4998 55.4532 60.8374 55.1678 61.0344C54.8643 61.2434 54.5327 61.3921 54.2493 61.5629C53.8936 61.778 53.5218 61.983 53.142 62.1799C52.7621 62.3769 52.4124 62.6201 52.0225 62.7829C51.6326 62.9457 51.2407 63.1326 50.8368 63.2572C50.4328 63.3818 49.9826 63.3416 49.5666 63.4159C49.1506 63.4903 48.7346 63.5305 48.3125 63.5446C47.8905 63.5586 47.4905 63.6149 47.0685 63.5546C47.0765 63.9405 47.5126 64.4087 47.0645 64.66C46.7087 64.7866 46.343 64.9052 45.9772 65.0358C45.6114 65.1664 45.2617 65.3252 44.898 65.4418C44.5342 65.5583 44.1704 65.7231 43.8026 65.8136C43.5514 65.8759 42.9344 66.0869 42.7274 65.9603C42.6068 65.8879 42.442 65.4136 42.3416 64.879C42.2772 64.5293 42.3315 64.1193 42.2752 63.7616C42.1989 63.2672 42.1225 62.819 42.0702 62.6522C41.8773 62.6281 41.5075 62.811 41.1498 62.8994C40.7599 62.9939 40.4222 62.9336 40.2816 62.8291C40.171 62.7467 39.97 62.391 39.8655 61.8523C39.7972 61.4986 39.6485 61.1168 39.5922 60.755C39.5158 60.2646 39.5601 59.8165 39.5219 59.6275C39.4395 59.2256 39.3249 58.8297 39.2285 58.4317C39.132 58.0338 39.1199 57.6118 39.0074 57.2158C38.8948 56.8199 38.6175 56.4783 38.4889 56.0884C38.3602 55.6985 38.2336 55.3146 38.0809 54.9328C37.9281 54.5509 37.7774 54.1771 37.5985 53.8073C37.4197 53.4375 37.2951 53.0456 37.0881 52.6899C36.8811 52.3342 36.6821 51.9784 36.4449 51.6388C36.2259 51.3273 36.0651 50.9655 35.8239 50.6781C35.5828 50.3907 35.3074 50.1134 35.0421 49.8461C34.7769 49.5788 34.4312 49.3879 34.1458 49.1407C33.8604 48.8935 33.5147 48.7246 33.2113 48.4975C32.9078 48.2704 32.6385 48.0031 32.3209 47.7981C32.0034 47.5932 31.7039 47.358 31.3743 47.1711C31.0447 46.9842 30.6528 46.9219 30.3152 46.7531C29.9776 46.5843 29.7183 46.2466 29.3706 46.0939C29.0229 45.9411 28.6109 45.9532 28.2592 45.8145C28.1889 45.7944 28.2371 45.8246 28.1969 45.8708C28.008 46.0818 27.7065 46.8274 27.5277 47.143C27.3388 47.4766 27.0715 47.772 26.8604 48.1056C26.6494 48.4393 26.4927 48.793 26.2676 49.1145C26.0425 49.4361 25.7249 49.6793 25.4817 49.9848C25.2386 50.2902 25.0999 50.6842 24.8386 50.9715C24.5774 51.2589 24.3161 51.5624 24.0327 51.8277C23.7493 52.093 23.4157 52.3181 23.1082 52.5572C22.8007 52.7964 22.3867 52.8808 22.0551 53.0838C21.7235 53.2868 21.4241 53.538 21.0683 53.6988C20.7126 53.8596 20.3951 54.1289 20.0192 54.2414C19.6434 54.354 19.2555 54.4464 18.8636 54.5027C18.4717 54.559 18.0638 54.4243 17.6477 54.4243C17.2578 54.4243 16.8519 54.4886 16.4439 54.4504C16.0359 54.4122 15.6681 54.2414 15.2682 54.1751C14.8683 54.1088 14.4764 54.0686 14.0844 53.9781C13.6925 53.8877 13.2665 53.9158 12.8846 53.8073C12.5028 53.6988 12.1069 53.5581 11.7371 53.4335C11.3411 53.2988 10.9472 53.1863 10.5935 53.0456C10.1735 52.8788 9.84387 52.507 9.4379 52.308C9.03193 52.1091 8.54959 52.0588 8.15367 51.8438C7.75775 51.6287 7.42212 51.3815 7.0262 51.1685C6.77096 51.6629 6.54587 52.1493 6.25245 52.6215C6.08765 52.8888 5.80829 53.1481 5.56109 53.4656C5.35007 53.739 5.14507 54.0465 4.88783 54.3178C4.63058 54.5891 4.37534 54.8383 4.09598 55.0654C3.81663 55.2925 3.53526 55.5739 3.22576 55.7367C2.88812 55.9135 2.51833 56.0582 2.17265 56.1004C1.82697 56.1426 1.419 56.0683 1.07131 55.9155C0.667348 55.7367 0.462353 55.3488 0.303583 54.9509C0.160891 54.5951 0.00413004 54.1892 0.000110534 53.741C-0.00390897 53.339 0.102608 52.915 0.170939 52.4969C0.239271 52.0789 0.321671 51.6549 0.424168 51.273C0.550782 50.8088 0.791953 50.4309 0.906508 50.1214C1.05925 49.7094 1.19591 49.2994 1.38483 48.9075C1.57375 48.5156 1.82296 48.1539 2.038 47.774C2.25304 47.3942 2.35554 46.948 2.58264 46.5722C2.80974 46.1964 3.03082 45.8547 3.25792 45.4809C2.78362 45.1754 2.66303 45.2618 2.81376 44.5946C2.84994 44.4358 2.96248 43.9676 3.21973 43.4511C3.39659 43.0933 3.6257 42.7195 3.82065 42.3738C4.1201 41.8412 4.3251 41.3267 4.43965 41.2745C4.5723 41.2142 4.66072 41.2745 4.78533 41.3006C5.11493 41.3629 5.60531 41.5257 6.08162 41.7307C6.55793 41.9357 6.99003 42.1306 7.33168 42.2532C7.67334 42.3758 7.97882 42.6451 8.34259 42.7798C8.70635 42.9145 9.10629 42.8722 9.46403 42.9948C9.82177 43.1174 10.1413 43.3586 10.5011 43.4631C10.8608 43.5676 11.2487 43.6179 11.6104 43.6902C11.9722 43.7626 12.3681 43.7364 12.7339 43.7585C13.1218 43.7827 13.5036 43.9193 13.8634 43.8631C14.2231 43.8068 14.615 43.6862 14.9507 43.5154C15.2863 43.3445 15.5877 43.1154 15.8611 42.828C16.1002 42.5748 16.2831 42.2392 16.4761 41.8754C16.6368 41.5699 16.8398 41.2423 16.9624 40.8504C17.1011 40.4083 17.1694 39.938 17.28 39.4798C17.3905 39.0216 17.3845 38.5352 17.5231 38.089C17.6276 37.7534 17.8427 37.4499 17.9693 37.1203C18.0959 36.7907 18.2587 36.4752 18.3813 36.1476C18.5039 35.82 18.6607 35.4924 18.7611 35.1568C18.8797 34.7589 18.934 34.3328 19.0345 33.9188C19.135 33.5048 19.2033 33.0928 19.2998 32.6808C19.3962 32.2688 19.4143 31.8327 19.5228 31.4307C19.6173 31.0871 19.7942 30.661 19.9389 30.2389C20.0836 29.8169 20.3287 29.3948 20.371 29.0592C20.389 28.9185 20.4192 28.7236 20.3247 28.605C19.9811 28.4684 19.555 28.4684 19.1671 28.4141C18.7792 28.3598 18.4255 28.2292 18.0678 28.1287C17.71 28.0282 17.3061 28.0543 17.0388 27.7569C16.7956 27.9197 16.46 28.0282 16.1344 28.2975C15.845 28.5367 15.6239 28.8663 15.4189 29.1537C15.1778 29.4893 14.9386 29.837 15.019 30.1847C15.0712 30.4118 15.7827 31.1936 15.9736 31.5171C16.2047 31.9091 16.4439 32.2989 16.5544 32.7391C16.665 33.1792 16.669 33.6374 16.6288 34.0896C16.5886 34.5418 16.5665 35.0081 16.3555 35.4261C16.1444 35.8441 15.7505 35.9808 15.5576 36.3084C15.3305 36.6923 15.234 37.1806 14.9507 37.5786C14.6673 37.9765 14.4281 38.4186 14.0262 38.5794C13.6242 38.7402 13.1097 38.7382 12.6334 38.6055C12.3541 38.5272 11.926 38.2297 11.723 38.1956C11.5341 38.1654 11.2929 38.2418 11.0517 38.2337C10.2378 38.2096 10.0589 37.7936 9.49418 37.5303C8.99174 37.2952 8.66616 37.2992 8.14965 36.8812C7.82608 36.6199 7.51658 36.3265 7.32164 35.9848C7.12669 35.6432 6.95988 35.2352 6.87748 34.8373C6.79508 34.4393 6.76091 34.0173 6.78302 33.6113C6.80513 33.2053 6.95586 32.8074 7.06439 32.4235C7.17291 32.0397 7.30556 31.6337 7.49447 31.29C7.62511 31.0549 7.91049 30.8419 8.10946 30.5806C8.31847 30.3053 8.40891 29.9797 8.49734 29.7445C8.62395 29.4109 8.80483 28.9728 8.84905 28.4905C8.89326 28.0081 8.92944 27.5599 8.99978 27.1922C9.07414 26.7983 9.0259 26.3822 9.13845 26.0165C9.251 25.6507 9.38766 25.2568 9.53839 24.9031C9.68912 24.5493 9.96446 24.2298 10.1574 23.8962C10.3503 23.5625 10.493 23.1706 10.7241 22.8591C10.9553 22.5476 11.2849 22.3004 11.5502 22.015C11.8154 21.7297 12.0405 21.39 12.338 21.1368C12.6354 20.8835 13.0173 20.7348 13.3388 20.5117C13.6604 20.2887 13.998 20.1018 14.3397 19.9088C14.6813 19.7159 14.9808 19.4506 15.3385 19.2858C15.6963 19.121 16.1042 19.1009 16.472 18.9662C16.8398 18.8316 17.1915 18.6728 17.5694 18.5663C17.9472 18.4598 18.2989 18.2548 18.6828 18.1764C19.0666 18.098 19.4706 18.1422 19.8585 18.088C20.2463 18.0337 20.6222 17.8629 21.0121 17.8348C21.402 17.8066 21.7999 17.7845 22.1898 17.7805C22.5797 17.7765 22.9796 17.7905 23.3675 17.8086C23.7554 17.8267 24.1392 18.0016 24.5271 18.0438C24.915 18.086 25.3129 18.0779 25.6968 18.1463C25.9219 18.1865 26.5349 18.4276 26.6595 18.2447C26.7459 18.1161 26.7419 17.475 26.6213 17.3464C26.573 17.2961 26.2414 17.1213 25.8495 16.9786C25.5179 16.858 25.2305 16.643 25.0798 16.5566C24.7341 16.3576 24.3503 16.227 24.0749 15.9556C23.7996 15.6843 23.5584 15.3587 23.3494 15.0271C23.1404 14.6955 22.9213 14.3559 22.7827 13.9881C22.644 13.6203 22.6279 13.2143 22.5596 12.8265C22.4912 12.4386 22.5133 11.9984 22.5154 11.6085C22.1235 11.4719 21.6049 11.5101 21.2452 11.3372C20.8854 11.1644 20.5257 10.877 20.3227 10.463C20.1378 10.0811 20.1137 9.63497 20.1519 9.23302C20.1901 8.83107 20.3971 8.47534 20.58 8.09349C20.7488 7.73776 20.9558 7.38606 21.199 7.05646C21.4421 6.72686 21.7094 6.41334 21.9767 6.12594C22.2782 5.80438 22.5314 5.46473 22.7947 5.22557C22.9414 5.09293 23.3092 4.76333 23.6911 4.46991C24.1111 4.14634 24.5914 3.90517 24.6417 3.79262C24.6899 3.6861 24.5613 3.49317 24.5291 3.3344C24.4327 2.84603 24.6598 2.48226 25.0537 2.37776C25.4476 2.27325 25.8515 2.47623 26.0184 2.95254C26.0425 2.99475 26.1409 2.96862 26.1852 2.94853C26.5349 2.74755 26.8946 2.5526 27.2604 2.36771C27.6262 2.18281 28.0181 2.07629 28.3899 1.90948C28.7617 1.74267 29.0571 1.39901 29.4389 1.2523C29.8208 1.10558 30.2589 1.12568 30.6468 1.00108C31.0347 0.876472 31.4105 0.719711 31.8044 0.621233C32.1983 0.522755 32.5963 0.440355 32.9962 0.368004C33.3962 0.295653 33.7901 0.154971 34.194 0.112766C34.598 0.070561 35.008 0.00825874 35.4139 0.00021973C35.8199 -0.00781928 36.2239 0.207224 36.6298 0.235361C37.0057 0.261487 37.4699 0.247419 37.9241 0.392121C38.3482 0.526775 38.7803 0.689565 39.1119 0.948823C39.4716 1.22818 39.6585 1.60802 39.7188 2.0562C39.7791 2.50437 39.8997 2.89828 39.7952 3.21582C39.6746 3.58562 39.4154 3.90115 39.138 4.19055C38.8948 4.44579 38.5029 4.65079 38.1934 4.93014C38.1552 5.51699 38.4225 5.50091 38.5311 6.07771C38.6396 6.65451 38.5853 6.66657 38.6939 7.24337C38.8024 7.82016 38.6094 7.89252 38.921 8.39093C39.351 8.27638 39.7108 8.36079 40.0524 8.40098C40.4845 8.45123 40.8342 8.52961 41.1116 8.76073C41.4171 9.01396 41.6361 9.33552 41.7386 9.71335C41.8411 10.0912 41.8472 10.475 41.7426 10.8669C41.6482 11.2247 41.3909 11.5101 41.1156 11.8196C40.8764 12.0889 40.6232 12.3843 40.2414 12.5712C40.3137 12.9651 40.4564 13.3651 40.4805 13.761C40.5046 14.1569 40.5167 14.5709 40.4886 14.9668C40.4604 15.3628 40.364 15.7647 40.2816 16.1546C40.1992 16.5445 39.9901 16.9002 39.8495 17.272C39.7088 17.6438 39.4917 17.9674 39.2908 18.3131C39.0898 18.6588 39.0516 19.0125 38.7923 19.322C39.1983 19.529 39.4355 19.8546 39.7831 20.1299C40.1308 20.4052 40.4604 20.7308 40.8101 21.0122C40.9629 21.0001 41.0714 20.3289 41.0955 20.1902C41.1518 19.8747 41.1638 19.4968 41.2101 19.0808C41.2483 18.7351 41.4251 18.3754 41.4653 17.9835C41.5015 17.6257 41.5477 17.2539 41.5899 16.8741C41.6321 16.4943 41.4794 16.1104 41.5316 15.7406C41.5839 15.3708 41.6904 15.003 41.7607 14.6413C41.8311 14.2795 42.0702 13.9399 42.1667 13.5902C42.2712 13.2163 42.3858 12.8747 42.5244 12.5471C42.6792 12.1813 42.7797 11.8276 42.9847 11.5442C43.2178 11.2267 43.4268 10.8891 43.7403 10.7122C43.9494 10.5936 44.3433 10.6197 44.4618 10.3926C44.5382 10.2178 44.5764 9.86609 44.6206 9.51238C44.6688 9.13253 44.7794 8.80293 45.0005 8.74063C45.1532 8.69642 45.3542 8.81298 45.527 8.77681C45.9209 8.69441 46.0355 8.24221 46.1098 7.83825C46.1842 7.43429 46.0998 7.03033 46.0737 6.73088C46.0435 6.38319 46.1601 5.97521 46.0717 5.58331C45.9913 5.22155 45.7139 4.89196 45.6195 4.52216C45.525 4.15237 45.5511 3.74238 45.4788 3.38665C45.3984 2.98269 45.2738 2.60486 45.2738 2.26521C45.2738 1.8512 45.5129 1.53366 45.7461 1.2523C45.9792 0.97093 46.2646 0.685545 46.6263 0.56094C46.9881 0.436336 47.3961 0.440355 47.7578 0.504667C48.1397 0.575009 48.3989 0.81216 48.6301 1.12367C48.815 1.37489 49.038 1.66429 49.1506 2.07428C49.243 2.40589 49.3013 2.7777 49.3697 3.16156C49.432 3.5213 49.4279 3.90316 49.4862 4.26893C49.5445 4.63471 49.637 5.01656 49.7093 5.36023C49.7937 5.7662 49.9364 6.12393 50.065 6.41535C50.2298 6.78916 50.6016 7.01023 50.9513 7.26949C51.301 7.52875 51.6206 7.81012 51.8818 8.10957C52.1029 8.3628 52.3541 8.61201 52.4988 8.91749C52.6435 9.22297 52.6054 9.59277 52.6918 9.91634C52.7782 10.2399 53.0113 10.5112 53.0636 10.8348C53.2605 11.0217 53.5097 10.2278 53.6223 10.0952C53.8996 9.77364 54.1428 9.49027 54.388 9.28125C54.6995 9.01597 55.0794 8.94965 55.3969 8.80494C55.7144 8.66024 56.0099 8.40902 56.4038 8.31858C56.7233 8.24623 57.1233 8.3849 57.5313 8.30853C57.9392 8.23216 58.2588 7.96688 58.4437 7.67948C58.6286 7.39209 58.7552 7.01023 58.8115 6.64848C58.8677 6.28672 58.7652 5.90688 58.7733 5.58733C58.502 5.82046 58.1945 5.95511 57.9071 6.12393C57.6056 6.3028 57.3162 6.47363 56.9906 6.58015C56.6651 6.68666 56.3475 6.86352 55.9978 6.89769C55.6662 6.92984 55.3205 6.78715 54.9628 6.75299C54.8221 6.73892 54.4041 6.78313 54.0242 6.67461C53.6163 6.55804 53.1339 6.33295 53.0998 6.2003C53.2304 5.82649 53.5962 5.45871 53.8916 5.08087C54.1649 4.73118 54.4543 4.3654 54.8121 4.11217C55.1999 3.83684 55.6401 3.75042 56.0561 3.71022C56.4058 3.67606 56.7193 3.65797 57.0348 3.73836C57.3504 3.81875 57.7001 3.86899 58.0015 4.01972C58.303 4.17045 58.5743 4.34932 58.8637 4.52015C59.0446 4.48398 58.7914 3.86899 58.7572 3.72027C58.6708 3.33239 58.2809 2.34761 58.2729 2.17879C58.2508 1.64219 58.7813 1.60601 59.119 2.10242C59.2395 2.27928 59.5008 2.62094 59.6234 3.01485C59.746 3.40876 59.7641 3.84287 59.7641 4.05188C59.7641 4.56839 59.7802 4.56638 59.6937 5.07484C59.6033 5.61346 59.4767 5.67375 59.6837 6.14805L59.6897 6.16413ZM47.4101 2.26119C47.2172 2.28129 46.6444 2.42599 46.56 2.59682C46.5259 2.65711 46.5741 2.75157 46.5681 2.8199C46.554 2.95455 46.7329 3.43489 46.8273 3.9333C46.9218 4.43172 46.9077 4.93416 46.96 5.07685C47.0002 5.18538 47.0464 5.24567 47.1509 5.26577C47.378 5.30797 48.3366 5.08489 48.3788 4.83568C48.3929 4.75127 48.4452 4.18452 48.3306 3.62179C48.2161 3.05906 48.0271 2.5104 47.9829 2.43604C47.8563 2.22501 47.6212 2.24109 47.4101 2.2632V2.26119ZM37.2609 5.37229C36.7906 5.02259 36.6459 5.57527 36.0952 5.77625C35.5446 5.97722 35.5647 6.03148 35.014 6.23447C34.4633 6.43745 34.4995 6.53191 33.9488 6.73289C33.3982 6.93386 33.356 6.81931 32.8073 7.02028C32.2586 7.22126 32.2426 7.18307 31.6919 7.38405C31.1412 7.58502 31.1894 7.71566 30.6388 7.91864C30.0881 8.12163 29.9253 7.83021 29.4631 8.18996C29.5033 8.61402 29.5957 9.14057 29.6198 9.60683C29.6439 10.0731 29.5997 10.5152 29.4992 10.9473C29.3988 11.3794 29.3204 11.8678 28.9787 12.2054C28.4944 12.6878 28.0542 12.5953 27.7668 12.3501C27.4593 12.0889 27.1961 11.6487 26.9107 11.4216C26.5771 11.1564 26.2455 10.9875 25.8777 10.9936C25.4817 11.0016 25.1039 11.1403 24.8125 11.4036C24.5372 11.6508 24.2679 11.9864 24.2096 12.4084C24.1473 12.8667 24.298 13.3068 24.4005 13.7128C24.5131 14.1549 24.5914 14.6272 24.8728 14.9488C25.1542 15.2703 25.6124 15.417 26.0445 15.5597C26.4304 15.6863 26.8504 15.7607 27.3287 15.6904C27.807 15.62 28.3979 15.0553 28.7255 15.5899C28.9285 15.9215 28.7617 16.1345 28.5265 16.3737C28.2914 16.6128 27.9618 16.8279 27.8593 17.0771C27.8291 17.4871 27.9336 17.8971 27.9336 18.2769C27.9336 18.6909 27.8935 19.0868 27.9578 19.4586C28.0261 19.8586 28.1045 20.2605 28.2854 20.6062C28.4662 20.9519 28.7315 21.2473 29.0511 21.5247C29.3204 21.7598 29.6701 21.9507 30.066 22.1396C30.3333 22.2663 30.7172 22.4049 31.1513 22.4934C31.509 22.5657 31.9069 22.4813 32.2908 22.4893C32.6746 22.4974 33.0887 22.6019 33.4263 22.5074C33.8323 22.3929 34.186 22.1818 34.3548 21.8563C34.5899 21.4041 34.2242 21.3639 33.9227 21.1991C33.6715 21.0624 33.5167 20.8072 33.5308 20.3711C33.5509 19.7762 33.8584 20.0776 34.2101 20.0797C34.6261 20.0817 34.9919 19.9249 35.3456 19.8726C35.7335 19.8164 36.1113 19.8144 36.463 19.6476C36.7826 19.4968 37.0418 19.2215 37.3634 18.9441C37.6468 18.699 38.0065 18.4779 38.2356 18.1242C38.4446 17.8006 38.5753 17.4067 38.728 17.0268C38.8808 16.647 39.0878 16.2933 39.1762 15.9074C39.2646 15.5215 39.2506 15.0874 39.2686 14.7036C39.2887 14.2815 39.335 13.8554 39.2566 13.4917C39.0596 12.5893 38.6637 13.154 37.9563 13.1259C37.5865 13.1118 37.2971 12.8908 37.1604 12.6818C36.9976 12.4325 37.0499 12.123 37.484 11.9663C37.7854 11.8578 38.2618 11.705 38.7702 11.5925C39.2184 11.494 39.755 11.5523 40.1067 11.3473C40.5147 11.1101 40.6493 10.68 40.579 10.1635C40.5147 9.70129 40.2655 9.55257 39.8475 9.51037C39.5058 9.4762 39.1018 9.51037 38.7099 9.57669C38.2678 9.65507 37.8437 9.81987 37.5684 9.80982C36.9454 9.7857 36.5294 9.27522 36.4429 8.65019C36.3746 8.14976 36.3907 7.80007 36.6037 7.53076C36.8167 7.26145 37.1383 7.0645 37.5865 6.92783C38.0146 6.19227 37.892 5.83654 37.2629 5.37028L37.2609 5.37229ZM57.0811 9.04611C56.7073 9.08832 56.3234 9.20488 55.9717 9.35361C55.62 9.50233 55.3185 9.74752 55.015 9.97864C54.7116 10.2098 54.5207 10.5394 54.2835 10.8328C54.0463 11.1262 53.7449 11.3814 53.5921 11.7251C53.4394 12.0688 53.2887 12.4406 53.2424 12.8164C53.2063 13.1159 53.3409 13.5821 53.3831 14.0403C53.4253 14.4986 53.3691 15.001 53.5118 15.2723C53.6967 15.624 54.4724 16.0903 54.794 16.44C54.9085 16.5626 55.4733 17.3223 55.5456 17.3203C55.7808 16.9746 55.9214 16.5405 56.1887 16.2129C56.456 15.8853 56.7816 15.5979 57.0891 15.3105C57.3966 15.0231 57.7182 14.7257 58.0739 14.4986C58.4296 14.2715 58.8416 14.1408 59.2456 13.9981C59.5752 13.8816 59.9048 13.8153 60.2344 13.755C60.564 13.6947 60.9197 13.7148 61.2593 13.6464C61.5226 13.5078 61.4663 13.0073 61.402 12.5511C61.3417 12.123 61.3478 11.6407 61.2614 11.4277C61.0986 11.0297 60.7448 10.7423 60.4675 10.4328C60.1902 10.1233 59.8827 9.83394 59.5149 9.62693C59.1471 9.41993 58.7632 9.23302 58.3492 9.14861C57.9352 9.0642 57.5031 8.99587 57.0791 9.0441L57.0811 9.04611ZM45.5371 9.59478C45.4969 9.61889 45.2738 10.3545 45.2899 10.4188C45.6235 10.7886 46.0978 10.1736 46.3269 9.92236C46.351 9.62693 45.6978 9.50032 45.5391 9.59678L45.5371 9.59478ZM43.3062 13.0897C43.4328 13.1983 44.3212 12.6938 44.4679 12.5752C44.7874 12.318 45.7702 11.3453 44.7512 11.4377C44.3694 11.4719 44.1182 11.7693 43.877 12.0828C43.6358 12.3964 43.3324 12.738 43.3042 13.0897H43.3062ZM47.2072 16.444C47.5287 16.1405 47.9508 15.9195 48.2723 15.7044C48.626 15.4653 48.9536 15.2321 49.3335 15.0914C49.7133 14.9508 50.0952 14.7598 50.5212 14.7136C50.9051 14.6714 51.3211 14.788 51.7633 14.8141C52.2838 14.8463 52.6094 15.202 52.5712 14.4363C52.5631 14.2795 52.3602 13.7871 52.2758 13.2867C52.1873 12.7541 52.2114 12.1652 52.1331 12.0849C51.9542 11.8919 51.5482 12.0346 51.3191 12.0668C50.9212 12.123 50.5032 12.1693 50.0932 12.2617C49.6832 12.3542 49.3234 12.5933 48.9255 12.6958C48.5276 12.7983 48.1397 12.8365 47.7478 12.931C47.5187 13.4756 47.7136 13.5078 47.6433 14.0926C47.5729 14.6774 47.585 14.6875 47.4323 15.2583C47.2795 15.829 47.0866 15.8632 47.2052 16.442L47.2072 16.444ZM45.9893 12.0788C45.5893 12.1874 45.5511 12.6818 45.6918 13.0938C45.8224 13.4756 46.136 13.8494 46.3048 14.0142C46.56 13.8454 46.5661 13.3832 46.5319 12.9571C46.4937 12.4828 46.3611 11.9783 45.9913 12.0808L45.9893 12.0788ZM45.0427 13.0917C44.5442 13.1782 44.1343 13.4575 43.9594 13.771C43.7665 14.1187 43.8067 14.583 43.9433 14.993C44.0679 15.3648 44.3171 15.616 44.6628 15.8652C45.0607 15.6019 45.7199 15.2743 45.738 14.7458C45.7501 14.39 45.1532 13.4716 45.0427 13.0917ZM55.2622 20.8534C55.6582 20.7971 56.1104 20.7509 56.5063 20.6987C56.9022 20.6464 57.2901 20.5399 57.688 20.4916C58.0859 20.4434 58.4678 20.2927 58.8637 20.2424C59.2596 20.1922 59.6716 20.2645 60.0676 20.2143C60.4635 20.1641 60.8654 20.15 61.2614 20.0937C61.6573 20.0374 62.0311 19.8385 62.425 19.7762C62.8189 19.7139 63.2088 19.8284 63.5002 19.7742C63.9142 19.6958 64.2056 19.5008 64.3544 19.1612C64.4548 18.9301 64.5252 18.5884 64.489 18.1061C64.4549 17.6499 64.1695 17.272 64.0489 16.862C63.9283 16.452 63.87 16.0039 63.9283 15.5356C63.9524 15.3386 64.077 14.9226 64.1494 14.5408C64.2257 14.1368 64.288 13.7871 63.9263 13.7168C63.2731 13.5882 62.9757 14.1227 62.4813 14.3619C61.8442 14.6694 61.4382 14.4302 60.8051 14.4925C60.4213 14.5307 60.0796 14.7317 59.7299 14.8422C59.3802 14.9528 58.9622 14.9729 58.6386 15.1578C58.3151 15.3427 58.088 15.6823 57.8046 15.9275C57.5212 16.1727 57.2398 16.4139 57.0027 16.7053C56.7655 16.9967 56.5204 17.2801 56.3294 17.6056C56.1385 17.9312 55.9596 18.2628 55.8189 18.6105C55.6783 18.9582 55.5235 19.3119 55.4311 19.6737C55.3386 20.0354 55.3004 20.4836 55.2622 20.8554V20.8534ZM42.4541 15.6019C42.8058 15.62 43.1575 15.2583 43.25 14.8684C43.3484 14.4483 43.2379 13.964 43.0309 13.8534C42.8862 13.7771 42.9967 14.0424 42.9726 14.1207C42.8279 14.6071 42.5847 15.1136 42.4561 15.6019H42.4541ZM46.4816 16.1586C46.7871 15.6984 46.7329 15.5577 46.6364 15.0151C46.3269 15.2402 46.0676 15.9275 46.4816 16.1586ZM50.4509 15.5979C50.0309 15.6461 49.6229 15.7728 49.2631 15.9355C48.9034 16.0983 48.5698 16.3817 48.2663 16.649C47.9628 16.9163 47.782 17.2841 47.5589 17.6257C47.3358 17.9674 47.0524 18.2689 46.9137 18.6527C46.7751 19.0366 46.6424 19.4325 46.5962 19.8385C46.55 20.2444 46.6866 20.6504 46.7369 21.0524C46.8193 21.7317 46.8796 22.005 47.5548 21.9648C47.8945 21.9447 48.2542 21.8523 48.6301 21.8121C48.9798 21.7739 49.3455 21.7638 49.7113 21.7156C50.0771 21.6674 50.4067 21.4744 50.7644 21.4202C51.1222 21.3659 51.494 21.3518 51.8417 21.2976C52.2155 21.2373 52.5692 21.1468 52.9068 21.0926C53.3027 21.0303 54.0685 21.0745 54.2775 20.7409C54.3719 20.5901 54.5086 20.2163 54.6171 19.8284C54.7256 19.4405 54.8864 19.0647 54.9045 18.8818C54.9467 18.4256 54.7618 18.0337 54.6211 17.674C54.4664 17.2821 54.3337 16.856 54.0222 16.5787C53.7107 16.3013 53.2766 16.2129 52.8827 16.0521C52.4888 15.8913 52.113 15.7587 51.699 15.7024C51.2849 15.6461 50.8508 15.5517 50.4509 15.5959V15.5979ZM42.3335 17.8589C42.424 17.9614 42.8962 18.293 43.0188 18.2749C43.1414 18.2568 43.8067 17.7242 43.883 17.5956C44.0559 17.3062 44.0016 17.0047 43.9393 16.7093C43.877 16.4139 43.8127 16.0983 43.5454 15.8994C43.3967 15.827 42.4863 16.5425 42.3978 16.6791C42.225 16.9505 42.1024 17.5936 42.3335 17.8589ZM45.2979 18.8999C45.7079 18.8859 46.0475 18.6346 46.1641 18.3352C46.2746 18.0558 46.2204 17.676 46.15 17.3343C46.0797 16.9927 45.8546 16.7193 45.6757 16.4943C45.4064 16.1566 45.107 16.5003 44.9201 16.7676C44.6146 17.2017 44.5965 17.5614 44.7332 17.8709C44.8698 18.1804 45.1411 18.5141 45.2979 18.8999ZM43.8891 18.3995C43.7705 18.4256 43.1796 18.8979 43.0952 19.0024C42.8701 19.2838 42.8621 19.6154 42.9304 19.8887C42.9987 20.162 43.252 20.3329 43.5132 20.5278C43.8529 20.7831 44.2769 20.359 44.49 20.0716C44.7171 19.7621 44.8095 19.4345 44.7352 19.1652C44.6608 18.8959 44.3533 18.7271 44.08 18.5181C44.0076 18.51 43.9614 18.3854 43.8891 18.4015V18.3995ZM42.3596 18.906C42.1607 18.8617 42.0642 18.9823 42.022 19.125C41.9135 19.4848 41.9617 19.8827 41.9778 20.2545C42.4883 20.0113 42.3054 19.3662 42.3617 18.906H42.3596ZM26.7238 19.8224C26.3258 19.738 25.8777 19.6556 25.4617 19.5873C25.0456 19.5189 24.6356 19.5229 24.2216 19.4787C23.8076 19.4345 23.3916 19.5049 22.9776 19.4848C22.5636 19.4647 22.1516 19.3381 21.7396 19.3501C21.3276 19.3622 20.9015 19.3501 20.4935 19.3963C20.0856 19.4426 19.6937 19.6476 19.2917 19.738C19.141 19.7722 18.7913 19.6777 18.6767 19.732C18.4476 19.8385 18.3311 20.6685 18.2708 20.9378C18.1823 21.3357 18.0818 21.7457 18.0356 22.1658C17.9894 22.5858 18.108 23.0018 18.0979 23.4158C18.0879 23.8298 18.0537 24.2499 18.0778 24.6559C18.0899 24.8488 18.1663 25.311 18.2406 25.7672C18.319 26.2556 18.3612 26.7319 18.5079 26.8304C18.5762 26.8766 18.6546 26.8947 18.731 26.9208C18.9782 27.0032 19.3862 27.1459 19.8484 27.2183C20.2222 27.2766 20.6463 27.2123 21.0101 27.2846C21.5085 27.3811 21.8541 27.6222 22.0189 27.775C22.1114 27.8614 22.2762 27.9056 22.2923 28.0302C22.1938 28.3819 22.0531 28.7276 21.9446 29.0753C21.8361 29.423 21.6853 29.7586 21.5748 30.1063C21.4643 30.454 21.3356 30.7977 21.2251 31.1453C21.1146 31.493 20.9699 31.8327 20.8674 32.1824C20.7649 32.5321 20.789 32.92 20.6985 33.2717C20.6081 33.6234 20.4634 33.967 20.391 34.3248C20.3187 34.6825 20.2122 35.0463 20.1639 35.408C20.2122 35.5527 20.7689 35.7376 20.9417 35.806C21.2954 35.9446 21.6934 36.0491 22.1094 36.1737C22.4812 36.2863 22.8731 36.4109 23.2851 36.5114C23.669 36.6058 24.095 36.5656 24.505 36.648C24.915 36.7304 25.2727 36.9395 25.6807 37.0078C26.0887 37.0761 26.4826 37.1485 26.8886 37.2047C27.2945 37.261 27.7126 37.1746 28.1185 37.2168C28.5245 37.259 28.9204 37.454 29.3224 37.4821C29.7243 37.5102 30.1464 37.5323 30.5463 37.5464C30.9463 37.5605 31.3743 37.4238 31.7703 37.4198C32.1943 37.4158 32.6063 37.5002 32.9942 37.472C33.4263 37.4419 33.8222 37.3113 34.196 37.249C34.7166 37.1646 35.0019 37.263 35.2632 36.7887C35.4521 36.4431 35.5687 36.0592 35.7234 35.7015C35.8782 35.3437 36.1073 35.0041 36.2339 34.6343C36.3605 34.2645 36.4027 33.8625 36.5072 33.4847C36.6118 33.1069 36.7786 32.7411 36.867 32.3592C36.9554 31.9774 36.8911 31.5614 36.9695 31.1775C37.0479 30.7936 37.1745 30.4178 37.2488 30.034C37.3232 29.6501 37.3815 29.2602 37.4599 28.8783C37.5382 28.4965 37.5463 28.0925 37.6387 27.7127C37.8015 27.0314 38.1814 26.7359 38.4205 26.6676C38.6738 26.5973 38.9451 26.8244 39.0134 27.6946C39.0013 28.2694 38.927 28.2694 38.8727 28.8402C38.8185 29.4109 38.7943 29.4109 38.7401 29.9817C38.6858 30.5525 38.7401 30.5565 38.7059 31.1293C38.73 31.5011 39.0335 31.8588 39.2485 32.1522C39.4013 32.1844 40.0404 31.2659 40.157 31.0991C40.3137 30.874 40.6132 30.3615 40.9207 29.8611C41.2282 29.3607 41.6663 28.8522 41.7266 28.6211C41.7748 28.4322 41.6582 28.2995 41.6261 28.1086C41.6 27.9398 41.2704 26.7701 41.2101 26.6596C41.0634 26.3863 40.2595 26.2014 39.964 25.8838C39.6686 25.5663 39.5621 25.0297 39.5359 24.5453C39.5098 24.061 39.6364 23.5626 39.9419 23.245C40.165 23.0119 40.579 22.9918 40.4685 22.6622C40.3881 22.417 40.0605 22.1638 39.7128 21.8603C39.4395 21.6231 39.2144 21.2614 38.9049 21.0684C38.515 20.8273 38.099 20.7027 37.8498 20.6564C37.281 20.5479 37.0258 20.6946 36.8509 20.9358C36.6761 21.177 36.6218 21.5628 36.3927 21.9407C36.1917 22.2703 35.9304 22.5516 35.6672 22.8029C35.4039 23.0541 35.0281 23.1847 34.7045 23.3636C34.3809 23.5425 34.0493 23.6711 33.6896 23.7736C33.3298 23.8761 32.9942 24.0971 32.6204 24.1233C32.2466 24.1494 31.8828 23.9645 31.511 23.9203C31.1392 23.8761 30.7634 23.9002 30.4077 23.7897C30.0519 23.6791 29.66 23.6249 29.3304 23.448C29.0008 23.2711 28.8019 22.8993 28.5185 22.6602C28.215 22.4049 27.8573 22.2341 27.6322 21.9427C27.4071 21.6513 27.2966 21.2654 27.1338 20.9177C26.971 20.57 26.8303 20.2043 26.7278 19.8224H26.7238ZM45.8606 19.744C45.5953 19.742 45.2014 20.0113 45.2115 20.2967C45.6074 20.365 45.8204 20.1138 45.8606 19.744ZM17.1413 20.1922C16.7655 20.3047 16.3273 20.4414 15.9696 20.5962C15.6119 20.7509 15.2823 20.98 14.9426 21.173C14.603 21.3659 14.3357 21.6653 14.0221 21.8965C13.7086 22.1276 13.3328 22.2843 13.0474 22.5516C12.762 22.8189 12.4626 23.0822 12.2134 23.3837C11.9642 23.6851 11.8476 24.0831 11.6386 24.4147C11.4296 24.7463 11.11 25.0156 10.9452 25.3733C10.7804 25.7311 10.698 26.119 10.5815 26.4968C10.4649 26.8746 10.3443 27.2444 10.28 27.6343C10.2197 27.9981 10.3383 28.4643 10.3041 28.9045C10.2699 29.3446 10.1775 29.8169 10.069 30.1565C9.96848 30.4701 9.36957 31.0911 9.14247 31.4227C8.88522 31.7985 8.61993 32.1422 8.47322 32.5401C8.32651 32.938 8.222 33.3782 8.21798 33.8203C8.21396 34.2384 8.21195 34.6905 8.36872 35.1327C8.48729 35.4723 8.79478 35.9145 9.19673 35.9487C9.14247 35.7879 9.27712 35.3759 9.36153 34.988C9.46202 34.5197 9.60672 34.156 9.8499 34.7348C10.0087 35.1126 10.0529 35.603 10.2016 36.0391C10.3503 36.4752 10.5433 36.8932 10.9754 37.1103C11.2849 37.1384 11.1522 36.3466 11.1643 36.1376C11.1763 35.9286 11.1462 35.187 11.4919 35.2995C11.5682 35.3236 12.0486 36.4149 12.2053 36.6541C12.4465 37.0198 12.7439 37.3334 13.0836 37.4017C13.4232 37.47 13.8473 37.3153 14.0865 36.8269C13.9217 36.6541 13.7348 36.2682 13.6343 35.8462C13.5499 35.5005 13.4755 35.1287 13.4936 34.7971C13.5177 34.3529 13.6564 34.0173 13.9719 33.9489C14.4764 33.8404 14.5326 34.9639 14.6753 35.2633C15.0592 34.9518 15.2943 34.6644 15.3707 34.2263C15.4471 33.7882 15.4049 33.3078 15.2662 32.8637C15.1275 32.4195 14.7899 32.0738 14.5206 31.7342C14.3116 31.4709 13.6966 30.7956 13.6041 30.5927C13.4715 30.2992 13.5117 29.9797 13.6423 29.6059C13.7528 29.2863 13.8031 28.8964 13.996 28.601C14.2171 28.2634 14.5387 28.0242 14.7276 27.8232C15.027 27.5057 15.3184 27.166 15.6701 26.9108C16.0218 26.6556 16.4901 26.4988 16.8258 26.2315C16.8298 25.92 16.7313 25.5763 16.679 25.2668C16.6268 24.9573 16.665 24.6438 16.6489 24.3343C16.6308 23.9926 16.5564 23.653 16.5745 23.3033C16.5926 22.9536 16.7011 22.628 16.7494 22.2843C16.7976 21.9407 16.7152 21.5749 16.7896 21.2393C16.8639 20.9036 17.0428 20.5117 17.1413 20.1862V20.1922ZM44.8316 20.8112C44.6367 20.8373 44.279 21.1026 44.074 21.3659C43.8589 21.6452 43.8207 22.005 44.1564 22.1658C44.3694 22.2683 45.3301 22.0994 45.4386 21.9186C45.6315 21.595 45.1452 20.771 44.8296 20.8132L44.8316 20.8112ZM60.3067 23.1425C60.4977 23.1485 60.769 23.2048 60.9619 23.1887C61.2573 23.1646 61.6794 23.0661 62.1396 23.0099C62.5255 22.9636 62.9214 22.8069 63.3033 22.7446C63.7715 22.6682 64.2157 22.7044 64.489 22.616C64.9372 22.4713 65.5039 22.0613 65.6346 21.595C65.8516 20.8172 65.1181 20.9177 64.5573 20.9438C64.2298 20.9599 63.874 20.8574 63.5324 20.9157C63.1907 20.974 62.8752 21.0966 62.5396 21.1529C62.2039 21.2091 61.8562 21.2192 61.5246 21.2292C61.3237 21.2915 61.2131 21.796 61.0142 22.222C60.8293 22.62 60.4896 22.9938 60.3087 23.1405L60.3067 23.1425ZM42.4099 20.8916C42.1747 20.9358 41.6803 21.4845 41.6341 21.7176C41.5236 22.2703 42.012 22.4692 42.4822 22.4371C43.0972 22.3929 43.1857 22.0572 43.1374 21.7116C43.0811 21.3096 42.7937 20.8212 42.4099 20.8916ZM59.8726 21.5206C59.7661 21.4463 59.7038 21.4563 59.5752 21.4644C59.0587 21.4985 59.0647 21.591 58.5502 21.6613C58.0357 21.7317 58.0498 21.8322 57.5353 21.9005C57.0208 21.9688 57.0047 21.8482 56.4902 21.9166C55.9757 21.9849 55.9657 21.9326 55.4532 22.015C55.2643 22.0733 55.0995 22.5938 54.8643 23.036C54.6493 23.442 54.3458 23.9002 54.1911 24.065C54.6633 24.0208 55.1678 23.9223 55.6421 23.87C56.1164 23.8178 56.5947 23.7937 57.063 23.7213C57.4107 23.6671 57.7363 23.5002 58.0699 23.4259C58.4035 23.3515 58.715 23.2792 58.9863 23.0259C59.1933 22.833 60.0374 21.7538 59.8726 21.5206ZM53.9037 22.2823C53.3248 22.3145 53.3269 22.3688 52.7521 22.4431C52.1773 22.5175 52.1853 22.5738 51.6105 22.6481C51.0357 22.7225 51.0478 22.823 50.473 22.8973C49.8982 22.9717 49.8801 22.835 49.3074 22.9234C49.2169 22.9677 48.9094 23.3495 48.6763 23.7495C48.4251 24.1836 48.2542 24.5875 48.2944 24.6217C48.6884 24.5875 49.0923 24.7081 49.4882 24.6699C49.8842 24.6317 50.274 24.5272 50.6639 24.4689C51.0538 24.4107 51.4176 24.4107 51.7733 24.3303C52.129 24.2499 52.4104 24.0007 52.7199 23.7635C52.8023 23.6992 53.1219 23.4339 53.3952 23.1164C53.6926 22.7667 53.9901 22.3607 53.9057 22.2823H53.9037ZM47.6815 23.0641C47.1328 22.9677 47.1087 23.1526 46.558 23.2269C46.0073 23.3013 46.0134 23.3596 45.4627 23.4359C44.912 23.5123 44.9261 23.6128 44.3734 23.6872C43.8207 23.7615 43.8047 23.6409 43.254 23.7153C42.7033 23.7897 42.6953 23.7495 42.1446 23.8258C41.5939 23.9022 41.604 23.9484 41.0714 24.1112C40.7317 24.4046 40.6915 24.7342 40.9106 25.0176C41.1136 25.2829 41.5276 25.4557 41.8592 25.4959C42.0783 25.5221 42.5023 25.5442 43.0028 25.504C43.3545 25.4758 43.7303 25.2929 44.1202 25.2447C44.5101 25.1965 44.904 25.1824 45.2517 25.1241C45.7461 25.0397 46.1319 24.9191 46.3349 24.8367C46.6605 24.7021 46.968 24.4911 47.1931 24.1615C47.4182 23.8319 47.6011 23.3957 47.6855 23.0661L47.6815 23.0641ZM59.7159 34.0394C60.15 33.9932 60.6182 33.8203 60.9679 33.5792C61.3176 33.338 61.5709 32.9923 61.8382 32.6426C62.0894 32.313 62.22 31.897 62.417 31.5151C62.6139 31.1333 62.8953 30.7916 63.044 30.4078C63.2088 29.9837 63.3877 29.5838 63.5062 29.22C63.5665 29.0311 63.5786 28.5367 63.7112 28.0845C63.8519 27.6042 64.1293 27.1479 64.1293 26.9932C64.1293 26.6636 63.8077 26.6897 63.5364 26.7018C63.2168 26.7159 62.7988 26.746 62.3627 26.8204C61.9788 26.8847 61.597 27.0977 61.2212 27.15C60.7609 27.2123 60.3228 27.2022 60.0274 27.156C59.5189 27.0736 59.3963 26.3159 59.7118 26.0768C59.8184 25.9964 60.2987 25.9763 60.8192 25.9119C61.1649 25.8697 61.5508 25.8396 61.9025 25.8054C62.3768 25.7592 62.8048 25.7954 62.9938 25.7672C63.2711 25.7271 64.0971 25.518 64.278 25.4115C64.4589 25.305 64.6217 24.9412 64.6619 24.7282C64.696 24.5433 64.7362 23.9404 64.5975 23.8459C64.0187 23.8721 64.0228 23.8861 63.448 23.9625C62.8732 24.0389 62.8692 23.9967 62.2944 24.073C61.7196 24.1494 61.7176 24.1333 61.1428 24.2097C60.568 24.2861 60.564 24.2479 59.9892 24.3242C59.4144 24.4006 59.4305 24.5252 58.8577 24.6016C58.2849 24.678 58.2749 24.6157 57.7001 24.692C57.1253 24.7684 57.1193 24.7242 56.5445 24.7985C55.9697 24.8729 55.9737 24.9031 55.3989 24.9794C54.8241 25.0558 54.8281 25.0839 54.2534 25.1603C53.6786 25.2367 53.6766 25.2206 53.1038 25.297C52.531 25.3733 52.5471 25.506 51.9723 25.5824C51.3975 25.6587 51.3794 25.5221 50.8046 25.5984C50.2298 25.6748 50.2278 25.6627 49.653 25.7391C49.0782 25.8155 49.0963 25.9501 48.5215 26.0245C47.9468 26.0989 47.9267 25.9421 47.3519 26.0185C46.7771 26.0948 46.7771 26.0968 46.2023 26.1712C45.6275 26.2456 45.6456 26.3903 45.0708 26.4646C44.496 26.539 44.4819 26.4425 43.9072 26.5189C43.3324 26.5953 43.3424 26.6435 42.7737 26.7581C42.434 26.9068 42.7395 28.0423 42.9706 28.1046C43.5816 28.0664 43.5755 27.9659 44.1825 27.8895C44.7894 27.8132 44.8035 27.9056 45.4125 27.8293C46.0214 27.7529 46.0114 27.6745 46.6203 27.6022C46.9358 27.57 47.1167 27.9458 47.1006 28.2312C47.0785 28.6211 46.769 28.7256 46.4595 28.7859C46.15 28.8462 45.7983 28.8281 45.4627 28.8542C45.1271 28.8804 44.8015 28.9205 44.4719 28.9587C44.1423 28.9969 43.8348 29.1276 43.5213 29.224C43.4308 29.2522 43.2459 29.0974 43.2681 29.2702C43.2841 29.4029 43.6981 29.847 43.9494 30.3374C44.1845 30.7977 44.4016 31.2699 44.494 31.4347C44.6608 31.7362 44.8296 32.0879 45.0467 32.4356C45.2416 32.7491 45.515 33.0265 45.7481 33.336C45.9812 33.6455 46.1098 34.0414 46.3791 34.3027C46.6605 34.578 47.0122 34.7669 47.3318 34.9498C47.6714 35.1427 48.0332 35.2352 48.413 35.2714C48.7929 35.3075 49.1546 35.4422 49.5425 35.4301C49.9304 35.4181 50.2901 35.2673 50.6639 35.2312C51.0377 35.195 51.4136 35.1548 51.7733 35.1126C51.8376 34.7388 51.8678 34.3007 52.0165 33.8967C52.1652 33.4927 52.4406 33.143 52.7159 32.8577C52.9912 32.5723 53.357 32.3733 53.8192 32.3492C54.0584 32.3371 54.2373 32.4577 54.4805 32.4055C54.9427 32.307 55.1999 31.6598 55.9817 31.6377C56.458 31.6237 56.7133 32.0919 56.9947 32.11C57.2077 32.1241 57.7423 31.7503 58.09 31.7302C58.4839 31.7081 58.8135 31.8126 59.0687 32.0397C59.324 32.2668 59.5511 32.5723 59.6676 32.9159C59.7842 33.2596 59.738 33.7038 59.7199 34.0354L59.7159 34.0394ZM46.0958 35.81C45.8245 35.5608 45.5511 35.2211 45.31 34.9518C45.0688 34.6825 44.7914 34.4353 44.5724 34.1439C44.3533 33.8525 44.0599 33.6093 43.8609 33.3018C43.662 32.9943 43.5755 32.6185 43.3927 32.303C43.2098 31.9874 43.0691 31.6498 42.8962 31.3282C42.7234 31.0067 42.5445 30.7735 42.3737 30.45C41.9275 30.8097 41.9497 30.8298 41.6381 31.3122C41.3266 31.7945 41.3769 31.8266 41.0654 32.309C40.7539 32.7913 40.7237 32.7712 40.4122 33.2536C40.3599 33.334 40.4866 33.3842 40.5308 33.4686C40.569 33.5369 41.2985 34.1459 41.4331 34.2384C41.7748 34.4735 42.1386 34.6463 42.5043 34.8272C42.8701 35.0081 43.2238 35.2231 43.6137 35.3477C44.0036 35.4723 44.3995 35.5768 44.8075 35.6472C45.2155 35.7175 45.6818 35.7979 46.0958 35.812V35.81ZM56.3576 33.0084C56.1465 32.8114 55.618 32.922 55.4291 33.1229C55.2723 33.2897 55.2864 33.758 55.2904 34.1982C55.2944 34.6021 55.427 35.0262 55.411 35.2714C55.3869 35.599 55.1959 35.9205 55.1296 36.2541C55.0633 36.5878 54.9789 36.9756 54.9628 37.3052C55.3627 37.2691 55.63 37.0279 55.839 36.8108C56.0481 36.5938 56.3133 36.3667 56.4219 36.011C56.4842 35.8039 56.4982 35.4181 56.5425 35.0081C56.5786 34.6805 56.6329 34.3248 56.6208 34.0052C56.6048 33.5832 56.5284 33.1692 56.3596 33.0084H56.3576ZM57.2117 36.6842C57.682 36.7144 58.1201 36.441 58.3452 36.0853C58.5703 35.7296 58.6326 35.2553 58.6668 34.8734C58.6849 34.6745 58.5924 34.2645 58.5422 33.8686C58.4919 33.4726 58.4738 33.0305 58.2246 32.9581C57.7443 32.8154 57.5433 33.1631 57.5272 33.5771C57.5132 33.955 57.7302 34.4092 57.7222 34.6423C57.7101 34.9619 57.5091 35.2895 57.4388 35.6291C57.3685 35.9687 57.3021 36.3767 57.2097 36.6842H57.2117ZM50.9152 36.4832C50.6479 36.7023 52.1351 37.3314 52.2536 37.3575C52.6214 37.4339 53.2746 37.4379 53.5982 37.2168C53.7991 37.0781 53.8836 36.6259 54.0162 36.1175C54.1147 35.7396 54.3036 35.3417 54.3297 34.9538C54.3679 34.4172 54.3518 33.9088 54.1971 33.7359C54.0062 33.5229 53.6464 33.7138 53.4495 33.8786C53.1158 34.162 52.9068 34.5659 52.8465 35.0322C52.7802 35.5387 52.8083 36.0351 52.4988 36.2702C52.0949 36.5797 51.4055 36.3687 50.9152 36.4853V36.4832Z" fill="#212121"/>
<path d="M34.3183 13.4802C34.4027 13.5666 34.4791 14.0389 34.5997 14.268C34.7906 14.6298 35.074 14.9252 35.4558 15.0297C35.8377 15.1342 36.2738 15.08 36.6336 15.0438C37.1018 14.9976 38.0504 14.3685 38.3197 14.7584C38.6172 15.1865 38.2675 15.6105 37.8173 15.8718C37.4013 16.115 36.8566 16.2838 36.5592 16.3099C36.1311 16.3481 35.7392 16.3702 35.3996 16.2999C35.0157 16.2215 34.6459 16.0688 34.3203 15.8517C34.0289 15.6588 33.7918 15.3111 33.4983 15.0056C33.0039 15.3372 32.3608 15.6005 32.5638 14.7081C32.606 14.5192 33.4923 13.5907 33.6752 13.5123C33.848 13.438 34.1797 13.3395 34.3143 13.4762L34.3183 13.4802Z" fill="#212121"/>
<path d="M33.9288 8.20851C34.2544 8.15424 34.5579 8.37331 34.7448 8.75717C34.8915 9.05863 35.0462 9.44651 35.0583 9.79621C35.0723 10.2102 34.9196 10.6383 34.6784 10.8212C34.2303 11.1608 33.6997 10.9518 33.4384 10.5237C33.2254 10.172 33.1952 9.62337 33.2173 9.18525C33.2415 8.68683 33.4625 8.2889 33.9288 8.21052V8.20851Z" fill="#212121"/>
<path d="M51.4739 29.8164C51.9663 29.7983 52.3261 30.0837 52.3442 30.349C52.3622 30.6142 52.0246 30.9016 51.5704 30.9579C50.9715 31.0303 50.9835 31.1307 50.3846 31.2051C49.7857 31.2795 49.7676 31.1307 49.1667 31.2051C48.5658 31.2795 48.5678 31.2955 47.9689 31.3699C47.37 31.4443 47.376 31.4905 46.7731 31.5287C46.3913 31.4825 46.0958 31.2754 46.0737 31.0162C46.0516 30.7569 46.3189 30.5138 46.7189 30.4434C47.0686 30.3811 47.4625 30.2505 47.8926 30.1902C48.2764 30.1359 48.6723 30.0234 49.0763 29.9771C49.4803 29.9309 49.8902 29.9209 50.2761 29.8867C50.7102 29.8485 51.1202 29.8304 51.4759 29.8184L51.4739 29.8164Z" fill="#212121"/>
<path d="M61.2031 29.8054C61.1207 29.8818 60.781 29.9722 60.6464 29.9964C60.2746 30.0627 59.8867 30.0165 59.5088 30.0587C59.131 30.1009 58.7592 30.1632 58.3794 30.1973C57.9995 30.2315 57.6337 30.3661 57.2579 30.4104C56.8821 30.4546 56.5023 30.4847 56.1304 30.5591C55.4511 30.551 55.0854 29.7471 55.7566 29.518C56.3817 29.3934 56.3656 29.2889 56.9987 29.2085C57.6317 29.1281 57.6418 29.2065 58.2728 29.1261C58.9039 29.0457 58.8999 28.9995 59.533 28.9191C60.166 28.8387 60.168 28.8448 60.8031 28.7764C61.3076 28.7443 61.5206 29.51 61.201 29.8054H61.2031Z" fill="#212121"/>
<path d="M55.294 26.6426C55.5674 26.6225 56.0658 26.5924 56.1743 26.9501C56.311 27.3983 56.1281 27.6495 55.7322 27.7621C55.3905 27.8605 55.0127 27.9851 54.6147 28.0314C54.249 28.0736 53.8611 28.0876 53.4772 28.1158C53.0934 28.1439 52.7135 28.1479 52.3437 28.1841C51.9498 28.2243 51.5458 28.0937 51.1982 28.1761C50.8304 28.2022 50.6656 28.0876 50.5832 27.8485C50.5008 27.6093 50.5108 27.2858 50.9067 27.1471C51.2725 27.135 51.6524 27.1873 52.0201 27.1411C52.3879 27.0948 52.7437 27.0084 53.1074 26.9521C53.4712 26.8959 53.849 26.934 54.2108 26.8818C54.5725 26.8295 54.9283 26.6688 55.29 26.6406L55.294 26.6426Z" fill="#212121"/>
<path d="M59.9249 16.3396C59.7802 15.9055 60.0073 15.7568 60.2746 15.6824C60.6142 15.588 61.0383 15.6905 60.8956 16.0261C60.7167 16.4501 60.3087 16.3456 59.9249 16.3396Z" fill="#212121"/>
<path d="M61.7736 16.1083C62.3926 16.0139 62.2519 16.8801 61.6811 16.9142C61.4942 16.87 61.4279 16.6851 61.4259 16.4842C61.442 16.3153 61.6088 16.1345 61.7736 16.1083Z" fill="#212121"/>
<path d="M50.1538 16.8881C50.6703 16.8178 50.7708 17.3664 50.7467 17.8005C50.7326 18.0457 50.2784 18.4919 50.0433 18.52C49.8081 18.5482 49.2052 18.3653 49.1529 18.0919C49.0866 17.7523 49.165 17.5091 49.374 17.286C49.583 17.0629 49.8463 16.9303 50.1578 16.8881H50.1538Z" fill="#212121"/>
</svg>
