<svg width="671" height="125" viewBox="0 0 671 125" fill="none" xmlns="http://www.w3.org/2000/svg">
<g clip-path="url(#clip0_4205_5275)">
<path d="M19.4531 190.718C75.7185 43.5836 590.485 127.681 659.783 7.12451" stroke="#FA5F2B" stroke-width="3" stroke-dasharray="20 20"/>
<g clip-path="url(#clip1_4205_5275)">
<path d="M342.852 72.8145L372.7 70.3613" stroke="#212121" stroke-width="1.06211" stroke-miterlimit="10" stroke-linecap="round"/>
<path d="M386.127 69.2577L393.824 68.625C392.569 55.4652 391.089 43.1445 388.922 33.3736C388.094 29.6344 384.773 26.9316 380.943 26.9661C380.862 26.9665 380.779 26.9688 380.696 26.9709C366.744 27.3796 353.459 28.3343 341.115 30.0585C336.144 30.7342 332.842 32.7437 331.904 36.642L328.486 47.9854C328.274 48.6866 327.912 49.3335 327.425 49.8804C326.8 50.5816 325.991 51.0951 325.088 51.3592C321.258 52.4779 319.677 54.7414 319.423 57.6815C319.09 63.2776 319.274 68.8081 319.927 74.2772C319.955 74.5104 320.163 74.6793 320.397 74.6602L330.534 73.8271" stroke="#212121" stroke-width="1.06211" stroke-miterlimit="10" stroke-linecap="round"/>
<path d="M333.083 34.0029C333.083 34.0029 335.843 33.2668 335.13 35.9121C334.577 37.9637 332.348 44.916 331.374 47.9386C331.094 48.8084 330.341 49.4406 329.436 49.5664L327.459 49.8413" stroke="#212121" stroke-width="0.898713" stroke-miterlimit="10" stroke-linecap="round"/>
<path d="M364.558 50.4765L391.53 48.3726" stroke="#212121" stroke-width="1.06211" stroke-miterlimit="10" stroke-linecap="round"/>
<path d="M364.988 70.995L363.48 51.6577" stroke="#212121" stroke-width="1.06211" stroke-miterlimit="10" stroke-linecap="round"/>
<path d="M325.195 74.7863L324.838 70.182C324.788 69.5359 324.223 69.054 323.578 69.1044L317.744 69.5594C317.121 69.608 316.644 70.1372 316.663 70.761C316.736 73.204 317.322 75.0377 319.983 75.2404L325.196 74.7862L325.195 74.7863Z" fill="#212121"/>
<path d="M319.4 58.0646C322.264 58.0595 323.904 59.0981 324.534 60.9972C324.829 61.8875 324.86 62.852 324.603 63.754C323.932 66.1131 321.936 66.5127 319.416 66.4637" stroke="#212121" stroke-width="1.06211" stroke-miterlimit="10" stroke-linecap="round"/>
<path d="M322.754 58.7886C319.871 59.3125 320.087 65.8022 322.998 65.8283" stroke="#212121" stroke-width="1.06211" stroke-miterlimit="10" stroke-linecap="round"/>
<path d="M348.234 72.3715C348.234 72.3715 346.817 61.3722 334.565 61.9499L333.816 52.3522C333.7 50.865 333.859 49.3692 334.285 47.9391L337.595 36.8319C338.133 35.0235 339.729 33.7342 341.611 33.5874L350.587 32.8872" stroke="#212121" stroke-width="1.06211" stroke-miterlimit="10" stroke-linecap="round"/>
<path d="M342.729 52.1794L337.434 52.5924C336.306 52.6804 334.924 52.224 334.178 51.2236" stroke="#212121" stroke-width="1.06211" stroke-miterlimit="10" stroke-linecap="round"/>
<path d="M377.297 70.0248L382.014 69.6611C382.065 69.2059 382.003 68.723 381.812 68.2579C381.253 66.8979 379.796 66.2087 378.558 66.7173C377.342 67.2174 376.789 68.6854 377.297 70.0248Z" fill="#212121"/>
<path d="M369.041 70.6637L371.48 70.4752L375.429 70.1705C374.713 68.0615 375.691 65.8059 377.734 65.0127C379.891 64.1741 382.416 65.2822 383.375 67.4861C383.668 68.1608 383.781 68.8597 383.734 69.5295L387.819 69.2143L389.588 69.078C388.003 62.8319 383.73 58.6417 378.212 59.0721C371.016 59.4092 368.552 64.3857 369.041 70.6646L369.041 70.6637Z" fill="#212121"/>
<path d="M334.014 73.4993C334.144 73.8027 334.325 74.0715 334.541 74.2977L338.424 73.9973C338.813 73.3467 338.886 72.505 338.548 71.7191C337.99 70.4219 336.522 69.7692 335.27 70.2611C334.018 70.7521 333.455 72.203 334.014 73.4993Z" fill="#212121"/>
<path d="M326.263 74.5349L328.312 74.3768L332.142 74.0806C332.045 73.9199 332.174 73.7374 332.096 73.5625C331.133 71.4039 332.23 68.975 334.408 68.1483C336.586 67.3209 339.133 68.4018 340.095 70.5604C340.527 71.5267 340.801 72.4968 340.518 73.4026L344.564 73.1201L346.477 72.9725C344.971 67.5139 340.805 63.8787 335.377 64.3021C328.299 64.6579 325.835 69.038 326.263 74.5349Z" fill="#212121"/>
<path d="M376.222 61.0343C380.39 59.3209 385.268 61.5785 387.117 66.0767C387.542 67.109 387.77 68.1694 387.819 69.2123C387.983 72.7111 386.13 76.0043 382.918 77.3246C378.749 79.0381 373.871 76.7805 372.022 72.2823C371.776 71.6863 371.596 71.0801 371.479 70.4733C370.712 66.5067 372.606 62.5203 376.222 61.0343ZM375.568 70.5452C376.54 72.9087 379.072 74.1062 381.224 73.2213C382.718 72.6077 383.637 71.1511 383.734 69.5276C383.777 68.8122 383.66 68.0634 383.364 67.3406C382.393 64.9779 379.86 63.7795 377.707 64.6645C375.668 65.5024 374.701 67.9093 375.429 70.1686C375.471 70.2945 375.516 70.4201 375.568 70.5452Z" fill="#212121"/>
<path d="M377.297 70.0248C377.306 70.0504 377.316 70.0759 377.327 70.1015C377.885 71.4615 379.343 72.1507 380.582 71.6411C381.397 71.3065 381.914 70.5363 382.014 69.6611C382.065 69.2059 382.003 68.723 381.812 68.2579C381.253 66.8979 379.796 66.2087 378.558 66.7173C377.342 67.2174 376.789 68.6854 377.297 70.0248Z" fill="#212121"/>
<path d="M332.936 64.8389C337.15 63.184 342.063 65.3207 343.91 69.6126C344.465 70.9007 344.68 72.2365 344.595 73.5202C344.398 76.5126 342.573 79.2209 339.625 80.3795C335.412 82.0345 330.499 79.8977 328.652 75.6058C328.534 75.3312 328.431 75.0547 328.343 74.7768C327.059 70.7113 328.992 66.3887 332.936 64.8389ZM337.934 76.4655C339.135 75.9937 339.971 75.0143 340.315 73.8515C340.596 72.9086 340.552 71.8457 340.117 70.8363C339.147 68.5822 336.596 67.4473 334.421 68.3026C332.244 69.1572 331.267 71.677 332.237 73.9311C332.316 74.1135 332.404 74.2876 332.502 74.455C333.616 76.3562 335.933 77.2511 337.934 76.4655Z" fill="#212121"/>
<path d="M334.014 73.4993C334.144 73.8027 334.325 74.0715 334.541 74.2977C335.248 75.0395 336.333 75.3338 337.291 74.9574C337.785 74.7634 338.171 74.4206 338.424 73.9973C338.813 73.3467 338.886 72.505 338.548 71.7191C337.99 70.4219 336.522 69.7692 335.27 70.2611C334.018 70.7521 333.455 72.203 334.014 73.4993Z" fill="#212121"/>
<path d="M391.069 69.4091L390.632 63.8025L394.363 63.5114C395.188 63.4471 395.908 64.063 395.972 64.8872L396.149 67.1513C396.225 68.1284 395.504 68.9859 394.528 69.079L391.068 69.4092L391.069 69.4091Z" fill="#212121"/>
<path d="M384.501 37.0323C384.501 37.0323 372.742 39.8986 367.525 39.9046L370.606 50.0052L385.455 48.8468C385.455 48.8468 386.067 42.4141 384.5 37.0324L384.501 37.0323Z" stroke="#212121" stroke-width="1.06211" stroke-miterlimit="10" stroke-linecap="round"/>
<path d="M365.819 48.1787C365.819 48.1787 360.601 59.1926 349.85 53.6674C349.85 53.6674 348.61 55.031 346.845 53.6394C346.845 53.6394 346.005 55.0779 345.28 54.8234C345.28 54.8234 342.981 54.222 346.02 51.5065" stroke="#212121" stroke-width="1.06211" stroke-miterlimit="10" stroke-linecap="round"/>
<path d="M345.419 50.0918C345.419 50.0918 340.112 52.2135 344.569 54.3018" stroke="#212121" stroke-width="1.06211" stroke-miterlimit="10" stroke-linecap="round"/>
<path d="M342.636 52.331C341.122 51.3947 341.714 50.3885 342.376 49.6868C343.033 48.9907 343.955 48.6129 344.912 48.5782C346.093 48.5354 347.134 48.7635 347.878 49.0011C348.842 49.3091 349.849 49.4625 350.86 49.4346L355.536 49.3026L359.722 44.1604C359.912 43.9281 360.09 43.6873 360.25 43.4344C360.564 42.9392 361.541 41.778 364.058 41.1704L356.194 45.3404" stroke="#212121" stroke-width="1.06211" stroke-miterlimit="10" stroke-linecap="round"/>
<path d="M362.137 52.777C362.137 52.777 361.191 48.9857 357.181 47.403" stroke="#212121" stroke-width="1.06211" stroke-miterlimit="10" stroke-linecap="round"/>
<path d="M359.9 54.2303C359.9 54.2303 357.768 49.5359 355.012 49.3175" stroke="#212121" stroke-width="1.06211" stroke-miterlimit="10" stroke-linecap="round"/>
<path d="M337.135 52.1883L339.718 48.714L337.819 46.4543L338.924 45.736L342.2 49.1211L342.083 51.6808L337.135 52.1883Z" fill="#212121"/>
<path d="M344.065 48.6563L343.295 47.3961C341.785 48.1111 340.354 47.7308 338.982 46.5149C336.473 43.7088 340.474 43.9287 341.534 45.1773" stroke="#212121" stroke-width="1.06211" stroke-miterlimit="10" stroke-linecap="round"/>
<path d="M338.982 46.515C338.982 46.515 335.693 45.0655 338.449 42.8148C338.449 42.8148 339.496 41.4332 343.088 43.4878C343.422 43.6784 343.767 43.8486 344.124 43.9915L348.516 45.7501C349.56 46.1674 350.722 46.1745 351.77 45.7698L356.279 44.0273L355.976 48.763" stroke="#212121" stroke-width="1.06211" stroke-miterlimit="10" stroke-linecap="round"/>
<path d="M350.495 35.8558C350.495 35.8558 349.481 33.6647 349.487 32.4781" stroke="#212121" stroke-width="1.06211" stroke-miterlimit="10" stroke-linecap="round"/>
<path d="M363.338 41.3719L362.489 38.9555" stroke="#212121" stroke-width="1.06211" stroke-miterlimit="10" stroke-linecap="round"/>
<path d="M359.754 38.6081C360.721 39.0161 361.942 39.1851 362.906 38.6774C364.097 38.051 364.407 36.421 364.263 35.1892C364.214 34.7716 364.095 34.3544 363.853 34.0113C363.333 33.277 362.285 33.1675 361.456 33.1838" stroke="#212121" stroke-width="1.06211" stroke-miterlimit="10" stroke-linecap="round"/>
<path d="M361.761 35.5298L360.678 37.0859" stroke="#212121" stroke-width="1.06211" stroke-miterlimit="10" stroke-linecap="round"/>
<path d="M358.692 40.9585C357.77 42.6176 351.242 43.6646 350.526 38.1435" stroke="#212121" stroke-width="1.06211" stroke-miterlimit="10" stroke-linecap="round"/>
<path d="M355.041 38.4244C355.041 38.4244 354.892 37.5575 354.424 37.1854" stroke="#212121" stroke-width="1.06211" stroke-miterlimit="10" stroke-linecap="round"/>
<path d="M354.733 37.8042C354.733 37.8042 353.211 40.2262 350.999 39.8245" stroke="#212121" stroke-width="1.06211" stroke-miterlimit="10" stroke-linecap="round"/>
<path d="M351.886 37.5667C351.886 37.5667 347.707 38.1587 347.483 36.0716C347.483 36.0716 347.15 34.157 350.306 33.7672L351.665 30.2295" stroke="#212121" stroke-width="1.06211" stroke-miterlimit="10" stroke-linecap="round"/>
<path d="M348.904 26.5113C349.463 24.1567 354.322 23.6196 359.386 25.2111C364.372 26.7772 367.857 29.8665 367.272 32.1654C367.257 32.2243 367.244 32.2831 367.233 32.3434C367.164 32.7609 366.481 34.8363 359.829 32.7833C358.661 32.4225 357.473 32.1251 356.273 31.8924C353.417 31.3387 348.11 29.8486 348.904 26.5121L348.904 26.5113Z" fill="#212121"/>
<path d="M361.149 25.8524L361.337 25.3772C361.379 25.2711 361.324 25.1522 361.216 25.1156L360.469 24.8629C360.382 24.834 360.288 24.8668 360.239 24.9429L359.943 25.395L361.149 25.8524Z" fill="#212121"/>
<path d="M357.663 44.5626C357.663 44.5626 356.383 43.4924 356.332 42.1913" stroke="#212121" stroke-width="1.06211" stroke-miterlimit="10" stroke-linecap="round"/>
<path d="M354.94 33.3473C354.94 33.3473 354.338 32.0136 352.452 31.9118" stroke="#212121" stroke-width="1.06211" stroke-miterlimit="10" stroke-linecap="round"/>
<path d="M353.334 35.532C353.004 35.5577 352.706 35.1755 352.667 34.6783C352.629 34.1811 352.864 33.7573 353.193 33.7316C353.523 33.7059 353.821 34.0881 353.86 34.5853C353.899 35.0825 353.663 35.5064 353.334 35.532Z" fill="#212121"/>
<path d="M365.121 33.5736C365.121 33.5736 366.115 38.1436 362.689 39.4244L364.579 35.9124L364.062 33.9281L362.415 33.6521C362.415 33.6521 359.994 33.445 359.836 35.1855C359.836 35.1855 357.673 35.4851 358.446 32.2581L365.121 33.5736Z" fill="#212121"/>
<path d="M368.558 49.8937L370.606 50.005L366.847 39.3481L363.694 40.6246L363.587 41.9652C363.587 41.9652 366.684 41.7754 368.559 49.8945L368.558 49.8937Z" fill="#212121"/>
</g>
</g>
<defs>
<clipPath id="clip0_4205_5275">
<rect width="671" height="125" fill="white"/>
</clipPath>
<clipPath id="clip1_4205_5275">
<rect width="79.5436" height="55.5301" fill="white" transform="matrix(-0.996971 0.077768 0.077768 0.996971 392.568 21.2437)"/>
</clipPath>
</defs>
</svg>
