<svg width="95" height="66" viewBox="0 0 95 66" fill="none" xmlns="http://www.w3.org/2000/svg">
<g clip-path="url(#clip0_4371_11008)">
<path d="M94.8329 51.6563C94.7961 50.9149 94.3261 50.2298 93.5786 50.2298C92.8679 50.2298 92.8368 50.5399 92.1742 50.2806C92.1686 49.7168 92.0581 49.2009 92.044 48.6371C92.0298 48.0733 92.0893 47.5066 92.0666 46.9456C92.044 46.3818 91.9421 45.8236 91.9109 45.2598C91.8798 44.696 91.7722 44.1407 91.7325 43.5768C91.6929 43.013 91.6561 42.4549 91.608 41.891C91.5598 41.3272 91.6023 40.7606 91.5457 40.1996C91.489 39.6386 91.4069 39.0804 91.3418 38.5222C91.2767 37.9641 91.1663 37.4087 91.0927 36.8505C91.0927 36.8421 91.2031 36.8195 91.2002 36.8111C91.2002 36.7857 91.1663 36.7632 91.1606 36.7378C91.1408 36.594 91.1266 36.4474 91.1068 36.3036C91.0134 35.7342 90.9143 35.1901 90.7472 34.6827C90.566 34.1414 90.2574 33.6791 89.9913 33.2083C89.7166 32.7206 89.3542 32.3288 88.9861 31.9144C88.6181 31.5 88.3236 31.0348 87.8678 30.6993C87.4119 30.3639 86.9957 30.0228 86.4776 29.769C85.9991 29.5351 85.4073 29.5238 84.8552 29.3462C84.3484 29.1827 83.8359 28.9882 83.2668 28.8698C82.777 28.7683 82.2815 28.6104 81.8427 28.3821C81.4038 28.1537 81.1122 27.7111 80.7498 27.3672C80.192 26.8344 79.5634 26.2875 79.2831 25.5715C79 24.8441 79.1727 24.7765 78.8867 24.0492C78.6036 23.3218 78.513 23.3557 78.227 22.6283C77.9411 21.901 77.9779 21.8869 77.6919 21.1596C77.406 20.4323 77.3408 20.4577 77.0577 19.7303C76.7746 19.003 76.9105 18.9495 76.6245 18.2221C76.3385 17.4948 76.4037 17.4695 76.1205 16.7421C75.8374 16.0148 75.7694 16.0402 75.4863 15.3101C75.2032 14.5799 75.2117 14.5771 74.9257 13.8498C74.6426 13.1196 74.6539 13.1168 74.3821 12.3839C74.2037 11.837 73.9715 11.3126 73.7167 10.8249C73.4534 10.3203 73.0061 9.93973 72.6606 9.49995C72.3152 9.06018 71.9953 8.60067 71.5677 8.22573C71.1402 7.8508 70.6334 7.63373 70.1436 7.33209C69.6792 7.04455 69.2715 6.62169 68.7392 6.3877C68.2409 6.17063 67.7256 5.90564 67.1678 5.7365C66.6469 5.57863 66.0353 5.69985 65.4634 5.58427C64.9282 5.47714 64.4044 5.21779 63.8268 5.14731C63.2861 5.08247 62.7113 5.20651 62.128 5.17269C61.5872 5.13886 61.0521 4.94998 60.5057 4.91897C59.9621 4.88796 59.4156 4.92179 58.8692 4.89642C58.3255 4.86823 57.7791 4.92179 57.2298 4.89642C56.6805 4.87105 56.1426 4.86541 55.5961 4.84285C55.0525 4.8203 54.5174 4.5102 53.9709 4.49047C53.4245 4.47074 52.8186 4.62297 52.2721 4.60605C52.6289 3.89283 52.7591 3.09503 52.476 2.2183C52.3033 1.68832 52.0343 1.14988 51.5275 0.811588C51.1028 0.529681 50.4827 0.524043 49.8712 0.371813C49.3643 0.247774 48.8236 0.0758113 48.212 0.0419825C47.6769 0.0137918 47.1163 0.0983638 46.5189 0.14065C45.9752 0.180117 45.4203 0.256232 44.837 0.35208C44.2934 0.44229 43.7187 0.450747 43.1496 0.591701C42.6116 0.724197 42.0453 0.831321 41.4932 1.01174C40.9609 1.1837 40.4824 1.52481 39.9473 1.73906C39.7151 1.83209 39.4688 1.87438 39.2451 1.97304C39.2253 1.9815 39.2508 1.93921 39.2395 1.9223C39.0583 1.65731 39.1602 1.57837 38.9648 1.32466C38.8997 1.24009 38.6364 1.16679 38.5373 1.20908C38.1041 1.39232 38.0956 1.36976 37.6624 1.553C37.5378 1.60656 37.4076 1.95895 37.4671 2.08017C37.6001 2.35362 37.7304 2.2916 37.8691 2.55941C37.8691 2.56505 37.8549 2.49457 37.8521 2.49739C37.3057 2.77366 36.7394 3.002 36.2467 3.30364C35.7201 3.62502 35.3435 4.20574 34.8849 4.54967C34.3271 4.55531 33.724 4.49329 33.1634 4.50175C32.6056 4.5102 32.0479 4.54967 31.4844 4.56095C30.921 4.57222 30.366 4.52712 29.8026 4.54121C29.2392 4.55531 28.6814 4.43691 28.1208 4.451C27.563 4.4651 27.0081 4.716 26.4475 4.73009C25.8897 4.74419 25.3319 4.77802 24.7685 4.79493C24.2107 4.81184 23.6473 4.72727 23.0867 4.74701C22.5289 4.76674 21.9711 4.82312 21.4077 4.84567C20.8499 4.86541 20.2921 4.9387 19.7315 4.96126C19.1738 4.98381 18.6047 4.79211 18.044 4.81748C17.4863 4.84004 16.9313 5.00918 16.3707 5.03455C15.813 5.05992 15.2439 4.89078 14.6804 4.91897C14.5785 4.92461 14.4879 5.16141 14.386 5.16705C13.8593 5.20369 13.3553 5.25726 12.8514 5.37284C12.3389 5.48842 11.7896 5.48278 11.3083 5.67448C10.827 5.86618 10.3853 6.17627 9.93509 6.44127C9.4849 6.70626 9.03189 6.97407 8.62701 7.30108C8.22212 7.62809 7.88803 8.03404 7.53411 8.42025C7.18019 8.80646 6.95935 9.27161 6.66772 9.70574C6.37892 10.1342 6.06747 10.5374 5.84097 11.011C5.62012 11.4789 5.32566 11.9187 5.17277 12.4205C5.01988 12.9223 4.92927 13.4297 4.85566 13.9513C4.77921 14.4897 4.60933 15.0225 4.53855 15.5779C4.46777 16.1332 4.60933 16.6914 4.53855 17.2467C4.47343 17.7852 4.2271 18.3124 4.16481 18.8677C4.10252 19.4231 4.07421 19.9587 4.01758 20.5169C3.96096 21.0581 3.92415 21.6078 3.87318 22.166C3.82222 22.7073 3.8024 23.2598 3.75427 23.8152C3.70613 24.3705 3.55607 24.8977 3.50794 25.4559C3.46264 25.9971 3.64668 26.5666 3.60421 27.1219C3.56174 27.6773 3.31824 28.1988 3.2786 28.757C3.24179 29.3011 3.39469 29.8621 3.35788 30.4203C3.32107 30.9784 3.0436 31.5 3.00962 32.0581C2.97848 32.6022 3.20782 33.166 3.17667 33.7242C3.14553 34.2683 2.89637 34.8067 2.86806 35.3649C2.83974 35.9231 3.00679 36.47 2.98131 37.0281C2.95583 37.5722 2.69251 38.1135 2.66703 38.6717C2.64155 39.2298 2.71233 39.7711 2.68968 40.3293C2.66703 40.8874 2.64155 41.4259 2.62173 41.9841C2.60191 42.5281 2.62173 43.0807 2.60474 43.6389C2.58492 44.1858 2.46601 44.7327 2.44902 45.2908C2.43203 45.849 2.6727 46.3959 2.65854 46.9541C2.64438 47.5123 2.3386 48.0451 2.32444 48.6004C2.31028 49.1473 2.54812 49.8126 2.53396 50.3708C2.32161 50.5681 2.13757 50.3708 1.84594 50.3708C1.35329 50.3708 1.01636 50.5681 0.693587 50.8895C0.370814 51.2109 0.0140652 51.5294 0.0140652 52.0199C0.0140652 52.6937 0.101837 52.6937 0.101837 53.3703C0.101837 54.0469 -9.15527e-05 54.044 -9.15527e-05 54.7178C-9.15527e-05 55.3013 0.401959 55.727 0.781359 56.1132C1.16076 56.4994 1.58263 57.0012 2.16588 57.0125C2.23101 57.0125 2.1942 56.942 2.25366 56.9646C2.27631 56.973 2.27348 56.8997 2.29613 56.8997C3.18234 56.9279 3.18234 56.9364 4.06571 56.942C4.94909 56.9477 4.94909 57.0548 5.8353 57.0633C6.07597 57.0633 6.07597 56.8434 6.31663 56.8462C6.31946 56.8462 6.3138 56.9308 6.31663 56.9308C7.28778 56.9308 7.28778 56.8546 8.25893 56.8575C9.23008 56.8603 9.22725 56.8152 10.1616 57.0774C10.2069 57.6271 10.2211 58.0527 10.3456 58.5771C10.4702 59.1014 10.8638 59.5609 11.0705 60.0627C11.2771 60.5645 11.3479 61.1481 11.6339 61.6104C11.9199 62.0727 12.2908 62.4984 12.6503 62.9072C13.0128 63.3159 13.4233 63.6881 13.8537 64.0292C14.2784 64.3675 14.7908 64.5789 15.2778 64.8382C15.7535 65.092 16.1867 65.481 16.7161 65.6501C17.2286 65.8136 17.7694 65.9123 18.2875 65.9856C18.8057 66.0589 19.355 65.8898 19.8816 65.87C20.4082 65.8503 20.9632 65.9884 21.4813 65.8785C21.9994 65.7685 22.5346 65.6445 23.03 65.4528C23.5227 65.2611 23.9616 64.9285 24.4231 64.6606C24.8789 64.3956 25.3999 64.1955 25.8161 63.86C26.2323 63.5246 26.5636 63.0932 26.9231 62.6986C27.2827 62.3039 27.6225 61.8951 27.9226 61.4554C28.2171 61.024 28.3869 60.5082 28.6219 60.0261C28.8513 59.5581 29.1231 59.0958 29.2873 58.5856C29.4544 58.0697 29.5591 57.5932 29.6497 57.0745C30.4 56.8434 30.4198 57.0266 31.2041 57.0294C31.9912 57.0322 31.9884 57.1309 32.7755 57.1365C33.5626 57.1422 33.5626 56.9815 34.3497 56.9871C35.1369 56.99 35.1369 57.0041 35.924 57.0069C36.7111 57.0097 36.7111 56.9026 37.4982 56.9054V57.0576V57.0689C38.3136 57.0717 38.3136 57.176 39.129 57.1788C39.9445 57.1817 39.9445 56.9702 40.7599 56.9759C41.5753 56.9815 41.5753 57.0661 42.3908 57.0689C43.2062 57.0717 43.2062 57.2155 44.0216 57.2183C44.837 57.2211 44.837 57.0379 45.6525 57.0407C46.4679 57.0435 46.4679 57.1366 47.2805 57.1394C48.0959 57.1422 48.0959 57.0745 48.9113 57.0774C49.7268 57.0802 49.7268 57.2521 50.5422 57.255C51.3576 57.2578 51.3576 57.2268 52.173 57.2296C52.9885 57.2324 52.9885 57.0999 53.8039 57.1055C54.6193 57.1112 54.6193 57.1873 55.4347 57.1929C56.2502 57.1958 56.2502 57.0548 57.0656 57.0576C57.881 57.0604 57.881 57.1958 58.6965 57.1986C59.5119 57.2014 59.5147 57.0041 60.3301 57.0069C61.1456 57.0097 61.1512 57.0492 61.9667 57.1112C61.9808 57.2296 62.128 57.3734 62.145 57.4889C62.23 58.0781 62.1733 58.6927 62.363 59.248C62.5527 59.809 62.9265 60.2911 63.2153 60.8042C63.5041 61.3172 63.8382 61.7908 64.2204 62.2419C64.6026 62.6929 64.8971 63.2398 65.3614 63.6119C65.8258 63.9841 66.4515 64.0884 66.9838 64.3675C67.5161 64.6465 68.0229 64.8467 68.6005 65.0243C69.1101 65.1794 69.5943 65.3316 70.1096 65.3992C70.6362 65.4697 71.1459 65.5712 71.6668 65.5571C72.1935 65.5402 72.7059 65.4528 73.2212 65.3541C73.7394 65.2555 74.2802 65.2442 74.7756 65.0666C75.2711 64.889 75.7072 64.5761 76.1715 64.328C76.6358 64.0799 77.154 63.9108 77.5758 63.595C77.9949 63.2821 78.4196 62.9466 78.7905 62.5689C79.1557 62.1968 79.5238 61.7937 79.8352 61.368C80.1467 60.9423 80.2713 60.4039 80.5176 59.9331C80.7554 59.4736 81.1433 59.0592 81.316 58.5545C81.4321 58.2191 81.35 57.8244 81.4293 57.4861C81.4491 57.3987 81.4972 57.3339 81.5142 57.2465C82.2957 57.207 82.2957 57.1253 83.0771 57.1281C83.8586 57.1309 83.8586 57.2747 84.64 57.2775C85.4215 57.2803 85.4215 57.0943 86.2058 57.0971C86.9872 57.0999 86.9872 57.2239 87.7715 57.2268C88.5558 57.2296 88.5529 57.3593 89.3372 57.3621C90.1215 57.3649 90.1215 57.1873 90.903 57.1901C90.903 57.1901 90.903 57.2972 90.9058 57.2972C90.9341 57.2972 90.9624 57.1873 90.9936 57.1873C91.2229 57.1873 91.2116 57.1337 91.4381 57.114C91.9959 57.0266 92.4432 56.9477 92.8453 56.7588C93.3408 56.5276 93.7173 56.2711 94.0174 55.9046C94.3176 55.5381 94.5271 55.1012 94.6743 54.6022C94.8074 54.1512 94.8272 53.6719 94.8583 53.1419C94.8867 52.6683 94.864 52.1835 94.8385 51.6591L94.8329 51.6563ZM90.8265 46.3113C90.0932 46.3649 89.4477 46.2324 88.8899 46.1817C89.3174 45.756 89.6034 45.2232 89.8242 44.541C90.0083 43.9687 89.9799 43.3006 89.9856 42.593C89.9913 42.0235 90.0083 41.4456 89.8837 40.8903C89.7534 40.318 89.4901 39.8049 89.2268 39.32C88.9408 38.7957 88.4963 38.2855 88.0546 37.9528C88.5756 37.7696 89.3882 37.5412 90.0479 37.4595C90.1215 38.0317 90.1555 38.7168 90.2206 39.2919C90.2857 39.8641 90.365 40.4392 90.4216 41.0143C90.4783 41.5894 90.566 42.1617 90.6142 42.7368C90.6595 43.3118 90.5943 43.8954 90.6312 44.4733C90.668 45.0484 90.8039 45.7334 90.8322 46.3113H90.8265ZM88.8984 42.5845C88.8927 43.2498 88.5445 43.8898 88.3066 44.4451C88.0235 45.1048 87.6667 45.584 87.0212 45.677C86.3077 45.2908 85.7443 44.7552 85.4187 43.8813C85.2459 43.4218 85.2233 42.9115 85.1978 42.421C85.1723 41.9305 85.1497 41.4315 85.2686 40.9466C85.3847 40.4843 85.5064 40.0079 85.7414 39.6386C85.9821 39.258 86.387 38.8662 86.7579 38.5815C87.2449 38.7027 87.7092 39.1537 88.0178 39.616C88.284 40.0135 88.5076 40.5125 88.6379 41.0397C88.7596 41.533 88.9012 42.0743 88.8984 42.5845ZM71.6668 10.0017C71.9896 10.3992 72.1198 10.9997 72.3662 11.4592C72.604 11.9046 72.8418 12.35 73.0061 12.8546C73.2807 13.5904 73.4138 13.5397 73.6969 14.2698C73.98 15 73.9093 15.0281 74.1924 15.7611C74.4784 16.4912 74.5463 16.4659 74.8323 17.196C75.1182 17.9261 75.1834 17.9008 75.4693 18.6309C75.7553 19.361 75.7468 19.3639 76.0328 20.094C76.3187 20.8241 76.2281 20.8608 76.5113 21.5909C76.7944 22.3211 76.8142 22.3154 77.1002 23.0456C77.3861 23.7785 77.4229 23.7644 77.7061 24.4946C77.9892 25.2247 77.8901 25.2642 78.1761 25.9971C78.3431 26.4256 78.5725 26.857 78.8273 27.2432C78.3828 27.4461 78.329 27.215 77.842 27.184C77.406 27.1586 77.0067 26.9754 76.6613 26.7301C76.3159 26.4848 75.9535 26.1917 75.7893 25.7885C75.6081 25.3488 75.3334 24.8554 75.0956 24.2775C74.9002 23.8011 74.8266 23.226 74.6029 22.6847C74.3991 22.1914 74.266 21.6445 74.0508 21.1173C73.8356 20.5902 73.4392 20.1758 73.2269 19.6571C73.0174 19.144 72.8616 18.6055 72.655 18.0953C72.4426 17.5709 72.2133 17.0635 72.0123 16.5617C71.7971 16.0261 71.7631 15.4369 71.5706 14.9492C71.3469 14.3882 70.9335 13.9484 70.7551 13.4833C70.5088 12.8434 70.4805 12.2485 70.3418 11.8652C70.1747 11.3972 69.951 10.7601 70.2285 10.4331C70.5003 10.1145 71.2336 9.97356 71.664 9.99893L71.6668 10.0017ZM35.5474 13.9259C35.5644 13.4692 35.8872 13.145 36.0599 12.8575C36.2439 12.5502 36.5157 12.319 37.0055 12.1696C37.3453 12.0653 37.7389 11.8708 38.223 11.8454C38.2655 11.8454 38.3136 11.9159 38.3533 11.9046C38.7836 11.9582 39.2933 12.0258 39.667 12.2993C40.0011 12.5445 40.2927 12.8405 40.3833 13.3705C41.0147 13.7708 41.0147 13.4551 41.5187 12.8293C41.7565 12.5333 41.9887 12.1781 41.9632 11.5071C41.9491 11.1068 41.8471 10.6022 41.6688 10.0243C42.0821 9.88053 42.5295 9.66628 42.9457 9.5366C43.3647 9.40692 43.8149 9.38437 44.2396 9.26879C44.7408 9.13066 45.2985 8.93896 45.8931 8.73881C46.4226 8.5612 46.9719 8.36105 47.5211 8.13552C48.0704 7.91 48.5829 7.70139 49.0925 7.43358C49.6475 7.96356 49.5087 8.07632 49.84 8.76982C50.1713 9.46331 50.2307 9.43229 50.562 10.1258C50.8933 10.8165 50.6243 10.9602 51.0886 11.5748C51.2076 11.7327 51.284 11.665 51.4794 11.6763C52.0003 11.6988 52.5015 11.5635 52.895 11.6763C53.4217 11.8257 53.8464 12.1245 54.1153 12.4205C54.5032 12.849 54.5231 13.348 54.5231 13.3536C54.5231 13.3762 54.3334 13.3677 54.3334 13.3874C54.3249 13.6722 54.3985 13.9964 54.1776 14.1993C53.8775 14.4728 53.3197 14.5123 52.8129 14.6419C52.3627 14.7575 51.8927 14.9182 51.4397 14.952C50.8593 14.9971 50.3355 14.9577 50.0269 14.9379C49.6701 14.9097 49.4295 15.1888 49.4068 15.5497C49.3842 15.9105 49.5795 16.2854 49.9419 16.308C50.0241 16.3136 50.2534 16.3926 50.5705 16.3926C50.6979 16.3926 50.7744 16.2685 50.9301 16.2629C50.8933 16.7675 50.8395 17.1396 50.7206 17.5399C50.0156 17.6301 49.4465 17.4018 48.8915 17.0973C48.1667 16.6999 47.6429 16.167 47.3881 15.8767C47.4107 15.8457 47.306 15.8147 47.3314 15.7921C47.5976 15.5469 47.6684 15.186 47.4221 14.921C47.1757 14.656 46.8388 14.735 46.5726 14.9802C45.8846 15.6173 45.61 16.697 45.5987 16.8267C45.5647 17.1847 45.8818 17.6414 46.2414 17.6752C46.2612 17.6752 46.2952 17.4103 46.3178 17.4103C46.5189 17.4103 46.6831 17.4864 46.8048 17.3426C47.1842 17.7006 47.776 17.9572 48.396 18.2785C48.9227 18.552 49.4436 18.8903 50.1005 18.9382C49.7749 19.3949 49.4238 19.7698 49.0104 20.0376C48.5404 20.3421 48.0534 20.6212 47.5863 20.748C46.7992 20.9623 45.9554 21.0271 45.2334 20.9651C45.2164 20.9623 45.2278 20.6719 45.2108 20.6719C44.7238 20.6268 44.2425 20.7424 43.8631 20.6155C43.3138 20.4323 42.9061 20.1448 42.7333 19.8854C42.5323 19.5838 42.085 19.3921 41.782 19.5922C41.4791 19.7924 41.5583 20.2265 41.7594 20.5281C42.0199 20.9228 42.3624 21.2977 42.9032 21.5515C43.3477 21.7601 43.9452 21.8898 44.5029 21.9912C44.3585 22.6368 43.8489 23.3839 43.5686 23.7278C42.7475 23.584 42.8211 23.2908 42.0567 22.961C41.2922 22.6312 41.2922 22.6368 40.5504 22.2534C40.2163 21.9518 39.684 21.7488 39.0639 21.4274C38.6194 21.1963 38.0871 20.8805 37.4671 20.6945C37.4104 19.7275 37.6992 19.7332 37.9937 18.8113C38.0928 18.817 38.2174 18.9551 38.3193 18.9551C38.7695 18.9551 39.2734 18.8903 39.7463 18.7634C40.1823 18.645 40.6608 18.4871 41.094 18.2644C41.4168 18.0981 41.6065 17.5005 41.4394 17.1791C41.2724 16.8577 40.7429 16.7985 40.4201 16.9648C39.8992 17.2327 39.3556 17.3454 38.8516 17.4187C38.2513 17.5061 37.7587 17.3877 37.2972 17.1875C36.7054 16.9338 36.1165 16.5674 35.8702 15.9133C35.6437 15.3129 35.5304 14.5686 35.5559 13.9315L35.5474 13.9259ZM58.6908 30.3047C59.2089 30.4654 59.7356 30.9474 60.2678 31.2603C60.9219 31.6437 61.4485 32.0243 61.4938 32.4613C61.5278 32.7714 61.3296 33.2139 60.8624 33.603C60.6954 33.1632 60.3896 32.6219 59.9253 32.1399C59.5827 31.7819 59.1155 31.4718 58.6115 31.0884C58.3227 30.8685 58.0764 30.9531 57.8555 31.2406C57.6347 31.5281 57.6602 31.7368 57.949 31.9566C58.4445 32.3344 58.7559 32.7432 59.0221 33.0223C59.7214 33.758 59.7752 34.2034 59.7554 34.3359C59.7101 34.6376 59.274 34.8857 59.274 34.8857C59.2514 34.8941 59.2118 34.8011 59.1891 34.8039C59.0022 34.818 58.4105 34.3726 58.0028 33.789C57.7876 33.4789 57.9631 33.2196 57.5866 33.1773C57.21 33.135 57.3006 33.4028 57.0231 33.6565C56.5503 34.0935 56.1369 34.381 55.7575 34.4459C54.9761 34.5756 54.3334 34.164 54.2541 34.0935C54.07 33.9215 54.2399 33.665 53.9908 33.6396C53.7416 33.6143 53.7331 33.7016 53.5179 33.8341C53.0083 34.1471 52.6034 34.6122 52.0994 34.8603C51.5643 35.1253 51.0009 35.3057 50.4714 35.5002C49.9136 35.7032 49.353 35.8921 48.8009 36.0161C48.2488 36.1401 47.6231 36.0471 47.054 36.0894C46.4707 36.1345 45.8875 36.3544 45.3127 36.3036C44.7379 36.2529 44.1887 35.9766 43.6252 35.8357C43.3704 35.7708 43.0674 35.7539 42.824 35.6722C43.025 35.207 43.3308 34.6404 43.6592 34.0597C43.9423 33.5551 44.2141 32.9912 44.5766 32.5092C44.9475 32.013 45.4628 31.655 45.9016 31.2913C46.3999 30.8769 46.8983 30.6655 47.456 30.5725C48.2715 30.5076 48.2658 30.4597 49.0812 30.4203C49.8995 30.3808 49.8995 30.3892 50.7177 30.3498C51.536 30.3103 51.536 30.3357 52.3542 30.2934C52.9885 30.2624 53.6397 30.1637 54.2682 30.0228C54.8968 29.8818 55.4432 29.5294 56.0435 29.2842C56.4569 29.115 57.0373 29.0023 57.6772 28.8585C58.1811 28.7457 58.7389 28.5315 59.3363 28.5061C59.8347 28.4864 60.2962 28.7373 60.7379 28.8839C61.1795 29.0305 61.5476 29.3152 61.9015 29.6366C62.4055 30.0904 62.8755 30.3892 62.8614 30.7078C62.85 30.9108 62.615 31.0686 62.4565 31.2462C62.0771 30.7191 61.4032 30.4428 60.8285 30.113C59.9875 29.6309 59.2316 29.2221 59.056 29.1658C58.7078 29.0558 58.3737 29.2842 58.2661 29.6281C58.1585 29.972 58.3539 30.1891 58.6993 30.299L58.6908 30.3047ZM45.862 29.6619C45.3807 29.9551 44.7323 30.3272 44.3217 30.7529C43.9197 31.1673 43.5856 31.6663 43.26 32.1371C42.9146 32.6332 42.722 33.2083 42.4672 33.6791C42.1359 34.2852 41.8103 34.8011 41.6405 35.1986C41.0374 34.9223 40.4088 34.6404 39.8822 34.2965C39.9728 33.9695 40.0662 33.3662 40.3409 32.777C40.5306 32.3682 40.791 31.9031 41.0997 31.4436C41.363 31.0489 41.7565 30.6965 42.1218 30.3019C42.4502 29.9495 42.8126 29.583 43.2345 29.2588C43.6167 28.9628 44.0896 28.6358 44.5596 28.3849C45.4571 28.4779 45.5081 28.8867 45.8648 29.6647L45.862 29.6619ZM42.5606 24.7116C42.3738 24.3085 43.0618 24.9146 43.4695 25.0894L43.4893 25.0471C44.2255 25.3657 44.5652 24.9484 45.0437 25.5912C45.542 26.2593 46.012 27.0346 45.2164 27.2911C44.3472 27.5702 44.6303 26.5863 43.9084 26.031C43.1496 25.4474 42.9429 25.5404 42.5606 24.7116ZM46.0828 24.4326C46.9266 23.9674 47.0483 24.9259 47.9713 25.1993C48.8943 25.4756 48.9963 25.2022 49.8202 25.7011C49.7494 26.2227 49.7069 26.8203 49.5484 27.3982C49.3643 28.0663 49.0812 28.6696 48.9481 29.0558C47.9968 29.2757 47.9685 29.287 46.9945 29.225C46.836 29.2137 46.6746 29.1094 46.6349 28.9543C46.4537 28.2439 46.5358 28.2101 46.4311 27.4856C46.3263 26.7583 46.6095 26.7047 46.3207 26.0281C45.9724 25.205 45.4373 24.7878 46.0828 24.4297V24.4326ZM50.3213 29.1263C50.4572 28.7119 50.7432 28.0804 50.8848 27.542C51.0179 27.043 51.0716 26.5384 51.1481 26.0592C51.6096 26.1606 52.1079 26.1099 52.5751 26.1014C52.527 26.5299 52.3656 27.0797 52.2438 27.5533C52.1136 28.0607 52.0088 28.6048 51.8842 28.9713C51.2868 29.4674 51.0377 29.3067 50.3213 29.1263ZM62.6688 28.4807C62.2639 28.165 61.8223 27.7478 61.3353 27.5758C61.2362 27.3785 61.2475 27.3249 61.4627 27.2714C62.145 27.4518 62.8755 27.3898 63.5324 27.2714C63.9203 27.8803 63.2577 28.1453 62.6688 28.4836V28.4807ZM61.3041 25.952C61.0295 25.8477 60.936 25.329 60.735 25.5433C60.0668 26.2509 60.4009 26.4933 59.8771 27.3136C59.6676 27.2967 59.4977 27.3982 59.2825 27.4067C58.6002 27.4349 57.9603 27.4518 57.3884 27.5815C56.6607 27.745 56.0661 28.0297 55.5961 28.2186C54.8373 28.5258 53.9738 28.8049 53.1952 28.9233C53.3197 28.523 53.3792 27.8718 53.4924 27.37C53.6 26.8908 53.7869 26.4031 53.8152 25.9548C54.2258 25.8534 54.6335 25.6814 55.0185 25.4925C55.8623 25.0781 55.8453 25.0443 56.689 24.6271C57.5328 24.2098 57.5809 24.3085 58.4246 23.8941C59.2684 23.4797 59.2571 23.4572 60.1008 23.0399C60.5255 22.8313 60.9474 22.5861 61.3636 22.3042C61.893 21.9461 62.3857 21.6952 62.8104 21.481C63.4276 21.1653 63.9174 20.889 64.3365 20.7931C65.5002 20.5253 65.9334 20.8439 65.9334 20.8439L65.9702 20.9877C65.9843 21.0074 65.9249 21.075 65.9419 21.0891C65.9815 21.1258 66.1146 20.9538 66.1599 20.9848C66.5308 21.2414 66.9413 21.6896 67.1707 22.0815C66.9555 21.9208 66.5761 21.8785 66.1457 21.8306C65.5709 21.7657 64.798 21.7093 64.1015 21.9828C63.405 22.2562 62.9548 22.8144 62.5811 23.3275C62.3687 23.6207 62.2979 23.9984 62.5895 24.2098C62.884 24.4213 63.2946 24.286 63.5069 23.9956C63.7221 23.6996 64.1864 23.4459 64.6649 23.2626C65.1179 23.0879 65.6247 22.9215 66.0183 22.9638C66.2391 22.9892 66.259 23.1527 66.2703 23.1781C66.3099 23.2739 66.2278 23.5925 65.5653 24.4664C65.1547 24.8864 64.8122 25.2501 64.3959 25.4953C63.9005 25.7857 63.4276 25.9323 62.918 25.9774C62.4055 26.0225 61.8392 26.1522 61.3041 25.9492V25.952ZM67.4283 24.7257C67.4283 24.7257 67.5897 24.8723 67.5982 24.8667C68.105 24.3931 68.592 23.6489 68.6401 22.8031C68.6713 22.2534 68.3938 21.7685 68.037 21.2611C67.7539 20.858 67.4113 20.4238 66.8819 20.0517C66.7007 19.8826 66.2108 19.595 65.319 19.5499C64.8688 19.5274 64.362 19.6486 63.6938 19.8516C63.2294 19.9925 62.7311 20.187 62.1535 20.4887C61.7062 20.7227 61.1824 20.9228 60.6586 21.2752C60.2933 21.5233 59.9253 21.7601 59.5543 21.9433C58.7106 22.3577 58.7276 22.3915 57.8839 22.8088C57.0401 23.226 56.992 23.1273 56.1482 23.5417C55.3045 23.9561 55.3158 23.9787 54.4721 24.3959C53.9426 24.6553 53.3707 24.8103 52.7959 24.8582C52.2212 24.9062 51.6407 24.8131 51.0773 24.6468C50.378 24.4382 50.3497 24.534 49.6503 24.3254C48.951 24.1168 48.9312 24.1817 48.2318 23.973C47.5325 23.7644 47.5749 23.6207 46.8756 23.4121C46.1763 23.2034 46.1593 23.2626 45.5137 22.9215C45.6213 22.6594 45.5477 22.4169 45.6015 22.1237C45.6355 22.1237 45.7912 22.0927 45.8252 22.0927C46.516 22.0927 47.1984 21.9884 47.8666 21.808C48.3564 21.6755 49.0274 21.6219 49.622 21.2583C50.1033 20.9651 50.4318 20.4126 50.8536 19.9023C51.2104 19.4682 51.6776 19.051 51.9154 18.4223C51.9154 18.4167 51.8276 18.3772 51.8304 18.3716C52.0654 17.7429 52.2636 17.0325 52.3061 16.1727C52.3061 16.1558 52.2948 16.0684 52.2948 16.0515C52.7648 15.981 53.2886 16.012 53.7416 15.8485C54.2144 15.6765 54.7184 15.482 55.0638 15.1691C55.5423 14.7321 55.783 14.0697 55.8057 13.441C55.817 13.2578 55.8198 12.3641 55.1318 11.5748C54.7156 11.0984 54.1068 10.8982 53.3792 10.6727C54.2059 10.481 54.2031 10.667 55.0525 10.667C55.9019 10.667 55.8991 10.4979 56.7485 10.4979C57.5979 10.4979 57.5979 10.5797 58.4445 10.5797C59.291 10.5797 59.2939 10.45 60.1433 10.45C60.9927 10.45 60.9927 10.636 61.8421 10.636C62.4933 10.636 63.0737 10.8306 63.657 11.0758C64.2459 11.3267 64.9311 11.4761 65.3784 11.9328C65.8201 12.3839 66.041 13.0322 66.276 13.6383C66.5874 14.4418 66.7516 14.3798 67.0602 15.1804C67.3717 15.9838 67.2216 16.0402 67.5331 16.8436C67.8445 17.6471 67.904 17.6245 68.2126 18.4279C68.524 19.2314 68.5948 19.2032 68.9063 20.0066C69.2177 20.8101 69.2319 20.8044 69.5405 21.6078C69.8519 22.4113 69.5801 22.5156 69.8887 23.319C70.1974 24.1225 70.4012 24.0463 70.7127 24.8498C71.0241 25.6532 70.993 25.6645 71.3044 26.4707C71.4941 26.9641 71.5224 27.4997 71.6527 28.0071C71.7829 28.5146 72.117 29.0135 72.1906 29.5322C72.0689 29.583 71.8622 29.6704 71.7857 29.7888C71.4658 30.2962 71.0185 30.7529 70.4975 31.0151C69.9397 31.297 69.2177 31.4464 68.6883 31.4746C68.0286 30.9812 68.2098 30.7698 67.6661 30.1496C67.1225 29.5294 67.1622 29.4956 66.6185 28.8754C66.0749 28.2552 65.4067 28.492 65.3869 27.6688C65.3671 26.7921 66.0013 26.95 66.477 26.2114C66.9526 25.47 66.9215 25.4502 67.4283 24.7314V24.7257ZM6.0335 14.1035C6.11561 13.5171 6.48934 13.0012 6.67904 12.4543C6.87157 11.899 7.06977 11.3605 7.36423 10.8587C7.65869 10.3569 7.89935 9.79877 8.28441 9.36182C8.66948 8.92204 9.1593 8.56966 9.62081 8.21164C10.0823 7.85362 10.5467 7.47304 11.0705 7.21087C11.5943 6.9487 12.135 6.66397 12.7041 6.5061C13.2619 6.35387 13.8707 6.25521 14.4652 6.21292C14.5587 6.20728 14.6606 6.29749 14.754 6.29467C15.3175 6.26648 15.8781 6.22138 16.4358 6.19601C16.9936 6.17063 17.5599 6.1058 18.1177 6.08324C18.6811 6.05787 19.2474 6.14526 19.8051 6.12271C20.3686 6.10016 20.9292 6.05223 21.487 6.0325C22.0447 6.01277 22.611 5.99303 23.1716 5.9733C23.735 5.95357 24.2985 5.97048 24.8563 5.95357C25.414 5.93665 25.9775 5.82107 26.5381 5.80416C27.1015 5.78724 27.6621 5.70831 28.2199 5.69421C28.7833 5.68012 29.3496 5.81825 29.9074 5.80698C30.4651 5.7957 31.0342 5.86618 31.592 5.8549C32.1555 5.84362 32.8406 5.72804 33.3984 5.7224C32.9227 6.18473 32.4471 6.71753 32.113 7.18268C31.7166 7.73804 31.4589 8.27648 31.2919 8.80646C31.0909 9.45203 30.8927 10.0722 31.0852 10.6304C31.1079 10.6981 31.3457 10.7065 31.3627 10.777C31.4136 10.9828 31.4759 11.6114 32.2829 11.9441C32.6566 12.0991 33.1917 12.116 33.8656 12.1245C33.8429 12.3331 33.7891 12.9392 33.8344 13.6609C33.8628 14.1119 33.9958 14.6025 34.1232 15.1268C34.2393 15.5976 34.2676 16.1276 34.5083 16.5814C34.749 17.0353 34.9953 17.492 35.3719 17.8472C35.7145 18.1742 36.159 18.3546 36.6545 18.5689C36.6601 19.5076 36.4053 19.4541 36.1646 20.3618C36.1646 20.3618 36.3373 20.3618 36.3345 20.3618C36.326 20.3195 36.2949 20.218 36.2524 20.204C35.3152 19.8685 35.2473 20.0658 34.2988 19.767C33.3503 19.4682 33.3701 19.4005 32.4244 19.0904C32.4131 19.0876 32.4018 19.1947 32.3905 19.1919C32.3621 19.1835 32.399 19.0171 32.3706 19.0143C32.3593 19.0143 32.3508 18.9382 32.3395 18.9382C32.3367 18.9382 32.3621 19.2116 32.3593 19.2116C31.9573 19.2455 31.9431 19.0707 31.5411 19.1017C31.0286 19.1412 30.4595 19.3357 29.8451 19.3385C29.31 19.3385 28.738 19.1722 28.1434 19.1524C27.597 19.1327 27.0251 19.1694 26.4418 19.1327C25.8869 19.0989 25.3121 19.1355 24.7373 19.0904C24.1767 19.0453 23.6076 19.0115 23.0385 18.9579C22.4723 18.9044 21.9343 18.5576 21.3737 18.4984C20.8018 18.4392 20.2129 18.5886 19.6579 18.5238C19.0803 18.4561 18.5197 18.3546 17.9704 18.287C17.3843 18.2137 16.8379 18.0023 16.2999 17.9318C15.6997 17.8528 15.1023 18.0051 14.5813 17.9318C13.9443 17.8416 13.3922 17.664 12.9108 17.5907C11.883 17.4384 11.246 17.4131 11.2177 17.4103C10.9062 17.3595 10.9345 17.1255 10.6769 17.3031C10.4192 17.4807 10.5551 17.5174 10.49 17.8247C10.3739 18.38 10.2239 18.9326 10.1446 19.4935C10.0625 20.0574 10.1559 20.6409 10.1078 21.2019C10.0568 21.7742 9.9634 22.3352 9.94075 22.8933C9.9181 23.4515 9.87846 24.0407 9.87846 24.5961C9.87846 25.1824 9.73972 25.7575 9.75954 26.3044C9.77936 26.9021 9.80768 27.4771 9.84448 28.0099C9.88695 28.6301 9.91244 29.2081 9.96623 29.7127C10.037 30.4062 10.2211 30.8234 10.2805 31.2434C9.58683 31.452 9.59816 31.3844 8.87333 31.3844C8.14851 31.3844 8.14851 31.3224 7.42085 31.3224C6.6932 31.3224 6.6932 31.2434 5.96838 31.2434C5.24072 31.2434 5.14729 31.7649 4.46777 31.5112C4.50174 30.9784 4.52722 30.3272 4.5612 29.8085C4.59801 29.2785 4.60084 28.7514 4.64048 28.2327C4.68012 27.7139 4.77072 27.1811 4.81319 26.6624C4.85566 26.1325 5.02554 25.6166 5.06801 25.1007C5.11331 24.5707 4.92361 24.0266 4.96891 23.5079C5.01705 22.9779 5.05102 22.4507 5.09915 21.9349C5.14729 21.419 5.30584 20.8918 5.35964 20.3759C5.41343 19.86 5.43325 19.3188 5.49271 18.8029C5.55217 18.2729 5.56349 17.7429 5.62578 17.2298C5.68807 16.7168 5.96838 16.2065 6.03633 15.6934C6.10428 15.1804 5.96271 14.6166 6.03633 14.1035H6.0335ZM30.9097 20.4802C30.9889 21.2724 30.4991 21.2526 30.3264 22.0307C30.1537 22.8088 30.199 22.82 30.0263 23.5981C29.8536 24.3762 29.981 24.4044 29.8054 25.1824C29.6327 25.9605 29.5535 25.9436 29.3807 26.7216C29.208 27.4997 29.2788 27.5166 29.1061 28.2947C28.9334 29.0727 29.0013 29.0897 28.8286 29.8677C28.6559 30.6458 29.0551 31.0151 28.4237 31.5056C27.7669 32.0158 27.5036 31.4379 26.6711 31.4379C25.8387 31.4379 25.8387 31.4577 25.0035 31.4577C24.1682 31.4577 24.1682 31.4971 23.3358 31.4971C22.5006 31.4971 22.5006 31.39 21.6682 31.39C20.8329 31.39 20.8329 31.4154 20.0005 31.4154C19.4437 31.4154 18.8878 31.4154 18.3328 31.4154C17.4976 31.4154 17.4976 31.3816 16.6652 31.3816C15.8299 31.3816 15.8299 31.4802 14.9947 31.4802C14.1594 31.4802 14.1594 31.5451 13.3242 31.5451C12.489 31.5451 12.472 31.5676 11.6537 31.3956C11.5999 31.0292 11.6112 30.4823 11.5405 29.8085C11.4895 29.3405 11.229 28.8247 11.1865 28.2411C11.1497 27.745 11.1724 27.2065 11.1469 26.6455C11.1242 26.1353 11.0874 25.6025 11.0818 25.0527C11.0761 24.534 11.2686 24.0041 11.2828 23.4628C11.297 22.9215 11.0988 22.3972 11.1356 21.8616C11.1724 21.3259 11.4074 20.8213 11.4697 20.2913C11.532 19.7614 11.5263 19.2004 11.6226 18.6817C12.0048 18.7409 12.5739 18.848 13.2364 18.9466C13.7064 19.0171 14.2501 19.0228 14.8305 19.1045C15.326 19.175 15.8384 19.3892 16.3962 19.4654C16.9058 19.533 17.4296 19.6683 17.9761 19.736C18.4942 19.8008 19.035 19.7924 19.5758 19.8572C20.0996 19.9164 20.6291 19.9869 21.167 20.0433C21.705 20.0996 22.2259 20.1786 22.7582 20.2293C23.2934 20.2801 23.8285 20.3195 24.3579 20.3618C24.8959 20.4069 25.4423 20.2744 25.969 20.3083C26.4956 20.3421 27.0449 20.4548 27.563 20.4774C28.1151 20.5 28.6531 20.3872 29.1656 20.3956C29.729 20.4013 30.4085 20.5056 30.9068 20.4887L30.9097 20.4802ZM25.1394 56.4121C25.1026 56.5643 24.8279 56.6545 24.7798 56.8095C24.6043 57.3508 24.4117 57.8498 24.1116 58.2952C23.7973 58.7632 23.517 59.2649 23.1008 59.6089C22.6676 59.9669 22.1382 60.1924 21.6342 60.3954C21.1189 60.604 20.5781 60.7985 20.026 60.8239C19.4739 60.8493 18.8821 60.8436 18.3413 60.6688C17.7298 60.4715 17.138 60.1248 16.6737 59.7216C16.2037 59.3157 15.8696 58.7321 15.5808 58.174C15.292 57.6158 15.0825 57.021 14.9947 56.3923C14.9664 56.1809 14.9069 55.961 14.9013 55.7468C14.8899 55.1519 15.091 54.5402 15.3005 53.9341C15.4817 53.4126 15.7139 52.9192 16.0253 52.4936C16.3367 52.0679 16.736 51.6647 17.1607 51.3434C17.5939 51.0164 18.0894 50.7852 18.5962 50.602C19.103 50.4187 19.6296 50.2129 20.1732 50.1932C20.7055 50.1735 21.2916 50.1791 21.8211 50.3398C22.3137 50.4892 22.7214 50.85 23.1206 51.1291C23.5199 51.4082 23.8285 51.8142 24.1258 52.2088C24.4231 52.6035 24.8478 52.9559 25.012 53.4295C25.1734 53.8918 25.2158 54.4246 25.2328 54.9292C25.2385 55.4056 25.2611 55.9272 25.1422 56.4149L25.1394 56.4121ZM36.9546 55.8257C36.5129 56.3669 36.142 55.6368 35.4426 55.634C34.7405 55.6312 34.7405 55.6763 34.0411 55.6735C33.3418 55.6706 33.2597 56.0484 32.6085 55.7919C32.5943 55.2393 32.5858 54.6248 32.532 54.0948C32.4754 53.5451 32.3253 53.0235 32.2234 52.502C32.1215 51.9805 31.9205 51.4618 31.7676 50.9543C31.6062 50.4244 31.4278 49.9338 31.2098 49.449C30.9918 48.9641 30.8191 48.4369 30.5274 47.9859C30.2358 47.5348 29.8904 47.1148 29.528 46.7173C29.1656 46.3198 28.7494 45.99 28.3133 45.6601C27.8773 45.3303 27.4951 44.961 27.0024 44.7101C26.5324 44.4705 26.0228 44.2872 25.4905 44.1125C24.9922 43.9518 24.4684 43.8193 23.9134 43.7178C23.3981 43.6248 22.863 43.5289 22.2996 43.4923C21.7786 43.4584 21.235 43.5486 20.6687 43.5684C20.0798 43.5684 19.5305 43.6755 18.9727 43.7573C18.3951 43.8418 17.8147 43.8221 17.2739 43.9912C16.7331 44.1604 16.1527 44.307 15.6431 44.5607C15.1334 44.8144 14.7512 45.288 14.2784 45.6207C13.8055 45.9533 13.3469 46.2606 12.925 46.6581C12.5144 47.0471 12.1492 47.4728 11.7811 47.9238C11.413 48.3749 10.9374 48.716 10.6259 49.2065C10.323 49.6801 10.238 50.289 9.97756 50.8077C9.71707 51.3265 9.32918 51.7578 9.11966 52.299C8.9158 52.8234 8.8252 53.3985 8.66381 53.9566C8.50526 54.4979 8.32972 55.0448 8.2108 55.6143C7.30477 55.868 6.95651 56.3049 6.27699 55.6565C5.62862 55.0363 6.39874 54.7093 6.39874 53.8129C6.39874 52.9192 6.46669 52.9192 6.46669 52.0228C6.46669 51.1291 6.90555 50.9233 6.38175 50.1932C6.00802 49.6717 5.68524 50.1565 5.04253 50.1565C4.39981 50.1565 4.38849 50.3905 3.79674 50.1396C3.81089 49.6012 3.87602 49.167 3.89017 48.6399C3.90433 48.1014 3.7486 47.5658 3.76276 47.0387C3.77692 46.5002 3.87602 45.9702 3.893 45.4431C3.90999 44.9159 3.79957 44.369 3.81656 43.8446C3.83354 43.3062 4.04023 42.7819 4.06005 42.2547C4.07987 41.7275 4.17047 41.1891 4.19029 40.6619C4.21011 40.1348 3.96379 39.5822 3.98644 39.0551C4.00909 38.5166 4.20728 37.9951 4.22993 37.4679C4.25258 36.9408 4.10535 36.391 4.13084 35.8667C4.15632 35.3282 4.34602 34.8067 4.37433 34.2824C4.40264 33.7439 4.39698 33.1745 4.42813 32.6501C5.15012 32.4077 5.20391 32.5712 5.96555 32.5712C6.72718 32.5712 6.72718 32.5543 7.49164 32.5543C8.2561 32.5543 8.25327 32.8447 9.01773 32.8447C9.78219 32.8447 9.77936 32.6304 10.5438 32.6304C11.4017 32.6304 11.4017 32.6642 12.2568 32.6642C13.1119 32.6642 13.1119 32.8052 13.9697 32.8052C14.8276 32.8052 14.8276 32.5712 15.6827 32.5712C16.5378 32.5712 16.5406 32.6699 17.3957 32.6699C18.2507 32.6699 18.2536 32.5938 19.1086 32.5938C19.9637 32.5938 19.9665 32.5825 20.8216 32.5825C21.6767 32.5825 21.6795 32.6896 22.5374 32.6896C23.3953 32.6896 23.3953 32.7432 24.2503 32.7432C25.1054 32.7432 25.1082 32.5853 25.9661 32.5853C26.824 32.5853 26.824 32.6417 27.6819 32.6417C28.5398 32.6417 28.5398 32.667 29.3977 32.667C30.2556 32.667 30.233 32.8136 31.0654 32.8136C31.8978 32.8136 31.9006 32.8193 32.7359 32.8193C33.5711 32.8193 33.5711 32.8447 34.4064 32.8447C35.2416 32.8447 35.2303 32.7319 36.057 32.8418C36.2949 33.0955 36.5695 33.2055 36.8413 33.462C36.9602 34.3106 36.779 34.319 36.779 35.1732C36.779 36.0302 36.6998 36.0302 36.6998 36.8844C36.6998 37.7414 36.9772 37.7414 36.9772 38.5984C36.9772 39.4554 36.898 39.4525 36.898 40.3095C36.898 41.1665 36.9291 41.1665 36.9291 42.0207C36.9291 42.8777 36.8753 42.8777 36.8753 43.7347C36.8753 44.5917 36.7451 44.5917 36.7451 45.4487C36.7451 46.3057 36.9829 46.3057 36.9829 47.1627C36.9829 48.0197 36.9999 48.0197 36.9999 48.8767C36.9999 49.7337 36.898 49.7337 36.898 50.5879C36.898 51.4449 36.9348 51.4449 36.9348 52.3019C36.9348 53.1588 36.7904 53.1504 36.9829 53.9848C37.1981 54.9179 37.501 55.1576 36.9546 55.8229V55.8257ZM34.8367 29.1855C34.6555 28.8726 34.3328 28.6104 34.0185 28.7908C33.7042 28.9713 33.5994 29.4759 33.7806 29.7888C33.8259 29.8677 34.3016 30.5584 35.0038 31.4548C34.3073 32.0215 34.0496 31.3928 33.1493 31.3928C32.2489 31.3928 32.1809 31.7424 31.323 31.4633C31.4108 30.9051 31.3882 30.2793 31.4901 29.786C31.6062 29.2278 31.7364 28.7034 31.8667 28.2214C32.0167 27.6632 32.2687 27.1783 32.4329 26.7132C32.6283 26.1578 32.8152 25.656 33.0218 25.2191C33.2823 24.6722 33.5202 24.1817 33.7835 23.7983C34.1459 23.2683 34.5932 22.9413 34.9188 22.6537C35.5446 22.1096 36.0655 21.9208 36.3147 21.87C37.2094 22.1858 37.1868 22.2478 38.056 22.6255C38.9252 23.0033 38.9252 23.0089 39.7831 23.4092C39.8963 23.5248 40.0521 23.5615 40.1144 23.6432C40.3295 23.9279 40.6155 24.1591 40.9015 24.4607C41.6036 25.1965 41.496 25.3008 42.1982 26.0338C42.9004 26.7667 43.0505 26.6483 43.5318 27.542C43.059 27.8154 42.7843 28.1678 42.3936 28.4779C41.9661 28.8162 41.5583 29.1207 41.2214 29.4843C40.8477 29.8846 40.5476 30.299 40.2701 30.705C39.9501 31.1673 39.5283 31.5281 39.3187 31.951C39.0469 32.4951 38.9648 33.1576 38.8346 33.5579C38.441 33.2421 38.0928 32.7544 37.7559 32.4331C37.3821 32.0779 36.9744 31.7903 36.6743 31.4548C36.3119 31.0461 36.0287 30.6401 35.7767 30.3075C35.2444 29.6055 34.8424 29.1996 34.8311 29.1827L34.8367 29.1855ZM38.056 55.8454C37.4671 55.2844 38.2513 54.9292 38.2513 54.1145C38.2513 53.3026 38.2032 53.3026 38.2032 52.4879C38.2032 51.676 38.073 51.676 38.073 50.8613C38.073 50.0494 38.1522 50.0494 38.1522 49.2375C38.1522 48.4256 38.0786 48.4256 38.0786 47.6109C38.0786 46.799 38.0078 46.799 38.0078 45.9843C38.0078 45.1724 38.0135 45.1724 38.0135 44.3577C38.0135 43.543 38.1098 43.5458 38.1098 42.7311C38.1098 41.9164 38.0899 41.9164 38.0899 41.1045C38.0899 40.2926 38.0503 40.2926 38.0503 39.4779C38.0503 38.6632 38.1579 38.6632 38.1579 37.8513C38.1579 37.0366 38.1324 37.0366 38.1324 36.2219C38.1324 35.4072 37.9257 35.3762 38.1324 34.5897C38.4892 34.8659 38.8771 35.1563 39.2763 35.4128C39.6755 35.6694 40.1087 35.8075 40.5306 36.0246C40.9354 36.2332 41.3771 36.3628 41.816 36.5348C41.816 36.5348 41.7622 36.6758 41.765 36.6758C41.765 36.6758 41.7367 36.7519 41.7395 36.7519C42.218 36.9379 42.7786 36.9013 43.2968 37.0338C43.7838 37.1578 44.2509 37.3016 44.7464 37.3636C45.2419 37.4256 45.7317 37.4341 46.2329 37.4341C46.7652 37.4341 47.3145 37.5863 47.8524 37.5158C48.3904 37.4454 48.8604 37.1268 49.3898 36.9943C49.8995 36.8646 50.4629 36.8816 50.9782 36.6899C51.4935 36.4982 51.9267 36.2078 52.4222 35.9682C52.9177 35.7286 53.3849 35.5199 53.8605 35.2437C54.305 35.5171 54.9194 35.6637 55.6358 35.6214C56.1709 35.5904 56.774 35.5538 57.3799 35.1394C57.646 35.4326 57.9292 35.8188 58.334 36.0302C58.7304 36.236 59.2627 36.2642 59.7072 36.0809C60.0045 35.971 60.4717 35.7004 60.7605 35.2662C61.3268 34.9336 61.8024 34.6037 62.145 34.2514C62.6122 33.7721 62.8189 33.2957 62.867 32.7855C63.79 32.5458 63.7957 32.6191 64.7499 32.6191C65.704 32.6191 65.704 32.7009 66.6582 32.7009C67.6123 32.7009 67.6123 32.5712 68.5665 32.5712C69.1696 32.5712 69.8718 32.6332 70.5315 32.3795C71.1345 32.1483 71.7829 31.8467 72.2756 31.3844C72.2756 31.4295 72.3265 31.3759 72.3265 31.421C72.3265 32.1934 72.1538 32.1934 72.1538 32.9659C72.1538 33.7383 72.3294 33.7383 72.3294 34.5107C72.3294 35.2831 72.1708 35.2831 72.1708 36.0556C72.1708 36.828 72.2331 36.828 72.2331 37.6004C72.2331 38.3728 72.3124 38.3728 72.3124 39.1453C72.3124 39.9177 72.3294 39.9177 72.3294 40.6901C72.3294 41.4625 72.318 41.4569 72.0462 42.1814C71.4545 42.2152 71.0383 42.3844 70.4918 42.4577C69.9029 42.5366 69.3366 42.6043 68.7987 42.7255C68.2183 42.8552 67.6265 42.8749 67.1027 43.0497C66.5393 43.2357 66.0919 43.6614 65.5908 43.8926C65.0528 44.1378 64.5092 44.3183 64.0364 44.6058C63.5324 44.9131 63.1133 45.2993 62.6773 45.6432C62.2158 46.0069 61.8081 46.3903 61.4174 46.7878C61.004 47.205 60.5538 47.563 60.2141 48.0028C59.8545 48.4679 59.4864 48.9133 59.2004 49.3869C58.8918 49.8944 58.7672 50.4723 58.5322 50.9656C58.2746 51.5125 58.0113 52.0143 57.8329 52.5217C57.6234 53.1109 57.4393 53.655 57.3176 54.1483C57.1449 54.8418 56.9948 55.2957 56.9382 55.6988C56.1029 55.8849 56.1114 55.6876 55.2564 55.6847C54.4013 55.6819 54.4013 55.6565 53.5491 55.6509C52.6968 55.6453 52.694 55.6509 51.8389 55.6453C50.9839 55.6424 50.9839 55.789 50.1288 55.7862C49.2737 55.7834 49.2737 55.7186 48.4187 55.7157C47.5636 55.7129 47.5636 55.634 46.7086 55.6312C45.8535 55.6283 45.8507 55.9046 44.9956 55.9018C44.1405 55.899 44.1405 55.82 43.2855 55.8172C42.4304 55.8144 42.4304 55.8454 41.5753 55.8398C40.7203 55.837 40.7033 55.5832 39.8709 55.7778C38.928 55.9976 38.6675 56.4318 38.0503 55.8426L38.056 55.8454ZM76.8793 56.8913C76.8029 57.114 76.4914 57.2409 76.3895 57.4495C76.1658 57.9062 75.9337 58.3347 75.6081 58.7011C75.274 59.0817 74.9738 59.5102 74.5576 59.7808C74.1414 60.0515 73.6346 60.2065 73.1589 60.3559C72.6833 60.5053 72.1821 60.6604 71.6782 60.6632C71.1742 60.666 70.6419 60.6632 70.1521 60.5166C69.6736 60.37 69.1979 60.1332 68.8072 59.8654C68.4164 59.5976 68.0937 59.1635 67.7964 58.7857C67.4991 58.4051 67.2358 57.9766 67.0602 57.5228C66.8451 56.9618 66.6837 56.3359 66.678 55.7101C66.6723 55.1181 66.8762 54.512 67.0829 53.9115C67.2641 53.3816 67.4963 52.8826 67.8105 52.4484C68.1333 51.9974 68.524 51.5999 68.9516 51.2729C69.3791 50.9459 69.8887 50.7006 70.3984 50.5117C70.9137 50.32 71.446 50.1143 71.9953 50.0917C72.5445 50.0692 73.1278 50.0776 73.6629 50.2411C74.1952 50.4018 74.6284 50.7908 75.0503 51.0981C75.4863 51.4167 75.7921 51.8536 76.095 52.2934C76.3952 52.7332 76.817 53.1391 76.9643 53.6578C77.1115 54.1765 77.1228 54.7347 77.103 55.2788C77.086 55.7975 77.0577 56.3698 76.8765 56.8941L76.8793 56.8913ZM86.5965 50.4695C85.8235 50.4695 85.1015 50.9487 85.1015 51.7183C85.1015 52.4203 85.1497 52.4203 85.1497 53.1222C85.1497 53.8241 85.2799 53.8241 85.2799 54.5289C85.2799 55.2337 85.6848 55.4254 85.2006 55.9356C84.7448 56.4149 84.4503 56.2626 83.8416 55.9976C83.8076 55.4085 83.6264 54.7911 83.533 54.2385C83.4339 53.6578 83.3121 53.1137 83.1423 52.5781C82.9667 52.0171 82.8478 51.4618 82.593 50.9543C82.3325 50.4356 82.0182 49.9648 81.67 49.5082C81.3217 49.0515 80.9112 48.6681 80.4723 48.2875C80.0334 47.9069 79.6484 47.501 79.1331 47.205C78.6489 46.9287 78.1166 46.7088 77.5532 46.5058C77.0322 46.317 76.4801 46.1619 75.8884 46.0407C75.3476 45.9308 74.7813 45.8152 74.1782 45.7644C73.6261 45.7193 73.0485 45.7954 72.4426 45.8039C72.1765 45.7983 71.9188 45.8659 71.6555 45.8828C71.0892 45.9026 70.5315 45.8095 69.9963 45.8969C69.4612 45.9843 68.8751 46.0435 68.3542 46.207C67.819 46.3762 67.3858 46.7765 66.8932 47.0161C66.4005 47.2557 65.8966 47.4812 65.4407 47.7913C64.9849 48.1014 64.5715 48.4566 64.1609 48.8288C63.7504 49.2009 63.2351 49.4687 62.8755 49.8944C62.5244 50.3116 62.3744 50.8895 62.0714 51.3575C61.7685 51.8254 61.3409 52.2004 61.0918 52.7022C60.8483 53.1899 60.718 53.7368 60.5227 54.2611C60.3273 54.7854 60.1291 55.2872 59.9847 55.8285C59.1721 56.0653 59.0928 56.0935 58.2717 55.8905C58.3255 55.4959 58.5039 54.8954 58.6653 54.2583C58.7814 53.7903 58.9966 53.2998 59.1948 52.7501C59.3675 52.2737 59.5006 51.7578 59.7497 51.2503C59.9762 50.788 60.2395 50.3285 60.5368 49.8577C60.8171 49.4208 61.1427 49.0064 61.4938 48.5779C61.8251 48.1747 62.1762 47.7829 62.5782 47.4051C62.9576 47.0471 63.2606 46.5735 63.7079 46.2465C64.1298 45.942 64.6309 45.7193 65.1179 45.4487C65.5738 45.1978 66.007 44.8482 66.5251 44.6368C67.0064 44.4423 67.5784 44.4395 68.1135 44.2844C68.6118 44.1407 69.1413 44.0871 69.6906 43.9828C70.2002 43.8869 70.6928 43.543 71.2506 43.4866C71.7688 43.4331 72.3209 43.5684 72.8786 43.5515C73.1958 43.543 73.275 43.746 73.3855 43.4472C73.6827 42.6381 73.5355 42.6325 73.5355 41.7698C73.5355 40.9072 73.4732 40.9072 73.4732 40.0445C73.4732 39.1819 73.3939 39.1819 73.3939 38.3193C73.3939 37.4566 73.377 37.4566 73.377 36.5968C73.377 35.737 73.6686 35.7342 73.6686 34.8716C73.6686 34.0089 73.4534 34.0089 73.4534 33.1463C73.4534 32.2837 73.4874 32.2837 73.4874 31.421C73.4874 30.8008 73.5893 30.1722 73.5129 29.5633C73.4364 28.9515 73.0938 28.3877 72.9438 27.7901C72.7937 27.1952 72.7031 26.5863 72.4794 26.0084C72.168 25.205 72.0972 25.2332 71.7857 24.4297C71.4743 23.6263 71.463 23.6319 71.1544 22.8285C70.8457 22.0251 70.9448 21.9884 70.6334 21.185C70.3219 20.3816 70.3729 20.3618 70.0615 19.5584C69.75 18.755 69.6028 18.8113 69.2942 18.0079C68.9827 17.2045 69.0365 17.1847 68.7279 16.3813C68.4164 15.5779 68.4419 15.5666 68.1305 14.7632C67.819 13.9597 67.9578 13.9062 67.6463 13.1027C67.4226 12.5248 67.0999 11.961 66.7233 11.4902C66.3411 11.011 65.8767 10.5458 65.3728 10.2047C64.8688 9.86361 64.2742 9.57325 63.6881 9.39001C63.1105 9.20959 62.4593 9.25469 61.8364 9.25469C60.97 9.25469 60.97 9.19267 60.1036 9.19267C59.2372 9.19267 59.2372 9.11374 58.3708 9.11374C57.5045 9.11374 57.5045 9.39001 56.6381 9.39001C55.7717 9.39001 55.7717 9.31107 54.9053 9.31107C54.0389 9.31107 54.0389 9.34208 53.1697 9.34208C52.3033 9.34208 52.1815 9.69447 51.4199 9.2857C50.8055 8.95587 51.2217 8.58658 50.9216 7.95792C50.6215 7.32927 50.1798 7.45049 50.0948 6.75982C50.5082 6.48355 50.9782 6.02686 51.3095 5.71113C51.9069 5.72804 52.5524 5.8408 53.1442 5.86336C53.7359 5.88591 54.339 5.86899 54.9308 5.89155C55.5282 5.9141 56.1256 5.88873 56.7173 5.9141C57.3148 5.93947 57.9008 6.18191 58.4926 6.2101C59.09 6.24111 59.6903 6.12835 60.282 6.16218C60.8794 6.19601 61.4627 6.42435 62.0516 6.461C62.683 6.49765 63.3087 6.32286 63.8891 6.39616C64.5205 6.47791 65.1236 6.60195 65.6899 6.73163C66.3099 6.87258 66.8451 7.20241 67.3915 7.39693C67.9889 7.61118 68.5722 7.7775 69.0818 8.05659C69.6311 8.36105 70.0954 8.70779 70.5428 9.09119C70.1181 9.18422 69.7472 9.39565 69.4357 9.75931C69.1554 10.0863 69.1384 10.4754 69.1356 10.9602C69.1356 11.3436 69.1413 11.7467 69.3112 12.2232C69.4499 12.6122 69.5405 13.1845 69.7896 13.8216C69.9709 14.2867 70.1917 14.8026 70.4154 15.3664C70.6079 15.8541 70.7297 16.4095 70.9448 16.9507C71.1459 17.4497 71.5507 17.8895 71.7631 18.4195C71.9698 18.9269 72.0094 19.5133 72.2189 20.032C72.4285 20.5479 72.6663 21.0553 72.8758 21.5656C73.0853 22.0758 73.3175 22.6002 73.527 23.1048C73.745 23.6376 73.9885 24.1422 74.1924 24.6355C74.4161 25.1824 74.5321 25.7406 74.7303 26.217C74.9767 26.8147 75.5571 27.1811 76.0696 27.5448C76.582 27.9085 77.12 28.3172 77.7655 28.3567C78.7763 28.4187 78.8245 28.072 79.8126 28.2919C80.26 28.7175 80.6733 29.3039 81.2141 29.5858C81.7549 29.8705 82.4288 29.8367 83.0347 29.9607C83.6009 30.0791 84.0709 30.4315 84.5636 30.5979C85.11 30.7811 85.6905 30.8177 86.1491 31.0602C86.6531 31.328 86.9674 31.8241 87.3694 32.1681C87.7913 32.5289 88.2104 32.8503 88.5218 33.2957C88.8304 33.7327 89.0739 34.2034 89.2806 34.7278C89.4703 35.2127 89.66 35.706 89.7676 36.2698C89.2268 36.3403 88.703 36.3347 88.2358 36.4672C87.7092 36.6137 87.327 37.0366 86.8966 37.2621C86.4209 37.5102 85.832 37.5694 85.4696 37.9105C85.093 38.2629 85.0109 38.8464 84.7561 39.2975C84.5126 39.7288 84.3031 40.1573 84.1757 40.6788C84.0228 41.2906 84.0115 41.8741 84.0426 42.4859C84.0738 43.1032 83.9945 43.7403 84.2125 44.3239C84.4305 44.9103 84.7844 45.3585 85.11 45.7588C85.4866 46.2239 85.866 46.6524 86.3502 46.9146C86.8343 47.1768 87.4431 47.1599 88.0122 47.267C88.5813 47.3741 89.1022 47.7124 89.6798 47.7124C90.0451 47.7124 90.3197 47.6109 90.6878 47.5856C90.7048 48.0535 90.8095 48.4454 90.8209 48.9162C90.8322 49.3841 90.8293 49.8239 90.835 50.2919C90.164 50.5146 90.1385 50.1763 89.4307 50.1763C88.7228 50.1763 88.7257 50.3539 88.0207 50.4018C87.3157 50.4497 87.3072 50.4666 86.5993 50.4666L86.5965 50.4695Z" fill="#212121"/>
<path d="M20.9208 52.6858C20.3998 52.5194 19.9157 52.4969 19.4117 52.6406C18.9106 52.7816 18.4377 52.9902 18.0527 53.3764C17.6959 53.7373 17.2712 54.1404 17.1013 54.6676C16.9173 55.237 16.9881 55.86 17.09 56.3928C17.1891 56.9059 17.4071 57.3936 17.7271 57.7798C18.047 58.166 18.4717 58.5325 18.9757 58.6932C19.4966 58.8623 20.1082 58.9131 20.6122 58.7721C21.1133 58.6312 21.6371 58.307 22.0194 57.9208C22.3761 57.5599 22.614 57.0215 22.7838 56.4943C22.7952 56.4633 22.8291 56.4379 22.8376 56.4069C22.9905 55.8882 23.0047 55.3272 22.9197 54.8395C22.8263 54.318 22.4781 53.8979 22.1553 53.5033C21.8325 53.1086 21.4305 52.8521 20.9208 52.6886V52.6858Z" fill="#212121"/>
<path d="M72.7599 52.8831C72.2418 52.7252 71.7491 52.6604 71.2452 52.7901C70.7412 52.9198 70.3108 53.1932 69.9201 53.5569C69.5492 53.9064 69.1698 54.2842 68.9942 54.8001C68.8357 55.268 68.7281 55.7642 68.7847 56.2096C68.8442 56.686 69.1103 57.123 69.3793 57.5007C69.7191 57.98 70.1862 58.4367 70.7921 58.6199C71.3811 58.8003 71.9983 58.6199 72.5589 58.4339C73.1167 58.2478 73.6999 58.0082 74.085 57.5374C74.32 57.2498 74.5408 56.9003 74.6683 56.5282C74.8438 56.0179 74.6796 55.4879 74.5946 55.0031C74.5069 54.4872 74.4785 53.9262 74.1445 53.54C73.8104 53.1537 73.2724 53.041 72.7571 52.8831H72.7599Z" fill="#212121"/>
<path d="M39.0471 16.176C39.1774 16.3339 39.2906 16.41 39.4803 16.41C39.6276 16.41 39.7068 16.3423 39.8286 16.2436C40.1089 16.0153 40.3014 15.6178 40.0721 15.3387C39.3558 14.4676 39.3416 14.4789 38.6253 13.6078C38.3959 13.3287 37.8155 13.2272 37.5352 13.4556C37.2549 13.6839 37.3993 14.1322 37.6286 14.4113C38.4016 15.2344 38.3308 15.3049 39.0471 16.176Z" fill="#212121"/>
<path d="M45.6753 11.6204C45.7489 11.6486 45.882 11.6063 45.9584 11.6063C46.2245 11.6063 46.536 11.3723 46.6351 11.113C46.6493 11.0763 46.7795 10.4195 47.4845 9.97969C47.8186 9.77108 48.2943 9.62167 48.869 9.54555C49.2286 9.49763 49.4806 9.20445 49.4325 8.84643C49.3843 8.4884 49.0389 8.09092 48.6822 8.13602C48.147 8.2065 47.7761 8.63218 47.3882 8.80696C46.8871 9.0353 46.4539 9.19881 46.1623 9.48635C45.5847 10.0558 45.2562 10.5604 45.2421 10.6027C45.1203 10.941 45.3355 11.4935 45.6753 11.6176V11.6204Z" fill="#212121"/>
<path d="M48.0735 11.093C47.6799 11.093 47.2977 11.6371 47.2977 12.2291C47.2977 12.8211 47.6799 13.244 48.0735 13.244C48.467 13.244 48.7473 12.8211 48.7473 12.2291C48.7473 11.6371 48.467 11.093 48.0735 11.093Z" fill="#212121"/>
</g>
<defs>
<clipPath id="clip0_4371_11008">
<rect width="95" height="66" fill="white"/>
</clipPath>
</defs>
</svg>
