<svg width="667" height="126" viewBox="0 0 667 126" fill="none" xmlns="http://www.w3.org/2000/svg">
<g clip-path="url(#clip0_4205_5271)">
<path d="M346.33 68.1006L305.74 72.1831" stroke="#212121" stroke-width="1.06211" stroke-miterlimit="10" stroke-linecap="round"/>
<path d="M287.48 74.02L277.014 75.0726C275.446 57.1341 274.387 40.2641 274.878 26.6403C275.065 21.4268 278.845 16.9864 283.985 16.0871C284.094 16.0675 284.206 16.05 284.316 16.0326C303.108 13.1355 321.14 11.1347 338.102 10.397C344.927 10.0751 349.846 11.9519 352.065 16.9423L359.445 31.2937C359.901 32.181 360.546 32.958 361.333 33.5704C362.344 34.3555 363.555 34.8435 364.829 34.9746C370.236 35.5275 372.913 38.1694 373.979 42.0451C375.806 49.4595 376.926 56.9132 377.401 64.4009C377.421 64.7201 377.184 64.9979 376.866 65.03L363.081 66.4164" stroke="#212121" stroke-width="1.06211" stroke-miterlimit="10" stroke-linecap="round"/>
<path d="M349.834 13.698C349.834 13.698 345.955 13.3933 347.563 16.7609C348.81 19.3728 353.513 28.1356 355.564 31.944C356.155 33.04 357.319 33.7011 358.563 33.6462L361.279 33.5263" stroke="#212121" stroke-width="0.898713" stroke-miterlimit="10" stroke-linecap="round"/>
<path d="M311.738 43.5363L275.087 47.3765" stroke="#212121" stroke-width="1.06211" stroke-miterlimit="10" stroke-linecap="round"/>
<path d="M316.227 71.1284L313.474 44.8521" stroke="#212121" stroke-width="1.06211" stroke-miterlimit="10" stroke-linecap="round"/>
<path d="M370.469 66.3834L369.811 60.1273C369.719 59.2494 370.356 58.4645 371.233 58.3727L379.16 57.542C380.007 57.4533 380.777 58.0444 380.905 58.8848C381.41 62.1754 381.078 64.7764 377.563 65.7051L370.468 66.3835L370.469 66.3834Z" fill="#212121"/>
<path d="M374.104 42.553C370.267 43.2533 368.326 45.0495 367.951 47.7489C367.775 49.0145 367.972 50.3142 368.538 51.459C370.02 54.4535 372.793 54.496 376.156 53.8083" stroke="#212121" stroke-width="1.06211" stroke-miterlimit="10" stroke-linecap="round"/>
<path d="M369.79 44.3506C373.781 44.3408 375.094 53.0875 371.201 53.8412" stroke="#212121" stroke-width="1.06211" stroke-miterlimit="10" stroke-linecap="round"/>
<path d="M339.01 68.8364C339.01 68.8364 338.193 53.752 354.749 51.501L353.382 38.4593C353.171 36.4385 352.589 34.4738 351.665 32.6634L344.489 18.6014C343.321 16.3119 340.865 14.9787 338.308 15.2466L326.111 16.5247" stroke="#212121" stroke-width="1.06211" stroke-miterlimit="10" stroke-linecap="round"/>
<path d="M341.4 40.4281L348.595 39.6742C350.128 39.5136 351.866 38.5612 352.618 37.0368" stroke="#212121" stroke-width="1.06211" stroke-miterlimit="10" stroke-linecap="round"/>
<path d="M299.499 72.8675L293.091 73.5448C292.91 72.9477 292.873 72.2856 293.014 71.6154C293.427 69.6556 295.209 68.3725 296.993 68.7482C298.746 69.118 299.849 70.9479 299.499 72.8675Z" fill="#212121"/>
<path d="M310.716 71.6848L307.403 72.0343L302.037 72.6012C302.476 69.5991 300.608 66.8191 297.676 66.2609C294.58 65.6699 291.47 67.7777 290.73 70.9667C290.504 71.9429 290.525 72.9071 290.754 73.7927L285.204 74.3789L282.801 74.633C283.382 65.8745 288.071 59.2066 295.569 58.421C305.293 57.0959 309.822 63.154 310.716 71.686L310.716 71.6848Z" fill="#212121"/>
<path d="M358.338 66.8367C358.238 67.2752 358.063 67.68 357.83 68.0362L352.554 68.5925C351.871 67.8171 351.566 66.7075 351.825 65.5713C352.253 63.6957 354.057 62.4591 355.856 62.8089C357.655 63.1576 358.766 64.9623 358.338 66.8367Z" fill="#212121"/>
<path d="M368.976 66.3103L366.193 66.6043L360.989 67.153C361.08 66.9138 360.861 66.7012 360.923 66.4476C361.68 63.3183 359.611 60.3354 356.488 59.7658C353.367 59.1949 350.223 61.2716 349.466 64.4009C349.126 65.8019 348.998 67.1692 349.602 68.3125L344.112 68.933L341.512 69.2078C342.182 61.5235 346.865 55.6255 354.242 54.8526C363.811 53.5819 368.194 58.841 368.976 66.3103Z" fill="#212121"/>
<path d="M298.72 60.5586C292.714 59.2923 286.735 63.521 285.369 70.0031C285.055 71.4908 285.012 72.9676 285.203 74.3768C285.847 79.1042 289.142 83.0584 293.771 84.034C299.779 85.3002 305.756 81.0716 307.123 74.5894C307.305 73.7304 307.396 72.874 307.403 72.0322C307.452 66.5292 303.931 61.6566 298.72 60.5586ZM301.944 73.1378C301.226 76.5438 298.129 78.7733 295.027 78.1191C292.874 77.666 291.284 75.9416 290.754 73.7906C290.519 72.843 290.49 71.8111 290.71 70.7696C291.427 67.3648 294.524 65.1342 297.627 65.7883C300.565 66.4073 302.454 69.3928 302.036 72.5991C302.012 72.778 301.982 72.9575 301.944 73.1378Z" fill="#212121"/>
<path d="M299.499 72.8675C299.494 72.904 299.486 72.9408 299.478 72.9776C299.065 74.9374 297.283 76.2204 295.498 75.8437C294.323 75.5967 293.44 74.6927 293.091 73.5448C292.91 72.9477 292.873 72.2856 293.014 71.6154C293.427 69.6556 295.209 68.3725 296.993 68.7482C298.746 69.118 299.849 70.9479 299.499 72.8675Z" fill="#212121"/>
<path d="M357.644 54.9695C351.591 53.7927 345.536 57.8681 344.121 64.0734C343.697 65.9358 343.738 67.7785 344.169 69.477C345.171 73.4371 348.285 76.6145 352.52 77.4388C358.573 78.6155 364.626 74.5403 366.041 68.335C366.132 67.938 366.201 67.542 366.25 67.1483C366.967 61.385 363.309 56.072 357.644 54.9695ZM353.819 71.7781C352.093 71.4426 350.732 70.337 349.984 68.8642C349.376 67.6704 349.172 66.2358 349.505 64.7762C350.248 61.5172 353.385 59.3671 356.51 59.9759C359.637 60.5834 361.569 63.7175 360.825 66.9765C360.765 67.2404 360.689 67.4954 360.599 67.7438C359.576 70.5658 356.693 72.3366 353.819 71.7781Z" fill="#212121"/>
<path d="M358.338 66.8367C358.238 67.2752 358.063 67.68 357.83 68.0362C357.066 69.2044 355.685 69.8665 354.308 69.599C353.598 69.461 352.996 69.0972 352.554 68.5925C351.871 67.8171 351.566 66.7075 351.825 65.5713C352.253 63.6957 354.057 62.4591 355.856 62.8089C357.655 63.1576 358.766 64.9623 358.338 66.8367Z" fill="#212121"/>
<path d="M280.898 75.4426L280.1 67.8241L275.029 68.3554C273.909 68.4728 273.097 69.4756 273.214 70.5956L273.536 73.6721C273.675 74.9998 274.853 75.9705 276.183 75.8543L280.9 75.4425L280.898 75.4426Z" fill="#212121"/>
<path d="M281.704 30.4497C281.704 30.4497 298.163 31.3864 305.154 30.1063L303.52 44.3976L283.342 46.5118C283.342 46.5118 280.935 38.0456 281.705 30.4495L281.704 30.4497Z" stroke="#212121" stroke-width="1.06211" stroke-miterlimit="10" stroke-linecap="round"/>
<path d="M309.481 40.769C309.481 40.769 319.191 54.2348 332.228 44.1793C332.228 44.1793 334.226 45.6997 336.247 43.3997C336.247 43.3997 337.727 45.1195 338.635 44.5997C338.635 44.5997 341.567 43.2263 336.826 40.339" stroke="#212121" stroke-width="1.06211" stroke-miterlimit="10" stroke-linecap="round"/>
<path d="M337.281 38.2959C337.281 38.2959 344.914 39.828 339.459 43.7257" stroke="#212121" stroke-width="1.06211" stroke-miterlimit="10" stroke-linecap="round"/>
<path d="M341.562 40.6088C343.359 38.9808 342.318 37.7789 341.257 37.0025C340.205 36.2322 338.877 35.9537 337.587 36.1434C335.994 36.3776 334.656 36.9401 333.718 37.4421C332.503 38.0926 331.192 38.5467 329.83 38.759L323.534 39.7367L316.657 33.8816C316.346 33.6172 316.047 33.3387 315.77 33.0394C315.227 32.4536 313.632 31.1392 310.11 30.9468L321.674 34.5914" stroke="#212121" stroke-width="1.06211" stroke-miterlimit="10" stroke-linecap="round"/>
<path d="M315.549 46.0201C315.549 46.0201 315.88 40.7079 320.862 37.5977" stroke="#212121" stroke-width="1.06211" stroke-miterlimit="10" stroke-linecap="round"/>
<path d="M318.904 47.4145C318.904 47.4145 320.602 40.5994 324.239 39.6267" stroke="#212121" stroke-width="1.06211" stroke-miterlimit="10" stroke-linecap="round"/>
<path d="M348.896 39.0592L344.579 35.0428L346.564 31.547L344.907 30.8574L341.354 36.2009L342.142 39.6011L348.896 39.0592Z" fill="#212121"/>
<path d="M338.741 36.0384L339.462 34.16C341.661 34.7451 343.484 33.8824 345.021 31.915C347.689 27.5367 342.385 28.8187 341.272 30.7532" stroke="#212121" stroke-width="1.06211" stroke-miterlimit="10" stroke-linecap="round"/>
<path d="M345.021 31.9154C345.021 31.9154 349.069 29.1616 344.822 26.827C344.822 26.827 343.078 25.2348 338.773 28.8738C338.373 29.2116 337.953 29.5248 337.51 29.8044L332.06 33.2444C330.765 34.0611 329.21 34.3574 327.706 34.0742L321.236 32.853L322.811 39.122" stroke="#212121" stroke-width="1.06211" stroke-miterlimit="10" stroke-linecap="round"/>
<path d="M326.968 20.4785C326.968 20.4785 327.785 17.293 327.484 15.705" stroke="#212121" stroke-width="1.06211" stroke-miterlimit="10" stroke-linecap="round"/>
<path d="M311.125 31.0387L311.666 27.5921" stroke="#212121" stroke-width="1.06211" stroke-miterlimit="10" stroke-linecap="round"/>
<path d="M315.243 26.4515C314.048 27.2368 312.455 27.7645 311.038 27.3226C309.288 26.7773 308.471 24.6703 308.359 22.9847C308.321 22.4133 308.378 21.8249 308.618 21.3055C309.133 20.1936 310.509 19.7883 311.625 19.6053" stroke="#212121" stroke-width="1.06211" stroke-miterlimit="10" stroke-linecap="round"/>
<path d="M311.795 22.823L313.63 24.64" stroke="#212121" stroke-width="1.06211" stroke-miterlimit="10" stroke-linecap="round"/>
<path d="M317.247 29.338C318.891 31.3328 327.895 31.1238 327.491 23.5509" stroke="#212121" stroke-width="1.06211" stroke-miterlimit="10" stroke-linecap="round"/>
<path d="M321.511 25.0417C321.511 25.0417 321.497 23.8436 322.033 23.2295" stroke="#212121" stroke-width="1.06211" stroke-miterlimit="10" stroke-linecap="round"/>
<path d="M321.771 24.135C321.771 24.135 324.407 27.0039 327.272 25.9196" stroke="#212121" stroke-width="1.06211" stroke-miterlimit="10" stroke-linecap="round"/>
<path d="M325.526 23.114C325.526 23.114 331.271 22.8753 331.056 20.0241C331.056 20.0241 331.029 17.3772 326.704 17.6343L324.01 13.2307" stroke="#212121" stroke-width="1.06211" stroke-miterlimit="10" stroke-linecap="round"/>
<path d="M326.792 7.56795C325.461 4.55186 318.819 5.03195 312.429 8.41397C306.137 11.7427 302.23 16.7416 303.582 19.6766C303.616 19.7519 303.649 19.8274 303.678 19.9056C303.874 20.4477 305.301 23.0593 313.705 18.667C315.181 17.8951 316.698 17.2037 318.248 16.5957C321.938 15.1488 328.678 11.8426 326.791 7.56922L326.792 7.56795Z" fill="#212121"/>
<path d="M310.226 9.70861L309.856 9.1185C309.774 8.98675 309.819 8.81386 309.955 8.73813L310.893 8.21521C311.001 8.15511 311.136 8.17583 311.221 8.26555L311.728 8.79828L310.226 9.70861Z" fill="#212121"/>
<path d="M319.515 33.9111C319.515 33.9111 320.965 32.1617 320.711 30.4063" stroke="#212121" stroke-width="1.06211" stroke-miterlimit="10" stroke-linecap="round"/>
<path d="M320.393 18.2154C320.393 18.2154 320.87 16.2802 323.372 15.6781" stroke="#212121" stroke-width="1.06211" stroke-miterlimit="10" stroke-linecap="round"/>
<path d="M323.084 20.7457C323.532 20.6988 323.837 20.1131 323.766 19.4375C323.696 18.7619 323.275 18.2523 322.828 18.2991C322.381 18.346 322.075 18.9317 322.146 19.6073C322.217 20.2829 322.637 20.7926 323.084 20.7457Z" fill="#212121"/>
<path d="M306.811 21.0321C306.811 21.0321 306.608 27.3993 311.513 28.2694L308.115 24.0313L308.317 21.2455L310.455 20.4692C310.455 20.4692 313.648 19.5941 314.288 21.8867C314.288 21.8867 317.261 21.7539 315.427 17.6222L306.811 21.0321Z" fill="#212121"/>
<path d="M306.236 43.7427L303.52 44.3974L305.925 29.1936L310.463 30.1253L310.938 31.8947C310.938 31.8947 306.742 32.4051 306.235 43.744L306.236 43.7427Z" fill="#212121"/>
</g>
<path d="M665 125C583 -9.5 92 166.5 2 60.5" stroke="#FA5F2B" stroke-width="3" stroke-dasharray="20 20"/>
<defs>
<clipPath id="clip0_4205_5271">
<rect width="108.349" height="75.6398" fill="white" transform="translate(267 11.291) rotate(-5.98165)"/>
</clipPath>
</defs>
</svg>
