<svg width="212" height="209" viewBox="0 0 212 209" fill="none" xmlns="http://www.w3.org/2000/svg">
<path d="M22.7967 19.5197C21.4602 19.3352 19.9837 19.3224 18.7809 19.3606C17.4762 19.3988 16.2352 19.4179 15.0451 19.8761C13.9377 20.3025 12.6585 20.7098 11.6148 21.6581C10.8575 22.3454 10.3992 23.5292 9.75009 24.5666C9.17095 25.5021 8.78908 26.5776 8.38814 27.6532C7.98719 28.7288 7.27442 29.7661 7.1535 30.8544C7.01985 32.0572 7.54808 33.1646 7.86629 34.1765C7.97448 34.5202 7.93628 35.2393 8.36905 35.2075C8.86546 35.2584 9.12004 35.0548 9.55917 34.8575C10.3865 34.4884 13.034 32.8273 13.8677 32.1272C14.7014 31.4272 15.427 30.568 16.2098 29.8107C16.9926 29.0533 17.839 28.3342 18.59 27.545C19.3409 26.7558 19.9328 25.8076 20.6838 25.0184C21.4348 24.2293 22.173 23.421 22.9495 22.6509C23.465 22.5682 23.4459 22.6382 23.5413 22.8991C24.2541 24.7957 24.0187 25.6739 23.7068 26.2658C23.3377 26.9722 22.6822 27.5832 21.2948 28.6906C20.2319 29.537 18.9527 30.0843 18.0936 31.0199C17.1835 32.0127 16.4771 33.1519 15.8534 34.2847C15.2297 35.4175 14.8669 36.6777 14.5742 37.995C14.3005 39.2106 14.1987 40.5916 14.2623 41.9918C13.1358 41.559 11.9648 40.9608 10.9466 40.5153C9.92829 40.0698 8.88455 39.567 7.59261 40.3243C6.54888 40.9353 6.09067 41.9727 5.79155 42.9973C5.49243 44.022 5.62607 45.1039 5.7279 46.1985C5.84246 47.395 6.40887 48.6424 6.56161 49.7179C6.74617 50.9844 6.35159 52.2254 5.98247 53.4537C5.61334 54.682 5.25058 55.853 5.12966 57.1195C4.98965 58.6469 4.8242 59.9707 4.78601 61.5044C3.28406 61.6636 2.43762 62.4782 1.6039 63.2482C0.655636 64.1201 0.203767 65.2657 0.10194 66.6085C0.0128408 67.7796 -0.165355 69.1733 0.362875 70.4716C0.891105 71.7699 2.77491 72.5782 2.94674 73.1255C3.32223 74.322 3.29041 76.6004 3.53861 77.9941C3.7359 79.1333 3.51953 80.4762 3.78682 81.819C4.0223 83.0028 4.59507 84.1865 4.89419 85.4784C5.16785 86.6813 5.20603 87.9923 5.54333 89.2461C5.88064 90.4998 6.63799 91.5563 7.02621 92.7782C7.41442 94.0001 7.63717 95.2539 8.08267 96.4376C8.52816 97.6214 9.29822 98.6842 9.82009 99.8234C10.342 100.963 10.7302 102.223 11.3602 103.298C12.0221 104.425 12.9131 105.322 13.6768 106.289C14.4914 107.32 15.0133 108.555 15.9488 109.351C16.9416 110.191 18.1063 110.757 19.2455 111.273C20.0156 111.616 22.3512 112.227 22.6694 112.552C23.0322 112.927 23.0322 114.347 23.344 114.964C23.9359 116.154 25.2279 117.026 26.2207 118.025C27.2135 119.024 28.1427 120.246 29.5874 120.399C30.4656 120.494 32.0948 119.992 32.4958 120.087C32.7694 120.151 34.055 121.207 34.736 121.494C37.1289 122.499 37.899 122.028 39.961 122.168C41.4248 122.27 42.233 122.518 44.1805 122.423C45.6888 122.353 47.0889 122.27 48.4 121.799C49.711 121.328 51.0857 120.749 52.3203 120.004C53.555 119.26 54.5605 118.05 55.7443 117.217C56.9216 117.28 58.1881 117.7 59.3591 117.732C60.5301 117.764 61.7139 117.783 62.8849 117.764C64.0559 117.745 65.2524 117.898 66.4234 117.815C67.5944 117.732 68.7463 117.344 69.9046 117.166C71.0629 116.988 72.2148 116.759 73.3604 116.472C74.506 116.186 75.6006 115.817 76.7143 115.403C77.8281 114.989 79.0436 114.735 80.1001 114.194C81.1566 113.653 81.9394 112.615 82.9258 111.954C83.9123 111.292 84.9878 110.757 85.8979 109.993C86.808 109.23 87.7435 108.479 88.5645 107.613C89.3855 106.748 89.9965 105.92 90.722 104.972C91.9885 106.608 91.5366 106.824 92.2939 108.746C93.0513 110.668 93.4013 110.534 94.1587 112.463C94.916 114.391 94.9351 114.385 95.6924 116.307C96.4498 118.229 96.5516 118.222 96.7171 120.291C95.5524 120.863 94.776 121.761 93.6304 122.385C92.4849 123.008 91.212 123.377 90.0983 124.046C88.9845 124.714 87.7117 125.153 86.6298 125.872C85.5479 126.591 84.8414 127.851 83.7913 128.621C82.7412 129.392 81.4429 129.824 80.431 130.639C79.4191 131.454 78.6427 132.548 77.6753 133.414C76.708 134.279 75.3524 134.744 74.4232 135.66C73.494 136.577 72.8704 137.786 71.9985 138.753C71.1266 139.721 70.4329 140.822 69.6119 141.84C68.7909 142.858 67.9508 143.826 67.1935 144.888C66.4743 145.894 65.7679 146.899 65.0997 147.937C64.4314 148.974 63.9859 150.139 63.3686 151.208C62.7513 152.277 62.0512 153.289 61.4848 154.39C60.9184 155.491 60.4729 156.637 59.9637 157.757C59.4546 158.877 58.8118 159.94 58.3472 161.085C57.8826 162.231 57.469 163.389 57.0489 164.554C56.6289 165.718 56.4252 166.94 56.0497 168.118C55.6743 169.295 54.7005 170.294 54.3696 171.484C54.0386 172.675 53.9623 173.941 53.6695 175.137C53.3768 176.334 53.0776 177.543 52.8231 178.752C52.5685 179.962 52.524 181.241 52.3076 182.456C51.9575 182.52 51.6457 182.17 51.3339 182.055C50.1756 181.623 48.8264 181.139 47.5344 180.426C46.2425 179.713 45.0078 179.185 43.7859 178.714C42.7294 178.307 41.5839 177.823 40.311 177.524C39.1273 177.244 37.8926 177.212 36.6707 177.136C35.4488 177.059 34.125 176.633 32.9604 176.888C31.7257 177.161 30.6565 177.887 29.7146 178.676C28.8364 179.408 28.4291 180.49 27.9517 181.788C27.5381 182.908 27.6208 183.494 28.0599 184.264C28.4991 185.034 29.0782 185.664 29.7655 186.459C30.4529 187.255 30.962 188.343 31.8212 189.132C32.6294 189.871 33.8323 190.182 34.7233 190.883C35.6142 191.583 36.2125 192.652 37.1162 193.275C38.0772 193.937 39.1273 194.408 40.0247 194.949C41.1511 195.63 42.3285 196.279 43.5313 196.903C44.7342 197.527 45.8415 198.297 47.0762 198.812C48.3109 199.328 49.5519 199.92 50.8311 200.314C52.1103 200.709 53.5359 200.582 54.8533 200.817C56.1707 201.053 57.4881 201.18 58.8245 201.224C60.161 201.269 61.4275 201.447 62.764 201.256C62.7385 202.478 61.3575 203.961 62.7767 204.757C63.9032 205.157 65.0615 205.533 66.2198 205.947C67.378 206.36 68.4854 206.863 69.6373 207.232C70.7893 207.601 71.9412 208.123 73.1058 208.41C73.9014 208.607 75.8552 209.275 76.5107 208.874C76.8925 208.645 77.4144 207.143 77.7326 205.45C77.9363 204.343 77.7644 203.045 77.9426 201.912C78.1845 200.346 78.4263 198.927 78.5918 198.399C79.2027 198.322 80.3738 198.901 81.5066 199.181C82.7413 199.481 83.8104 199.29 84.2559 198.959C84.606 198.698 85.2424 197.571 85.5733 195.866C85.7897 194.746 86.2607 193.536 86.4389 192.391C86.6807 190.838 86.5407 189.419 86.6616 188.821C86.9225 187.548 87.2853 186.294 87.5908 185.034C87.8963 183.774 87.9345 182.437 88.2908 181.183C88.6472 179.93 89.5255 178.848 89.9328 177.613C90.3401 176.378 90.7411 175.163 91.2247 173.954C91.7084 172.745 92.1857 171.561 92.7522 170.39C93.3186 169.219 93.7131 167.978 94.3687 166.851C95.0242 165.725 95.6542 164.598 96.4052 163.523C97.0989 162.536 97.6081 161.391 98.3718 160.481C99.1355 159.571 100.007 158.692 100.847 157.846C101.688 156.999 102.782 156.395 103.686 155.612C104.59 154.829 105.684 154.295 106.645 153.576C107.606 152.856 108.459 152.01 109.465 151.361C110.47 150.712 111.418 149.967 112.462 149.375C113.506 148.783 114.747 148.586 115.816 148.051C116.885 147.517 117.706 146.448 118.807 145.964C119.908 145.48 121.213 145.518 122.327 145.079C122.549 145.016 122.397 145.111 122.524 145.257C123.122 145.926 124.077 148.287 124.643 149.286C125.241 150.342 126.088 151.278 126.756 152.334C127.424 153.391 127.921 154.511 128.634 155.529C129.346 156.548 130.352 157.318 131.122 158.285C131.892 159.252 132.331 160.5 133.159 161.41C133.986 162.32 134.813 163.281 135.711 164.121C136.608 164.961 137.664 165.674 138.638 166.431C139.612 167.189 140.923 167.456 141.973 168.099C143.023 168.741 143.971 169.537 145.098 170.046C146.224 170.555 147.23 171.408 148.42 171.764C149.61 172.121 150.838 172.414 152.079 172.592C153.32 172.77 154.612 172.344 155.93 172.344C157.164 172.344 158.45 172.547 159.742 172.426C161.034 172.305 162.198 171.764 163.465 171.554C164.731 171.344 165.972 171.217 167.213 170.931C168.454 170.644 169.804 170.733 171.013 170.39C172.222 170.046 173.476 169.601 174.647 169.206C175.901 168.78 177.148 168.423 178.268 167.978C179.598 167.449 180.642 166.272 181.928 165.642C183.213 165.012 184.74 164.853 185.994 164.172C187.248 163.491 188.311 162.708 189.565 162.034C190.373 163.599 191.086 165.139 192.015 166.635C192.537 167.481 193.421 168.302 194.204 169.308C194.872 170.173 195.521 171.147 196.336 172.006C197.151 172.865 197.959 173.655 198.844 174.374C199.728 175.093 200.619 175.984 201.599 176.499C202.668 177.059 203.839 177.518 204.934 177.651C206.029 177.785 207.321 177.55 208.422 177.066C209.701 176.499 210.35 175.271 210.853 174.011C211.305 172.885 211.801 171.599 211.814 170.18C211.827 168.907 211.489 167.564 211.273 166.24C211.057 164.917 210.796 163.574 210.471 162.364C210.07 160.894 209.306 159.698 208.944 158.718C208.46 157.413 208.027 156.115 207.429 154.874C206.831 153.633 206.042 152.487 205.361 151.284C204.68 150.082 204.355 148.669 203.636 147.479C202.917 146.288 202.217 145.207 201.497 144.023C202.999 143.055 203.381 143.329 202.904 141.216C202.789 140.713 202.433 139.231 201.618 137.595C201.058 136.462 200.333 135.278 199.715 134.184C198.767 132.497 198.118 130.868 197.755 130.703C197.335 130.512 197.055 130.703 196.661 130.785C195.617 130.983 194.064 131.498 192.556 132.147C191.047 132.796 189.679 133.414 188.597 133.802C187.515 134.19 186.548 135.043 185.396 135.469C184.244 135.896 182.978 135.762 181.845 136.15C180.712 136.539 179.7 137.302 178.561 137.633C177.422 137.964 176.193 138.123 175.048 138.352C173.902 138.581 172.648 138.499 171.49 138.569C170.262 138.645 169.053 139.078 167.914 138.9C166.774 138.721 165.533 138.34 164.47 137.799C163.408 137.258 162.453 136.532 161.587 135.622C160.83 134.82 160.251 133.757 159.64 132.605C159.131 131.638 158.488 130.601 158.1 129.36C157.661 127.96 157.444 126.47 157.094 125.019C156.744 123.568 156.763 122.028 156.324 120.615C155.993 119.552 155.312 118.591 154.911 117.548C154.51 116.504 153.995 115.505 153.607 114.467C153.219 113.43 152.722 112.393 152.404 111.33C152.028 110.07 151.857 108.721 151.538 107.41C151.22 106.098 151.004 104.794 150.698 103.489C150.393 102.184 150.336 100.803 149.992 99.5306C149.693 98.4423 149.133 97.0931 148.675 95.7566C148.216 94.4202 147.44 93.0837 147.306 92.0208C147.249 91.5754 147.153 90.958 147.453 90.5825C148.541 90.1498 149.89 90.1498 151.118 89.9779C152.347 89.8061 153.467 89.3924 154.6 89.0742C155.732 88.756 157.012 88.8387 157.858 87.8968C158.628 88.4123 159.691 88.756 160.722 89.6088C161.638 90.3662 162.338 91.4099 162.988 92.32C163.751 93.3828 164.509 94.4838 164.254 95.5848C164.089 96.304 161.836 98.7796 161.231 99.8043C160.499 101.045 159.742 102.28 159.392 103.674C159.042 105.067 159.029 106.519 159.156 107.95C159.284 109.382 159.354 110.859 160.022 112.183C160.69 113.506 161.938 113.939 162.548 114.977C163.268 116.192 163.573 117.739 164.47 118.999C165.368 120.259 166.125 121.659 167.398 122.168C168.671 122.677 170.3 122.671 171.808 122.251C172.693 122.003 174.049 121.061 174.691 120.953C175.29 120.857 176.053 121.099 176.817 121.073C179.395 120.997 179.961 119.68 181.749 118.846C183.34 118.101 184.371 118.114 186.007 116.79C187.032 115.963 188.012 115.034 188.629 113.952C189.246 112.87 189.775 111.578 190.036 110.318C190.296 109.058 190.405 107.721 190.335 106.436C190.265 105.15 189.787 103.89 189.444 102.675C189.1 101.459 188.68 100.173 188.082 99.0851C187.668 98.3405 186.764 97.6659 186.134 96.8386C185.472 95.9667 185.186 94.9357 184.906 94.191C184.505 93.1346 183.932 91.7472 183.792 90.2198C183.652 88.6924 183.538 87.2731 183.315 86.1085C183.079 84.8611 183.232 83.5437 182.876 82.3854C182.519 81.2271 182.087 79.9798 181.609 78.8597C181.132 77.7396 180.26 76.7276 179.649 75.6712C179.038 74.6147 178.586 73.3737 177.854 72.3872C177.123 71.4008 176.079 70.618 175.239 69.7143C174.399 68.8106 173.686 67.735 172.744 66.9331C171.802 66.1312 170.593 65.6603 169.575 64.9538C168.556 64.2474 167.487 63.6555 166.405 63.0446C165.323 62.4336 164.375 61.5935 163.242 61.0717C162.109 60.5498 160.817 60.4862 159.653 60.0598C158.488 59.6334 157.374 59.1306 156.178 58.7933C154.981 58.456 153.868 57.8068 152.652 57.5586C151.437 57.3104 150.157 57.4504 148.929 57.2786C147.701 57.1068 146.511 56.5658 145.276 56.4767C144.041 56.3876 142.781 56.3176 141.547 56.3049C140.312 56.2922 139.045 56.3367 137.817 56.394C136.589 56.4513 135.373 57.0049 134.145 57.1386C132.917 57.2722 131.657 57.2468 130.441 57.4632C129.728 57.5905 127.787 58.3542 127.393 57.775C127.119 57.3677 127.132 55.3375 127.513 54.9302C127.666 54.7711 128.716 54.2174 129.957 53.7656C131.007 53.3837 131.918 52.7027 132.395 52.4291C133.489 51.799 134.705 51.3853 135.577 50.5262C136.449 49.667 137.213 48.636 137.874 47.5859C138.536 46.5358 139.23 45.4603 139.669 44.2956C140.108 43.131 140.159 41.8454 140.376 40.6171C140.592 39.3888 140.522 37.995 140.516 36.7604C141.757 36.3276 143.399 36.4485 144.538 35.9012C145.677 35.3539 146.816 34.4438 147.459 33.1328C148.044 31.9236 148.121 30.5107 148 29.2379C147.879 27.965 147.223 26.8386 146.644 25.6294C146.11 24.5029 145.454 23.3892 144.684 22.3454C143.914 21.3017 143.068 20.3089 142.221 19.3988C141.267 18.3805 140.465 17.305 139.631 16.5476C139.166 16.1276 138.002 15.0839 136.793 14.1547C135.462 13.1301 133.941 12.3664 133.782 12.01C133.629 11.6727 134.037 11.0617 134.139 10.5589C134.444 9.01242 133.725 7.8605 132.478 7.52956C131.23 7.19862 129.951 7.84141 129.423 9.34972C129.346 9.48337 129.035 9.40064 128.895 9.337C127.787 8.70057 126.648 8.08325 125.49 7.49774C124.331 6.91223 123.09 6.57493 121.913 6.0467C120.736 5.51847 119.8 4.43019 118.591 3.9656C117.382 3.50101 115.994 3.56465 114.766 3.17007C113.538 2.77549 112.348 2.27908 111.1 1.96724C109.853 1.65539 108.593 1.39446 107.326 1.16535C106.06 0.936235 104.812 0.49074 103.533 0.357092C102.254 0.223443 100.956 0.0261527 99.6701 0.000695813C98.3845 -0.024761 97.1053 0.65621 95.8197 0.745309C94.6296 0.828043 93.1595 0.783494 91.7212 1.24172C90.3783 1.66812 89.01 2.18362 87.9599 3.0046C86.8207 3.88923 86.2288 5.09207 86.0379 6.51128C85.847 7.9305 85.4651 9.17789 85.7961 10.1834C86.1779 11.3545 86.9989 12.3536 87.8772 13.2701C88.6472 14.0783 89.8883 14.7275 90.8683 15.6121C90.9893 17.4705 90.1428 17.4195 89.7992 19.2461C89.4555 21.0726 89.6273 21.1108 89.2837 22.9373C88.94 24.7638 89.551 24.993 88.5645 26.5713C87.2026 26.2085 86.0634 26.4758 84.9814 26.6031C83.6131 26.7622 82.5058 27.0104 81.6275 27.7423C80.6602 28.5442 79.9664 29.5625 79.6419 30.7589C79.3173 31.9554 79.2982 33.171 79.6292 34.412C79.9283 35.5448 80.7429 36.4485 81.6148 37.4286C82.3721 38.2814 83.174 39.217 84.3832 39.8088C84.1541 41.0562 83.7022 42.3227 83.6259 43.5765C83.5495 44.8302 83.5113 46.1412 83.6004 47.395C83.6895 48.6487 83.995 49.9216 84.2559 51.1562C84.5169 52.3909 85.1787 53.5174 85.6242 54.6947C86.0697 55.8721 86.7571 56.8968 87.3935 57.9914C88.0299 59.086 88.1508 60.2061 88.9718 61.1862C87.6862 61.8417 86.9353 62.8728 85.8343 63.7447C84.7333 64.6165 83.6895 65.6475 82.5821 66.5385C82.0985 66.5004 81.7548 64.3747 81.6784 63.9356C81.5002 62.9364 81.462 61.7399 81.3157 60.4225C81.1947 59.3279 80.6347 58.1887 80.5074 56.9477C80.3929 55.8148 80.2465 54.6375 80.1128 53.4346C79.9792 52.2318 80.4629 51.0162 80.2974 49.8452C80.1319 48.6742 79.7946 47.5095 79.5719 46.364C79.3491 45.2184 78.5918 44.1429 78.2863 43.0355C77.9554 41.8518 77.5926 40.7698 77.1535 39.7325C76.6634 38.5742 76.3452 37.4541 75.6961 36.5567C74.9578 35.5512 74.2959 34.482 73.3031 33.9219C72.6412 33.5465 71.3939 33.6292 71.0184 32.91C70.7765 32.3564 70.6556 31.2426 70.5156 30.1225C70.3629 28.9197 70.0128 27.8759 69.3128 27.6787C68.8291 27.5386 68.1927 27.9078 67.6453 27.7932C66.398 27.5323 66.0352 26.1003 65.7997 24.8211C65.5642 23.5419 65.8315 22.2627 65.9143 21.3144C66.0097 20.2134 65.6406 18.9215 65.9206 17.6805C66.1752 16.5349 67.0535 15.4912 67.3526 14.3202C67.6517 13.1492 67.569 11.8509 67.7981 10.7244C68.0526 9.44519 68.4472 8.24872 68.4472 7.17316C68.4472 5.86214 67.6899 4.85659 66.9516 3.9656C66.2134 3.07461 65.3097 2.17089 64.1641 1.77631C63.0186 1.38173 61.7266 1.39446 60.5811 1.59811C59.3719 1.82086 58.5509 2.57184 57.819 3.55829C57.2335 4.35382 56.5271 5.27026 56.1707 6.56856C55.8779 7.61866 55.6933 8.79604 55.477 10.0116C55.2797 11.1508 55.2924 12.36 55.1078 13.5183C54.9233 14.6766 54.6305 15.8858 54.4014 16.9741C54.1341 18.2596 53.6823 19.3925 53.2749 20.3153C52.7531 21.499 51.5757 22.1991 50.4683 23.0201C49.3609 23.841 48.349 24.732 47.5217 25.6803C46.8216 26.4822 46.0261 27.2713 45.5679 28.2387C45.1097 29.2061 45.2306 30.3771 44.9569 31.4017C44.6833 32.4264 43.945 33.2855 43.7795 34.3102C43.1558 34.902 42.3667 32.3882 42.0103 31.9681C41.132 30.9499 40.362 30.0525 39.5855 29.3906C38.5991 28.5506 37.3962 28.3405 36.3907 27.8823C35.3851 27.4241 34.4496 26.6286 33.2022 26.3422C32.1903 26.1131 30.9238 26.5522 29.6319 26.3104C28.34 26.0685 27.3281 25.2284 26.7425 24.3184C26.157 23.4083 25.7561 22.1991 25.5779 21.0535C25.3997 19.908 25.7243 18.7051 25.6988 17.6932C26.558 18.4315 27.5317 18.8579 28.4418 19.3925C29.3964 19.9589 30.3129 20.4998 31.3439 20.8371C32.3749 21.1744 33.3804 21.7345 34.4878 21.8427C35.5379 21.9445 36.6325 21.4926 37.7653 21.3845C38.2108 21.3399 39.5346 21.4799 40.7374 21.1362C42.0294 20.7671 43.5568 20.0543 43.665 19.6343C43.2513 18.4505 42.093 17.2859 41.1575 16.0894C40.292 14.9821 39.3755 13.8238 38.2427 13.0219C37.0144 12.15 35.6206 11.8763 34.3032 11.749C33.1958 11.6408 32.203 11.5836 31.2038 11.8381C30.2047 12.0927 29.0973 12.2518 28.1427 12.7291C27.188 13.2064 26.3289 13.7729 25.4124 14.3138C24.8396 14.1993 25.6415 12.2518 25.7497 11.7809C26.0234 10.5526 27.258 7.4341 27.2835 6.8995C27.3535 5.20026 25.6733 5.0857 24.6042 6.65766C24.2223 7.21771 23.395 8.29963 23.0067 9.54701C22.6185 10.7944 22.5613 12.1691 22.5613 12.8309C22.5613 14.4666 22.5103 14.4602 22.784 16.0703C23.0704 17.7759 23.4713 17.9669 22.8158 19.4688L22.7967 19.5197ZM61.6821 7.16043C62.293 7.22408 64.1068 7.6823 64.3741 8.22326C64.4823 8.41418 64.3296 8.7133 64.3487 8.92969C64.3932 9.35609 63.8268 10.8771 63.5277 12.4555C63.2286 14.0338 63.2731 15.6248 63.1077 16.0767C62.9804 16.4204 62.834 16.6113 62.5031 16.6749C61.7839 16.8086 58.7482 16.1022 58.6145 15.313C58.57 15.0457 58.4045 13.251 58.7673 11.469C59.13 9.68703 59.7283 7.9496 59.8683 7.71412C60.2692 7.04588 61.0138 7.09679 61.6821 7.1668V7.16043ZM93.8214 17.0122C95.3106 15.9049 95.7688 17.655 97.5126 18.2914C99.2564 18.9279 99.1927 19.0997 100.937 19.7425C102.68 20.3853 102.566 20.6844 104.31 21.3208C106.053 21.9572 106.187 21.5945 107.924 22.2309C109.662 22.8673 109.713 22.7464 111.457 23.3828C113.2 24.0192 113.048 24.4329 114.791 25.0757C116.535 25.7185 117.051 24.7957 118.514 25.9349C118.387 27.2777 118.094 28.9451 118.018 30.4216C117.942 31.8981 118.082 33.2983 118.4 34.6666C118.718 36.0349 118.966 37.5814 120.048 38.6506C121.582 40.178 122.976 39.8852 123.886 39.1088C124.86 38.2814 125.693 36.8877 126.597 36.1685C127.654 35.3284 128.704 34.7938 129.868 34.8129C131.122 34.8384 132.318 35.2775 133.241 36.1112C134.113 36.894 134.966 37.9569 135.151 39.2933C135.348 40.7444 134.871 42.1381 134.546 43.4237C134.19 44.8238 133.941 46.3194 133.05 47.3377C132.159 48.356 130.708 48.8206 129.34 49.2724C128.118 49.6734 126.788 49.9088 125.273 49.6861C123.759 49.4634 121.888 47.675 120.85 49.3679C120.207 50.418 120.736 51.0926 121.48 51.8499C122.225 52.6073 123.269 53.2882 123.593 54.0774C123.689 55.3757 123.358 56.674 123.358 57.8768C123.358 59.1879 123.485 60.4416 123.281 61.619C123.065 62.8855 122.817 64.1583 122.244 65.253C121.671 66.3476 120.831 67.2831 119.819 68.1614C118.966 68.906 117.859 69.5106 116.605 70.1089C115.759 70.5098 114.543 70.9489 113.169 71.229C112.036 71.4581 110.776 71.1908 109.56 71.2162C108.344 71.2417 107.033 71.5726 105.964 71.2735C104.679 70.9108 103.559 70.2425 103.024 69.2115C102.279 67.7796 103.438 67.6523 104.392 67.1304C105.188 66.6976 105.678 65.8894 105.633 64.5084C105.57 62.6245 104.596 63.5792 103.482 63.5855C102.165 63.5919 101.007 63.0955 99.8864 62.93C98.6582 62.7518 97.4617 62.7455 96.3479 62.2172C95.336 61.7399 94.515 60.868 93.4968 59.9898C92.5994 59.2133 91.4602 58.5133 90.7347 57.3932C90.0728 56.3685 89.6592 55.1211 89.1755 53.9183C88.6918 52.7155 88.0363 51.5954 87.7562 50.3734C87.4762 49.1515 87.5208 47.7768 87.4635 46.5613C87.3999 45.2248 87.2535 43.8756 87.5017 42.7237C88.1254 39.8661 89.3791 41.6545 91.6193 41.5654C92.7903 41.5208 93.7068 40.8208 94.1396 40.1589C94.6551 39.3697 94.4896 38.3896 93.1149 37.8932C92.1603 37.5496 90.652 37.0659 89.0418 36.7095C87.6226 36.3976 85.9234 36.5822 84.8096 35.933C83.5177 35.1821 83.0913 33.8201 83.314 32.1845C83.5177 30.7208 84.3068 30.2498 85.6306 30.1162C86.7125 30.008 87.9917 30.1162 89.2327 30.3262C90.6329 30.5744 91.9757 31.0962 92.8476 31.0644C94.8205 30.988 96.1379 29.3715 96.4116 27.3923C96.628 25.8076 96.577 24.7002 95.9024 23.8474C95.2278 22.9946 94.2096 22.3709 92.7903 21.9381C91.4348 19.6088 91.823 18.4824 93.815 17.0059L93.8214 17.0122ZM31.0575 28.646C32.2412 28.7797 33.4568 29.1488 34.5705 29.6197C35.6843 30.0907 36.6389 30.8671 37.5999 31.599C38.5609 32.3309 39.1655 33.3746 39.9165 34.3038C40.6674 35.233 41.6221 36.0412 42.1057 37.1295C42.5894 38.2178 43.0667 39.3952 43.2131 40.5853C43.3277 41.5335 42.9013 43.01 42.7676 44.4611C42.634 45.9121 42.8122 47.5032 42.3603 48.3623C41.7748 49.4761 39.3182 50.9526 38.2999 52.06C37.9372 52.4482 36.1488 54.8538 35.9197 54.8475C35.1751 53.7528 34.7296 52.3782 33.8832 51.3408C33.0368 50.3034 32.0057 49.3933 31.032 48.4833C30.0583 47.5732 29.04 46.6313 27.9136 45.9121C26.7871 45.193 25.4824 44.7793 24.2032 44.3274C23.1595 43.9583 22.1158 43.7483 21.072 43.5574C20.0283 43.3664 18.9018 43.4301 17.8263 43.2137C16.9926 42.7746 17.1708 41.1899 17.3744 39.7452C17.5654 38.3896 17.5462 36.8622 17.8199 36.1876C18.3354 34.9275 19.4555 34.0174 20.3338 33.0373C21.212 32.0572 22.1858 31.1408 23.3504 30.4853C24.5151 29.8298 25.7306 29.2379 27.0417 28.9706C28.3527 28.7033 29.721 28.4869 31.0638 28.6397L31.0575 28.646ZM67.6135 30.3834C67.7408 30.4598 68.4472 32.7891 68.3963 32.9928C67.3399 34.1638 65.8379 32.2163 65.1124 31.4208C65.036 30.4853 67.1044 30.0843 67.6072 30.3898L67.6135 30.3834ZM74.6778 41.4508C74.2769 41.7945 71.4639 40.1971 70.9993 39.8216C69.9874 39.007 66.8753 35.9267 70.1019 36.2194C71.3111 36.3276 72.1066 37.2695 72.8704 38.2623C73.6341 39.2552 74.5951 40.3371 74.6842 41.4508H74.6778ZM62.3249 52.0727C61.3066 51.1117 59.9701 50.4116 58.9518 49.7307C57.8317 48.9733 56.7944 48.2351 55.5915 47.7896C54.3887 47.3441 53.1795 46.7395 51.8303 46.5931C50.6147 46.4594 49.2973 46.8286 47.8972 46.9113C46.2489 47.0131 45.2179 48.1396 45.3388 45.7148C45.3642 45.2184 46.007 43.6592 46.2743 42.0745C46.5543 40.388 46.478 38.5233 46.7262 38.2687C47.2926 37.6577 48.5782 38.1096 49.3037 38.2114C50.5638 38.3896 51.8875 38.536 53.1858 38.8288C54.4841 39.1215 55.6233 39.8789 56.8835 40.2034C58.1436 40.528 59.3719 40.6489 60.6129 40.948C61.3384 42.6727 60.7211 42.7746 60.9438 44.6266C61.1666 46.4785 61.1284 46.5104 61.6121 48.3178C62.0957 50.1252 62.7067 50.2334 62.3312 52.0663L62.3249 52.0727ZM66.1816 38.2496C67.448 38.5933 67.569 40.1589 67.1235 41.4635C66.7098 42.6727 65.717 43.8565 65.1824 44.3784C64.3741 43.8438 64.355 42.38 64.4632 41.0308C64.5842 39.5288 65.0042 37.9314 66.1752 38.256L66.1816 38.2496ZM69.1791 41.4572C70.7574 41.7308 72.0557 42.6155 72.6094 43.6083C73.2204 44.7093 73.0931 46.1794 72.6603 47.4777C72.2658 48.6551 71.4766 49.4506 70.382 50.2398C69.1218 49.4061 67.0344 48.3687 66.9771 46.6949C66.9389 45.5685 68.8291 42.66 69.1791 41.4572ZM36.8171 66.0358C35.5633 65.8576 34.1314 65.7112 32.8776 65.5457C31.6239 65.3802 30.3956 65.0429 29.1355 64.8902C27.8754 64.7375 26.6662 64.2602 25.4124 64.101C24.1587 63.9419 22.854 64.1711 21.6003 64.0119C20.3465 63.8528 19.0737 63.8083 17.8199 63.6301C16.5662 63.4519 15.3824 62.8218 14.135 62.6245C12.8876 62.4273 11.653 62.79 10.7302 62.6182C9.41916 62.37 8.49634 61.7526 8.02539 60.6771C7.70718 59.9452 7.48443 58.8633 7.59898 57.3359C7.70717 55.8912 8.61089 54.6947 8.99275 53.3964C9.3746 52.0981 9.55917 50.6789 9.3746 49.1961C9.29823 48.5724 8.90365 47.255 8.67454 46.0458C8.4327 44.7666 8.23542 43.6592 9.38097 43.4364C11.4493 43.0291 12.3912 44.722 13.9568 45.4794C15.9743 46.4531 17.2599 45.6957 19.2646 45.893C20.4802 46.014 21.5621 46.6504 22.6694 47.0004C23.7768 47.3504 25.1006 47.4141 26.1252 47.9996C27.1499 48.5851 27.869 49.6606 28.7664 50.4371C29.6637 51.2135 30.5547 51.9772 31.3057 52.9C32.0567 53.8228 32.8331 54.7202 33.4377 55.7512C34.0423 56.7822 34.6087 57.8323 35.0542 58.9333C35.4997 60.0343 35.9897 61.1544 36.2825 62.3C36.5752 63.4455 36.6962 64.8647 36.8171 66.0421V66.0358ZM77.3762 49.4061C76.2625 49.4634 75.1487 48.3178 74.856 47.0831C74.5441 45.753 74.8942 44.2192 75.5497 43.8692C76.0079 43.6274 75.6579 44.4674 75.7342 44.7157C76.1925 46.2558 76.9625 47.8596 77.3699 49.4061H77.3762ZM64.6223 51.169C63.655 49.7116 63.8268 49.2661 64.1323 47.5477C65.1124 48.2605 65.9334 50.4371 64.6223 51.169ZM52.053 49.3933C53.3831 49.5461 54.6751 49.947 55.8143 50.4625C56.9535 50.978 58.0099 51.8754 58.9709 52.7218C59.9319 53.5683 60.5047 54.7329 61.2111 55.8148C61.9175 56.8968 62.8149 57.8514 63.254 59.067C63.6932 60.2825 64.1132 61.5363 64.2596 62.8218C64.4059 64.1074 63.9732 65.393 63.8141 66.6658C63.5531 68.8169 63.3622 69.6825 61.2238 69.5552C60.1483 69.4915 59.0091 69.1988 57.819 69.0715C56.7116 68.9506 55.5533 68.9188 54.395 68.766C53.2368 68.6133 52.193 68.0023 51.0602 67.8305C49.9274 67.6586 48.75 67.6141 47.649 67.4423C46.4652 67.2513 45.3451 66.9649 44.2759 66.7931C43.0222 66.5958 40.5974 66.7358 39.9355 65.6794C39.6364 65.2021 39.2037 64.0183 38.86 62.79C38.5163 61.5617 38.0072 60.3716 37.9499 59.7925C37.8163 58.3478 38.4018 57.1068 38.8473 55.9676C39.3373 54.7266 39.7574 53.3773 40.7438 52.4991C41.7303 51.6208 43.1049 51.3408 44.3523 50.8317C45.5997 50.3225 46.7898 49.9025 48.1008 49.7243C49.4119 49.5461 50.7865 49.247 52.053 49.387V49.3933ZM77.7581 56.5531C77.4717 56.8777 75.9761 57.9278 75.5879 57.8705C75.1997 57.8132 73.0931 56.1267 72.8513 55.7194C72.3039 54.8029 72.4758 53.8483 72.6731 52.9128C72.8704 51.9772 73.074 50.978 73.9205 50.348C74.3914 50.1189 77.2744 52.3845 77.5544 52.8173C78.1017 53.6765 78.49 55.713 77.7581 56.5531ZM68.3709 59.8498C67.0726 59.8052 65.997 59.0097 65.6279 58.0614C65.2779 57.1768 65.4497 55.9739 65.6724 54.892C65.8952 53.8101 66.608 52.9446 67.1744 52.2318C68.0272 51.1626 68.9755 52.2509 69.5673 53.0973C70.5347 54.472 70.592 55.6112 70.1592 56.5913C69.7264 57.5714 68.8673 58.6278 68.3709 59.8498ZM72.8322 58.2651C73.2077 58.3478 75.0787 59.8434 75.346 60.1743C76.0588 61.0653 76.0843 62.1154 75.8679 62.9809C75.6515 63.8465 74.8496 64.3874 74.0223 65.0048C72.9467 65.813 71.6039 64.4702 70.9293 63.5601C70.2101 62.58 69.9174 61.5426 70.1528 60.6898C70.3883 59.837 71.362 59.3024 72.2276 58.6405C72.4567 58.6151 72.6031 58.2205 72.8322 58.2714V58.2651ZM77.6753 59.8688C78.3054 59.7288 78.6109 60.1107 78.7445 60.5625C79.0882 61.7017 78.9355 62.9618 78.8845 64.1392C77.268 63.3692 77.8472 61.3262 77.669 59.8688H77.6753ZM127.189 62.7709C128.449 62.5036 129.868 62.2427 131.186 62.0263C132.503 61.8099 133.801 61.8227 135.112 61.6826C136.423 61.5426 137.741 61.7654 139.052 61.7017C140.363 61.6381 141.668 61.2371 142.972 61.2753C144.277 61.3135 145.626 61.2753 146.918 61.4217C148.21 61.5681 149.451 62.2172 150.724 62.5036C151.201 62.6118 152.308 62.3127 152.671 62.4845C153.397 62.8218 153.766 65.4503 153.957 66.3031C154.237 67.5632 154.555 68.8615 154.701 70.1916C154.848 71.5217 154.472 72.8391 154.504 74.1501C154.536 75.4612 154.644 76.7913 154.568 78.0769C154.53 78.6878 154.288 80.1516 154.052 81.5963C153.804 83.1428 153.67 84.6511 153.206 84.9629C152.989 85.1093 152.741 85.1666 152.499 85.2493C151.717 85.5103 150.425 85.9621 148.961 86.1912C147.777 86.3758 146.434 86.1721 145.282 86.4012C143.704 86.7067 142.609 87.4704 142.088 87.9541C141.795 88.2278 141.273 88.3678 141.222 88.7624C141.534 89.8761 141.979 90.9708 142.323 92.0718C142.667 93.1728 143.144 94.2356 143.494 95.3366C143.844 96.4376 144.251 97.5259 144.601 98.6269C144.951 99.7279 145.41 100.803 145.734 101.911C146.059 103.018 145.982 104.247 146.269 105.36C146.555 106.474 147.013 107.562 147.243 108.695C147.472 109.828 147.809 110.98 147.962 112.125C147.809 112.584 146.046 113.169 145.499 113.386C144.379 113.825 143.119 114.156 141.801 114.55C140.624 114.907 139.383 115.301 138.078 115.619C136.863 115.918 135.513 115.791 134.215 116.052C132.917 116.313 131.784 116.975 130.492 117.191C129.2 117.408 127.953 117.637 126.667 117.815C125.381 117.993 124.058 117.72 122.772 117.853C121.487 117.987 120.233 118.604 118.96 118.693C117.687 118.782 116.351 118.852 115.084 118.897C113.818 118.941 112.462 118.509 111.208 118.496C109.866 118.483 108.561 118.751 107.333 118.661C105.964 118.566 104.711 118.152 103.527 117.955C101.878 117.688 100.975 118 100.147 116.498C99.5491 115.403 99.18 114.187 98.69 113.055C98.1999 111.922 97.4744 110.846 97.0735 109.675C96.6725 108.504 96.5389 107.231 96.2079 106.035C95.877 104.838 95.3488 103.68 95.0687 102.471C94.7887 101.262 94.9924 99.9443 94.7442 98.7287C94.496 97.5132 94.095 96.3231 93.8595 95.1075C93.6241 93.8919 93.4395 92.6573 93.1913 91.4481C92.9431 90.2389 92.9176 88.9597 92.6249 87.7568C92.1094 85.5994 90.9065 84.6638 90.1492 84.4474C89.3473 84.2247 88.4881 84.9438 88.2718 87.6996C88.3099 89.5197 88.5454 89.5197 88.7172 91.3272C88.8891 93.1346 88.9655 93.1346 89.1373 94.942C89.3091 96.7495 89.1373 96.7622 89.2455 98.576C89.1691 99.7534 88.2081 100.886 87.5271 101.815C87.0435 101.917 85.0196 99.0088 84.6505 98.4805C84.1541 97.7677 83.2058 96.1449 82.2321 94.5602C81.2584 92.9755 79.871 91.3653 79.6801 90.6335C79.5273 90.0352 79.8965 89.6152 79.9983 89.0106C80.081 88.476 81.1247 84.772 81.3157 84.422C81.7803 83.5564 84.3259 82.9709 85.2615 81.9654C86.197 80.9598 86.5343 79.2606 86.6171 77.7268C86.6998 76.193 86.2988 74.6147 85.3315 73.6092C84.6251 72.8709 83.314 72.8073 83.6641 71.7636C83.9186 70.9871 84.956 70.1852 86.057 69.2242C86.9225 68.4733 87.6353 67.3277 88.6154 66.7167C89.8501 65.953 91.1675 65.5584 91.9566 65.4121C93.7577 65.0684 94.566 65.533 95.1196 66.2967C95.6733 67.0604 95.8452 68.2823 96.5707 69.4788C97.2071 70.5225 98.0345 71.4135 98.8682 72.2091C99.7019 73.0046 100.892 73.4183 101.917 73.9847C102.941 74.5511 103.991 74.9584 105.131 75.283C106.27 75.6075 107.333 76.3076 108.516 76.3903C109.7 76.4731 110.852 75.8876 112.029 75.7476C113.207 75.6075 114.397 75.6839 115.523 75.3339C116.65 74.9838 117.891 74.812 118.935 74.252C119.978 73.6919 120.608 72.5145 121.506 71.7572C122.467 70.9489 123.599 70.408 124.312 69.4852C125.025 68.5624 125.375 67.3404 125.891 66.2394C126.406 65.1384 126.852 63.9801 127.176 62.7709H127.189ZM66.5889 62.5227C67.429 62.5164 68.6763 63.3692 68.6445 64.2729C67.3908 64.4893 66.7162 63.6937 66.5889 62.5227ZM157.533 63.9419C158.724 64.2983 160.111 64.7311 161.244 65.2211C162.377 65.7112 163.42 66.4367 164.496 67.0477C165.571 67.6586 166.418 68.6069 167.411 69.3388C168.404 70.0707 169.594 70.5671 170.497 71.4135C171.401 72.26 172.349 73.0937 173.139 74.0483C173.928 75.0029 174.297 76.2631 174.959 77.3132C175.621 78.3632 176.632 79.216 177.154 80.3489C177.676 81.4817 177.937 82.71 178.306 83.9065C178.675 85.1029 179.057 86.274 179.261 87.5086C179.452 88.6605 179.076 90.137 179.185 91.5308C179.293 92.9246 179.585 94.4202 179.929 95.4957C180.247 96.4885 182.144 98.4551 182.863 99.5052C183.678 100.695 184.518 101.784 184.982 103.044C185.447 104.304 185.778 105.698 185.791 107.098C185.803 108.421 185.81 109.853 185.313 111.253C184.938 112.329 183.964 113.729 182.691 113.837C182.863 113.328 182.437 112.024 182.169 110.795C181.851 109.312 181.393 108.16 180.623 109.993C180.12 111.19 179.98 112.743 179.509 114.124C179.038 115.505 178.427 116.829 177.059 117.516C176.079 117.605 176.499 115.097 176.461 114.436C176.422 113.774 176.518 111.425 175.423 111.782C175.181 111.858 173.66 115.314 173.164 116.071C172.4 117.229 171.458 118.222 170.383 118.439C169.307 118.655 167.964 118.165 167.207 116.619C167.729 116.071 168.321 114.849 168.639 113.513C168.906 112.418 169.142 111.241 169.085 110.191C169.008 108.784 168.569 107.721 167.57 107.505C165.972 107.161 165.794 110.719 165.342 111.667C164.127 110.681 163.382 109.771 163.14 108.383C162.899 106.996 163.032 105.475 163.471 104.068C163.91 102.662 164.98 101.567 165.832 100.492C166.494 99.6579 168.442 97.5195 168.734 96.8767C169.155 95.9476 169.027 94.9357 168.614 93.7519C168.264 92.74 168.104 91.5053 167.493 90.5698C166.793 89.5006 165.775 88.7433 165.177 88.1069C164.229 87.1013 163.306 86.0258 162.192 85.2175C161.078 84.4092 159.595 83.9128 158.533 83.0664C158.52 82.08 158.832 80.9917 158.997 80.0116C159.163 79.0315 159.042 78.0387 159.093 77.0586C159.15 75.9767 159.385 74.9011 159.328 73.7937C159.271 72.6864 158.927 71.6554 158.775 70.5671C158.622 69.4788 158.883 68.3205 158.647 67.2577C158.412 66.1949 157.845 64.9539 157.533 63.9228V63.9419ZM69.8474 65.9021C70.4647 65.9849 71.5975 66.8249 72.2467 67.6586C72.9276 68.5433 73.0485 69.6825 71.9857 70.1916C71.3111 70.5162 68.269 69.9816 67.9254 69.4088C67.3144 68.3842 68.8545 65.7748 69.8537 65.9085L69.8474 65.9021ZM20.8429 73.2846C20.2383 73.3037 19.3792 73.4819 18.7682 73.431C17.8326 73.3546 16.4962 73.0428 15.0387 72.8646C13.8168 72.7182 12.5631 72.2218 11.3539 72.0245C9.871 71.7826 8.46452 71.8972 7.59898 71.6172C6.17976 71.159 4.38507 69.8607 3.97139 68.3842C3.28406 65.9212 5.60699 66.2394 7.3826 66.3222C8.41997 66.3731 9.54644 66.0485 10.6284 66.2331C11.7103 66.4176 12.7095 66.8058 13.7723 66.984C14.8351 67.1622 15.9361 67.194 16.9862 67.2259C17.6226 67.4232 17.9727 69.0206 18.6027 70.3698C19.1882 71.6299 20.2638 72.8137 20.8366 73.2782L20.8429 73.2846ZM77.5162 66.1567C78.2608 66.2967 79.8264 68.0341 79.9728 68.7724C80.3228 70.5225 78.7763 71.1526 77.2871 71.0508C75.3397 70.9108 75.0596 69.8479 75.2124 68.7533C75.3906 67.4804 76.3007 65.9339 77.5162 66.1567ZM22.2176 68.1487C22.5549 67.9132 22.7522 67.945 23.1595 67.9705C24.7951 68.0787 24.776 68.3714 26.4052 68.5942C28.0345 68.8169 27.9899 69.1351 29.6192 69.3515C31.2484 69.5679 31.2993 69.1861 32.9286 69.4024C34.5578 69.6188 34.5896 69.4533 36.2125 69.7143C36.8107 69.8988 37.3326 71.5472 38.0772 72.9473C38.7582 74.2329 39.7192 75.6839 40.2092 76.2058C38.7136 76.0658 37.1162 75.7539 35.6142 75.5884C34.1123 75.423 32.5976 75.3466 31.1148 75.1175C30.0137 74.9457 28.9827 74.4174 27.9263 74.182C26.8698 73.9465 25.8834 73.7174 25.0242 72.9155C24.3687 72.3045 21.6957 68.8869 22.2176 68.1487ZM41.1193 70.5607C42.9522 70.6625 42.9458 70.8344 44.766 71.0699C46.5861 71.3053 46.5607 71.4835 48.3809 71.719C50.201 71.9545 50.1628 72.2727 51.983 72.5082C53.8032 72.7436 53.8605 72.3109 55.6743 72.5909C55.9606 72.7309 56.9344 73.9401 57.6726 75.2066C58.4681 76.5813 59.0091 77.8605 58.8818 77.9687C57.6344 77.8605 56.3552 78.2423 55.1015 78.1214C53.8477 78.0005 52.6131 77.6695 51.3784 77.485C50.1438 77.3004 48.9918 77.3004 47.8654 77.0459C46.7389 76.7913 45.8479 76.0021 44.8678 75.2511C44.6069 75.0475 43.595 74.2074 42.7294 73.2019C41.7875 72.0945 40.8456 70.8089 41.1129 70.5607H41.1193ZM60.8229 73.0364C62.5603 72.7309 62.6367 73.3164 64.3805 73.5519C66.1243 73.7874 66.1052 73.9719 67.849 74.2138C69.5928 74.4556 69.5482 74.7738 71.2984 75.0093C73.0485 75.2448 73.0995 74.8629 74.8433 75.0984C76.5871 75.3339 76.6125 75.2066 78.3563 75.4484C80.1001 75.6903 80.0683 75.8367 81.7548 76.3522C82.8303 77.2813 82.9576 78.3251 82.2639 79.2224C81.6212 80.0625 80.3101 80.6098 79.26 80.7371C78.5663 80.8198 77.2235 80.8898 75.6388 80.7626C74.5251 80.6735 73.3349 80.0943 72.1003 79.9416C70.8656 79.7888 69.6182 79.7443 68.5172 79.5597C66.9516 79.2924 65.7297 78.9106 65.0869 78.6496C64.0559 78.2232 63.0822 77.555 62.3694 76.5113C61.6566 75.4675 61.0775 74.0865 60.8102 73.0428L60.8229 73.0364ZM22.714 107.791C21.3393 107.645 19.8564 107.098 18.7491 106.334C17.6417 105.57 16.8398 104.476 15.9934 103.368C15.1979 102.325 14.7842 101.007 14.1605 99.7979C13.5368 98.5887 12.6458 97.5068 12.1749 96.2912C11.653 94.9484 11.0866 93.6819 10.7111 92.53C10.5202 91.9318 10.482 90.3662 10.0619 88.9342C9.61643 87.4132 8.73818 85.9685 8.73818 85.4784C8.73818 84.4347 9.75644 84.5174 10.6156 84.5556C11.6275 84.6002 12.9513 84.6956 14.3323 84.9311C15.5479 85.1348 16.7571 85.8094 17.9472 85.9748C19.4046 86.1721 20.792 86.1403 21.7275 85.9939C23.3377 85.733 23.7259 83.3337 22.7267 82.5764C22.3894 82.3218 20.8684 82.2581 19.22 82.0545C18.1254 81.9208 16.9035 81.8254 15.7897 81.7172C14.2878 81.5708 12.9322 81.6854 12.334 81.5963C11.4557 81.469 8.84002 80.8071 8.26724 80.4698C7.69446 80.1325 7.17895 78.9806 7.05167 78.306C6.94348 77.7205 6.81618 75.8112 7.25531 75.5121C9.0882 75.5948 9.07548 75.6394 10.8956 75.8812C12.7158 76.123 12.7285 75.9894 14.5487 76.2312C16.3689 76.4731 16.3752 76.4222 18.1954 76.664C20.0156 76.9058 20.0283 76.7849 21.8485 77.0268C23.6686 77.2686 23.6177 77.6632 25.4315 77.905C27.2453 78.1469 27.2771 77.9496 29.0973 78.1914C30.9175 78.4333 30.9366 78.2932 32.7567 78.5287C34.5769 78.7642 34.5642 78.8597 36.3843 79.1015C38.2045 79.3433 38.1918 79.4324 40.0119 79.6743C41.8321 79.9161 41.8384 79.8652 43.6522 80.107C45.466 80.3489 45.4151 80.7689 47.2353 81.0108C49.0555 81.2526 49.1127 80.8198 50.9329 81.0617C52.7531 81.3035 52.7594 81.2653 54.5796 81.5072C56.3998 81.749 56.3425 82.1754 58.1627 82.4109C59.9828 82.6464 60.0465 82.15 61.8666 82.3918C63.6868 82.6336 63.6868 82.64 65.507 82.8755C67.3271 83.111 67.2699 83.5692 69.09 83.8046C70.9102 84.0401 70.9547 83.7346 72.7749 83.9765C74.5951 84.2183 74.5632 84.3711 76.3643 84.7338C77.4399 85.2048 76.4725 88.8006 75.7406 88.9978C73.8059 88.8769 73.825 88.5587 71.903 88.3169C69.981 88.075 69.9364 88.3678 68.0081 88.126C66.0797 87.8841 66.1116 87.6359 64.1832 87.4068C63.184 87.305 62.6112 88.4951 62.6622 89.3988C62.7322 90.6335 63.7123 90.9644 64.6923 91.1553C65.6724 91.3462 66.7862 91.289 67.849 91.3717C68.9118 91.4544 69.9428 91.5817 70.9865 91.7026C72.0303 91.8236 73.004 92.2372 73.9968 92.5427C74.2832 92.6318 74.8687 92.1418 74.7987 92.6891C74.7478 93.1091 73.4368 94.5156 72.6412 96.0685C71.8966 97.5259 71.2093 99.0215 70.9165 99.5434C70.3883 100.498 69.8537 101.612 69.1664 102.713C68.5491 103.706 67.6835 104.584 66.9453 105.564C66.207 106.544 65.7997 107.798 64.9469 108.625C64.0559 109.497 62.9422 110.095 61.9303 110.674C60.8547 111.285 59.7092 111.578 58.5063 111.693C57.3035 111.807 56.1579 112.234 54.9296 112.195C53.7013 112.157 52.5622 111.68 51.3784 111.565C50.1947 111.451 49.0045 111.324 47.8654 111.19C47.6617 110.006 47.5662 108.619 47.0953 107.34C46.6243 106.06 45.7525 104.953 44.8806 104.049C44.0087 103.145 42.8504 102.515 41.3866 102.439C40.6292 102.401 40.0628 102.783 39.2928 102.617C37.829 102.305 37.0144 100.256 34.5387 100.186C33.0304 100.142 32.2221 101.624 31.3311 101.682C30.6565 101.726 28.9636 100.543 27.8626 100.479C26.6152 100.409 25.5715 100.74 24.7633 101.459C23.955 102.178 23.2358 103.145 22.8667 104.234C22.4976 105.322 22.644 106.729 22.7013 107.779L22.714 107.791ZM65.8443 113.398C66.7034 112.609 67.569 111.534 68.3327 110.681C69.0964 109.828 69.9746 109.045 70.6683 108.122C71.362 107.199 72.2912 106.429 72.9213 105.456C73.5513 104.482 73.825 103.292 74.4041 102.293C74.9833 101.294 75.4288 100.224 75.9761 99.206C76.5234 98.1878 77.0898 97.4495 77.6308 96.4249C79.0436 97.5641 78.9736 97.6277 79.9601 99.1551C80.9465 100.683 80.7874 100.784 81.7739 102.312C82.7603 103.839 82.8558 103.776 83.8423 105.303C84.0077 105.558 83.6068 105.717 83.4668 105.984C83.3459 106.2 81.0356 108.129 80.6092 108.421C79.5273 109.166 78.3754 109.713 77.2171 110.286C76.0588 110.859 74.9387 111.54 73.7041 111.934C72.4694 112.329 71.2157 112.66 69.9237 112.883C68.6318 113.105 67.1553 113.36 65.8443 113.405V113.398ZM33.3486 104.527C34.0168 103.903 35.6906 104.253 36.2889 104.889C36.7853 105.418 36.7407 106.9 36.728 108.294C36.7153 109.573 36.2952 110.916 36.3461 111.693C36.4225 112.73 37.0271 113.748 37.2371 114.805C37.4471 115.861 37.7144 117.089 37.7653 118.133C36.4989 118.019 35.6524 117.255 34.9906 116.568C34.3287 115.88 33.4886 115.161 33.1449 114.035C32.9477 113.379 32.9031 112.157 32.7631 110.859C32.6485 109.822 32.4767 108.695 32.5149 107.683C32.5658 106.347 32.8076 105.036 33.3422 104.527H33.3486ZM30.6438 116.167C29.1546 116.262 27.7672 115.397 27.0544 114.27C26.3416 113.144 26.1443 111.642 26.0361 110.433C25.9788 109.802 26.2716 108.504 26.4307 107.25C26.5898 105.997 26.6471 104.597 27.4362 104.367C28.9573 103.916 29.5937 105.017 29.6446 106.328C29.6892 107.524 29.0018 108.962 29.0273 109.701C29.0655 110.713 29.7019 111.75 29.9247 112.825C30.1474 113.901 30.3574 115.193 30.6502 116.167H30.6438ZM50.5829 115.53C51.4293 116.224 46.7198 118.216 46.3443 118.299C45.1797 118.541 43.1113 118.553 42.0867 117.853C41.4502 117.414 41.1829 115.982 40.7629 114.372C40.4511 113.175 39.8528 111.915 39.7701 110.687C39.6492 108.988 39.7001 107.378 40.1901 106.83C40.7947 106.156 41.9339 106.76 42.5576 107.282C43.6141 108.18 44.2759 109.459 44.4669 110.935C44.6769 112.539 44.5878 114.111 45.5679 114.856C46.8471 115.836 49.03 115.167 50.5829 115.537V115.53Z" fill="#212121"/>
<path d="M103.139 42.6884C102.872 42.9621 102.63 44.4577 102.248 45.1832C101.644 46.3287 100.746 47.2643 99.5373 47.5952C98.3281 47.9261 96.947 47.7543 95.8078 47.6398C94.325 47.4934 91.3211 45.5014 90.4683 46.736C89.5264 48.0916 90.6337 49.4345 92.0593 50.2618C93.3767 51.0319 95.1014 51.5665 96.0433 51.6492C97.3989 51.7701 98.6399 51.8401 99.7155 51.6174C100.931 51.3692 102.102 50.8855 103.133 50.1982C104.056 49.5872 104.807 48.4862 105.736 47.5188C107.302 48.5689 109.338 49.4026 108.695 46.5769C108.562 45.9787 105.755 43.0384 105.176 42.7902C104.629 42.5548 103.579 42.2429 103.152 42.6757L103.139 42.6884Z" fill="#212121"/>
<path d="M104.373 25.9932C103.342 25.8214 102.381 26.5151 101.789 27.7306C101.325 28.6853 100.835 29.9136 100.797 31.0209C100.752 32.332 101.236 33.6876 101.999 34.2667C103.419 35.3422 105.099 34.6804 105.926 33.3248C106.601 32.2111 106.696 30.4736 106.626 29.0862C106.55 27.5079 105.85 26.2478 104.373 25.9996V25.9932Z" fill="#212121"/>
<path d="M48.8133 94.4181C47.2541 94.3608 46.1149 95.2646 46.0576 96.1046C46.0003 96.9447 47.0695 97.8548 48.5078 98.033C50.4043 98.2621 50.3662 98.5803 52.2627 98.8158C54.1592 99.0513 54.2165 98.5803 56.1194 98.8158C58.0223 99.0513 58.0159 99.1022 59.9125 99.3376C61.809 99.5731 61.7899 99.7195 63.6992 99.8404C64.9084 99.6941 65.8439 99.0385 65.9139 98.2176C65.9839 97.3966 65.1375 96.6265 63.871 96.4037C62.7636 96.2065 61.5163 95.7928 60.1543 95.6019C58.9387 95.43 57.685 95.0736 56.4058 94.9273C55.1266 94.7809 53.8283 94.7491 52.6064 94.6409C51.2317 94.5199 49.9334 94.4627 48.8069 94.4245L48.8133 94.4181Z" fill="#212121"/>
<path d="M18.0043 94.3837C18.2653 94.6255 19.3408 94.9119 19.7672 94.9883C20.9446 95.1983 22.1729 95.0519 23.3693 95.1856C24.5658 95.3192 25.7432 95.5165 26.946 95.6247C28.1489 95.7329 29.3072 96.1593 30.4973 96.2993C31.6874 96.4393 32.8902 96.5348 34.0676 96.7702C36.2187 96.7448 37.377 94.1991 35.2513 93.4736C33.2721 93.079 33.323 92.7481 31.3182 92.4935C29.3135 92.2389 29.2817 92.4871 27.2833 92.2326C25.285 91.978 25.2977 91.8316 23.293 91.577C21.2883 91.3225 21.2819 91.3416 19.2708 91.1252C17.6734 91.0234 16.9988 93.4481 18.0107 94.3837H18.0043Z" fill="#212121"/>
<path d="M36.7162 84.368C35.8507 84.3044 34.2724 84.2089 33.9287 85.3417C33.4959 86.7609 34.0751 87.5565 35.3288 87.9129C36.4107 88.2247 37.6072 88.6193 38.8673 88.7657C40.0256 88.8993 41.2539 88.9439 42.4695 89.033C43.685 89.1221 44.8879 89.1348 46.0589 89.2493C47.3063 89.3766 48.5855 88.9629 49.6865 89.2239C50.8511 89.3066 51.373 88.9439 51.6339 88.1865C51.8949 87.4292 51.863 86.4045 50.6093 85.9654C49.451 85.9272 48.2482 86.0927 47.0835 85.9463C45.9189 85.7999 44.7924 85.5263 43.6405 85.3481C42.4886 85.1699 41.2921 85.2908 40.1465 85.1253C39.001 84.9599 37.8745 84.4507 36.7289 84.3616L36.7162 84.368Z" fill="#212121"/>
<path d="M22.0519 51.7404C22.5101 50.3657 21.7909 49.8948 20.9445 49.6593C19.8689 49.3602 18.5261 49.6847 18.978 50.7476C19.5444 52.0904 20.8363 51.7595 22.0519 51.7404Z" fill="#212121"/>
<path d="M16.1975 51.0111C14.2373 50.7119 14.6828 53.4549 16.4902 53.5631C17.0821 53.4231 17.2921 52.8376 17.2985 52.2012C17.2475 51.6666 16.7193 51.0938 16.1975 51.0111Z" fill="#212121"/>
<path d="M52.9942 53.4784C51.3586 53.2557 51.0404 54.9931 51.1168 56.3678C51.1613 57.1442 52.5996 58.5571 53.3442 58.6462C54.0889 58.7353 55.9981 58.1561 56.1636 57.2906C56.3736 56.215 56.1254 55.445 55.4635 54.7385C54.8017 54.0321 53.9679 53.6121 52.9815 53.4784H52.9942Z" fill="#212121"/>
</svg>
