<svg width="370" height="287" viewBox="0 0 370 287" fill="none" xmlns="http://www.w3.org/2000/svg">
<g clip-path="url(#clip0_4205_5270)">
<path d="M215.875 215.289L234.802 193.467" stroke="#212121" stroke-width="1.06211" stroke-miterlimit="10" stroke-linecap="round"/>
<path d="M243.316 183.65L248.197 178.023C238.456 169.795 229.126 162.298 221.042 157.022C217.949 155.003 213.836 155.379 211.219 157.986C211.163 158.041 211.107 158.098 211.052 158.155C201.707 167.847 193.19 177.465 185.842 186.979C182.87 190.798 181.949 194.41 183.931 197.731L189.224 207.858C189.551 208.484 189.738 209.174 189.771 209.88C189.813 210.785 189.601 211.685 189.157 212.475C187.271 215.83 187.707 218.457 189.514 220.656C193.059 224.739 196.916 228.429 201.055 231.759C201.231 231.901 201.489 231.877 201.637 231.706L208.065 224.295" stroke="#212121" stroke-width="1.06211" stroke-miterlimit="10" stroke-linecap="round"/>
<path d="M182.964 195.116C182.964 195.116 184.371 192.747 185.663 195.052C186.666 196.839 189.817 203.137 191.184 205.878C191.577 206.667 191.485 207.61 190.945 208.307L189.768 209.83" stroke="#212121" stroke-width="0.898713" stroke-miterlimit="10" stroke-linecap="round"/>
<path d="M215.777 185.247L232.956 165.605" stroke="#212121" stroke-width="1.06211" stroke-miterlimit="10" stroke-linecap="round"/>
<path d="M229.912 199.105L215.83 186.789" stroke="#212121" stroke-width="1.06211" stroke-miterlimit="10" stroke-linecap="round"/>
<path d="M205.031 228.557L201.679 225.623C201.209 225.211 200.495 225.26 200.084 225.73L196.368 229.978C195.971 230.432 195.999 231.118 196.433 231.536C198.131 233.171 199.772 234.04 201.744 232.385L205.032 228.556L205.031 228.557Z" fill="#212121"/>
<path d="M189.757 220.935C191.728 219.001 193.56 218.611 195.275 219.495C196.079 219.91 196.751 220.554 197.182 221.349C198.31 223.429 197.203 225.05 195.433 226.716" stroke="#212121" stroke-width="1.06211" stroke-miterlimit="10" stroke-linecap="round"/>
<path d="M192.558 219.173C190.924 221.478 195.449 225.808 197.474 223.862" stroke="#212121" stroke-width="1.06211" stroke-miterlimit="10" stroke-linecap="round"/>
<path d="M219.288 211.353C219.288 211.353 210.893 204.725 202.834 213.387L195.845 207.274C194.762 206.327 193.862 205.188 193.192 203.915L187.983 194.024C187.134 192.414 187.365 190.448 188.564 189.078L194.281 182.542" stroke="#212121" stroke-width="1.06211" stroke-miterlimit="10" stroke-linecap="round"/>
<path d="M201.874 201.144L198.501 204.999C197.783 205.821 196.522 206.438 195.333 206.251" stroke="#212121" stroke-width="1.06211" stroke-miterlimit="10" stroke-linecap="round"/>
<path d="M237.745 190.135L240.752 186.703C240.48 186.354 240.112 186.063 239.666 185.871C238.364 185.31 236.894 185.818 236.383 187.004C235.882 188.168 236.491 189.554 237.745 190.135Z" fill="#212121"/>
<path d="M232.483 196.143L234.037 194.368L236.555 191.494C234.639 190.524 233.792 188.308 234.666 186.384C235.587 184.351 238.076 183.412 240.223 184.285C240.88 184.552 241.43 184.958 241.849 185.452L244.453 182.479L245.581 181.192C240.275 177.954 234.503 177.947 230.989 181.965C226.254 187.051 227.911 192.144 232.484 196.143L232.483 196.143Z" fill="#212121"/>
<path d="M210.243 221.722C210.538 221.843 210.844 221.906 211.145 221.917L213.62 219.091C213.45 218.38 212.932 217.75 212.169 217.437C210.909 216.919 209.457 217.458 208.926 218.642C208.393 219.825 208.984 221.205 210.243 221.722Z" fill="#212121"/>
<path d="M205.598 227.663L206.904 226.172L209.345 223.385C209.169 223.34 209.135 223.127 208.964 223.059C206.844 222.22 205.962 219.805 206.907 217.766C207.85 215.727 210.335 214.754 212.455 215.593C213.404 215.969 214.247 216.453 214.663 217.268L217.262 214.345L218.482 212.952C213.762 210.205 208.438 210.507 204.98 214.461C200.34 219.479 201.595 224.162 205.598 227.663Z" fill="#212121"/>
<path d="M230.94 184.661C232.658 180.668 237.545 178.934 241.853 180.789C242.842 181.215 243.715 181.792 244.452 182.478C246.925 184.78 247.868 188.3 246.544 191.377C244.825 195.37 239.939 197.103 235.63 195.249C235.059 195.004 234.526 194.707 234.036 194.367C230.832 192.15 229.449 188.124 230.94 184.661ZM236.903 191.66C239.168 192.634 241.722 191.752 242.609 189.69C243.225 188.259 242.876 186.635 241.848 185.451C241.395 184.928 240.81 184.491 240.118 184.192C237.855 183.218 235.3 184.1 234.412 186.162C233.571 188.115 234.528 190.427 236.554 191.493C236.667 191.552 236.783 191.608 236.903 191.66Z" fill="#212121"/>
<path d="M237.745 190.135C237.768 190.146 237.792 190.157 237.817 190.167C239.119 190.728 240.589 190.221 241.1 189.034C241.436 188.253 241.274 187.373 240.752 186.703C240.48 186.354 240.112 186.063 239.666 185.871C238.364 185.31 236.894 185.818 236.383 187.004C235.882 188.168 236.491 189.554 237.745 190.135Z" fill="#212121"/>
<path d="M203.66 216.477C205.449 212.494 210.278 210.654 214.446 212.367C215.697 212.882 216.746 213.657 217.554 214.6C219.436 216.796 220.004 219.894 218.753 222.681C216.964 226.664 212.135 228.504 207.967 226.79C207.7 226.681 207.443 226.56 207.195 226.427C203.567 224.49 201.986 220.205 203.66 216.477ZM214.947 221.123C215.457 219.988 215.373 218.748 214.826 217.715C214.383 216.875 213.636 216.172 212.656 215.769C210.467 214.869 207.942 215.807 207.019 217.864C206.095 219.921 207.12 222.318 209.309 223.218C209.487 223.291 209.665 223.351 209.846 223.4C211.896 223.96 214.097 223.014 214.947 221.123Z" fill="#212121"/>
<path d="M210.243 221.722C210.538 221.843 210.844 221.906 211.145 221.917C212.133 221.952 213.08 221.423 213.487 220.517C213.697 220.05 213.732 219.553 213.62 219.091C213.45 218.38 212.932 217.75 212.169 217.437C210.909 216.919 209.457 217.458 208.926 218.642C208.393 219.825 208.984 221.205 210.243 221.722Z" fill="#212121"/>
<path d="M246.826 180.422L242.743 176.851L245.12 174.133C245.645 173.533 246.557 173.472 247.157 173.997L248.806 175.439C249.517 176.061 249.598 177.138 248.988 177.861L246.825 180.422L246.826 180.422Z" fill="#212121"/>
<path d="M220.461 162.527C220.461 162.527 214.286 172.434 210.692 175.956L219.629 180.843L229.087 170.029C229.087 170.029 225.17 165.181 220.46 162.527L220.461 162.527Z" stroke="#212121" stroke-width="1.06211" stroke-miterlimit="10" stroke-linecap="round"/>
<path d="M215.097 182.812C215.097 182.812 218.927 193.926 207.788 197.367C207.788 197.367 207.852 199.143 205.696 199.374C205.696 199.374 206.088 200.932 205.416 201.246C205.416 201.246 203.425 202.382 203.689 198.46" stroke="#212121" stroke-width="1.06211" stroke-miterlimit="10" stroke-linecap="round"/>
<path d="M202.321 197.89C202.321 197.89 200.093 202.932 204.574 201.366" stroke="#212121" stroke-width="1.06211" stroke-miterlimit="10" stroke-linecap="round"/>
<path d="M201.912 201.311C200.237 201.686 199.966 200.593 199.95 199.663C199.933 198.74 200.314 197.857 200.95 197.188C201.736 196.362 202.607 195.818 203.281 195.48C204.153 195.042 204.951 194.469 205.629 193.767L208.765 190.522L208.183 184.154C208.157 183.866 208.117 183.58 208.057 183.297C207.94 182.744 207.83 181.284 209.156 179.167L206.546 187.347" stroke="#212121" stroke-width="1.06211" stroke-miterlimit="10" stroke-linecap="round"/>
<path d="M215.659 188.466C215.659 188.466 212.45 186.49 208.617 188.103" stroke="#212121" stroke-width="1.06211" stroke-miterlimit="10" stroke-linecap="round"/>
<path d="M215.097 190.976C215.097 190.976 210.46 189.178 208.413 190.886" stroke="#212121" stroke-width="1.06211" stroke-miterlimit="10" stroke-linecap="round"/>
<path d="M198.023 204.923L197.46 200.785L194.627 200.507L194.904 199.267L199.446 199.392L201.092 201.235L198.023 204.923Z" fill="#212121"/>
<path d="M200.419 197.813L199.038 197.464C198.479 198.975 197.236 199.678 195.47 199.765C191.848 199.522 194.754 196.976 196.328 197.121" stroke="#212121" stroke-width="1.06211" stroke-miterlimit="10" stroke-linecap="round"/>
<path d="M195.47 199.765C195.47 199.765 192.224 200.983 192.607 197.573C192.607 197.573 192.397 195.914 196.26 194.908C196.618 194.814 196.971 194.699 197.314 194.557L201.528 192.807C202.529 192.391 203.335 191.612 203.785 190.626L205.719 186.383L208.704 189.853" stroke="#212121" stroke-width="1.06211" stroke-miterlimit="10" stroke-linecap="round"/>
<path d="M196.219 184.65C196.219 184.65 194.042 183.823 193.246 183.001" stroke="#212121" stroke-width="1.06211" stroke-miterlimit="10" stroke-linecap="round"/>
<path d="M208.795 179.792L206.58 178.699" stroke="#212121" stroke-width="1.06211" stroke-miterlimit="10" stroke-linecap="round"/>
<path d="M204.46 180.304C205.402 179.933 206.358 179.226 206.68 178.225C207.079 176.99 206.193 175.658 205.263 174.905C204.948 174.65 204.585 174.443 204.186 174.37C203.332 174.214 202.536 174.845 201.975 175.416" stroke="#212121" stroke-width="1.06211" stroke-miterlimit="10" stroke-linecap="round"/>
<path d="M203.768 176.827L204.07 178.631" stroke="#212121" stroke-width="1.06211" stroke-miterlimit="10" stroke-linecap="round"/>
<path d="M205.313 182.641C205.796 184.406 202.001 189.531 197.783 186.207" stroke="#212121" stroke-width="1.06211" stroke-miterlimit="10" stroke-linecap="round"/>
<path d="M201.086 183.355C201.086 183.355 200.399 182.858 199.825 182.918" stroke="#212121" stroke-width="1.06211" stroke-miterlimit="10" stroke-linecap="round"/>
<path d="M200.456 183.136C200.456 183.136 201.04 185.832 199.244 187.047" stroke="#212121" stroke-width="1.06211" stroke-miterlimit="10" stroke-linecap="round"/>
<path d="M198.332 184.892C198.332 184.892 195.85 188.119 194.288 186.83C194.288 186.83 192.767 185.735 194.681 183.337L193.232 179.981" stroke="#212121" stroke-width="1.06211" stroke-miterlimit="10" stroke-linecap="round"/>
<path d="M188.82 179.28C187.618 177.279 190.606 173.632 195.171 171.314C199.665 169.032 204.152 168.811 205.299 170.791C205.328 170.841 205.358 170.891 205.392 170.94C205.626 171.274 206.555 173.166 200.583 176.237C199.534 176.776 198.515 177.371 197.531 178.02C195.188 179.565 190.524 182.116 188.821 179.28L188.82 179.28Z" fill="#212121"/>
<path d="M196.819 170.568L196.628 170.113C196.586 170.012 196.467 169.967 196.368 170.015L195.683 170.344C195.604 170.382 195.561 170.469 195.578 170.554L195.679 171.065L196.819 170.568Z" fill="#212121"/>
<path d="M207.034 185.82C207.034 185.82 205.43 185.945 204.517 185.082" stroke="#212121" stroke-width="1.06211" stroke-miterlimit="10" stroke-linecap="round"/>
<path d="M197.592 179.923C197.592 179.923 196.278 179.409 194.908 180.611" stroke="#212121" stroke-width="1.06211" stroke-miterlimit="10" stroke-linecap="round"/>
<path d="M197.958 182.513C197.749 182.752 197.285 182.69 196.923 182.373C196.561 182.057 196.438 181.606 196.647 181.366C196.857 181.126 197.321 181.188 197.683 181.505C198.045 181.822 198.168 182.273 197.958 182.513Z" fill="#212121"/>
<path d="M204.765 173.212C204.765 173.212 208.532 175.693 207.034 178.887L205.969 175.191L204.274 174.171L202.952 175.092C202.952 175.092 201.143 176.582 202.208 177.888C202.208 177.888 200.918 179.554 199.276 176.807L204.765 173.212Z" fill="#212121"/>
<path d="M218.142 182.148L219.629 180.843L209.85 176.03L208.537 179.037L209.367 180.033C209.367 180.033 211.375 177.814 218.143 182.148L218.142 182.148Z" fill="#212121"/>
</g>
<path d="M1 283.5C346.5 306 254.5 5.5 369.5 2" stroke="#FA5F2B" stroke-width="3" stroke-dasharray="20 20"/>
<defs>
<clipPath id="clip0_4205_5270">
<rect width="76.7215" height="53.56" fill="white" transform="matrix(-0.658341 0.75272 0.75272 0.658341 215.375 146.2)"/>
</clipPath>
</defs>
</svg>
