<svg width="217" height="92" viewBox="0 0 217 92" fill="none" xmlns="http://www.w3.org/2000/svg">
<g clip-path="url(#clip0_4218_5152)">
<path d="M46.5224 91.893L46.2427 91.8613C46.3372 91.9069 46.4318 91.9544 46.5283 92L46.5224 91.893Z" fill="#FA5F2B"/>
<path d="M20.058 56.1226H13.0608V56.8752C15.4241 57.0435 15.9893 57.4733 16.1075 58.8894C16.1823 59.7965 16.2552 60.9333 16.2552 63.0644V66.7125C16.2552 71.8283 14.8175 74.0306 11.2864 74.0306C8.07637 74.0306 6.3197 71.9966 6.3197 68.3564V60.355C6.3197 57.4396 6.48709 57.2 8.73611 56.8752V56.1226H0V56.8752C2.22932 57.1663 2.44595 57.4396 2.44595 60.355V67.986C2.44595 71.1648 3.14114 72.9928 4.77375 74.3C6.1779 75.4626 8.07834 75.8785 10.0123 75.8785C12.2573 75.8785 14.1735 75.2388 15.4832 73.8445C17.1335 72.062 17.4663 69.6101 17.4663 66.7403V63.0624C17.4663 60.9175 17.5254 59.8579 17.5983 58.9666C17.7007 57.814 17.9232 57.101 20.06 56.8732V56.1206L20.058 56.1226Z" fill="#FA5F2B"/>
<path d="M21.1392 69.6772H28.0733L28.2604 67.7739H21.3263L21.1392 69.6772Z" fill="#FA5F2B"/>
<path d="M44.0232 60.7767C43.8755 59.0774 43.8066 56.7265 43.7928 55.4292H43.1981C42.6466 55.9937 42.2173 56.1224 41.4355 56.1224H29.6035C28.7508 56.1224 28.3294 56.0966 27.8547 55.4292H27.2304C27.1714 56.9047 26.9981 59.0397 26.8228 60.8955H27.6007C27.969 59.723 28.414 58.6377 28.8768 58.0732C29.3554 57.5088 29.763 57.2077 31.2046 57.2077H33.4989V71.632C33.4989 74.1928 33.1996 74.3216 30.8856 74.6781V75.4307H40.1022V74.6781C37.6543 74.3711 37.3589 74.1592 37.3589 71.632V57.2077H39.5449C41.1558 57.2077 41.4591 57.3959 41.9731 57.9861C42.5147 58.6337 42.9184 59.5963 43.2591 60.848L44.0213 60.7747L44.0232 60.7767Z" fill="#FA5F2B"/>
<path d="M98.7283 59.9947C99.8902 59.9947 100.737 59.1272 100.737 58.0181C100.737 56.909 99.8902 56.0415 98.7578 56.0415C97.6885 56.0415 96.7983 56.8674 96.7983 58.0181C96.7983 59.1688 97.6885 59.9947 98.7283 59.9947Z" fill="#FA5F2B"/>
<path d="M114.82 72.3967C114.82 72.3769 114.82 72.3551 114.82 72.3353C114.846 71.0381 114.873 69.7428 114.899 68.4455C114.922 67.3047 114.942 66.1441 114.631 65.0469C114.32 63.9497 113.619 62.906 112.573 62.4683C111.634 62.0741 110.541 62.2167 109.607 62.6227C108.674 63.0307 107.868 63.6784 107.074 64.3201C107.082 63.6011 107.092 62.8842 107.1 62.1652C105.414 62.5455 103.729 62.9258 102.043 63.3041C102.047 63.5279 102.049 63.7517 102.053 63.9755C102.551 63.8725 103.047 64.2428 103.266 64.7043C103.484 65.1658 103.488 65.6946 103.49 66.2055C103.492 68.2079 103.496 70.2102 103.498 72.2125C103.498 72.7433 103.498 73.2899 103.295 73.7811C103.094 74.2723 102.643 74.6981 102.116 74.7001C101.584 74.7021 101.127 74.2743 100.926 73.7791C100.723 73.286 100.723 72.7354 100.725 72.2006C100.739 68.8753 100.751 65.548 100.765 62.2227C99.0985 62.5772 97.4344 62.9317 95.7683 63.2862C95.7723 63.5199 95.7782 63.7556 95.7821 63.9893C96.2508 63.8566 96.7471 64.1973 96.9637 64.635C97.1804 65.0727 97.1843 65.5836 97.1823 66.0728C97.1804 68.2772 97.1764 70.4835 97.1745 72.6878C97.1745 73.1473 97.1666 73.6286 96.9401 74.0267C96.4852 74.8229 95.1263 74.8229 94.6812 74.0207C94.4705 73.6405 94.4626 73.185 94.4607 72.7492C94.4351 66.6413 94.4469 60.5333 94.5001 54.4253C92.7906 54.9363 91.032 55.2749 89.2556 55.4314C89.2556 55.6532 89.2556 55.8751 89.2556 56.0949C89.7834 56.1761 90.3723 56.2969 90.6657 56.7445C90.8705 57.0555 90.8784 57.4516 90.8784 57.8239C90.8961 62.9178 90.8941 68.0118 90.8784 73.1038C90.8764 73.7593 90.6913 74.3852 89.9488 74.4921C88.4403 74.71 88.2946 72.9829 88.2946 71.9253V62.3732C86.9987 62.6109 84.6178 62.8188 82.9221 62.8782V63.5477L83.7099 63.7259C84.5036 63.9081 84.7182 64.1458 84.7182 65.5619V72.8859C84.0841 73.5038 83.4184 73.6979 82.6405 73.6979C81.5909 73.6979 80.616 73.078 80.616 71.0975V66.8096C80.616 64.9519 80.6456 63.5061 80.7046 62.3732C79.2138 62.6109 76.9628 62.8188 75.539 62.8782C74.5701 63.2011 73.7213 63.0466 72.776 62.9812C71.7322 62.4623 70.7928 62.2247 69.6683 62.2247C67.1081 62.2247 64.1501 63.8546 64.1501 67.0473C64.1501 68.9367 65.2648 70.3983 67.0175 71.0856C66.3736 71.7946 65.0679 72.6304 64.0674 73.1454C64.0477 73.28 64.0556 73.4464 64.0832 73.6246C63.9571 73.6504 63.8331 73.6643 63.7169 73.6643C63.2108 73.6643 62.7558 73.2741 62.7558 71.9649V66.8413C62.7558 65.2113 62.4348 63.9953 61.1961 63.0723C60.4536 62.5613 59.6147 62.2266 58.3838 62.2266C57.025 62.5 55.2171 63.3615 53.8051 64.2864C53.5097 64.4845 53.2891 64.6726 53.1355 64.8568C53.2773 64.5458 53.3659 64.2072 53.3659 63.8606C53.3659 62.8862 52.6037 62.2266 51.5777 62.2266C50.2346 62.2266 49.0904 63.6566 48.09 65.3262C48.09 64.3102 48.1234 62.8664 48.1392 62.1672C46.4889 62.7653 44.7854 63.1218 43.1173 63.312V63.9358C44.3423 64.2666 44.5254 64.431 44.5254 65.95V72.3571C44.5254 74.3535 44.4112 74.4862 42.877 74.7139V75.4269H50.1499V74.7139C48.3125 74.4268 48.088 74.3535 48.088 72.3571V66.5799C48.604 65.5005 49.244 65.1974 49.6871 65.1974C50.2051 65.1974 50.5398 65.6233 51.0598 66.0887C51.2665 66.2828 51.4792 66.3818 51.8771 66.2214C52.2 66.0946 52.5998 65.7421 52.907 65.2747C52.8854 65.3499 52.8716 65.4252 52.8716 65.5025C52.8716 66.2016 53.6337 66.9482 54.5002 66.9482C54.9926 66.9482 55.3175 66.7403 55.4908 66.053C55.7429 65.0291 55.9103 64.4686 56.1841 64.0923C56.4657 63.7021 56.8635 63.4645 57.3814 63.4645C58.4213 63.4645 59.2957 64.326 59.2957 66.0352V67.5899C58.6005 68.1504 56.3652 68.7644 54.7031 69.3863C53.2694 69.927 52.5919 70.64 52.5919 72.1155C52.5919 73.9079 54.0355 75.7834 56.3298 75.7834C56.8753 75.7834 58.3543 74.704 59.3784 73.9613C59.5103 74.3871 59.7329 74.8367 60.0972 75.1754C60.4812 75.5477 61.0661 75.7834 61.8302 75.7834L64.3254 74.4248C64.3766 74.5337 64.4298 74.6387 64.4928 74.7298C64.8906 75.3695 65.5602 75.9815 66.7911 76.4271C65.8615 76.9916 65.0935 77.4808 64.4613 77.962C63.8567 78.4235 63.5908 78.8671 63.5908 79.5306C63.5908 81.1646 65.2687 83.1312 68.9574 83.1312C72.8705 83.1312 76.6989 80.3921 76.6989 77.1005C76.6989 74.403 74.381 73.4959 72.3506 73.4959H69.111C67.8742 73.4959 67.3622 72.8225 67.3622 72.3313C67.3622 72.0877 67.4961 71.6996 67.7994 71.3332C68.3094 71.456 68.8609 71.5213 69.4438 71.5213C72.1576 71.5213 74.8438 69.9408 74.8438 66.9027C74.8438 65.8075 74.5445 64.9519 74.0364 64.3339C74.4834 64.3636 75.409 64.433 75.862 64.433C76.0392 64.3003 76.2696 64.0844 76.4823 63.8329C76.9491 64.0329 77.0574 64.3735 77.0574 65.5183V71.7174C77.0574 74.197 78.3808 75.7834 80.7637 75.7834C82.2565 75.7834 83.4814 74.8229 84.7261 73.7474C84.7261 74.4169 84.7103 75.1477 84.6926 75.8171C86.272 75.419 87.0421 75.421 89.2025 75.4269C89.2025 75.4269 98.3502 75.4269 99.1694 75.4269C102.279 75.4269 105.389 75.4269 108.498 75.4269L108.483 74.6723C108.024 74.8407 107.504 74.5159 107.277 74.0802C107.053 73.6444 107.047 73.1315 107.049 72.6403C107.051 70.3171 107.055 67.994 107.057 65.6708C107.057 65.5143 107.057 65.3539 107.12 65.2113C107.22 64.9816 107.458 64.8489 107.685 64.7439C108.693 64.2805 110.048 64.1418 110.769 64.9895C111.25 65.5559 111.277 66.3679 111.281 67.1126C111.291 68.9704 111.301 70.8281 111.313 72.6859C111.315 73.1671 111.313 73.6702 111.092 74.098C110.871 74.5258 110.357 74.8427 109.91 74.6723C109.904 74.9239 109.899 75.1754 109.893 75.4269C112.051 75.4269 114.208 75.4269 116.366 75.4269C116.366 75.1813 116.364 74.9358 116.362 74.6882C115.834 74.8347 115.279 74.4446 115.044 73.9494C114.818 73.4721 114.816 72.9235 114.826 72.3927L114.82 72.3967ZM59.276 73.2067C58.7876 73.6365 58.3563 73.6821 57.9427 73.6821C57.1786 73.6821 56.1742 73.0384 56.1742 71.3906C56.1742 70.3647 56.6902 69.8299 57.7044 69.2873C58.311 68.9605 58.8112 68.7466 59.2937 68.4812C59.2937 70.0597 59.2779 71.6263 59.2779 73.2048L59.276 73.2067ZM67.4193 76.8371C67.7482 76.5836 68.3705 76.4707 69.6979 76.4707C70.9543 76.4707 71.6672 76.5459 72.3998 76.7876C73.2998 77.0906 74.0403 77.8214 74.0403 78.986C74.0403 80.5565 73.0162 81.7587 70.4305 81.7587C67.8447 81.7587 66.3302 80.3426 66.3302 78.7523C66.3302 77.9798 66.7379 77.3203 67.4193 76.8371ZM69.7077 70.6756C68.335 70.6756 67.6556 68.9288 67.6556 66.5799C67.6556 64.2309 68.4237 63.0981 69.4044 63.0981C70.7889 63.0981 71.4427 64.9202 71.4427 67.0552C71.4427 69.4417 70.7928 70.6756 69.7057 70.6756H69.7077Z" fill="#FA5F2B"/>
<path d="M128.413 71.9335V62.3813C127.117 62.619 124.736 62.827 123.04 62.8864V63.5558L123.828 63.7341C124.622 63.9163 124.836 64.1539 124.836 65.57V72.894C124.202 73.512 123.536 73.7061 122.759 73.7061C121.709 73.7061 120.734 73.0862 120.734 71.1056V66.8178C120.734 64.96 120.764 63.5142 120.823 62.3813C119.332 62.619 117.081 62.827 115.657 62.8864V63.5558L116.228 63.7182C117.01 63.9262 117.169 64.1242 117.169 65.5245V71.7236C117.169 74.2032 118.493 75.7896 120.876 75.7896C122.369 75.7896 123.594 74.829 124.838 73.7536C124.838 74.423 124.822 75.1538 124.805 75.8233C126.573 75.3776 128.137 74.9578 130.155 74.7201V74.0368L129.49 73.9279C128.545 73.7734 128.417 73.4783 128.417 71.9335H128.413Z" fill="#FA5F2B"/>
<path d="M130.012 69.6772H136.948L137.135 67.7739H130.199L130.012 69.6772Z" fill="#FA5F2B"/>
<path d="M148.927 74.8307C144.701 74.8307 141.989 70.9151 141.989 65.3142C141.989 60.5173 143.998 56.7087 148.364 56.7087C149.392 56.7087 150.339 56.8434 151.098 57.19C152.713 57.897 153.516 59.0121 154.121 61.2144L154.942 61.056C154.769 59.7984 154.562 57.8139 154.463 56.3522C153.741 56.2789 151.533 55.7046 149.077 55.7046C142.07 55.7046 137.6 59.9291 137.6 65.9301C137.6 70.9349 140.863 75.8744 148.644 75.8744C150.741 75.8744 153.099 75.3139 153.849 75.1515C154.288 74.1949 155.025 71.8697 155.371 70.517L154.609 70.22C153.177 73.3235 151.557 74.8287 148.927 74.8287V74.8307Z" fill="#FA5F2B"/>
<path d="M162.4 62.2324C159.068 62.2324 155.56 64.7774 155.56 69.1089C155.56 72.3371 157.756 75.7892 162.396 75.7892C165.636 75.7892 168.948 73.4482 168.948 68.7979C168.948 65.332 166.384 62.2324 162.4 62.2324ZM162.591 74.8999C160.763 74.8999 159.601 72.044 159.601 68.2295C159.601 64.6586 160.612 63.1395 162.014 63.1395C163.796 63.1395 164.925 65.4627 164.925 69.5921C164.925 74.1117 163.729 74.8999 162.591 74.8999Z" fill="#FA5F2B"/>
<path d="M177.416 62.2328C176.073 62.2328 174.929 63.6627 173.927 65.3323C173.927 64.3163 173.96 62.8725 173.976 62.1733C172.326 62.7715 170.622 63.128 168.954 63.3181V63.942C170.179 64.2727 170.362 64.4371 170.362 65.9562V72.3632C170.362 74.3596 170.248 74.4923 168.714 74.7201V75.433H175.987V74.7201C174.149 74.4329 173.925 74.3596 173.925 72.3632V66.586C174.441 65.5066 175.081 65.2036 175.524 65.2036C176.042 65.2036 176.377 65.6294 176.896 66.0948C177.103 66.2889 177.316 66.3879 177.714 66.2275C178.318 65.9898 179.205 64.96 179.205 63.8667C179.205 62.8923 178.442 62.2328 177.416 62.2328Z" fill="#FA5F2B"/>
<path d="M183.86 67.2155C182.505 66.5322 181.684 65.9677 181.684 64.7953C181.684 63.7159 182.438 63.1059 183.299 63.1059C184.819 63.1059 185.774 64.2546 186.442 66.1203L187.106 65.9519C186.987 65.2983 186.771 63.5297 186.698 62.6107C186.084 62.5276 185.008 62.2305 183.705 62.2305C180.737 62.2463 178.884 63.9397 178.884 66.2708C178.884 68.6019 180.938 69.7427 182.462 70.5448C184.343 71.5687 184.703 72.3174 184.703 73.2383C184.703 74.1593 184.108 74.898 183.019 74.898C181.164 74.898 179.904 73.2284 179.268 71.3231L178.622 71.4519C178.744 72.557 178.976 74.4088 179.061 75.0426C179.681 75.2901 181.046 75.7853 182.566 75.7853C184.939 75.7853 187.663 74.4128 187.663 71.5073C187.663 69.2931 186.087 68.3325 183.858 67.2135L183.86 67.2155Z" fill="#FA5F2B"/>
<path d="M190.597 59.9947C191.759 59.9947 192.606 59.1272 192.606 58.0181C192.606 56.909 191.759 56.0415 190.627 56.0415C189.557 56.0415 188.667 56.8674 188.667 58.0181C188.667 59.1688 189.557 59.9947 190.597 59.9947Z" fill="#FA5F2B"/>
<path d="M192.61 72.1334V65.7857C192.61 64.6014 192.626 63.1179 192.643 62.2168C191.151 62.708 189.437 63.0783 187.641 63.2863V63.9537C188.931 64.2647 189.045 64.3835 189.045 66.2254V72.1334C189.045 74.3417 188.933 74.4763 187.356 74.718V75.4309H194.377V74.718C192.746 74.4446 192.61 74.2525 192.61 72.1334Z" fill="#FA5F2B"/>
<path d="M216.485 73.4977C216.225 73.6126 215.947 73.67 215.701 73.67C215.195 73.67 214.74 73.2799 214.74 71.9707V66.8471C214.74 65.2171 214.419 64.001 213.18 63.0781C212.438 62.5671 211.599 62.2324 210.368 62.2324C209.009 62.5057 207.201 63.3673 205.789 64.2922C205.159 64.718 204.854 65.0884 204.854 65.5063C204.854 66.2054 205.616 66.952 206.482 66.952C206.975 66.952 207.299 66.7441 207.473 66.0568C207.725 65.0329 207.892 64.4724 208.166 64.0961C208.448 63.7059 208.845 63.4683 209.363 63.4683C210.403 63.4683 211.278 64.3298 211.278 66.039V67.5937C210.582 68.1542 208.347 68.7682 206.685 69.3901C205.251 69.9308 204.574 70.6438 204.574 72.1193C204.574 72.1331 204.574 72.147 204.576 72.1628C203.581 73.0125 202.703 73.2858 201.525 73.2858C199.993 73.2858 197.405 71.8262 197.405 67.875C197.405 64.5338 198.646 63.6366 199.782 63.6366C200.645 63.6366 201.732 64.0624 202.92 65.1319C203.189 65.3854 203.363 65.4429 203.52 65.4429C204.009 65.4429 204.787 64.6269 204.8 63.8782C204.8 63.4821 204.619 63.2088 204.239 62.9117C203.692 62.5097 202.713 62.2324 201.787 62.2324C200.572 62.2324 198.76 62.6523 196.878 64.0585C195.036 65.4389 193.963 67.3858 193.963 69.5683C193.963 72.7332 196.175 75.7912 200.119 75.7912C201.748 75.7912 203.438 74.6801 204.716 73.1036C205.131 74.5395 206.437 75.7912 208.312 75.7912C208.857 75.7912 210.336 74.7118 211.36 73.9691C211.492 74.3949 211.715 74.8445 212.079 75.1832C212.463 75.5555 213.048 75.7912 213.812 75.7912L216.711 74.2127L216.485 73.4997V73.4977ZM211.258 73.2066C210.77 73.6364 210.338 73.6819 209.925 73.6819C209.161 73.6819 208.156 73.0382 208.156 71.3904C208.156 70.3645 208.672 69.8298 209.686 69.2871C210.293 68.9603 210.793 68.7464 211.276 68.481C211.276 70.0595 211.26 71.6261 211.26 73.2046L211.258 73.2066Z" fill="#FA5F2B"/>
<path d="M108.355 44.0115C99.6756 44.0115 91.5027 41.7676 85.3406 37.6936C79.0524 33.5345 75.5883 27.9632 75.5883 22.0058C75.5883 16.0483 79.0524 10.4771 85.3406 6.31792C91.5027 2.24395 99.6756 0 108.355 0C117.034 0 125.206 2.24395 131.369 6.31792C137.657 10.4771 141.121 16.0483 141.121 22.0058C141.121 27.9632 137.657 33.5345 131.369 37.6936C125.206 41.7676 117.034 44.0115 108.355 44.0115ZM108.355 1.98054C91.3727 1.98054 77.5576 10.9643 77.5576 22.0058C77.5576 33.0473 91.3727 42.031 108.355 42.031C125.336 42.031 139.152 33.0473 139.152 22.0058C139.152 10.9643 125.336 1.98054 108.355 1.98054Z" fill="#FA5F2B"/>
<path d="M117.002 20.8432C117.055 20.8828 117.118 20.9006 117.179 20.9006C117.274 20.9006 117.368 20.8571 117.429 20.7739C117.435 20.766 117.49 20.6927 117.591 20.6095C117.693 21.5087 118.196 22.7643 119.651 23.2198C119.68 23.2297 119.712 23.2337 119.741 23.2337C119.871 23.2337 119.994 23.1485 120.035 23.0158C120.086 22.8534 119.996 22.6792 119.834 22.6296C118.436 22.1919 118.219 20.9006 118.19 20.3639C118.288 20.356 118.396 20.3639 118.513 20.3897C118.678 20.4273 118.843 20.3243 118.881 20.1579C118.918 19.9916 118.816 19.8252 118.65 19.7876C117.561 19.5341 116.955 20.3797 116.929 20.4154C116.833 20.554 116.864 20.7442 117.002 20.8432Z" fill="#FA5F2B"/>
<path d="M119.637 20.0851C119.893 20.291 120.401 20.0791 120.769 19.6137C121.138 19.1483 121.228 18.6036 120.972 18.3976C120.716 18.1917 120.208 18.4036 119.84 18.869C119.472 19.3344 119.381 19.8791 119.637 20.0851Z" fill="#FA5F2B"/>
<path d="M123.536 20.0215C123.779 19.7165 123.838 19.36 123.668 19.2253C123.501 19.0907 123.168 19.2293 122.926 19.5343C122.684 19.8393 122.625 20.1958 122.794 20.3305C122.961 20.4651 123.294 20.3265 123.536 20.0215Z" fill="#FA5F2B"/>
<path d="M109.203 17.0368C107.89 16.2446 106.497 15.5851 105.064 15.0464C103.738 14.5493 102.376 14.1531 100.993 13.8462C99.7819 13.5788 98.555 13.3788 97.3222 13.2441C96.4734 13.151 95.6226 13.0837 94.7699 13.052C94.3386 13.0361 93.9073 13.0282 93.478 13.0322C93.0782 13.0361 92.6646 13.0203 92.2767 13.1233C92.1841 13.149 92.0935 13.1787 92.0069 13.2203C91.6544 13.3827 91.353 13.6798 91.1167 13.9828C90.7544 14.4502 90.5003 15.0028 90.3585 15.6247C90.0789 16.8506 90.1202 18.1776 90.4806 19.6888C90.5633 22.3902 87.0579 31.7483 87.0283 31.8314L86.9594 32.0097L87.0933 32.1523C89.1769 34.3626 93.8935 35.3469 95.4218 35.6143C95.1382 35.6143 94.4568 38.2801 94.38 38.5177C94.181 39.1258 93.929 39.6546 93.6336 40.1121C93.7458 40.1556 93.8581 40.1992 93.9703 40.2428C96.7924 41.3222 99.9139 42.0946 103.23 42.4986H103.236C103.597 41.7658 103.945 41.0132 104.317 40.2507C105.174 41.0706 105.972 41.9163 106.71 42.7799C106.73 42.7799 106.75 42.7838 106.767 42.7838C107.356 42.8076 107.947 42.8195 108.544 42.8195C111.5 42.8195 114.349 42.5283 117.038 41.9876C116.035 40.5438 114.863 39.201 113.514 37.9493C113.666 37.1829 114.158 34.22 113.016 32.6949C114.724 31.5126 115.47 29.6825 115.499 29.637C115.496 30.0311 115.555 33.2218 117.735 35.1607C119.084 36.3609 120.945 36.8145 123.275 36.5035C123.357 36.5808 123.499 36.7214 123.576 36.8006C123.698 36.9254 123.759 36.9868 123.806 37.0244C124.058 37.2165 124.318 37.375 124.572 37.4938C124.994 37.6938 125.441 37.7948 125.874 37.7948C125.941 37.7948 126.004 37.7929 126.069 37.7869C126.752 37.7394 127.54 37.3967 128.229 36.8462C128.803 36.3906 129.035 35.7727 128.862 35.2162C129.421 34.7329 129.716 34.2021 129.75 33.6377C129.773 33.196 129.626 32.8237 129.474 32.5623C129.462 32.4969 129.431 32.4355 129.376 32.386C129.366 32.3761 129.352 32.3642 129.336 32.3543C129.33 32.3444 129.322 32.3345 129.315 32.3246C129.604 31.5997 129.222 30.8907 128.649 30.5342C128.058 30.1698 127.241 30.2827 126.611 30.5282C126.203 30.2569 125.687 30.1698 125.218 30.3025C124.61 30.4807 124.094 30.8392 123.706 31.3363H122.873C122.375 31.3125 121.937 31.059 121.648 30.657C121.274 30.142 121.404 29.6093 121.382 29.0171C121.325 27.5099 120.679 26.072 119.73 24.9213C119.657 24.8362 119.584 24.749 119.507 24.6678C119.501 24.6599 119.464 24.6282 119.462 24.6183C119.558 24.6262 119.653 24.6322 119.751 24.6322C120.665 24.6322 121.571 24.2737 122.272 23.6043C122.357 23.5231 122.445 23.4359 122.538 23.3428C122.544 23.3349 122.548 23.325 122.556 23.3191C122.623 23.331 122.688 23.3389 122.76 23.3428C122.788 23.3448 122.816 23.3448 122.843 23.3448C123.162 23.3448 123.399 23.23 123.548 23.0002C123.718 22.7388 123.692 22.41 123.594 22.0951C124.277 21.1484 124.755 20.1502 125.013 19.1283C125.862 19.255 126.721 19.3164 127.578 19.3362C128.424 19.354 129.246 19.0451 129.456 18.132C129.799 16.6546 129.48 15.1652 128.69 13.8858C127.635 12.1746 125.969 10.8952 124.303 9.83161C123.915 9.58206 123.519 9.34241 123.119 9.11465C122.755 8.90868 122.359 8.75023 122.012 8.51257C121.374 8.07487 121.033 7.30246 120.135 7.3896C119.842 7.41931 119.556 7.54805 119.334 7.74412C119.127 7.92435 119.046 8.22737 118.749 8.25114C118.241 8.29471 117.741 8.37591 117.258 8.53832C116.386 8.83144 115.627 9.37806 115.088 10.1287C114.964 10.3069 114.852 10.4931 114.747 10.6872C114.725 10.7288 114.714 10.7724 114.714 10.8219C114.57 11.2418 114.178 12.5113 114.196 13.4144C113.183 14.474 112.805 15.6088 112.805 16.7873C112.805 16.8962 112.809 17.0051 112.815 17.114C112.719 17.2883 112.656 17.4943 112.638 17.728C112.61 18.039 112.669 18.4054 112.817 18.7559C112.595 18.5935 112.303 18.4054 111.931 18.2192C111.649 18.0786 111.354 17.9677 111.051 17.8884L109.324 17.4329L109.304 17.427H109.298L109.45 17.1913L109.343 17.12M100.526 19.5719C101.056 19.4947 101.422 19.36 101.548 19.3045H101.552C101.552 19.3045 101.562 19.3006 101.566 19.2986C101.708 19.2392 101.844 19.1817 101.978 19.1283C102.37 19.9225 103.502 22.6516 101.909 24.9609C101.346 24.9174 100.721 24.8401 100.06 24.7213C100.719 23.6498 100.926 22.6041 100.926 21.7129C100.926 20.7681 100.694 20.0017 100.526 19.5719ZM95.4001 13.8363C95.2622 13.8679 95.1185 13.9274 94.9747 14.0105C94.9944 13.9987 94.8703 13.8026 94.8585 13.7848C94.8408 13.7551 94.7955 13.7095 94.8152 13.6699C94.8369 13.6263 94.9176 13.6342 94.957 13.6342C95.5517 13.658 96.1445 13.7036 96.7353 13.761C97.0701 13.7927 97.4029 13.8303 97.7358 13.8719C98.0922 13.9155 98.4487 13.967 98.8032 14.0224C99.1793 14.0818 99.5535 14.1452 99.9277 14.2165C100.32 14.2918 100.709 14.373 101.097 14.4601C101.501 14.5512 101.903 14.6522 102.303 14.7592C102.716 14.8701 103.126 14.9909 103.534 15.1196C103.941 15.2484 104.369 15.3949 104.78 15.5455C105.192 15.696 105.619 15.8663 106.033 16.0426C106.446 16.2188 106.87 16.4149 107.279 16.6169C107.697 16.8229 108.106 17.0427 108.51 17.2745C108.559 17.3022 108.609 17.3299 108.656 17.3596C107.254 17.2487 105.507 17.3814 103.374 17.9875C102.945 18.1103 102.502 18.2588 102.017 18.447C102.009 18.4489 102.003 18.4529 101.999 18.4529C101.81 18.5242 101.617 18.6054 101.415 18.6886C100.958 18.5856 98.6082 17.9617 96.5778 16.912L96.4813 16.8685C96.6802 16.5496 96.8732 16.2287 97.0406 15.8921C97.1902 15.591 97.3419 15.2286 97.1646 14.9018C96.9992 14.5968 96.6546 14.4938 96.3828 14.4601C96.367 14.2938 96.304 14.1472 96.1997 14.0343C96.1701 14.0026 96.1386 13.9729 96.1031 13.9472C96.0854 13.9353 96.0697 13.9234 96.05 13.9115C95.9102 13.8264 95.7428 13.7907 95.5655 13.8065M96.2233 17.425C97.5782 18.134 99.1852 18.7183 100.136 18.9975C99.1576 19.0708 97.7023 18.8629 96.2154 17.4884C96.2253 17.4745 96.2253 17.4507 96.2233 17.425ZM90.8824 15.9396C90.8961 15.8802 90.9119 15.8188 90.9277 15.7594C91.0675 15.2385 91.2762 14.6978 91.6307 14.2779C91.808 14.07 92.0246 13.8937 92.2806 13.7907C92.4106 13.7392 93.0053 13.557 92.8852 13.8838C92.8064 14.1016 92.5288 14.2641 92.3771 14.4383C91.9084 14.979 91.5835 15.6683 91.5972 16.3971C91.6012 16.5694 91.7351 16.708 91.9064 16.708C92.0896 16.708 92.1743 16.5753 92.2018 16.409C92.2412 16.1911 92.2589 15.9792 92.3239 15.7653C92.5465 15.0464 93.0506 14.4185 93.6986 14.0403C93.8541 13.9491 94.0432 13.8977 94.2106 13.9769C94.3544 14.0442 94.506 14.2086 94.4075 14.373C94.378 14.4225 94.3307 14.4601 94.2854 14.4978C93.5312 15.0979 92.7808 15.8742 92.9758 16.9338C93.0034 17.0824 93.1314 17.1834 93.2771 17.1834C93.3677 17.1834 93.4701 17.1418 93.5371 17.0388C93.5824 16.9715 93.5666 16.8863 93.5784 16.8071C93.7242 15.7574 94.2579 14.9077 95.2209 14.4304C95.3016 14.3908 95.3863 14.3532 95.4749 14.3453C95.597 14.3334 95.8117 14.4126 95.7802 14.571C95.7684 14.6245 95.725 14.6621 95.6856 14.6978C94.9885 15.2999 94.2854 16.102 94.2854 17.0824C94.2854 17.1556 94.2894 17.2269 94.2992 17.2963C94.3209 17.4527 94.4528 17.5617 94.6045 17.5617C94.6183 17.5617 94.632 17.5617 94.6478 17.5577C94.9137 17.5082 94.892 17.2864 94.8959 17.0764C94.8999 16.8071 94.9845 16.5417 95.1067 16.302C95.343 15.8445 95.7428 15.2068 96.2922 15.1018C96.6526 15.0325 96.7393 15.385 96.5896 15.6504C96.4143 15.9594 96.1366 16.1951 95.9535 16.5021C95.7526 16.8368 95.532 17.2071 95.5734 17.6151C95.6226 17.8191 95.7349 17.8904 95.8846 18.0231C95.9988 18.1261 96.1169 18.2251 96.239 18.3222C96.4635 18.4984 96.6959 18.6628 96.9401 18.8094C97.3616 19.0629 97.8145 19.2669 98.2872 19.4055C98.5629 19.4867 98.8445 19.5462 99.1281 19.5818C99.2581 19.5976 99.3881 19.6095 99.518 19.6155C99.5535 19.6155 99.8765 19.6036 99.8843 19.6214C100.127 20.174 100.902 22.3031 99.4649 24.5114C99.4471 24.5371 99.4373 24.5668 99.4255 24.5906C99.3762 24.7272 97.3675 24.0063 97.1942 23.941C95.9042 23.4557 94.6655 22.816 93.5548 21.9961C92.5209 21.2316 91.5677 20.3522 91.0872 19.1263C91.036 18.9956 90.9907 18.8648 90.9513 18.7302C90.6854 17.835 90.6677 16.8467 90.8784 15.9396H90.8824ZM91.0537 20.4631C93.7025 23.535 97.1469 24.7728 99.646 25.2699C99.9769 25.3353 100.298 25.3927 100.611 25.4383L100.203 26.3354C99.2896 26.1097 91.3058 24.1331 90.5023 23.1646C90.774 22.1228 90.9769 21.1781 91.0537 20.4631ZM96.2272 33.8674C96.1406 34.0595 96.0519 34.2536 95.9574 34.4477C95.8688 34.6438 95.7821 34.8399 95.6916 35.0359C94.4607 34.826 89.7559 33.9051 87.6703 31.8651C87.7806 31.566 88.0347 30.8669 88.3616 29.942C88.7062 30.1381 89.9883 30.8471 91.5894 31.5126C93.1924 32.18 95.1086 32.8019 96.7235 32.8217C96.5581 33.1663 96.3926 33.5129 96.2292 33.8654L96.2272 33.8674ZM110.684 21.4098C108.542 27.6822 101.824 29.2726 98.3148 29.635L98.3088 29.6291C98.3088 29.6291 98.3088 29.635 98.3049 29.635C97.9563 30.3084 97.6097 30.9956 97.2651 31.6948C96.9342 31.6057 89.6968 29.6192 88.8224 28.6091C89.2498 27.3554 89.7244 25.9057 90.1261 24.5193C90.4964 24.6916 92.0344 25.4085 93.9368 26.0819C95.8373 26.7553 98.1001 27.3911 99.9099 27.4109H99.9139C99.9631 27.4148 100.036 27.4109 100.138 27.4109C100.794 27.4109 101.726 27.1158 102.206 26.9474C103.092 26.6385 105.341 25.7195 107.102 23.9033C108.731 22.2219 109.505 20.2651 109.398 18.0825C109.946 18.1736 110.424 18.3004 110.836 18.445C110.836 18.445 111.324 19.5343 110.684 21.4059V21.4098ZM128.328 31.061C128.578 31.2194 128.919 31.5878 128.757 32.0592C128.389 31.9503 127.916 31.9324 127.406 32.1642C127.396 31.7938 127.318 31.3799 127.087 31.0194C127.528 30.8927 128.015 30.8649 128.328 31.061ZM115.096 11.6795C115.724 12.8876 116.405 13.9036 117.126 14.7651C116.179 14.0581 115.409 13.5174 114.816 13.145C114.846 12.6737 114.976 12.1152 115.094 11.6775L115.096 11.6795ZM112.882 25.5333C111.734 24.553 111.553 21.6772 112.987 19.8353C113.014 19.8016 113.235 19.7145 113.31 19.6452C113.337 19.6194 113.361 19.5897 113.376 19.5561C113.477 19.6511 113.587 19.7402 113.715 19.8195C113.766 19.8492 113.822 19.865 113.877 19.865C113.981 19.865 114.082 19.8135 114.141 19.7204C114.229 19.5759 114.186 19.3837 114.042 19.2946C113.441 18.9183 113.209 18.2489 113.246 17.7855C113.258 17.6508 113.308 17.3279 113.56 17.223C113.867 17.0942 114.375 17.3022 114.952 17.7894C115.082 17.9003 115.275 17.8845 115.383 17.7538C115.432 17.6943 115.454 17.6211 115.454 17.5478C115.811 17.6389 116.242 17.6726 116.856 17.5577C117.479 17.3299 118.056 16.8784 118.599 16.2723C120.443 17.8726 122.449 18.6589 124.403 19.0292C124.192 19.8551 123.82 20.6632 123.3 21.4455C123.253 21.3603 123.208 21.2811 123.166 21.2157C122.879 20.7266 122.499 20.2948 122.04 19.9304C121.906 19.8234 121.713 19.8452 121.608 19.9799C121.502 20.1126 121.524 20.3067 121.658 20.4116C122.057 20.7325 122.388 21.1088 122.638 21.5287C123.109 22.3229 123.089 22.5803 123.036 22.6635C123.02 22.6853 122.987 22.7388 122.796 22.7289C122.274 22.6992 121.766 22.3882 121.201 21.7584C121.087 21.6297 120.892 21.6218 120.769 21.7327C120.643 21.8495 120.632 22.0456 120.744 22.1704C121.024 22.4833 121.411 22.8675 121.902 23.1072C121.886 23.125 121.868 23.1408 121.853 23.1547C121.049 23.9251 119.921 24.2024 118.904 23.8835C116.951 23.2696 116.653 20.9246 116.65 20.9008C116.63 20.7325 116.48 20.6117 116.311 20.6295C116.141 20.6473 116.021 20.8018 116.039 20.9702C116.051 21.0533 116.232 22.5288 117.276 23.5884C117.262 23.6558 117.248 23.6776 117.209 23.7429L117.051 23.9053C115.362 25.7571 113.843 26.3493 112.88 25.5313L112.882 25.5333ZM116.114 28.6269C116.795 27.4346 117.739 25.5452 117.839 24.0558C117.965 24.137 118.39 24.3311 118.39 24.3331C118.459 24.5629 118.979 26.4761 116.114 29.4073V28.6269ZM117.329 33.7664C117.138 33.4891 116.978 33.198 116.843 32.9029C116.852 32.893 116.86 32.8831 116.866 32.8732C116.88 32.8534 118.201 30.859 120.811 30.3777C120.864 30.554 120.962 30.7738 121.114 30.9917C121.266 31.2115 121.471 31.4254 121.732 31.6017C119.765 32.3404 118.343 34.0952 117.993 34.5586C117.741 34.315 117.518 34.0437 117.331 33.7644L117.329 33.7664ZM127.849 36.3629C127.255 36.8363 126.589 37.1333 126.028 37.1729C125.634 37.2007 125.22 37.1175 124.832 36.9353C124.616 36.8363 124.397 36.6996 124.184 36.5352C124.159 36.5154 124.074 36.4302 124.013 36.3689C123.617 35.9648 123.495 35.8539 123.298 35.8797C121.289 36.1649 119.665 35.8539 118.461 34.9587C118.778 34.5408 120.527 32.3484 122.772 31.9483C122.8 31.9483 122.824 31.9562 122.851 31.9562H123.332C123.259 32.1147 123.196 32.2771 123.143 32.4494C123.093 32.6137 123.184 32.7861 123.347 32.8356C123.509 32.8851 123.68 32.792 123.729 32.6296C123.993 31.7582 124.598 31.1264 125.39 30.9006C125.726 30.8035 126.103 30.8847 126.374 31.1165C126.845 31.5225 126.863 32.3087 126.721 32.9108C126.605 33.402 126.347 33.8338 126 34.1249C125.959 34.1605 125.915 34.1922 125.876 34.2219C125.744 34.2794 125.618 34.3428 125.508 34.4022C125.478 34.418 125.447 34.4378 125.413 34.4556C125.331 34.4814 125.256 34.4893 125.193 34.4814C125.104 34.4715 125.037 34.424 124.976 34.3348C124.641 33.8516 124.818 33.2554 125.023 32.8395C125.102 32.687 125.039 32.4989 124.889 32.4256C124.738 32.3484 124.553 32.4117 124.476 32.5642C124.072 33.3763 124.07 34.111 124.472 34.6874C124.576 34.8399 124.708 34.9508 124.858 35.0201C124.809 35.1152 124.773 35.2162 124.759 35.3251C124.736 35.5053 124.761 35.7767 125.025 36.0302C125.51 36.4976 126.274 36.5808 126.494 36.5926C126.67 36.6045 126.811 36.4758 126.819 36.3035C126.831 36.1351 126.701 35.9886 126.532 35.9787C126.199 35.9569 125.717 35.84 125.449 35.5846C125.356 35.4935 125.364 35.434 125.366 35.4083C125.38 35.2934 125.506 35.1429 125.673 35.026C125.673 35.026 125.675 35.026 125.675 35.0241C125.86 34.9587 126.032 34.8617 126.169 34.7666C126.528 34.6141 126.835 34.5586 127.132 34.5883C127.582 34.6319 128.031 34.9092 128.224 35.2657C128.225 35.2677 128.227 35.2696 128.227 35.2716C128.515 35.8004 127.968 36.2738 127.855 36.3629H127.849ZM129.137 33.6119C129.116 33.9724 128.917 34.3289 128.548 34.6735C128.216 34.2932 127.708 34.0259 127.188 33.9744C127.101 33.9665 127.018 33.9625 126.939 33.9645C127.109 33.6931 127.239 33.3842 127.318 33.0554C127.325 33.0178 127.335 32.9683 127.347 32.9108C128.101 32.3781 128.686 32.6573 128.897 32.7979C129.017 32.9782 129.159 33.2693 129.137 33.6119Z" fill="#FA5F2B"/>
</g>
<defs>
<clipPath id="clip0_4218_5152">
<rect width="216.711" height="92" fill="white"/>
</clipPath>
</defs>
</svg>
