<svg width="85" height="56" viewBox="0 0 85 56" fill="none" xmlns="http://www.w3.org/2000/svg">
<g clip-path="url(#clip0_4186_10537)">
<path d="M42.5013 56C31.2437 56 20.6427 53.1448 12.6497 47.9611C4.49331 42.6691 0 35.5802 0 28C0 20.4198 4.49331 13.3309 12.6497 8.03888C20.6427 2.85519 31.2437 0 42.5013 0C53.7588 0 64.3599 2.85519 72.3528 8.03888C80.5092 13.3309 85.0026 20.4198 85.0026 28C85.0026 35.5802 80.5092 42.6691 72.3528 47.9611C64.3599 53.1448 53.7588 56 42.5013 56ZM42.5013 2.52003C20.4741 2.52003 2.55447 13.9509 2.55447 28C2.55447 42.0491 20.4741 53.48 42.5013 53.48C64.5285 53.48 82.4481 42.0491 82.4481 28C82.4481 13.9509 64.5259 2.52003 42.5013 2.52003Z" fill="#FA5F2B"/>
<path d="M53.7137 26.5206C53.7827 26.571 53.8645 26.5937 53.9436 26.5937C54.0663 26.5937 54.1889 26.5382 54.2681 26.4324C54.2757 26.4223 54.3472 26.3291 54.4775 26.2232C54.6104 27.3673 55.2617 28.965 57.1495 29.5446C57.1878 29.5572 57.2287 29.5623 57.267 29.5623C57.4356 29.5623 57.594 29.4539 57.6476 29.2851C57.714 29.0784 57.5965 28.8567 57.3871 28.7937C55.5734 28.2367 55.2924 26.5937 55.2541 25.9107C55.3818 25.9007 55.5223 25.9107 55.673 25.9435C55.8876 25.9914 56.1022 25.8603 56.1507 25.6487C56.1992 25.437 56.0664 25.2253 55.8518 25.1774C54.4392 24.8549 53.6524 25.9309 53.6192 25.9763C53.4941 26.1527 53.5349 26.3946 53.7137 26.5206Z" fill="#FA5F2B"/>
<path d="M57.1321 25.5559C57.4642 25.818 58.1232 25.5484 58.6009 24.9562C59.0786 24.364 59.1961 23.6709 58.864 23.4089C58.5319 23.1468 57.8729 23.4164 57.3952 24.0086C56.9175 24.6008 56.8 25.2938 57.1321 25.5559Z" fill="#FA5F2B"/>
<path d="M62.1919 25.4751C62.5061 25.087 62.5827 24.6334 62.363 24.462C62.1459 24.2907 61.7142 24.4671 61.4 24.8551C61.0858 25.2432 61.0092 25.6968 61.2288 25.8682C61.446 26.0395 61.8777 25.8631 62.1919 25.4751Z" fill="#FA5F2B"/>
<path d="M43.5988 21.6772C41.895 20.6692 40.089 19.8301 38.2293 19.1446C36.5102 18.5121 34.7425 18.0081 32.9493 17.6175C31.3783 17.2773 29.7868 17.0228 28.1877 16.8514C27.0867 16.7329 25.9832 16.6473 24.8771 16.6069C24.3177 16.5868 23.7583 16.5767 23.2014 16.5817C22.6828 16.5868 22.1464 16.5666 21.6432 16.6977C21.5231 16.7304 21.4056 16.7682 21.2932 16.8211C20.836 17.0278 20.4451 17.4058 20.1386 17.7914C19.6686 18.3861 19.339 19.0892 19.1551 19.8805C18.7924 21.4404 18.846 23.1288 19.3135 25.0516C19.4208 28.4889 14.8738 40.396 14.8355 40.5018L14.7461 40.7286L14.9198 40.9101C17.6224 43.7224 23.7404 44.9749 25.7227 45.3151C25.3548 45.3151 24.471 48.707 24.3713 49.0094C24.1133 49.7831 23.7864 50.4559 23.4032 51.038C23.5488 51.0935 23.6944 51.1489 23.84 51.2044C27.5006 52.5778 31.5494 53.5606 35.8511 54.0747H35.8588C36.3263 53.1423 36.7784 52.1847 37.2612 51.2145C38.3724 52.2577 39.407 53.3338 40.3649 54.4325C40.3904 54.4325 40.416 54.4376 40.439 54.4376C41.2027 54.4678 41.9691 54.4829 42.7431 54.4829C46.5773 54.4829 50.2737 54.1125 53.7605 53.4245C52.4603 51.5874 50.9404 49.8788 49.1906 48.2862C49.3873 47.3109 50.0259 43.541 48.5443 41.6006C50.759 40.0961 51.7272 37.7676 51.7655 37.7096C51.7604 38.2111 51.837 42.2709 54.6648 44.738C56.4146 46.2651 58.8286 46.8422 61.8505 46.4466C61.9578 46.5448 62.1417 46.7238 62.2414 46.8246C62.3997 46.9833 62.4789 47.0615 62.5402 47.1093C62.8672 47.3538 63.2044 47.5554 63.5339 47.7066C64.0806 47.9611 64.6604 48.0896 65.2224 48.0896C65.3093 48.0896 65.391 48.0871 65.4753 48.0795C66.3617 48.0191 67.3835 47.5831 68.2776 46.8825C69.0209 46.3029 69.3224 45.5167 69.0976 44.8085C69.823 44.1937 70.2062 43.5183 70.2496 42.8001C70.2803 42.2381 70.0887 41.7644 69.892 41.4317C69.8767 41.3486 69.8358 41.2704 69.7643 41.2074C69.7515 41.1948 69.7336 41.1797 69.7132 41.1671C69.7055 41.1545 69.6953 41.1419 69.6851 41.1293C70.0606 40.207 69.565 39.3048 68.8217 38.8512C68.0553 38.3875 66.9952 38.5312 66.1778 38.8436C65.649 38.4984 64.9798 38.3875 64.3718 38.5564C63.5825 38.7832 62.9132 39.2393 62.41 39.8718H61.3294C60.6831 39.8416 60.116 39.519 59.7405 39.0074C59.2552 38.3522 59.4238 37.6744 59.3957 36.9209C59.3216 35.0031 58.4837 33.1736 57.2525 31.7095C57.158 31.6011 57.0634 31.4902 56.9638 31.3869C56.9562 31.3768 56.9076 31.3365 56.9051 31.3239C57.0302 31.334 57.1529 31.3415 57.2806 31.3415C58.4659 31.3415 59.6409 30.8854 60.5503 30.0336C60.6601 29.9303 60.7751 29.8194 60.8952 29.701C60.9028 29.6909 60.9079 29.6783 60.9181 29.6708C61.005 29.6859 61.0893 29.696 61.1838 29.701C61.2196 29.7035 61.2553 29.7035 61.2911 29.7035C61.7049 29.7035 62.0115 29.5574 62.2056 29.265C62.4253 28.9324 62.3921 28.5141 62.2644 28.1134C63.1508 26.9088 63.7715 25.6387 64.1061 24.3384C65.2071 24.4997 66.3209 24.5778 67.432 24.603C68.5305 24.6257 69.5957 24.2325 69.869 23.0708C70.3135 21.1909 69.8997 19.2958 68.8753 17.6679C67.5061 15.4906 65.345 13.8626 63.184 12.5094C62.6807 12.1919 62.1673 11.8869 61.6487 11.5971C61.1761 11.3351 60.6627 11.1335 60.2131 10.831C59.3855 10.2741 58.9435 9.29131 57.7787 9.40219C57.3981 9.44 57.0277 9.6038 56.739 9.85328C56.4708 10.0826 56.3661 10.4682 55.9804 10.4984C55.3213 10.5538 54.6725 10.6572 54.0466 10.8638C52.915 11.2368 51.9315 11.9323 51.2316 12.8874C51.0707 13.1142 50.9251 13.3511 50.7897 13.598C50.7616 13.651 50.7462 13.7064 50.7462 13.7694C50.5598 14.3036 50.0514 15.919 50.0744 17.0681C48.7614 18.4163 48.271 19.8603 48.271 21.3597C48.271 21.4983 48.2761 21.6369 48.2837 21.7755C48.1586 21.9973 48.0768 22.2594 48.0538 22.5567C48.0181 22.9524 48.0947 23.4186 48.2863 23.8646C47.9976 23.658 47.6196 23.4186 47.1368 23.1817C46.7715 23.0028 46.3883 22.8616 45.9949 22.7608L43.7547 22.1812L43.7291 22.1737H43.7215L43.9181 21.8738L43.7802 21.7831M32.3438 24.9029C33.031 24.8046 33.5061 24.6332 33.6696 24.5627H33.6747C33.6747 24.5627 33.6875 24.5576 33.6926 24.5551C33.8765 24.4795 34.0528 24.4064 34.2265 24.3384C34.7348 25.3489 36.2036 28.8215 34.1371 31.7599C33.4065 31.7044 32.5967 31.6061 31.7384 31.4549C32.5942 30.0916 32.8624 28.761 32.8624 27.627C32.8624 26.425 32.561 25.4497 32.3438 24.9029ZM25.6946 17.6049C25.5157 17.6452 25.3293 17.7208 25.1428 17.8266C25.1683 17.8115 25.0074 17.562 24.9921 17.5394C24.9691 17.5016 24.9103 17.4436 24.9359 17.3932C24.964 17.3378 25.0687 17.3478 25.1198 17.3478C25.8912 17.3781 26.6601 17.436 27.4265 17.5091C27.8607 17.5494 28.2924 17.5973 28.7242 17.6502C29.1865 17.7057 29.6489 17.7712 30.1087 17.8418C30.5966 17.9174 31.0819 17.998 31.5673 18.0887C32.0756 18.1845 32.5814 18.2878 33.0846 18.3987C33.6083 18.5146 34.1294 18.6431 34.648 18.7792C35.1844 18.9203 35.7157 19.074 36.2445 19.2379C36.7733 19.4017 37.3276 19.5881 37.8615 19.7797C38.3954 19.9712 38.9497 20.1879 39.4861 20.4122C40.0226 20.6365 40.5718 20.8859 41.1031 21.143C41.6447 21.4051 42.176 21.6848 42.6997 21.9796C42.7635 22.0149 42.8274 22.0502 42.8887 22.088C41.0699 21.9469 38.8041 22.1157 36.0376 22.8868C35.4807 23.0431 34.906 23.2321 34.2776 23.4715C34.2674 23.474 34.2597 23.4791 34.2546 23.4791C34.0094 23.5698 33.759 23.6731 33.4959 23.7789C32.9033 23.6479 29.8558 22.8541 27.2221 21.5185L27.097 21.463C27.355 21.0573 27.6053 20.6491 27.8224 20.2207C28.0166 19.8376 28.2133 19.3765 27.9834 18.9606C27.7688 18.5726 27.3218 18.4415 26.9692 18.3987C26.9488 18.187 26.8671 18.0005 26.7317 17.8569C26.6934 17.8166 26.6525 17.7788 26.6065 17.746C26.5835 17.7309 26.5631 17.7158 26.5375 17.7006C26.3562 17.5923 26.139 17.5469 25.9091 17.5671M26.7649 22.1712C28.5224 23.0733 30.6068 23.8167 31.8406 24.1721C30.571 24.2653 28.6833 24.0007 26.7547 22.2518C26.7674 22.2342 26.7674 22.2039 26.7649 22.1712ZM19.8346 20.2811C19.8525 20.2055 19.8729 20.1274 19.8934 20.0518C20.0747 19.3891 20.3455 18.7011 20.8053 18.1668C21.0352 17.9022 21.3162 17.678 21.6483 17.5469C21.8169 17.4814 22.5883 17.2496 22.4325 17.6654C22.3303 17.9426 21.9701 18.1492 21.7734 18.371C21.1655 19.0589 20.744 19.9359 20.7619 20.8633C20.767 21.0825 20.9407 21.2589 21.1629 21.2589C21.4005 21.2589 21.5103 21.0901 21.5461 20.8784C21.5972 20.6012 21.6202 20.3315 21.7045 20.0594C21.9931 19.1446 22.6471 18.3458 23.4875 17.8644C23.6893 17.7485 23.9345 17.683 24.1517 17.7838C24.3381 17.8695 24.5348 18.0786 24.4071 18.2878C24.3688 18.3508 24.3075 18.3987 24.2487 18.4466C23.2704 19.2101 22.2971 20.198 22.55 21.5462C22.5858 21.7352 22.7518 21.8637 22.9408 21.8637C23.0583 21.8637 23.1912 21.8108 23.278 21.6798C23.3368 21.5941 23.3163 21.4857 23.3317 21.3849C23.5207 20.0493 24.213 18.9682 25.4621 18.3609C25.5668 18.3105 25.6767 18.2626 25.7916 18.2525C25.95 18.2374 26.2284 18.3382 26.1876 18.5398C26.1722 18.6078 26.116 18.6557 26.065 18.7011C25.1607 19.4672 24.2487 20.4878 24.2487 21.7352C24.2487 21.8284 24.2538 21.9192 24.2666 22.0074C24.2947 22.2064 24.4659 22.345 24.6625 22.345C24.6804 22.345 24.6983 22.345 24.7187 22.34C25.0636 22.277 25.0355 21.9948 25.0406 21.7276C25.0457 21.3849 25.1556 21.0472 25.3139 20.7423C25.6205 20.1602 26.139 19.3487 26.8517 19.2152C27.3192 19.127 27.4316 19.5755 27.2375 19.9132C27.0101 20.3063 26.6499 20.6062 26.4124 20.9968C26.1518 21.4227 25.8657 21.894 25.9193 22.4131C25.9832 22.6726 26.1288 22.7634 26.323 22.9322C26.4711 23.0633 26.6244 23.1893 26.7828 23.3127C27.074 23.537 27.3754 23.7462 27.6922 23.9327C28.2388 24.2552 28.8263 24.5148 29.4394 24.6912C29.797 24.7945 30.1623 24.8701 30.5302 24.9155C30.6988 24.9356 30.8674 24.9507 31.036 24.9583C31.0819 24.9583 31.5009 24.9432 31.5111 24.9659C31.8253 25.669 32.8317 28.378 30.967 31.1878C30.944 31.2206 30.9312 31.2584 30.9159 31.2886C30.852 31.4625 28.2465 30.5452 28.0217 30.462C26.3485 29.8446 24.7417 29.0307 23.301 27.9874C21.9599 27.0146 20.7236 25.8958 20.1003 24.3359C20.0338 24.1695 19.9751 24.0032 19.924 23.8319C19.5792 22.6928 19.5562 21.4353 19.8295 20.2811H19.8346ZM20.0568 26.0369C23.4926 29.9454 27.9604 31.5205 31.202 32.153C31.6311 32.2361 32.0475 32.3092 32.4537 32.3672L31.9249 33.5088C30.7396 33.2215 20.3838 30.7065 19.3416 29.4742C19.6941 28.1487 19.9572 26.9466 20.0568 26.0369ZM26.7674 43.0924C26.655 43.3369 26.5401 43.5838 26.4175 43.8308C26.3025 44.0803 26.1901 44.3297 26.0726 44.5792C24.4761 44.3121 18.3734 43.1403 15.6683 40.5447C15.8113 40.1641 16.1408 39.2746 16.5649 38.0977C17.0119 38.3472 18.6749 39.2494 20.7517 40.0961C22.831 40.9453 25.3165 41.7366 27.4112 41.7618C27.1966 42.2003 26.982 42.6413 26.77 43.0899L26.7674 43.0924ZM45.5198 27.2415C42.7405 35.2224 34.0272 37.246 29.4752 37.7071L29.4675 37.6996C29.4675 37.6996 29.4675 37.7071 29.4624 37.7071C29.0103 38.5639 28.5607 39.4384 28.1136 40.3279C27.6845 40.2145 18.2968 37.687 17.1626 36.4017C17.7169 34.8066 18.3326 32.9619 18.8537 31.1979C19.3339 31.4171 21.329 32.3294 23.7966 33.1862C26.2616 34.043 29.1967 34.8519 31.5443 34.8771H31.5494C31.6133 34.8822 31.7078 34.8771 31.8406 34.8771C32.6912 34.8771 33.8995 34.5016 34.5228 34.2874C35.6723 33.8943 38.5895 32.725 40.8732 30.4142C42.9858 28.2747 43.9897 25.7849 43.8517 23.0078C44.5619 23.1237 45.1826 23.285 45.7165 23.469C45.7165 23.469 46.35 24.855 45.5198 27.2364V27.2415ZM68.4078 39.5215C68.7323 39.7231 69.1742 40.1919 68.9647 40.7916C68.487 40.653 67.874 40.6303 67.2124 40.9252C67.1996 40.4539 67.0974 39.9273 66.7985 39.4686C67.3707 39.3073 68.0017 39.2721 68.4078 39.5215ZM51.2418 14.8606C52.0567 16.3978 52.9405 17.6906 53.8755 18.7868C52.6468 17.8871 51.648 17.1992 50.8791 16.7254C50.9174 16.1256 51.086 15.415 51.2393 14.858L51.2418 14.8606ZM48.3706 32.4881C46.8813 31.2407 46.6463 27.5817 48.506 25.238C48.5417 25.1952 48.8278 25.0843 48.9249 24.9961C48.9607 24.9634 48.9913 24.9255 49.0118 24.8827C49.142 25.0037 49.2851 25.1171 49.4511 25.2179C49.5175 25.2557 49.5891 25.2758 49.6606 25.2758C49.796 25.2758 49.9263 25.2103 50.0029 25.0919C50.1178 24.9079 50.0616 24.6635 49.8752 24.5501C49.0961 24.0713 48.7946 23.2195 48.8432 22.6298C48.8585 22.4584 48.9224 22.0477 49.2493 21.9141C49.6478 21.7503 50.3069 22.0149 51.0553 22.6348C51.2239 22.776 51.4743 22.7558 51.6148 22.5895C51.6786 22.5139 51.7067 22.4206 51.7067 22.3274C52.1691 22.4433 52.7285 22.4862 53.5255 22.34C54.3327 22.0502 55.0812 21.4756 55.7862 20.7045C58.1772 22.7407 60.7802 23.7411 63.3142 24.2124C63.0409 25.2632 62.5581 26.2914 61.8837 27.2868C61.8224 27.1785 61.7637 27.0777 61.71 26.9945C61.3371 26.372 60.8441 25.8227 60.2489 25.359C60.0752 25.2229 59.8248 25.2506 59.6894 25.422C59.5515 25.5908 59.5796 25.8378 59.7533 25.9714C60.2719 26.3796 60.701 26.8584 61.0254 27.3927C61.636 28.4032 61.6104 28.7308 61.5414 28.8366C61.521 28.8643 61.4776 28.9324 61.2298 28.9198C60.5529 28.882 59.8938 28.4863 59.1607 27.685C59.0125 27.5212 58.7596 27.5111 58.6012 27.6522C58.4378 27.8009 58.4224 28.0504 58.568 28.2091C58.9308 28.6073 59.434 29.0962 60.0701 29.4011C60.0496 29.4238 60.0266 29.444 60.0062 29.4616C58.964 30.4419 57.5003 30.7947 56.1822 30.389C53.6481 29.6078 53.2624 26.624 53.2573 26.5938C53.2317 26.3796 53.0376 26.2259 52.8179 26.2486C52.5982 26.2712 52.4424 26.4678 52.4654 26.682C52.4807 26.7878 52.7157 28.6653 54.0696 30.0135C54.0517 30.0992 54.0338 30.1269 53.9828 30.21L53.7784 30.4167C51.5867 32.7729 49.6172 33.5264 48.368 32.4856L48.3706 32.4881ZM52.5625 36.4244C53.4463 34.9074 54.6699 32.5033 54.8002 30.6082C54.9637 30.7115 55.5154 30.9585 55.5154 30.961C55.6048 31.2533 56.2792 33.6877 52.5625 37.4173V36.4244ZM54.1386 42.9639C53.8908 42.6111 53.6839 42.2406 53.5076 41.8652C53.5204 41.8526 53.5306 41.84 53.5383 41.8274C53.5562 41.8022 55.2702 39.2645 58.6549 38.6521C58.7239 38.8764 58.8516 39.1561 59.0483 39.4333C59.245 39.7131 59.5106 39.9852 59.8504 40.2095C57.2985 41.1495 55.4541 43.3822 54.9994 43.9719C54.6725 43.6619 54.3838 43.3167 54.1411 42.9614L54.1386 42.9639ZM67.7871 46.2676C67.0157 46.8699 66.1523 47.2479 65.4242 47.2983C64.9133 47.3336 64.3769 47.2278 63.8737 46.9959C63.5927 46.8699 63.3091 46.696 63.0332 46.4869C63 46.4617 62.8902 46.3533 62.811 46.2752C62.2976 45.7611 62.1392 45.62 61.8837 45.6528C59.2782 46.0156 57.1707 45.62 55.61 44.4809C56.0212 43.9492 58.2896 41.1595 61.2017 40.6505C61.2375 40.6505 61.2681 40.6606 61.3039 40.6606H61.9272C61.8326 40.8622 61.7509 41.0688 61.6819 41.2881C61.6181 41.4972 61.7356 41.7165 61.9476 41.7795C62.1571 41.8425 62.3793 41.724 62.4432 41.5174C62.7855 40.4086 63.5697 39.6047 64.5966 39.3174C65.0334 39.1939 65.5213 39.2973 65.8738 39.5921C66.4843 40.1087 66.5073 41.1092 66.3234 41.8752C66.1727 42.5002 65.8381 43.0496 65.3885 43.42C65.3348 43.4654 65.2786 43.5057 65.2275 43.5435C65.0564 43.6166 64.8929 43.6972 64.7498 43.7728C64.7115 43.793 64.6707 43.8182 64.6272 43.8409C64.5199 43.8736 64.4229 43.8837 64.3411 43.8736C64.2262 43.861 64.1393 43.8005 64.0601 43.6871C63.6259 43.0723 63.8558 42.3137 64.1215 41.7845C64.2236 41.5905 64.1419 41.3511 63.9477 41.2578C63.7511 41.1595 63.5109 41.2402 63.4113 41.4342C62.8876 42.4674 62.8851 43.4024 63.4062 44.1357C63.5416 44.3297 63.7127 44.4709 63.9069 44.5591C63.843 44.68 63.797 44.8085 63.7792 44.9471C63.7485 45.1765 63.7817 45.5217 64.124 45.8443C64.7524 46.439 65.7435 46.5448 66.0296 46.56C66.257 46.5751 66.4409 46.4113 66.4511 46.192C66.4665 45.9778 66.2979 45.7914 66.0782 45.7788C65.6465 45.751 65.0206 45.6024 64.6732 45.2773C64.5532 45.1614 64.5634 45.0858 64.5659 45.053C64.5838 44.9068 64.7473 44.7153 64.9644 44.5666C64.9644 44.5666 64.967 44.5666 64.967 44.5641C65.2071 44.4809 65.4293 44.3575 65.6082 44.2365C66.0731 44.0425 66.4716 43.9719 66.8573 44.0097C67.4397 44.0651 68.0221 44.4179 68.2725 44.8715C68.275 44.8741 68.2776 44.8766 68.2776 44.8791C68.6505 45.552 67.9404 46.1542 67.7948 46.2676H67.7871ZM69.4552 42.7673C69.4271 43.226 69.1691 43.6796 68.6914 44.1181C68.2597 43.6342 67.6006 43.294 66.9263 43.2285C66.8139 43.2184 66.7066 43.2134 66.6044 43.2159C66.8241 42.8706 66.9927 42.4775 67.0949 42.0592C67.1051 42.0113 67.1178 41.9483 67.1332 41.8752C68.1115 41.1974 68.8702 41.5527 69.1435 41.7316C69.2994 41.9609 69.4833 42.3314 69.4552 42.7673Z" fill="#FA5F2B"/>
</g>
<defs>
<clipPath id="clip0_4186_10537">
<rect width="85" height="56" fill="white"/>
</clipPath>
</defs>
</svg>
