<svg width="153" height="188" viewBox="0 0 153 188" fill="none" xmlns="http://www.w3.org/2000/svg">
<g clip-path="url(#clip0_4347_9505)">
<path d="M57.0992 3.4408C58.5581 3.85388 58.6005 3.08874 60.1111 2.94791C61.6218 2.80709 61.6265 2.8822 63.1372 2.74137C64.6478 2.60055 64.6478 2.61932 66.1632 2.51136C67.0197 2.51136 67.8903 2.63341 68.7563 2.6381C69.6222 2.64279 70.4834 2.48319 71.3493 2.50197C72.2152 2.52075 73.0812 2.47381 73.9424 2.52544C74.8036 2.57708 75.6319 3.02302 76.4884 3.1216C77.3449 3.22017 78.192 3.31406 79.0391 3.46896C79.8862 3.62387 80.818 3.4408 81.651 3.67081C82.4839 3.90082 83.2322 4.39371 84.0417 4.71291C84.9264 5.06497 85.6559 5.60949 86.4135 6.04604C87.2371 6.52484 88.0748 6.89568 88.7336 7.45897C89.4584 8.08329 89.9714 8.82966 90.4843 9.52909C91.0443 10.2942 91.6844 10.9843 91.9761 11.8104C92.2868 12.6882 92.1456 13.6177 92.1315 14.5189C92.1173 15.4202 92.2491 16.3497 91.8961 17.2275C91.5761 18.0255 90.7949 18.5935 90.1737 19.3445C89.6325 19.997 89.0207 20.5885 88.2442 21.1846C87.5665 21.701 86.8794 22.3581 86.0182 22.8135C86.3241 23.6021 86.663 24.4705 86.8371 25.3342C87.0112 26.198 86.8324 27.0617 86.8841 27.9301C86.9359 28.7985 87.4489 29.6716 87.3877 30.5306C87.3265 31.3897 86.8088 32.2299 86.6347 33.0561C86.4982 33.7086 86.1923 34.6051 85.8535 35.4829C85.4864 36.4312 84.9923 37.4028 85.0158 37.9943C85.0346 38.4309 85.717 39.1584 86.1029 39.9471C86.4559 40.67 86.5171 41.5243 86.6818 42.0219C86.9783 42.9091 87.1759 43.7681 87.3077 44.6741C87.4395 45.58 87.8536 46.486 87.8254 47.406C87.7971 48.3261 87.5712 49.2508 87.3877 50.1521C87.2042 51.0534 86.8136 51.8983 86.47 52.7573C86.1265 53.6164 86.0088 54.5974 85.5241 55.3861C85.0394 56.1747 84.3946 56.8741 83.7781 57.5688C83.1616 58.2636 82.5592 58.8409 81.8298 59.4277C82.451 60.1882 83.0863 60.85 83.5664 61.6668C84.0464 62.4836 84.5217 63.4036 84.8746 64.2955C85.2276 65.1874 85.1617 66.2436 85.3782 67.1824C85.5947 68.1212 85.6229 69.0742 85.6982 70.0364C85.7735 70.9987 86.0465 71.9517 85.9806 72.9186C85.9147 73.8856 85.6841 74.8245 85.4911 75.7727C85.2982 76.7209 85.2982 77.7254 84.9782 78.6455C84.6582 79.5655 84.2346 80.3495 83.8017 81.2226C84.4511 81.8891 84.7993 82.7388 85.4441 83.4711C86.0888 84.2033 86.983 84.6681 87.5665 85.4379C88.1501 86.2077 88.503 87.1184 89.0066 87.9258C89.5102 88.7332 90.0608 89.5359 90.4608 90.3949C90.8608 91.2539 91.002 92.2303 91.2561 93.141C91.5102 94.0516 91.8726 94.9576 91.9385 95.9058C92.0044 96.854 92.0373 97.8163 91.8726 98.7739C91.7173 99.6799 91.2467 100.534 90.8561 101.45C90.4937 102.304 90.0843 103.064 89.5949 103.75C89.0584 104.496 88.376 105.008 87.7171 105.557C87.0583 106.106 86.3571 106.623 85.5617 106.989C84.7664 107.355 83.9805 107.744 83.1004 107.899C82.2204 108.054 81.3639 108.148 80.465 108.111C79.5662 108.073 78.7567 107.801 77.8767 107.594C76.9966 107.388 76.1495 107.294 75.3118 106.946C74.3989 106.571 73.3682 106.364 72.4505 105.909C71.5328 105.454 70.7516 104.801 69.881 104.28C69.0104 103.759 68.0645 103.346 67.2456 102.759C66.4267 102.172 65.7255 101.393 64.9725 100.741C64.2196 100.088 63.5372 99.3795 62.8736 98.6425C61.603 99.5625 61.9606 99.8958 61.0477 101.163C60.1347 102.431 60.2806 102.543 59.3629 103.811C58.4452 105.078 58.1299 104.858 57.231 106.139C57.151 106.322 57.5228 106.458 57.5887 106.618C57.7722 107.036 57.9605 107.904 58.5017 108.594C58.9864 109.214 59.7723 109.66 60.0547 110.162C60.4876 110.941 60.8829 111.763 61.1794 112.57C61.4947 113.42 61.6971 114.316 61.8006 115.156C61.9136 116.053 61.8006 116.954 61.603 117.795C61.4053 118.635 60.8877 119.315 60.3088 120.048C59.81 120.677 59.1511 121.207 58.3228 121.728C58.2193 121.822 58.5205 121.958 58.5628 122.094C58.9723 122.883 59.4099 123.634 59.81 124.432C60.21 125.23 60.2006 126.221 60.5771 127.033C60.9535 127.845 61.6689 128.502 62.0171 129.323C62.3654 130.145 62.3936 131.093 62.6995 131.929C63.0054 132.764 63.6078 133.511 63.8619 134.365C64.116 135.219 63.9137 136.191 64.1066 137.064C64.2996 137.937 64.8643 138.763 64.9914 139.655C65.1184 140.547 65.3161 141.453 65.382 142.354C65.4479 143.256 65.4761 144.176 65.4855 145.077C65.4949 145.978 65.3255 146.889 65.2879 147.79C65.2502 148.691 65.3114 149.607 65.2314 150.508C65.1514 151.409 64.9067 152.292 64.7843 153.188C64.6619 154.085 64.6431 154.996 64.4925 155.887C64.3419 156.779 63.8666 157.61 63.6878 158.497C63.509 159.385 63.4384 160.291 63.2407 161.173C63.043 162.056 62.7372 162.91 62.5254 163.788C62.3136 164.665 62.0077 165.52 61.7865 166.393C61.5653 167.266 61.3489 168.266 61.123 169.134C61.8383 169.266 62.9019 169.331 63.8713 169.622C64.6667 169.862 65.4243 170.397 66.2856 170.735C67.095 171.054 68.0033 171.2 68.7939 171.603C69.5845 172.007 70.4081 172.425 71.1093 172.913C71.8811 173.453 72.4788 174.134 73.0059 174.763C73.6224 175.49 73.9941 176.26 74.1118 177.091C74.2718 178.25 74.3283 179.269 73.6318 180.217C73.1235 180.907 72.3329 181.344 71.4952 181.766C70.7516 182.142 69.9045 182.344 68.9868 182.541C68.1539 182.724 67.3068 183.109 66.3938 183.17C65.4808 183.231 64.6196 182.963 63.7301 182.94C62.8407 182.916 61.9465 182.874 61.0853 182.79C60.1582 182.7 59.2123 182.987 58.3934 182.86C57.4051 182.7 56.6004 182.09 55.8662 181.916C55.0568 181.724 54.125 181.916 53.3155 181.654C52.5061 181.391 51.8896 180.672 51.1131 180.349C50.3366 180.025 49.5554 179.734 48.8118 179.353C48.0682 178.973 47.2776 178.63 46.5717 178.194C46.4352 178.142 46.3129 178.142 46.2234 178.255C45.7575 179.142 45.3293 179.626 44.3034 179.579C43.7998 179.555 42.6233 179.288 41.4703 179.011C40.3173 178.734 39.2867 178.17 38.7878 177.987C37.616 177.556 36.9101 176.8 36.7971 175.697C36.6889 174.673 36.8301 173.486 36.8583 172.476C36.8724 171.941 37.4889 171.19 37.5736 170.439C37.663 169.632 37.4089 168.881 36.9665 168.482C36.4253 167.994 35.2441 167.942 35.4041 166.853C35.5077 165.947 35.9689 165.074 36.11 164.14C36.2512 163.206 36.2983 162.3 36.4536 161.375C36.6089 160.45 36.7595 159.549 36.9148 158.629C37.0701 157.709 37.056 156.775 37.1971 155.855C37.3383 154.935 37.3572 154.005 37.4701 153.085C37.583 152.165 37.7289 151.25 37.8089 150.325C37.8889 149.4 38.256 148.485 38.2795 147.56C38.3031 146.635 38.3454 145.682 38.3031 144.762C38.2607 143.842 38.2607 142.875 38.129 141.96C37.9972 141.045 37.3666 140.214 37.1313 139.317C36.896 138.421 36.6089 137.566 36.2465 136.703C35.8841 135.839 35.8418 134.839 35.3571 134.032C34.8723 133.224 34.3923 132.651 33.7852 131.914C33.4323 133.238 33.404 133.234 33.437 134.6C33.4699 135.966 33.9076 135.956 33.9452 137.327C33.9829 138.698 33.7005 138.702 33.6958 140.073C33.6064 140.946 33.3617 141.8 33.2723 142.692C33.1828 143.584 33.484 144.485 33.3946 145.373C33.3052 146.26 33.0793 147.119 32.9805 148.001C32.8817 148.884 32.9475 149.78 32.844 150.663C32.7405 151.545 32.3546 152.386 32.2369 153.268C32.1193 154.151 32.2934 155.066 32.1616 155.944C32.0298 156.822 31.8228 157.69 31.6722 158.563C31.5216 159.436 31.2345 160.291 31.0651 161.159C30.8957 162.027 30.9663 162.961 30.7686 163.821C30.571 164.68 30.0109 165.468 29.7803 166.318C29.5497 167.167 29.6109 168.125 29.3521 168.965C28.9521 170.247 28.6368 170.852 28.2556 171.176C27.8508 171.519 27.1684 171.538 25.9496 171.988C25.7331 172.068 25.3048 171.97 25.3378 172.242C26.119 172.533 27.0131 172.89 27.9873 173.34C28.8203 173.73 29.658 174.274 30.5239 174.772C31.3898 175.27 32.2087 175.767 32.9758 176.344C33.7429 176.922 34.4347 177.687 35.0512 178.382C35.7241 179.142 36.0959 180.015 36.4206 180.879C36.7454 181.743 36.9854 182.653 36.7971 183.649C36.6089 184.644 36.1665 185.536 35.31 186.075C34.557 186.55 33.5311 186.77 32.5381 186.995C31.6016 187.207 30.6133 187.507 29.6815 187.568C28.5756 187.639 27.5449 187.155 26.7967 187.127C25.9496 187.094 25.046 187.493 24.1707 187.38C23.2953 187.268 22.5424 186.681 21.6905 186.488C20.8387 186.296 20.0246 186.089 19.201 185.822C18.3775 185.554 17.5539 185.301 16.7727 184.958C15.9915 184.616 15.022 184.531 14.2973 184.09C13.6949 183.724 11.5771 181.475 11.3324 181.424C10.9183 181.334 10.3253 182.329 9.71352 182.433C9.20056 182.517 8.19345 182.175 7.04987 181.959C6.18866 181.794 5.2992 181.503 4.47093 181.24C3.34617 180.884 2.3673 180.654 2.03317 180.25C1.64256 179.776 1.34608 178.861 1.30372 177.894C1.26137 176.927 1.21901 175.997 1.25666 175.387C1.30372 174.622 1.72727 173.894 1.85904 173.134C1.99082 172.373 2.31083 171.655 2.44731 170.899C2.58378 170.144 2.56496 169.336 2.63084 168.576C2.55084 168.252 0.00484095 167.904 -0.00927734 166.261C0.183673 165.327 0.578985 164.435 0.786053 163.506C0.993122 162.577 0.974297 161.596 1.18607 160.661C1.39785 159.727 1.64256 158.807 1.85904 157.878C2.07552 156.948 2.43789 156.052 2.64026 155.118C2.84262 154.183 2.71555 153.184 2.9038 152.249C3.09204 151.315 3.54853 150.428 3.70854 149.489C3.86855 148.551 3.9109 147.588 4.03797 146.645C4.16503 145.701 4.24974 144.753 4.33445 143.8C4.41916 142.847 4.26857 141.983 4.27327 141.115C4.27327 140.19 4.48034 139.298 4.40975 138.43C4.33916 137.562 4.28739 136.623 4.15562 135.75C4.02385 134.877 4.02385 133.942 3.84972 133.065C3.6756 132.187 3.09675 131.398 2.89909 130.516C2.70144 129.633 2.72967 128.732 2.53672 127.845C2.34377 126.958 2.02846 126.141 1.86375 125.239C1.69904 124.338 1.77904 123.465 1.65668 122.554C1.53432 121.644 1.45903 120.705 1.39314 119.771C1.32725 118.837 1.20019 117.912 1.20019 116.978C1.20019 116.044 0.884882 115.086 0.950767 114.152C1.01665 113.218 1.29902 112.293 1.43079 111.368C1.56256 110.444 1.9014 109.552 2.11317 108.641C2.32495 107.73 2.58849 106.838 2.87556 105.947C3.16263 105.055 3.61913 104.247 3.9862 103.384C4.35328 102.52 4.41916 101.586 4.87095 100.76C4.28269 99.985 3.74619 99.2574 3.29911 98.4594C2.8285 97.6192 2.38142 96.7648 2.06141 95.8964C1.74139 95.028 1.44491 94.0798 1.25196 93.1644C1.05901 92.2491 0.950767 91.2821 0.884882 90.3386C0.818996 89.3951 1.06842 88.4609 1.12489 87.508C1.18137 86.5551 1.24725 85.6491 1.39785 84.7056C1.54844 83.7621 1.45432 82.7998 1.68492 81.8751C1.91552 80.9503 2.51319 80.1523 2.80026 79.251C3.08734 78.3498 3.31323 77.4438 3.65677 76.5613C4.00032 75.6788 4.5227 74.8949 4.92272 74.0359C5.32273 73.1768 5.57216 72.2615 6.02394 71.4353C6.47573 70.6091 6.75809 69.6703 7.26165 68.877C7.7652 68.0837 8.54641 67.4641 9.10173 66.7036C9.65705 65.9432 10.2641 65.225 10.8712 64.5068C11.4783 63.7886 12.0101 62.9906 12.669 62.324C13.3278 61.6574 13.9396 60.9017 14.6502 60.2867C15.3608 59.6718 16.2879 59.3057 17.0503 58.7565C17.8127 58.2072 18.6457 57.7707 19.4552 57.2919C20.2646 56.8131 21.074 56.3531 21.9306 55.9541C22.7871 55.5551 23.5306 54.8932 24.4295 54.5834C25.3284 54.2736 26.3072 54.4238 27.2014 54.2031C28.0955 53.9825 28.9144 53.3535 29.8227 53.208C30.731 53.0625 31.691 53.208 32.6087 53.1235C33.5264 53.039 34.4488 53.1 35.3759 53.0719C36.303 53.0437 37.2913 52.9076 38.2137 52.917C38.7831 51.551 38.2607 51.4101 38.4113 49.9409C38.5619 48.4716 38.9808 48.4622 38.7784 46.9977C38.0066 46.5517 37.423 45.857 36.7595 45.2984C36.0959 44.7398 35.3288 44.2797 34.7735 43.6132C34.2182 42.9466 33.5358 42.3223 33.1028 41.5665C32.6699 40.8108 32.3734 39.9518 32.0722 39.1303C31.771 38.3088 31.8228 37.3982 31.6675 36.5344C31.5122 35.6707 31.3004 34.8398 31.291 33.962C31.2816 33.0842 31.2298 32.2111 31.3663 31.3427C31.5028 30.4743 31.9357 29.7045 32.2275 28.8689C32.5193 28.0334 32.844 27.1462 33.2723 26.3669C32.4016 25.691 31.5075 24.954 30.731 24.2452C29.9545 23.5364 29.3474 22.8416 29.0179 21.701C28.7168 20.6495 28.552 19.72 28.665 18.7718C28.7921 17.7579 29.1356 16.8519 29.625 15.96C30.1145 15.0682 30.7498 14.35 31.451 13.5989C32.1522 12.8478 32.7828 12.078 33.5829 11.4631C34.3829 10.8481 35.1453 10.3271 35.9689 9.82482C36.7924 9.32254 37.5972 8.77333 38.4678 8.35086C39.3384 7.92839 40.3126 7.75471 41.2114 7.40265C42.1103 7.05059 42.9245 6.45912 43.8469 6.16339C44.7693 5.86766 45.7199 5.66582 46.6517 5.41703C47.5835 5.16824 48.5859 5.19171 49.5271 4.97578C50.4683 4.75985 51.4425 4.53453 52.379 4.34207C52.812 4.02756 52.3084 2.26257 52.7461 1.21578C53.0708 0.441247 54.0309 -0.230014 55.5415 0.112658C56.751 0.389612 57.2122 2.36115 57.0804 3.45957L57.0992 3.4408ZM79.985 56.1465C80.6721 55.5222 81.1145 54.6303 81.651 53.7619C82.1545 52.9498 82.6392 52.1143 82.9828 51.1895C83.3263 50.2648 83.6275 49.3353 83.7875 48.3918C83.957 47.3826 84.1405 46.3921 84.0652 45.4814C83.9711 44.3736 83.5146 43.5146 83.1569 42.6603C82.7993 41.8059 82.2675 40.9328 81.9522 39.933C81.4957 38.4919 81.9051 37.5671 82.1498 36.6846C82.3945 35.8021 82.851 34.8821 83.1946 33.549C83.3969 32.7557 83.171 31.8591 83.2746 31.0141C83.3781 30.1692 83.6464 29.3712 83.6228 28.5356C83.5993 27.7001 83.6793 26.8176 83.5099 26.0055C83.3405 25.1934 82.8934 24.4142 82.5404 23.6631C81.6792 23.5833 80.8227 23.3815 79.9615 23.3298C79.1003 23.2782 78.2249 23.4754 77.359 23.4425C76.4931 23.4096 75.6413 23.0904 74.7754 23.0717C73.9094 23.0529 73.0435 23.3627 72.1776 23.3486C71.3117 23.3345 70.4552 22.9496 69.5892 22.9402C68.7233 22.9308 67.8668 22.9214 67.0009 22.9074C66.5067 22.898 66.0502 22.8604 65.5561 22.851C64.7467 22.837 63.9372 22.9355 63.1278 22.9308C62.3183 22.9261 61.5089 22.6445 60.6994 22.6539C59.89 22.6633 59.0899 23.1937 58.2805 23.2172C57.471 23.2406 56.638 22.8651 55.8286 22.8933C55.5933 22.9919 55.3297 23.2125 55.165 23.4002C54.8309 23.7758 54.4074 24.9399 54.1909 26.1322C53.9932 27.2119 54.1532 28.3948 53.9697 29.0003C53.7861 29.6059 53.1649 30.2865 52.7555 31.1409C52.412 31.8544 52.0214 32.5538 51.546 33.2204C51.0425 33.9292 50.7366 34.7882 50.1107 35.206C49.3954 35.6801 48.5483 35.7881 47.72 35.5299C45.9646 34.9854 46.9482 33.2391 46.8258 31.9764C46.7223 30.9249 46.0305 30.202 45.4281 29.5402C44.7881 28.8314 44.0492 28.3103 43.1127 28.0756C42.1762 27.8409 41.2679 27.8831 40.3314 28.1272C39.3949 28.3713 38.7078 28.8689 38.0113 29.5683C37.3148 30.2678 36.896 31.0235 36.5806 31.9436C36.2653 32.8636 35.7759 33.732 35.7994 34.7225C35.823 35.713 35.8841 36.7128 36.1759 37.6469C36.4677 38.5811 37.1407 39.3744 37.6772 40.1724C38.2137 40.9704 38.8207 41.7825 39.5925 42.3505C40.3643 42.9184 41.3338 43.0781 42.308 43.2611C43.0421 43.4019 43.9645 43.4348 44.581 43.7071C45.1552 43.9605 45.2305 44.5849 44.9575 45.7866C44.7222 46.824 44.3363 47.1995 43.7057 47.345C43.0751 47.4905 42.3739 47.4295 42.1291 48.4622C41.9221 49.3353 41.8938 50.2929 41.8562 51.274C41.8232 52.1941 41.6397 53.161 41.7385 54.114C41.8374 55.0669 42.1856 55.9634 42.3974 56.8835C42.6092 57.8035 42.9527 58.7048 43.2727 59.5685C43.6163 60.4933 43.8186 61.4556 44.2657 62.2301C44.7128 63.0046 45.2587 63.7228 45.8799 64.4504C46.4587 65.117 47.0188 65.8915 47.7247 66.4971C48.4306 67.1026 49.2118 67.6002 49.9836 68.0884C50.7554 68.5766 51.6543 68.8911 52.4826 69.2384C53.3108 69.5858 54.2285 69.8393 55.1039 70.0036C55.9792 70.1679 56.9486 70.3885 57.8428 70.2993C58.737 70.2101 59.6029 69.8064 60.4453 69.4027C60.6288 69.3136 61.7065 69.0131 61.3865 68.6939C60.8171 68.586 59.9888 68.1541 58.9487 67.7973C58.1675 67.5298 57.2451 67.3561 56.4263 66.9947C55.6074 66.6332 54.8403 66.0464 54.1579 65.6193C53.212 65.0231 52.4873 64.3753 52.3225 63.7604C52.0261 62.6291 52.699 61.2772 53.8991 61.1552C54.4685 61.0988 55.6686 61.4931 56.7557 62.1081C57.7534 62.6714 58.5911 63.6102 59.2123 63.859C59.9135 64.1406 60.7606 64.0749 61.5418 64.2533C62.323 64.4317 63.0289 64.9386 63.8054 64.9903C64.5819 65.0419 65.3914 64.6804 66.1444 64.5772C66.8973 64.4739 67.2409 63.9904 67.6315 63.3379C67.9939 62.7371 68.3468 62.0517 68.7986 61.5354C69.161 61.1223 69.9281 60.5966 70.7516 60.0004C71.4011 59.531 72.2199 59.2071 72.907 58.794C73.7777 58.2683 74.5683 57.9021 75.086 57.7425C76.126 57.4186 76.8366 57.1276 77.6084 57.0478C78.3332 56.9727 79.0909 56.9727 79.985 56.1606V56.1465ZM38.3454 56.8506C37.9878 56.5361 36.7783 56.6816 35.3806 56.7661C34.4253 56.8225 33.3711 56.8647 32.4016 56.9962C31.1075 57.1698 29.9686 57.32 29.4462 57.428C28.5426 57.6205 27.6296 57.7237 26.7731 57.996C25.9166 58.2683 25.1025 58.7471 24.2789 59.1038C23.4553 59.4606 22.6694 59.9394 21.8835 60.3806C21.0976 60.8219 20.114 60.9956 19.3704 61.5166C18.6269 62.0377 17.9116 62.6338 17.2198 63.2206C16.528 63.8073 16.1374 64.718 15.502 65.3658C14.8667 66.0136 14.0996 66.5346 13.5208 67.2388C12.9419 67.9429 12.2548 68.5625 11.7324 69.3136C11.2101 70.0646 10.8759 70.9236 10.4053 71.7076C9.93471 72.4915 9.3841 73.2191 8.96996 74.0312C8.55582 74.8432 8.3817 75.6647 8.02403 76.505C8.93231 76.4909 9.73706 76.7725 10.6453 76.8429C11.5536 76.9134 12.4901 76.7115 13.3843 76.8664C14.2784 77.0213 15.0785 77.5893 15.9538 77.824C16.8291 78.0587 17.6715 78.3263 18.5233 78.6455C19.3751 78.9647 20.2599 79.1572 21.0788 79.5515C21.8976 79.9458 22.74 80.2837 23.5165 80.7578C24.293 81.232 24.8719 81.9689 25.5966 82.5135C26.3213 83.058 27.1967 83.1706 27.8602 83.7903C28.2979 83.2551 28.8344 82.6261 29.3144 81.6591C29.7427 80.7954 30.1474 79.8988 30.7121 79.2745C31.3851 78.5234 32.0298 78.3075 33.0511 78.7628C34.1711 79.2651 34.2276 80.3119 33.7429 81.5652C33.2864 82.7482 32.204 83.7903 31.8557 84.4005C31.611 84.8277 30.8957 85.8745 30.218 86.9306C29.4791 88.0854 29.1074 89.3387 29.1356 89.6861C29.5403 90.5029 29.8556 91.3713 30.3074 92.1834C30.7592 92.9955 31.1263 93.8592 31.6439 94.6196C32.1616 95.3801 32.9899 95.9152 33.6064 96.5959C34.4205 97.4924 35.0794 98.1731 35.8136 98.6096C36.7783 99.1823 37.6772 99.3795 38.6513 99.4734C39.6255 99.5672 40.562 99.3982 41.6679 99.3607C42.5856 99.3278 43.6116 99.2903 44.7316 99.3748C45.6728 99.4452 46.5435 99.9662 47.4376 100.187C48.3318 100.407 49.1648 100.806 50.0213 101.168C50.8778 101.529 51.819 101.698 52.6237 102.172C53.4285 102.647 54.1768 103.247 54.9297 103.801C55.4568 103.102 55.7862 102.219 56.2898 101.501C56.7933 100.783 57.3298 100.102 57.8099 99.3654C58.2899 98.6284 59.0523 98.0745 59.4994 97.3234C59.9464 96.5724 60.0359 95.6148 60.4547 94.8496C60.8735 94.0845 61.4853 93.4132 61.8759 92.6293C62.1159 92.1458 62.5489 91.1178 63.0336 90.132C63.5513 89.0852 64.2431 88.0948 64.3184 87.6582C64.4313 87.0057 63.3066 85.4801 63.1748 84.5179C63.0431 83.5556 62.9819 82.8327 63.0713 82.213C63.1936 81.3634 63.6784 80.7813 63.9654 80.0913C64.2243 79.4623 64.4878 78.7769 64.6619 77.885C64.8361 76.9932 64.6525 75.9698 64.1866 75.1718C63.7207 74.3738 62.9489 73.604 62.483 72.9046C61.5983 73.2378 60.657 73.6228 59.777 73.7918C58.897 73.9607 57.9463 74.0875 57.0428 74.0922C56.1392 74.0969 55.2262 73.8622 54.3273 73.7073C53.4285 73.5524 52.5014 73.4819 51.6308 73.1768C50.7601 72.8717 49.8095 72.7121 48.9953 72.2756C48.1812 71.839 47.4988 71.1724 46.7552 70.6279C46.0117 70.0834 45.1928 69.6093 44.5292 68.9709C43.8657 68.3325 43.3715 67.5251 42.7927 66.8069C42.2138 66.0887 41.6679 65.3517 41.1832 64.5678C40.6985 63.7839 40.2702 62.9671 39.8843 62.1362C39.4984 61.3054 38.9949 60.4933 38.7219 59.6155C38.449 58.7377 38.4913 57.7613 38.3454 56.8553V56.8506ZM75.3636 75.6366C74.4789 76.3782 73.6412 76.2749 73.0153 75.5943C72.5117 75.0451 72.1211 74.1438 71.7446 73.3223C71.3211 72.4023 71.0152 71.4822 70.6999 70.9941C70.2104 70.2383 69.6222 69.2948 68.8598 68.8535C68.0974 68.4123 67.2127 68.5015 66.3373 69.4403C65.5043 70.3322 65.9232 71.3226 66.5397 72.4492C67.1091 73.4866 67.575 74.6836 67.928 75.5286C68.3704 76.5942 68.3139 77.4015 68.0456 78.3122C67.7774 79.2229 67.688 80.2462 67.3727 81.2179C67.0856 82.1051 66.7091 83.0016 66.9303 84.1001C67.1091 84.9685 67.4574 85.6867 68.008 86.1561C68.5915 86.6584 69.4057 86.9025 69.9704 87.386C70.5352 87.8695 70.8316 88.4562 70.9305 89.3528C71.0387 90.3151 71.2646 91.2492 71.2646 92.2209C71.2646 93.1926 70.9869 94.1314 71.1422 95.1266C71.2975 96.1217 71.8482 96.9855 72.1541 97.8163C72.5023 98.7739 72.6105 99.8066 73.1141 100.544C73.6835 101.374 74.3895 102.126 75.1001 102.684C75.8766 103.299 76.846 103.637 77.7167 103.947C78.6344 104.271 79.6132 104.332 80.545 104.341C81.4768 104.351 82.5498 104.468 83.4393 104.158C84.3287 103.848 84.9358 102.928 85.6559 102.313C86.3759 101.698 87.2606 101.21 87.6936 100.332C88.0889 99.525 88.296 98.5533 88.3713 97.5347C88.4372 96.6616 88.5219 95.657 88.3007 94.6431C88.1124 93.7888 87.4912 92.9767 87.0677 92.0332C86.7806 91.3901 86.6865 90.5357 86.2488 89.8504C85.8394 89.212 85.3782 88.5548 84.917 87.9493C84.4276 87.3015 83.6416 86.9165 83.1804 86.3861C82.7193 85.8557 81.9804 85.0718 81.2321 84.3207C80.4462 83.5321 79.8768 82.6871 79.7873 81.9877C79.712 81.3775 79.825 80.1101 80.3191 78.8802C80.7709 77.7489 81.3592 76.6505 81.5521 75.9511C81.7874 75.0873 81.9239 74.2142 82.0369 73.327C82.1498 72.4398 82.0839 71.562 82.0604 70.6702C82.0369 69.7783 81.9192 68.9286 81.7357 68.0508C81.5521 67.173 81.6463 66.2201 81.2933 65.394C80.9403 64.5678 80.5874 63.7181 80.0556 62.9718C79.4673 62.1409 78.6767 61.6527 77.9802 61.3101C77.2837 60.9674 76.4413 60.9111 75.4013 61.3899C75.5989 62.5822 76.3472 62.2207 77.0672 63.1924C77.7873 64.1641 77.7637 64.1876 78.4555 65.178C78.7285 65.6803 78.865 66.7036 79.2885 67.6612C79.632 68.4451 80.3333 69.168 80.5356 69.9613C80.7992 70.9987 80.6297 71.9563 80.225 72.4915C79.6462 73.2566 78.3849 73.1111 77.8061 72.4305C77.4531 72.0174 77.279 70.8673 76.9072 69.7689C76.5731 68.7831 76.0601 67.8349 75.7354 67.2106C75.5001 66.7599 74.9777 66.0042 74.4365 65.2813C73.8953 64.5584 73.34 63.6806 72.8176 63.582C71.7917 63.3943 70.5116 64.9856 70.8693 65.7789C71.0717 66.2248 72.6388 68.0274 73.1188 68.7315C73.4247 69.1821 73.9941 69.9567 74.4883 70.9049C74.8883 71.6747 75.3919 72.4445 75.613 73.2238C75.9095 74.2612 75.9378 75.1484 75.3683 75.6272L75.3636 75.6366ZM44.6045 121.076C45.734 120.902 46.3458 120.212 46.8211 119.447C47.2964 118.682 47.5412 117.785 47.5553 116.771C47.5694 115.757 47.4564 114.809 47.2117 113.941C47.0047 113.199 46.6752 112.335 46.3411 111.514C45.9881 110.65 45.6117 109.777 45.9411 109.007C46.2282 108.336 47.127 107.89 47.8235 108.031C48.2753 108.125 48.84 109.11 49.6448 109.988C50.2142 110.608 50.8213 111.298 51.3484 111.969C52.0449 112.861 52.9485 113.462 53.2073 113.88C53.5085 114.373 53.7061 115.429 54.1768 116.339C54.6191 117.194 55.0286 118.175 55.5839 118.602C56.2286 119.095 57.0663 118.898 57.8287 117.705C58.2805 117.001 58.464 116.105 58.2899 115.199C58.1346 114.401 57.5793 113.64 57.1934 112.866C56.7745 112.025 56.5439 111.096 56.1486 110.505C55.6262 109.725 54.8356 109.204 54.2897 108.561C53.6873 107.848 53.3249 106.946 52.6802 106.393C51.9884 105.801 51.2166 105.271 50.4495 104.843C49.6824 104.416 48.7742 104.214 47.9035 103.937C47.0894 103.679 46.1999 103.585 45.2775 103.44C44.4445 103.313 43.5739 102.942 42.6374 102.895C41.6397 102.848 40.6797 103.426 39.7479 103.468C38.816 103.51 37.8231 103.144 36.8724 103.022C35.9218 102.9 35.0841 102.722 34.1664 102.21C33.6111 101.9 33.0417 101.234 32.284 100.497C31.7192 99.9475 30.8816 99.5391 30.2792 98.8443C29.7286 98.2106 29.4509 97.3187 28.9285 96.624C28.4062 95.9293 27.912 95.2205 27.4602 94.5164C26.9614 93.7371 26.2131 93.1597 25.8743 92.4556C25.4131 91.5027 25.2389 90.6014 25.2201 89.9583C25.1966 88.9726 25.719 88.4797 25.879 87.968C26.039 87.4564 25.7001 87.0996 24.7825 86.2641C24.1095 85.6491 23.4365 85.006 22.6224 84.4803C21.8082 83.9546 21.0129 83.5602 20.1469 83.1425C19.281 82.7247 18.4104 82.49 17.5115 82.1708C16.6127 81.8516 15.7373 81.6075 14.8196 81.3822C13.902 81.1568 13.0454 80.6029 12.123 80.4668C11.2007 80.3307 10.2218 80.1288 9.29939 80.096C8.32523 80.0584 7.40283 80.3448 6.49926 80.4293C6.13689 81.3164 5.74158 82.1849 5.48274 83.1378C5.22391 84.0907 5.2992 85.0718 5.16273 86.0387C5.02625 87.0057 4.89448 87.9446 4.89918 88.9162C4.90389 89.8879 4.62623 90.9019 4.79094 91.8548C4.95566 92.8077 5.58628 93.6573 5.93453 94.5633C6.24042 95.3613 6.43808 96.2344 6.93693 97.0042C7.40283 97.7224 8.01933 98.3702 8.617 99.0509C9.21468 99.7315 9.65235 100.497 10.3112 101.107C10.9701 101.717 11.756 102.144 12.4478 102.703C13.1396 103.262 13.8972 103.736 14.6126 104.238C15.3279 104.74 15.9726 105.435 16.7021 105.89C17.4927 106.383 18.2739 106.824 18.9987 107.228C19.5446 107.533 20.3964 108.087 21.3847 108.547C22.1941 108.927 23.0788 109.27 23.8412 109.683C24.8719 110.237 25.7754 110.655 26.0719 111.134C26.6555 112.086 27.0226 112.828 27.4979 113.518C27.945 114.166 28.4297 114.894 29.4509 115.523C30.6039 116.236 31.6157 116.353 32.5287 116.494C33.5076 116.644 34.5288 116.414 35.7618 116.682C36.9948 116.95 37.376 118.752 36.4159 119.621C35.7053 120.264 34.6417 120.409 33.8276 120.602C33.0134 120.794 32.444 120.996 32.8111 122.54C33.0605 123.596 34.2982 123.841 35.663 123.765C36.9477 123.7 38.289 123.324 38.9478 122.953C40.0114 122.357 40.4396 121.639 40.7738 120.832C41.1079 120.024 41.5032 119.156 41.4232 118.001C41.3715 117.255 40.6514 115.973 40.5385 114.776C40.4161 113.514 40.8303 112.561 42.0915 112.335C42.9904 112.171 43.668 112.504 44.0398 113.452C44.3128 114.138 44.4869 115.044 44.5857 115.959C44.6751 116.809 44.6798 117.705 44.694 118.503C44.7128 119.606 44.5716 120.597 44.5998 121.076H44.6045ZM68.6104 99.2152C68.4315 98.3608 67.9939 97.5112 67.7962 96.6146C67.5986 95.7181 67.4997 94.7933 67.4338 93.9202C67.3444 92.7561 67.655 91.2727 67.4715 90.1931C67.4291 89.949 67.335 89.6438 67.0526 89.611C66.9115 90.2353 66.4832 91.2633 65.9467 92.2021C65.4102 93.141 64.949 94.1173 64.9867 94.7182C65.0149 95.1735 65.4196 96.3987 66.2338 97.3845C67.1797 98.5345 68.4362 99.4264 68.6104 99.2105V99.2152Z" fill="#212121"/>
<path d="M132.585 138.876C133.559 139.035 134.764 138.754 135.738 138.923C136.712 139.092 137.663 139.42 138.632 139.618C139.602 139.815 140.609 139.871 141.569 140.106C142.529 140.34 143.404 140.904 144.35 141.199C145.155 141.448 146.12 141.476 146.986 141.819C147.852 142.162 148.515 142.814 149.278 143.26C150.04 143.706 150.901 144.133 151.494 144.758C152.12 145.415 152.435 146.241 152.685 147.114C152.911 147.898 152.812 148.691 152.61 149.682C152.44 150.508 152.351 151.198 151.908 151.733C151.433 152.306 150.873 152.78 150.624 153.512C150.374 154.244 150.172 155.057 149.974 155.906C149.791 156.695 149.433 157.474 149.273 158.3C149.113 159.126 148.958 159.938 148.802 160.736C148.638 161.581 148.722 162.455 148.534 163.22C148.313 164.112 147.824 164.952 147.602 165.867C147.381 166.783 147.202 167.684 146.981 168.59C146.76 169.496 146.873 170.486 146.638 171.383C146.402 172.279 145.842 173.101 145.588 173.993C145.334 174.885 145.08 175.791 144.793 176.664C144.506 177.537 144.214 178.321 143.922 179.011C143.56 179.87 143.306 180.658 142.868 181.287C142.374 181.987 141.856 182.649 141.164 183.16C140.548 183.616 139.776 183.958 138.924 184.343C138.237 184.653 137.531 185.16 136.646 185.465C135.823 185.752 134.868 185.869 133.917 186.113C133.056 186.334 132.133 186.498 131.187 186.686C130.307 186.859 129.399 187.122 128.458 187.263C127.564 187.394 126.59 187.132 125.648 187.235C124.707 187.338 123.846 187.723 122.909 187.798C121.973 187.873 121.065 187.953 120.128 188C119.192 188.047 118.269 187.798 117.337 187.817C116.406 187.836 115.488 187.836 114.556 187.826C113.624 187.817 112.702 187.793 111.775 187.761C110.848 187.728 109.911 187.812 108.989 187.751C108.066 187.69 107.13 187.624 106.212 187.535C105.294 187.446 104.32 187.592 103.412 187.474C102.504 187.357 101.572 187.066 100.673 186.911C99.7742 186.756 98.8377 186.488 97.953 186.296C97.0211 186.094 96.0752 186.014 95.2093 185.77C94.2822 185.512 93.4398 185.076 92.6021 184.77C91.6844 184.437 90.8138 184.113 90.0232 183.724C89.0349 183.231 88.1266 182.822 87.4301 182.259C86.6442 181.621 85.9948 180.856 85.4865 179.987C85.0347 179.217 84.8935 178.222 84.5735 177.166C84.3194 176.316 83.9805 175.476 83.7641 174.584C83.5476 173.692 83.1852 172.871 83.0064 171.979C82.8276 171.087 83.0534 170.139 82.8934 169.247C82.7334 168.355 82.2346 167.534 82.084 166.642C81.9334 165.75 81.9052 164.839 81.7546 163.952C81.604 163.065 81.5475 162.149 81.3828 161.267C81.2181 160.384 80.8933 159.516 80.7051 158.643C80.5169 157.77 80.4698 156.831 80.2439 155.972C80.018 155.113 79.3968 154.329 79.1144 153.493C78.6956 152.249 78.0885 151.531 77.5897 150.315C77.1708 149.287 77.0814 148.475 77.1802 147.64C77.2979 146.668 77.6273 145.917 78.2485 145.171C78.8321 144.471 79.4486 143.762 80.291 143.237C81.0863 142.739 81.9287 142.242 82.804 141.875C83.7264 141.486 84.6818 141.251 85.5241 140.979C86.4136 140.688 87.3031 140.406 88.2113 140.19C89.1196 139.974 90.0279 139.754 90.9503 139.585C91.8727 139.416 92.7527 139.021 93.6751 138.871C94.5975 138.721 95.5905 138.862 96.5129 138.707C96.527 137.777 96.607 136.825 96.6682 135.886C96.7294 134.947 96.6211 134.008 96.7294 133.074C96.8376 132.14 97.1529 131.243 97.3176 130.328C97.4823 129.413 97.6424 128.488 97.8777 127.582C98.113 126.676 98.3247 125.765 98.6353 124.883C98.9459 124 99.3318 123.146 99.7272 122.301C100.122 121.456 100.447 120.564 100.927 119.761C101.435 118.912 102.16 118.259 102.72 117.541C103.332 116.762 103.704 115.804 104.372 115.18C105.092 114.504 105.869 113.884 106.64 113.382C107.464 112.847 108.485 112.725 109.351 112.392C110.217 112.058 111.144 111.744 112.076 111.617C113.008 111.49 113.968 111.411 114.918 111.504C115.869 111.598 116.74 111.936 117.662 112.246C118.584 112.556 119.582 112.57 120.434 113.058C121.234 113.514 121.738 114.457 122.5 115.086C123.206 115.668 123.898 116.283 124.557 117.015C125.173 117.696 125.714 118.442 126.284 119.25C126.783 119.959 127.479 120.536 127.907 121.287C128.336 122.038 128.933 122.723 129.296 123.512C129.658 124.301 129.78 125.197 130.081 126.014C130.383 126.831 130.792 127.61 131.042 128.441C131.291 129.272 131.263 130.178 131.46 131.023C131.658 131.868 131.79 132.722 131.95 133.572C132.11 134.421 132.143 135.29 132.26 136.149C132.378 137.008 132.519 138.036 132.604 138.89L132.585 138.876ZM128.679 153.08C128.754 152.156 128.481 150.954 128.538 150.01C128.594 149.067 128.801 148.156 128.839 147.213C128.877 146.269 128.74 145.34 128.75 144.401C128.759 143.462 129.056 142.523 129.027 141.584C128.999 140.646 128.67 139.726 128.599 138.791C128.528 137.857 128.745 136.89 128.618 135.961C128.491 135.031 128.185 134.125 128.001 133.205C127.818 132.285 127.776 131.323 127.526 130.422C127.277 129.52 127.112 128.563 126.783 127.685C126.453 126.807 125.757 126.075 125.347 125.225C124.938 124.376 124.561 123.526 124.067 122.723C123.573 121.921 123.055 121.212 122.519 120.536C121.94 119.808 121.474 119.006 120.843 118.419C120.161 117.78 119.432 117.208 118.702 116.752C117.912 116.26 116.984 116.105 116.156 115.846C115.286 115.57 114.424 115.156 113.535 115.166C112.645 115.175 111.728 115.377 110.852 115.687C110.052 115.973 109.426 116.691 108.65 117.245C107.968 117.729 107.092 118.076 106.438 118.78C105.869 119.395 105.323 120.123 104.782 120.911C104.287 121.63 103.831 122.385 103.436 123.151C103.04 123.916 102.819 124.779 102.504 125.587C102.188 126.394 102.005 127.239 101.77 128.07C101.534 128.901 101.252 129.718 101.073 130.567C100.894 131.417 100.97 132.299 100.842 133.154C100.715 134.008 100.457 134.844 100.367 135.703C100.278 136.562 100.113 137.355 100.047 138.214C101.473 138.538 101.53 138.458 102.885 137.914C102.927 136.923 103.276 136.111 103.384 135.121C103.492 134.13 103.332 133.102 103.52 132.126C103.709 131.149 103.911 130.159 104.189 129.201C104.466 128.244 105.05 127.394 105.431 126.474C105.812 125.554 106.24 124.676 106.739 123.812C107.262 122.897 107.817 122.132 108.419 121.456C109.13 120.663 109.779 119.963 110.565 119.513C111.459 119.001 112.377 118.705 113.328 118.639C114.278 118.574 115.328 118.499 116.283 118.893C117.121 119.236 117.907 119.912 118.712 120.616C119.389 121.212 119.987 122 120.618 122.855C121.173 123.611 121.808 124.348 122.269 125.202C122.731 126.056 122.971 126.967 123.328 127.868C123.686 128.769 124.025 129.633 124.298 130.558C124.571 131.483 124.924 132.365 125.126 133.304C125.328 134.243 125.493 135.182 125.639 136.125C125.785 137.069 125.653 138.05 125.742 138.993C125.832 139.937 126.015 140.894 126.062 141.833C126.11 142.772 126.317 143.758 126.326 144.687C126.331 145.668 125.921 146.612 125.888 147.532C125.799 148.907 126.133 148.931 126.03 150.306C125.926 151.681 125.14 151.771 125.691 153.038C126.298 154.442 127.319 153.601 128.688 153.08H128.679ZM121.719 138.134C121.898 137.961 121.418 136.444 121.135 135.125C120.881 133.928 120.73 132.698 120.622 132.332C120.425 131.638 119.982 130.797 119.601 129.826C119.286 129.023 119.201 128.051 118.777 127.225C118.354 126.399 117.653 125.756 117.14 125.056C116.547 124.254 116.123 123.371 115.427 122.953C114.613 122.465 113.709 122.456 112.791 122.831C112.123 123.104 111.309 123.526 110.598 124.423C110.034 125.136 109.412 125.901 108.993 126.756C108.575 127.61 108.579 128.591 108.288 129.492C107.996 130.394 107.695 131.253 107.497 132.163C107.299 133.074 107.144 134.008 107.003 134.909C106.852 135.862 106.645 136.937 106.532 137.82C107.972 138.275 108.09 137.853 109.601 137.876C111.111 137.9 111.116 137.637 112.627 137.66C114.137 137.684 114.137 137.961 115.648 137.984C117.159 138.007 117.154 137.853 118.664 137.989C120.175 138.125 120.203 138.205 121.714 138.139L121.719 138.134ZM121.931 153.268C122.133 153.141 121.94 151.799 122.001 150.377C122.039 149.56 122.213 148.64 122.227 147.706C122.241 146.771 122.081 145.851 122.081 145.025C122.081 143.753 122.382 142.711 122.392 142.331C122.335 142.105 122.185 142.237 122.001 142.096C121.545 142.012 121.215 141.598 120.754 141.547C119.869 141.448 118.905 141.533 117.902 141.481C116.994 141.434 116.043 141.228 115.06 141.214C114.137 141.204 113.177 141.073 112.203 141.092C111.229 141.11 110.325 141.5 109.361 141.542C108.396 141.584 107.464 141.561 106.509 141.627C105.553 141.692 104.612 141.782 103.666 141.866C102.72 141.951 101.746 141.847 100.805 141.951C99.8636 142.054 98.8942 142.166 97.9671 142.289C97.04 142.411 96.094 142.81 95.1811 142.955C94.2069 143.11 93.2186 143.002 92.3198 143.176C91.3315 143.368 90.3997 143.603 89.5337 143.814C88.9972 143.946 87.9572 144.579 86.7007 144.988C85.7453 145.297 84.6112 145.368 83.7311 145.776C82.4793 146.358 81.4769 147.156 81.4204 147.809C81.971 148.888 83.5946 149.597 84.6723 150.034C85.4724 150.358 86.3995 150.522 87.3266 150.794C88.169 151.043 89.0772 151.184 90.0091 151.395C90.8797 151.592 91.7597 151.85 92.6915 152.01C93.6233 152.17 94.5128 152.09 95.4399 152.217C96.367 152.343 97.2235 152.606 98.1459 152.705C99.0683 152.803 99.9625 152.925 100.88 153.001C101.798 153.076 102.716 153.033 103.633 153.085C104.551 153.137 105.454 153.569 106.367 153.606C107.28 153.644 108.226 153.362 109.13 153.381C110.034 153.4 110.984 153.381 111.883 153.381C112.782 153.381 113.747 153.648 114.641 153.634C115.596 153.615 116.519 153.597 117.399 153.559C118.368 153.522 119.295 153.475 120.152 153.418C120.73 153.381 121.338 153.287 121.921 153.259L121.931 153.268ZM132.086 152.724C133.084 152.616 134.331 152.165 135.371 152.043C136.411 151.921 137.423 151.949 138.444 151.789C139.465 151.63 140.44 151.297 141.437 151.071C142.435 150.846 143.527 150.869 144.482 150.546C145.127 150.325 145.809 149.799 146.51 149.466C147.362 149.062 148.261 148.785 148.365 148.208C148.459 147.71 147.979 147.18 146.892 146.546C146.087 146.077 145.259 145.499 144.299 145.143C143.404 144.809 142.482 144.382 141.513 144.129C140.543 143.875 139.517 144.011 138.552 143.828C137.588 143.645 136.609 143.406 135.663 143.265C134.642 143.115 133.7 142.988 132.783 142.88C132.293 143.997 132.538 144.077 132.482 145.297C132.425 146.518 132.42 146.518 132.369 147.738C132.317 148.959 132.797 149.02 132.519 150.212C132.223 151.494 131.639 151.588 132.077 152.728L132.086 152.724ZM146.463 154.301C145.612 154.578 144.647 155.273 143.781 155.498C142.915 155.723 141.997 155.779 141.122 155.958C140.247 156.136 139.385 156.455 138.505 156.596C137.625 156.737 136.689 156.559 135.799 156.667C134.91 156.775 134.049 157.145 133.159 157.23C132.27 157.314 131.352 157.066 130.458 157.127C129.564 157.188 128.684 157.394 127.79 157.441C126.895 157.488 125.997 157.343 125.102 157.38C124.208 157.418 123.309 157.314 122.415 157.347C121.455 157.38 120.509 157.77 119.549 157.798C118.589 157.826 117.629 157.774 116.664 157.789C115.7 157.803 114.744 157.835 113.784 157.84C112.824 157.845 111.864 157.648 110.904 157.638C109.944 157.629 108.984 157.605 108.024 157.582C107.064 157.559 106.095 157.779 105.134 157.737C104.174 157.695 103.233 157.357 102.273 157.296C101.313 157.235 100.358 157.188 99.4024 157.103C98.4471 157.019 97.4541 157.263 96.4988 157.145C95.5434 157.028 94.6352 156.582 93.6845 156.441C92.7339 156.301 91.788 156.169 90.842 156C89.7173 155.798 88.6396 155.512 87.5619 155.23C86.4842 154.949 85.3406 154.798 84.2441 154.587C84.0653 154.554 83.8911 154.381 83.9005 154.587C84.1594 155.85 84.0935 155.864 84.3664 157.122C84.6394 158.38 84.1264 158.563 85.0535 159.464C85.9806 160.366 86.1501 159.779 87.416 160.009C88.6819 160.239 88.6725 160.281 89.9385 160.511C91.2044 160.741 91.2232 160.638 92.4892 160.868C93.7551 161.098 93.6892 161.436 94.9458 161.708C95.7129 161.966 96.3152 162.455 96.3905 163.187C96.4658 163.919 96.127 164.797 95.3693 165.182C94.7199 165.51 93.5057 165.219 92.1645 165.027C91.1479 164.881 90.0561 164.647 89.0255 164.412C87.7595 164.121 86.5642 163.821 85.8489 163.689C85.6606 163.9 86.2112 166.914 86.3007 167.435C86.4371 168.21 86.6018 169.242 86.8089 170.369C86.9783 171.303 87.4254 172.246 87.6654 173.228C87.9054 174.209 88.056 175.237 88.3996 176.096C88.8325 177.175 89.2796 178.105 89.9102 178.621C90.5408 179.137 91.4397 179.513 92.3527 179.945C93.1433 180.32 93.9528 180.799 94.8846 181.104C95.7364 181.381 96.6494 181.588 97.5859 181.808C98.4706 182.02 99.4071 182.081 100.344 182.25C101.28 182.419 102.17 182.559 103.097 182.682C104.024 182.804 104.923 183.16 105.845 183.25C106.767 183.339 107.728 183.306 108.641 183.372C109.553 183.437 110.542 183.306 111.441 183.343C112.42 183.386 113.351 183.808 114.227 183.818C115.253 183.832 116.194 183.475 117.017 183.461C117.794 183.447 118.777 183.541 119.883 183.48C120.763 183.433 121.738 183.48 122.754 183.4C123.672 183.329 124.618 183.09 125.597 182.987C126.575 182.883 127.517 182.935 128.467 182.799C129.418 182.663 130.307 182.132 131.23 181.949C132.204 181.757 133.253 182.015 134.133 181.776C135.126 181.503 136.077 181.203 136.882 180.856C137.894 180.419 138.769 179.837 139.348 179.274C139.814 178.823 140.134 177.898 140.534 176.941C140.844 176.204 141.061 175.345 141.329 174.495C141.597 173.645 141.917 172.838 142.124 172.049C142.383 171.078 142.562 170.195 142.736 169.552C142.962 168.721 143.146 167.881 143.353 167.05C143.56 166.219 143.527 165.327 143.724 164.492C143.922 163.656 144.407 162.886 144.6 162.051C144.793 161.215 145.019 160.384 145.207 159.544C145.395 158.704 145.405 157.826 145.598 156.991C145.79 156.155 146.256 155.141 146.459 154.306L146.463 154.301Z" fill="#212121"/>
<path d="M76.6484 35.9101C77.6414 35.7083 78.4885 35.9993 79.1003 36.6142C79.712 37.2292 80.2062 38.107 80.1779 39.0505C80.1591 39.764 79.5144 40.4306 79.6838 41.0267C79.8109 41.4774 80.6062 41.9702 81.2321 42.6744C81.7498 43.2517 82.3428 43.9559 82.4839 44.66C82.6769 45.6035 82.2675 46.4672 82.1357 47.2324C81.9804 48.1383 81.651 48.8143 81.1474 49.4715C80.6438 50.1286 80.0415 50.6638 79.2603 51.0722C78.5214 51.4618 77.7402 51.6777 76.8649 51.8279C75.9895 51.9781 75.1848 52.3584 74.3142 52.2833C73.4435 52.2081 72.6905 51.6871 71.8764 51.4008C70.714 50.9877 70.1822 50.3164 70.2575 49.509C70.3375 48.6359 71.0528 47.9459 72.2105 47.9459C72.7517 47.9459 73.7071 47.8895 74.7142 48.0069C75.5613 48.1102 76.4084 48.143 77.1613 48.021C78.0696 47.8708 78.8555 47.6361 79.0014 46.6972C79.1708 45.6176 78.1779 45.1153 77.2366 44.491C76.2954 43.8667 75.1848 43.2846 74.7189 42.604C74.2812 41.9609 74.3847 40.9188 74.3565 39.9987C74.3283 39.1256 74.3471 38.2196 74.7048 37.478C75.1001 36.6659 75.7542 36.0932 76.6343 35.9148L76.6484 35.9101Z" fill="#212121"/>
<path d="M62.6949 52.349C63.6502 52.2128 65.3962 52.2128 66.3515 52.3302C67.0669 52.4194 68.1351 52.6729 69.1422 53.208C70.0317 53.6821 70.7235 54.4519 71.3023 55.142C71.9847 55.9634 72.4883 56.8225 71.9565 57.7707C71.3212 58.8973 70.2952 58.5734 69.2881 58.0382C68.281 57.5031 67.368 56.6347 66.6951 56.4047C65.5091 56.0057 63.9279 56.0526 62.7372 56.3953C62.0737 56.5878 61.3489 57.1886 60.6195 57.4468C59.89 57.705 59.1465 57.7942 58.5676 56.9164C58.0358 56.1137 58.177 55.3203 58.6241 54.6491C59.0288 54.0435 59.7065 53.5131 60.4407 53.1094C61.2219 52.6775 62.069 52.4381 62.6949 52.349Z" fill="#212121"/>
<path d="M67.2267 34.5582C68.2385 34.6052 68.8456 35.2623 69.255 35.9805C69.6644 36.6987 69.6597 37.5061 69.5938 38.4074C69.528 39.3087 69.4385 40.1255 69.0526 40.839C68.5961 41.6839 67.9561 42.1252 67.1749 42.2519C65.876 42.4631 65.1278 42.1862 64.5348 41.5384C63.8901 40.8296 63.41 39.8954 63.4853 38.8111C63.5559 37.7972 64.1159 36.8583 64.7136 36.0791C65.3113 35.2999 66.1255 34.5019 67.2267 34.5535V34.5582Z" fill="#212121"/>
<path d="M68.9771 25.9492C69.8336 25.813 70.7136 25.461 71.2925 25.7943C71.8713 26.1275 72.2478 26.949 72.0031 28.0146C71.8572 28.6436 71.0148 29.0567 70.2054 29.3571C69.4477 29.6388 68.5065 29.5871 67.9888 29.8218C67.377 30.0988 66.3323 31.1174 65.2781 31.4976C64.2239 31.8779 63.3815 31.7981 63.1839 30.2678C63.085 29.5073 63.278 28.6201 64.0874 27.9207C64.7228 27.3668 65.664 27.0382 66.4593 26.6392C67.4194 26.1557 68.3841 26.0477 68.9865 25.9539L68.9771 25.9492Z" fill="#212121"/>
<path d="M81.7968 32.9997C81.0956 33.5771 80.2862 33.2204 79.3449 32.5914C78.6061 32.0985 77.8484 31.4976 77.3354 30.6996C76.7566 29.789 76.6107 28.9065 76.7895 28.1366C77.0672 26.9208 77.4484 26.9631 78.3049 27.3433C78.9637 27.6344 79.7026 28.0944 80.3473 28.7187C81.1097 29.4557 81.8486 30.1457 82.1168 30.5259C82.6627 31.3005 82.5121 32.413 81.7968 33.0044V32.9997Z" fill="#212121"/>
<path d="M126.872 167.435C126.02 166.66 126.288 164.318 127.474 163.839C128.829 163.544 128.843 163.609 130.218 163.417C131.592 163.224 131.578 163.126 132.952 162.938C134.326 162.75 134.35 162.9 135.724 162.713C137.098 162.525 137.098 162.52 138.477 162.361C139.978 162.257 140.863 163.473 140.543 164.891C140.284 166.055 139.517 166.116 138.538 166.384C137.964 166.538 137.084 166.989 135.997 167.186C135.183 167.336 134.241 167.266 133.343 167.397C132.444 167.529 131.526 167.618 130.712 167.698C129.582 167.806 128.636 167.811 128.081 167.731C127.789 167.688 127.083 167.632 126.872 167.44V167.435Z" fill="#212121"/>
<path d="M92.0325 171.049C92.6349 170.913 94.0044 171.317 95.388 171.575C96.6728 171.819 98.0046 171.937 98.7246 172.045C99.2752 172.129 100.165 172.082 101.073 172.176C101.892 172.261 102.725 172.538 103.341 172.861C104.047 173.228 104.603 173.875 104.41 174.856C104.217 175.837 103.525 176.452 102.725 176.65C102.014 176.823 101.125 176.42 100.287 176.312C99.4023 176.199 98.5317 176.124 97.8916 176.03C97.2516 175.936 95.9104 175.65 94.588 175.377C93.1902 175.086 91.6608 175.007 91.2419 174.608C90.296 173.72 90.6725 171.355 92.0325 171.049Z" fill="#212121"/>
<path d="M105.614 164.248C106.442 164.398 107.327 164.37 108.24 164.403C109.153 164.435 109.995 164.45 110.885 164.45C111.774 164.45 112.664 164.464 113.52 164.501C114.438 164.543 115.36 164.384 116.179 164.562C117.059 164.75 117.535 166.046 117.285 167.045C117.092 167.806 116.443 168.303 115.12 168.44C114.424 168.51 113.379 168.848 112.316 168.792C111.252 168.735 110.221 168.702 109.501 168.641C108.941 168.594 108.221 168.097 107.468 168.026C106.715 167.956 105.878 168.252 105.355 168.13C104.405 167.909 103.873 166.829 103.906 165.942C103.939 165.097 104.513 164.426 105.614 164.252V164.248Z" fill="#212121"/>
</g>
<defs>
<clipPath id="clip0_4347_9505">
<rect width="153" height="188" fill="white"/>
</clipPath>
</defs>
</svg>
